<svg xmlns="http://www.w3.org/2000/svg" xmlns:xlink="http://www.w3.org/1999/xlink" viewBox="0 0 250.84 250.84"><defs><style>.cls-1{fill:#fefefe;}.cls-2{fill:#f6f7f7;}.cls-3{fill:#f16b32;}.cls-4{fill:#f2f2f2;}.cls-5{fill:#f0652e;}.cls-6{fill:#f16d35;}.cls-7{fill:#b94a26;}.cls-8{fill:#eb845b;}.cls-9{fill:#a27464;}.cls-10{fill:#e9c2b0;}.cls-11{fill:#efe4dc;}.cls-12{fill:#f06732;}.cls-13{fill:#d05027;}.cls-14{fill:#c34c27;}.cls-15{fill:#d4a794;}.cls-16{fill:#5c3b2c;}.cls-17{fill:#3f3b3c;}.cls-18{font-size:15.72px;stroke:#231f20;stroke-miterlimit:10;}.cls-18,.cls-21{fill:#231f20;font-family:Astloch-Regular, Astloch;}.cls-19{letter-spacing:-0.01em;}.cls-20{letter-spacing:-0.01em;}.cls-21{font-size:14px;}.cls-22{letter-spacing:-0.03em;}</style></defs><title>Asset 27</title><g id="Layer_2" data-name="Layer 2"><g id="Layer_1-2" data-name="Layer 1"><path class="cls-1" d="M126,251.29q-61.28,0-122.54.07c-2.41,0-2.88-.48-2.88-2.89Q.71,125.94.59,3.4C.59,1,1.06.52,3.47.52Q126,.64,248.54.52c2.41,0,2.89.47,2.89,2.88q-.12,122.54,0,245.07c0,2.41-.47,2.89-2.89,2.89Q187.28,251.21,126,251.29ZM147.81,226c3.73.76,7.43,1.71,11.3,1.24,4.61.71,9.29.5,13.95,1.16s9.48.23,14.23.28c2.65.39,5-.84,7.36-1.59,4.34-1.36,8.67-3.62,12.9-4.3,7-1.14,13.86-3.48,21-3.9,1.93-.12,2.46-1.1,2.45-3-.07-15.11,0-30.21-.07-45.32,0-3.1-1.73-4.87-4.83-5.26a1.3,1.3,0,0,1-.17-1.93c0-.73,0-1.47,0-2.21l0-14.81c0-39.88-.05-79.76.1-119.63,0-3.73-1.14-4.42-4.56-4.43-4.39,0-8.78,1.12-13.19.14-1.1-.24-2,.47-2.89,1a9.13,9.13,0,0,1-9.07.23,10.83,10.83,0,0,0-5.31-1.27q-77.24,0-154.47-.06c-3.32,0-4.35.79-4.34,4.24.12,37.53.17,75.06-.05,112.59,0,4.41,1.16,7.83,4.66,9.77,5.06,2.8,5.63,7.29,6,12.13l-6.81.13c-1,0-2.15-.25-2.31,1.28.64.88,1.7,1.55,1.39,2.89-2.59.48-5.4-.2-7.8,1.39-3.85.06-5.11,2.74-5.58,5.86-1.17,7.88-.5,15.82-.44,23.74v6.33c0,4.09.06,8.19-.16,12.27-.14,2.45.95,3,3.08,3,3.63,0,7.25.17,10.88.27.38.2.77.59,1.16.58,6.21-.13,12.33.85,18.5,1.27Q74,221.4,93.18,222.73c14.44,1,28.88,2.4,43.38,2.54C140.23,226.68,144.07,225.58,147.81,226Z" transform="translate(-0.59 -0.52)"/><path class="cls-2" d="M42.9,161.07c-.39-4.84-1-9.33-6-12.13-3.5-1.94-4.69-5.36-4.66-9.77.22-37.53.17-75.06.05-112.59,0-3.45,1-4.24,4.34-4.24q77.23.16,154.47.06a10.83,10.83,0,0,1,5.31,1.27,9.13,9.13,0,0,0,9.07-.23c.93-.53,1.79-1.24,2.89-1,4.41,1,8.8-.15,13.19-.14,3.42,0,4.58.7,4.56,4.43C226,66.6,226,106.48,226,146.36a10.09,10.09,0,0,0-2.42.24c-2.56.88-3.66.53-2.63-2.48.55-1.6-.26-2.82-1.58-3.93a14.48,14.48,0,0,0-8.21-3.41c-2.49-.22-3.74.67-3.1,3.1.57,2.19-.45,3-2.16,3.67a21.8,21.8,0,0,0-4.17,1.78c-1.1.69-2.17.29-3-.8-2.51-3.13-3.58-3.07-5.86.23-.29.41-.52.8-1,.72-.82-.11-.78-.68-.59-1.3.29-.9.66-2-.38-2.5a3.05,3.05,0,0,0-3.28.53c-1.47,1.09-7.58.47-8.29-1.11-.87-1.93-2.2-1.91-3.69-1.76-3,.31-6,.81-9,1.14-3.85.41-6.57,3.7-10.51,4-1.42.12-2.89.86-3.83-.53-2.36-3.49-7,.41-9.28-2.95a5.29,5.29,0,0,0-.79.6c-2.22,2.51-5.67,2.65-8.33,4.32a1.48,1.48,0,0,1-2.45-1c-.46-1.89-1.76-2.13-3.36-2.32-.87-.1-2.25-.61-2.39-1.18-.89-3.5-3.56-2.29-5.4-1.88a9.22,9.22,0,0,1-7.86-1.59c-.59-.43-1.16-.89-1.9-.64-5.11,1.67-10.72-.56-15.7,2-3.32,1.71-7.64,1.92-9.13,6.43-.65,1.95-3.12,1.63-4.42-.44-2.45-3.91-4.72-4.44-9.25-3.08-2.27.68-4.1,2.14-6.39,2.69-3.06.74-3.7,2.19-2.47,5.1,1.41,3.34.92,4.8-2.61,5.23-3.05.37-4.24,2.33-5.61,4.44-1.24.29-3-.79-3.56,1.32Z" transform="translate(-0.59 -0.52)"/><path class="cls-3" d="M21.35,202.69v-6.33c1.62-.49,1.09-1.85,1.12-2.91.1-3.35-.29-6.72.7-10,.21-.72-.34-1.76.64-2.15s1.2.46,1.5,1.07c.39.8.92,1.51.14,2.52-2.57,3.34-2.29,4.66,1.26,7.26l0,1.43v2.79c-.81.25-2.1-.55-2.54,1.23l3.24.17c1.16,2.14,2.32,1.36,3.48,0,3.1,1.35,5.78,3.53,6.84,6.57,1,2.76,2.37,3.48,4.86,3.3,2.08-.15,3.89-.1,4.68,2.51.43,1.46,1.94,1.51,2.55.05,1.13-2.7,1.92-1.32,3.05-.06,1.53,1.7,3.43,1.06,4-.56.84-2.39,3.19-3.77,3.66-6.26.29-1.52,1.41-1.45,2.43-1.2,1.4.33,1.07,1.29.49,2.16-.49.71-1,1.37-.13,2.14s1.49.35,2.3.11a2.61,2.61,0,0,0,2-2.44c.8-4.19-2.56-8.52.53-12.65.42-.54-.16-1.62-1.14-1.84a.89.89,0,0,0-1.15,1c.07,1-.13,1.62-1.29,1.51a1.26,1.26,0,0,1-1.22-1.42c0-.84,0-1.86,1-1.91,2.25-.11,2.43-1.89,3-3.37a25.52,25.52,0,0,0,.47-15.77H78.56a1.46,1.46,0,0,0,1.67-1.4h5.66l14.78.06c-1.37,1.74-3.4,3.07-3.53,5.6.33,2.16-1.06,5.18,2.78,5.6,1.83-.5,2.32,3,4.82,1.3,6.69-4.61,11.79-4.3,18.72.72.76.55,1.31.91,1.82-.34,1.83-4.45,6.93-3.34,10-5.71.46-.36,1.18.22,1.19.88.06,2.42,2.49,3.93,2.35,6.49a2.08,2.08,0,0,0,2.14,2.29c1.95,0,2,1,1.49,2.54a12.78,12.78,0,0,0-.26,3.12c-3.8.61-6.67,3.09-9.84,5l-.7,2.07a1.56,1.56,0,0,0-.78,1.39c-3.57-.64-4.56,1.92-4.63,4.45,0,2.1.88,4.39,3.94,4l.75,0c-.31,3,.54,6.08-1.15,9.12-1.38,2.48.73,4.22,3.93,3.55l.08,1.32c.36,2.11,1.48,1.74,2.75.84a6.29,6.29,0,0,1,3.52-.83c1.14,2.3,2.32,2.35,3.54.06L145,221c0,2.26.93,2.84,2.83,1.43l1.41-.7v2.82a1.48,1.48,0,0,0-1.42.7,18.92,18.92,0,0,0-11.27,0c-14.5-.14-28.94-1.55-43.38-2.54q-19.19-1.3-38.37-2.64c-6.17-.42-12.29-1.4-18.5-1.27-.39,0-.78-.38-1.16-.58-.44-.68-1.14-.67-1.84-.76-2.51-.35-6.64.82-5.71-3.65.75-3.62-5.32-2.78-3.3-6.4.05-.09.11-.25.07-.33C23.53,205.52,24.1,203,21.35,202.69Zm11.36,5.17c1.85.61,2.2-.76,2.32-1.84.18-1.73-1-3.62-2.33-3.56A4.31,4.31,0,0,0,29,206.11C28.83,208.79,31.66,206.94,32.71,207.86Zm59.39-7.21c-1.19.12-1.93.63-1.85,1.53.16,1.95,1.69,3,3.22,3.74.81.39,1.46-.61,1.47-1.49C95,202.34,92.85,202,92.1,200.65Zm9.39,17.46c.87-.05,1.37-.52,1.12-1.32a3.85,3.85,0,0,0-3.34-2.57,1,1,0,0,0-1.16,1.31C98.6,217.13,100.08,217.61,101.49,218.11Zm18.13-27.44c1,0,1.46-.59,1.39-1.56s-.44-1.72-1.44-1.61a1.81,1.81,0,0,0-1.72,1.87C117.89,190.37,118.74,190.62,119.62,190.67Zm-24.16,1c-.14-1-.9-.91-1.58-.89s-1.55,0-1.36,1c.12.65.36,1.5,1.24,1.44S95.13,192.46,95.46,191.64Z" transform="translate(-0.59 -0.52)"/><path class="cls-4" d="M54.88,159.74c1.37-2.11,2.56-4.07,5.61-4.44,3.53-.43,4-1.89,2.61-5.23-1.23-2.91-.59-4.36,2.47-5.1,2.29-.55,4.12-2,6.39-2.69,4.53-1.36,6.8-.83,9.25,3.08,1.3,2.07,3.77,2.39,4.42.44,1.49-4.51,5.81-4.72,9.13-6.43,5-2.57,10.59-.34,15.7-2,.74-.25,1.31.21,1.9.64a9.22,9.22,0,0,0,7.86,1.59c1.84-.41,4.51-1.62,5.4,1.88.14.57,1.52,1.08,2.39,1.18,1.6.19,2.9.43,3.36,2.32a1.48,1.48,0,0,0,2.45,1c2.66-1.67,6.11-1.81,8.33-4.32a5.29,5.29,0,0,1,.79-.6c2.32,3.36,6.92-.54,9.28,2.95.94,1.39,2.41.65,3.83.53,3.94-.32,6.66-3.61,10.51-4,3-.33,6-.83,9-1.14,1.49-.15,2.82-.17,3.69,1.76.71,1.58,6.82,2.2,8.29,1.11a3.05,3.05,0,0,1,3.28-.53c1,.52.67,1.6.38,2.5-.19.62-.23,1.19.59,1.3.52.08.75-.31,1-.72,2.28-3.3,3.35-3.36,5.86-.23.88,1.09,1.95,1.49,3,.8a21.8,21.8,0,0,1,4.17-1.78c1.71-.63,2.73-1.48,2.16-3.67-.64-2.43.61-3.32,3.1-3.1a14.48,14.48,0,0,1,8.21,3.41c1.32,1.11,2.13,2.33,1.58,3.93-1,3,.07,3.36,2.63,2.48a10.09,10.09,0,0,1,2.42-.24q0,7.41,0,14.81c-4.3.05-8.36-2.1-12.74-1.35H192.9c-4-1.52-7.52-5.52-12.34-1.82a3.55,3.55,0,0,1-3,.17c-7.88-3.51-15.34-2.1-22.65,1.64h-2.1a3,3,0,0,0-4.25,0H142.3a43.94,43.94,0,0,0-5.13,0c-1.42.14-3.3-1-4.15,1.2l-14,0c-2.19-2.31-4.63-1.33-7.06-.55l-3.53,0c-1.79-1.3-3.8-.42-5.7-.6l-7,0c-2.53-2.12-5.11.07-7.67,0C77,159.61,65.94,159.74,54.88,159.74ZM92.18,143c-.84-.06-1.29.32-1.25,1a1.67,1.67,0,0,0,1.86,1.64c.75,0,1.49-.19,1.34-1.13C94,143.36,92.91,143.24,92.18,143Zm128.6,6-.58-.25c-.09.19-.28.43-.22.57s.36.18.55.27C220.61,149.37,220.7,149.18,220.78,149Z" transform="translate(-0.59 -0.52)"/><path class="cls-5" d="M97.14,173.84c.13-2.53,2.16-3.86,3.53-5.6h5.61a3.22,3.22,0,0,0,5,0H114c.38,1.91,1.93,1.33,3.08,1.34,6.51,0,13,0,19.51,0H148.5c5.81-.28,11.61,1.26,17.43.1,1-.19,1.53.35,1.62,1.34-.93,2.21-2.53,4.48,1.1,5.93,1.22.49,1.07,1.64.62,2.73-.33.77-.54,1.69.24,2.25s1.71.13,2.6-.31c2-1,2.08-3.57,3.84-4.42,3.27-1.57,3-3.64,1.41-6.14,5.47-.09,7.67,2.12,7.81,7.74.18,7.54-.45,15.07-.09,22.62.37,7.82.09,15.67.08,23.5,0,1.82.22,3,2.08,1l.06.72v2c-4.75,0-9.57.38-14.23-.28s-9.34-.45-13.95-1.16c-1.94-2.61-4.73-.69-7-1.31-.73-2,2.25-1.87,2.11-3.56l.67-.64c1.28-.5,3.78,1.23,3.73-1.36,0-1.66.77-2.58,1.34-3.78.45-.92.85-2.07,2.25-1.79s1,1.58,1.16,2.55-.43,2.31.9,2.76c1,.32,2.3-.12,3.07.39,1.85,1.2-1.36,1.08-.7,2.08a1.15,1.15,0,0,0,.81.49c1.47-.07,2.6.69,3.88,1.25a4.34,4.34,0,0,0,4.07-.12c1.08-.77-.47-1.54-.62-2.39-.21-1.2.81-1.61,1.37-2.29,3.09-3.7,3.44-10.06.66-13.61a6.75,6.75,0,0,1-.8-2.25c-.95-2.75,1.56-6.82-3.09-8.18-.19-.06-.35-.63-.34-1a3.88,3.88,0,0,0-2.72-4.06,2.26,2.26,0,0,1-1.56-2.45c.19-2.42-1.21-3.12-3.3-2.89s-3.27-.53-3.07-2.92c.18-2.13-.93-3-3.06-2.55-.45.1-6.11,2.39-6.49,2.57a2.93,2.93,0,0,1-1,.09c-2-.18-3.88-.16-3.44,2.74,0,4.39.59,4.92,4.81,4.17.8-.15,1.57-.46,2.37-.56,2.65-.35,4.29.31,4.11,3.52-.2,3.62,0,7.27,0,10.9,0,4.49-.76,5.22-5.2,5-.33,0-.67-.29-1-.29-2.06,0-4.41-1.16-5.61,1.88-.49,1.22-1.56.28-2.33-.24-2.32-1.57-4.46-10.13-2.93-13.06a5.71,5.71,0,0,0,.16-5.64,12.78,12.78,0,0,1,.26-3.12c.51-1.56.46-2.52-1.49-2.54a2.08,2.08,0,0,1-2.14-2.29c.14-2.56-2.29-4.07-2.35-6.49,0-.66-.73-1.24-1.19-.88-3.08,2.37-8.18,1.26-10,5.71-.51,1.25-1.06.89-1.82.34-6.93-5-12-5.33-18.72-.72-2.5,1.73-3-1.8-4.82-1.3C101.35,174.3,101.17,173.93,97.14,173.84Zm43,.64c0,1.19,0,2.48,1.54,2.7s2.12-1.05,2.27-2.15c.22-1.61-1.57-1.9-2.49-2.31C140.17,172.15,140.18,173.57,140.11,174.48Zm35.08,11.16a1.58,1.58,0,0,0-1.35-1.8,1.52,1.52,0,0,0-1.92,1.5c-.08,1,.84,1.36,1.6,1.56C174.53,187.17,175,186.49,175.19,185.64Zm6.36,36.22c0-.8-.25-1.38-1.11-1.47-1-.11-1.92.21-2.14,1.33s.59,1.38,1.5,1.38S181.46,223,181.55,221.86Z" transform="translate(-0.59 -0.52)"/><path class="cls-6" d="M80.23,168.19a1.46,1.46,0,0,1-1.67,1.4H67.85a25.52,25.52,0,0,1-.47,15.77c-.55,1.48-.73,3.26-3,3.37-1.07.05-1.06,1.07-1,1.91a1.26,1.26,0,0,0,1.22,1.42c1.16.11,1.36-.49,1.29-1.51a.89.89,0,0,1,1.15-1c1,.22,1.56,1.3,1.14,1.84-3.09,4.13.27,8.46-.53,12.65a2.61,2.61,0,0,1-2,2.44c-.81.24-1.56.54-2.3-.11s-.36-1.43.13-2.14c.58-.87.91-1.83-.49-2.16-1-.25-2.14-.32-2.43,1.2-.47,2.49-2.82,3.87-3.66,6.26-.57,1.62-2.47,2.26-4,.56-1.13-1.26-1.92-2.64-3.05.06-.61,1.46-2.12,1.41-2.55-.05-.79-2.61-2.6-2.66-4.68-2.51-2.49.18-3.9-.54-4.86-3.3-1.06-3-3.74-5.22-6.84-6.57-.54-1.67-.62-3.63-2.79-4.22a1.26,1.26,0,0,0-1.4-1.4c-3.55-2.6-3.83-3.92-1.26-7.26.78-1,.25-1.72-.14-2.52-.3-.61-.67-1.4-1.5-1.07s-.43,1.43-.64,2.15c-1,3.29-.6,6.66-.7,10,0,1.06.5,2.42-1.12,2.91-.06-7.92-.73-15.86.44-23.74.47-3.12,1.73-5.8,5.58-5.86,16.53-.5,33,1.09,49.57.77C78.06,167.51,79.3,167.15,80.23,168.19ZM52.82,204.84c1.06,2.59,2.54.84,3.42.07,1-.91,1.4-2.29-.59-2.88C52.48,202.18,52.34,202.31,52.82,204.84Zm-7.16-12.26c.09-1.37-.52-1.84-1.65-1.84s-1.87.37-1.74,1.57c.11,1,.28,2.33,1.56,2.28C44.89,194.56,45.51,193.51,45.66,192.58Zm-20-16c.73-.11,1.57-.4,1.49-1.43s-.91-1.27-1.8-1.26A1.2,1.2,0,0,0,24,175.14C23.91,176.2,24.52,176.59,25.63,176.58Zm39-5.22c-.12-.88-.54-1.53-1.48-1.6-1.14-.09-1.23.77-1.23,1.6s.09,1.69,1.23,1.6C64.12,172.89,64.54,172.24,64.66,171.36Z" transform="translate(-0.59 -0.52)"/><path class="cls-7" d="M187.29,228.66c0-.67,0-1.33,0-2,1.62-.92,3.43-.26,5-.32.2-2.73-2.51-1.11-3.25-2.47.91-1.55,3.2.15,3.8-1.79.22-.74.18-1.82,1.38-1.53s.86,1.3.79,2c-.17,2.1.54,2.51,2.61,2.08a10.37,10.37,0,0,0,3.76-1.56c1.25,0,2.68.31,2.88-1.65.08-.86.85-1.39,1.49-.87,3.46,2.76,6.23-.38,9.71-1-2.39-.62-2.13-2.24-2.11-3.76s0-3,0-4.57c0-1.8-.26-4-2.32-4.11s-1.53,2.39-1.73,3.64c-.34,2-1,4-3,4.2-2.17.26-2.92-1.92-3.74-3.62s-.31-3.32.46-5c1.67-3.67,7.26-6.21,3.45-11.54-.08-.11.12-.43.2-.65,1.51-3.86,1.43-8,2.11-12a1.41,1.41,0,0,0-.41-1.56c-.73-.54-1.33-.17-1.8.44-.59.76-1.5,1.81-2.07.47a6.62,6.62,0,0,1,.1-5.44c.67-1.36,2.15-3,3.58-2.18,3.49,2,5.58.85,7.27-2.24,2.93.5,3.1-1.71,3.56-3.63a3.27,3.27,0,0,0,4-2.62l3.07-.15c3.1.39,4.82,2.16,4.83,5.26.05,15.11,0,30.21.07,45.32,0,1.88-.52,2.86-2.45,3-7.15.42-14,2.76-21,3.9-4.23.68-8.56,2.94-12.9,4.3C192.27,227.82,189.94,229.05,187.29,228.66Zm33-46.42c0-1.73,0-2.81-1.57-2.68a1.93,1.93,0,0,0-1.71,2.25c0,1.28.85,2.81,2.06,2.73S220.29,182.79,220.32,182.24Z" transform="translate(-0.59 -0.52)"/><path class="cls-8" d="M80.23,168.19c-.93-1-2.17-.68-3.29-.66-16.53.32-33-1.27-49.57-.77,2.4-1.59,5.21-.91,7.8-1.39l5.45-.06,2.28.06c2,0,4,.12,6,.12q44-.08,87.94-.16c21.57,0,43.14,0,64.72.07l2.62,0c3.16,1.27,6.53.19,9.74.86-.38,2-2,1.14-3.1,1.22-7.14.55-14.28,1-21.42,1.48-.56-.79-1.4-.72-2.21-.72H150.54c-1,0-1.89.12-2,1.36h-4.14c-.14-.7-.35-1.35-1.27-1.24-.71.09-.81.69-.93,1.24h-5.54c-.41-1.88-1.93-1.33-3.1-1.34-6.5,0-13,0-19.49,0h-2.8l-5,0h-5.61l-14.78-.06c-1-2-1.91-2-2.86,0Z" transform="translate(-0.59 -0.52)"/><path class="cls-9" d="M204.15,165.36l-2.63,0c-.92-1.36-2.32-.72-3.53-.84-3.57-.33-7.2.63-10.71-.58-1.06-1.08-2.43-.63-3.65-.64-11.18-.07-22.36-.07-33.54-.14-1.23,0-2.59.42-3.66-.64l9.07-.18,3.7,0,35.32.1c.8,0,1.69.14,2-.95h4.8c.19.27.38.78.58.79,5.51.2,11,.36,16.53.52l7.53.56a1.3,1.3,0,0,0,.17,1.93l-3.07.15C216.75,165.75,210.46,163.53,204.15,165.36Z" transform="translate(-0.59 -0.52)"/><path class="cls-6" d="M21.35,202.69c2.75.27,2.18,2.83,3,4.41,0,.08,0,.24-.07.33-2,3.62,4.05,2.78,3.3,6.4-.93,4.47,3.2,3.3,5.71,3.65.7.09,1.4.08,1.84.76-3.63-.1-7.25-.27-10.88-.27-2.13,0-3.22-.56-3.08-3C21.41,210.88,21.31,206.78,21.35,202.69Z" transform="translate(-0.59 -0.52)"/><path class="cls-10" d="M42.9,161.07h8.42c3.09,0,6.17,0,9.26.09,1.06,0,2.39-.43,2.83,1.17l-2,.31a3.75,3.75,0,0,0-2.36.7l-1.3-.07c-1-1.2-2.39-.65-3.6-.67-5.82-.06-11.64,0-17.46,0l-2.86-.08c.16-1.53,1.32-1.26,2.31-1.28Z" transform="translate(-0.59 -0.52)"/><path class="cls-11" d="M225.94,163.38l-7.53-.56c-.13-1.55-1.2-1.68-2.44-1.67-1.09,0-2.38.26-2.73-1.33,4.38-.75,8.44,1.4,12.74,1.35C226,161.91,226,162.65,225.94,163.38Z" transform="translate(-0.59 -0.52)"/><path class="cls-12" d="M136.56,225.27a18.92,18.92,0,0,1,11.27,0,4.52,4.52,0,0,0,.08.63l-.1.12C144.07,225.58,140.23,226.68,136.56,225.27Z" transform="translate(-0.59 -0.52)"/><path class="cls-12" d="M152.07,225.91c2.31.62,5.1-1.3,7,1.31-3.87.47-7.57-.48-11.3-1.24l.1-.12,2,0Z" transform="translate(-0.59 -0.52)"/><path class="cls-4" d="M33.78,162.48l2.86.08c.47,2.15,3.64.4,4,2.75l-5.45.06C35.48,164,34.42,163.36,33.78,162.48Z" transform="translate(-0.59 -0.52)"/><path class="cls-11" d="M63.41,162.32c-.44-1.6-1.77-1.15-2.83-1.17-3.09-.06-6.17-.06-9.26-.09.57-2.11,2.32-1,3.56-1.32,11.06,0,22.12-.13,33.17.09,2.56,0,5.14-2.14,7.67,0-.94,1.66-4.22-.79-4.28,2.43Z" transform="translate(-0.59 -0.52)"/><path class="cls-12" d="M142.2,190.73a5.71,5.71,0,0,1-.16,5.64c-1.53,2.93.61,11.49,2.93,13.06.77.52,1.84,1.46,2.33.24,1.2-3,3.55-1.89,5.61-1.88.33,0,.67.28,1,.29,4.44.21,5.19-.52,5.2-5,0-3.63-.16-7.28,0-10.9.18-3.21-1.46-3.87-4.11-3.52-.8.1-1.57.41-2.37.56-4.22.75-4.82.22-4.81-4.16a5.17,5.17,0,0,1,.83,1.06c.79,1.88,2.29,2.47,3.83,1.38,1.83-1.29-.3-1.93-.79-2.87a7.89,7.89,0,0,1-.43-2.32,2.93,2.93,0,0,0,1-.09c.38-.18,6-2.47,6.49-2.57,2.13-.47,3.24.42,3.06,2.55-.2,2.39.85,3.15,3.07,2.92s3.49.47,3.3,2.89a2.26,2.26,0,0,0,1.56,2.45,3.88,3.88,0,0,1,2.72,4.06c0,.32.15.89.34,1,4.65,1.36,2.14,5.43,3.09,8.18a6.75,6.75,0,0,0,.8,2.25c2.78,3.55,2.43,9.91-.66,13.61-.56.68-1.58,1.09-1.37,2.29.15.85,1.7,1.62.62,2.39a4.34,4.34,0,0,1-4.07.12c-1.28-.56-2.41-1.32-3.88-1.25a1.15,1.15,0,0,1-.81-.49c-.66-1,2.55-.88.7-2.08-.77-.51-2.11-.07-3.07-.39-1.33-.45-.76-1.78-.9-2.76s.35-2.25-1.16-2.55-1.8.87-2.25,1.79c-.57,1.2-1.37,2.12-1.34,3.78,0,2.59-2.45.86-3.73,1.36l.09-1.41c.73-.18,2.37.2,1.35-1.3s-.51-2.9-.72-4.34h0c.71-.11,1.82.3,1.83-.84a1.81,1.81,0,0,0-1.83-2l-.69,0c-.1-.72-.29-1.38-1.22-1.26-.72.09-.8.69-.89,1.25-1.17,1-.55,2.34-.68,3.53a9,9,0,0,1-5.86.22c-1.16,0-.66,1.14.92,1.2,1.38.06.59-.92.65-1.38.18-1.33-.3-2.25-1.87-2.12-.7.06-1.43.08.3,2.3,2.26,3.08-1.08,5,1.61,6.83-1.9,1.41-2.79.83-2.83-1.43.13-2.35.07-4.54-3.06-4.93-4.67-.57-7.38.79-8.23,4.25-3.2.67-5.31-1.07-3.93-3.55,1.69-3,.84-6.09,1.15-9.12,2.2.3,3.14-.64,2.8-2.84h0c2.45-1,3,.11,2.89,2.37-.06,1.86,1.25,3.4,3,3.07,2.11-.4.86-2.17.53-3.41a31.34,31.34,0,0,1-1.46-7.86c0-1.49-.49-2.51-2.16-2.58-1.39-.24-2.69-1-4.17-.69C135.53,193.82,138.4,191.34,142.2,190.73Zm23.22,11.13c-.21-.92-.27-2.3-1.46-2.33s-1.92,1.11-2,2.38.9,1.87,2,1.93S165.36,202.91,165.42,201.86Z" transform="translate(-0.59 -0.52)"/><path class="cls-7" d="M133.72,220.3c.85-3.46,3.56-4.82,8.23-4.25,3.13.39,3.19,2.58,3.06,4.93l-1.4.71c-1.2,1-2.33-2.3-3.54-.06a6.29,6.29,0,0,0-3.52.83l-2.75-.84Z" transform="translate(-0.59 -0.52)"/><path class="cls-13" d="M132.36,195.69c1.48-.29,2.78.45,4.17.69.87,3.4-.88,5.93-2.79,8.41h0c-2.16-.3-3.3.69-3.55,2.81-3.06.39-4-1.9-3.94-4,.07-2.53,1.06-5.09,4.63-4.45-.37,1.63-3.94,2.19-2,4.3,1.46,1.59,2.43-1.37,4-1.62,1.23-.19,1.62-1.59,1.5-2.78-.18-1.77-1.67-1.12-2.71-1.29Z" transform="translate(-0.59 -0.52)"/><path class="cls-5" d="M155.57,214.66c.21,1.44-.27,2.89.72,4.34s-.62,1.12-1.35,1.3c-.19-1.43-1.2-1.47-2.3-1.35-1.29.14-1.2,1.15-1.26,2.06-.78,0-1.62-.13-2.13.7l-1.41.7c-2.69-1.87.65-3.75,0-5.63l4.25-1.42A5.62,5.62,0,0,0,155.57,214.66Z" transform="translate(-0.59 -0.52)"/><path class="cls-6" d="M32.71,207.86c-1.05-.92-3.88.93-3.68-1.75a4.31,4.31,0,0,1,3.67-3.65c1.37-.06,2.51,1.83,2.33,3.56C34.91,207.1,34.56,208.47,32.71,207.86Z" transform="translate(-0.59 -0.52)"/><path class="cls-7" d="M131.66,197.76c1,.17,2.53-.48,2.71,1.29.12,1.19-.27,2.59-1.5,2.78-1.57.25-2.54,3.21-4,1.62-1.93-2.11,1.64-2.67,2-4.3A1.56,1.56,0,0,1,131.66,197.76Z" transform="translate(-0.59 -0.52)"/><path class="cls-13" d="M97.14,173.84c4,.09,4.21.46,2.78,5.6C96.08,179,97.47,176,97.14,173.84Z" transform="translate(-0.59 -0.52)"/><path class="cls-13" d="M92.1,200.65c.75,1.31,2.88,1.69,2.84,3.78,0,.88-.66,1.88-1.47,1.49-1.53-.73-3.06-1.79-3.22-3.74C90.17,201.28,90.91,200.77,92.1,200.65Z" transform="translate(-0.59 -0.52)"/><path class="cls-13" d="M28.11,193.54c2.17.59,2.25,2.55,2.79,4.22-1.16,1.36-2.32,2.14-3.48,0a1.43,1.43,0,0,0-.7-1.4c0-.93,0-1.86,0-2.79Z" transform="translate(-0.59 -0.52)"/><path class="cls-6" d="M149.25,221.71c.51-.83,1.35-.68,2.13-.7.55,1.26,1.61,1.43,2.8,1.34.14,1.69-2.84,1.53-2.11,3.56l-2.14,0a1.33,1.33,0,0,0-.68-1.35Z" transform="translate(-0.59 -0.52)"/><path class="cls-5" d="M101.49,218.11c-1.41-.5-2.89-1-3.38-2.58a1,1,0,0,1,1.16-1.31,3.85,3.85,0,0,1,3.34,2.57C102.86,217.59,102.36,218.06,101.49,218.11Z" transform="translate(-0.59 -0.52)"/><path class="cls-14" d="M119.62,190.67c-.88,0-1.73-.3-1.77-1.3a1.81,1.81,0,0,1,1.72-1.87c1-.11,1.38.72,1.44,1.61S120.67,190.68,119.62,190.67Z" transform="translate(-0.59 -0.52)"/><path class="cls-5" d="M130.19,207.6c.25-2.12,1.39-3.11,3.55-2.81.34,2.2-.6,3.14-2.8,2.84Z" transform="translate(-0.59 -0.52)"/><path class="cls-5" d="M95.46,191.64c-.33.82-.82,1.53-1.7,1.59s-1.12-.79-1.24-1.44c-.19-1.07.69-1,1.36-1S95.32,190.68,95.46,191.64Z" transform="translate(-0.59 -0.52)"/><path class="cls-12" d="M140.07,221.63c1.21-2.24,2.34,1.05,3.54.06C142.39,224,141.21,223.93,140.07,221.63Z" transform="translate(-0.59 -0.52)"/><path class="cls-12" d="M26.72,196.36a1.43,1.43,0,0,1,.7,1.4l-3.24-.17C24.62,195.81,25.91,196.61,26.72,196.36Z" transform="translate(-0.59 -0.52)"/><path class="cls-6" d="M83,168.18c1-2,1.9-2,2.86,0Z" transform="translate(-0.59 -0.52)"/><path class="cls-12" d="M133.8,221.62l2.75.84C135.28,223.36,134.16,223.73,133.8,221.62Z" transform="translate(-0.59 -0.52)"/><path class="cls-5" d="M149.25,224.53a1.33,1.33,0,0,1,.68,1.35l-2,0a4.52,4.52,0,0,1-.08-.63A1.48,1.48,0,0,1,149.25,224.53Z" transform="translate(-0.59 -0.52)"/><path class="cls-12" d="M28.11,193.54l-1.38,0c0-.48,0-1,0-1.43A1.26,1.26,0,0,1,28.11,193.54Z" transform="translate(-0.59 -0.52)"/><path class="cls-15" d="M59,163.33a3.75,3.75,0,0,1,2.36-.7c1,1,2.21.54,3.33.55,4.91.06,9.82,0,14.73,0h43.29c-2.15-1-3.91,0-4.64-1.65l.92-.6,14,0,5.63.25c.5.64,1,.63,1.47,0l2.08,0c1.1,1.42,3.16-.14,4.23,1.37,1.07,1.06,2.43.64,3.66.64,11.18.07,22.36.07,33.54.14,1.22,0,2.59-.44,3.65.64L61.2,164C60.41,164,59.53,164.21,59,163.33Z" transform="translate(-0.59 -0.52)"/><path class="cls-11" d="M154.88,159.8c7.31-3.74,14.77-5.15,22.65-1.64a3.55,3.55,0,0,0,3-.17c4.82-3.7,8.38.3,12.34,1.82-1.06,1.08-2.41.63-3.64.63-8.84,0-17.67,0-26.51,0-1.23,0-2.58-.44-3.65.62h-3.51Z" transform="translate(-0.59 -0.52)"/><path class="cls-10" d="M159.1,161.1c1.07-1.06,2.42-.62,3.65-.62,8.84,0,17.67,0,26.51,0,1.23,0,2.58.45,3.64-.63h3.45l.15,1.69c-.29,1.09-1.18.95-2,.95l-35.32-.1C159.17,161.94,159.13,161.52,159.1,161.1Z" transform="translate(-0.59 -0.52)"/><path class="cls-10" d="M213.24,159.82c.35,1.59,1.64,1.33,2.73,1.33,1.24,0,2.31.12,2.44,1.67-5.51-.16-11-.32-16.53-.52-.2,0-.39-.52-.58-.79l.15-1.7Z" transform="translate(-0.59 -0.52)"/><path class="cls-10" d="M154.88,159.8l.71,1.29-.09,1.29-9.07.18c-1.07-1.51-3.13.05-4.23-1.37l.1-1.37h6.23a3.41,3.41,0,0,0,4.25,0Z" transform="translate(-0.59 -0.52)"/><path class="cls-10" d="M91.44,162.24c.06-3.22,3.34-.77,4.28-2.43l7,0c0,.81.07,1.61.11,2.42A40.47,40.47,0,0,1,91.44,162.24Z" transform="translate(-0.59 -0.52)"/><path class="cls-11" d="M102.81,162.21c0-.81-.07-1.61-.11-2.42,1.9.18,3.91-.7,5.7.6,0,.6,0,1.21,0,1.81Z" transform="translate(-0.59 -0.52)"/><path class="cls-11" d="M142.3,159.82l-.1,1.37-2.08,0h-1.47L133,161c.85-2.2,2.73-1.06,4.15-1.2A43.94,43.94,0,0,1,142.3,159.82Z" transform="translate(-0.59 -0.52)"/><path class="cls-11" d="M119,161l-.92.6-6.07-.12-.07-1C114.36,159.63,116.8,158.65,119,161Z" transform="translate(-0.59 -0.52)"/><path class="cls-2" d="M92.18,143c.73.26,1.78.38,1.95,1.49.15.94-.59,1.14-1.34,1.13A1.67,1.67,0,0,1,90.93,144C90.89,143.3,91.34,142.92,92.18,143Z" transform="translate(-0.59 -0.52)"/><path class="cls-10" d="M111.93,160.41l.06,1c-.87,1.87-2.31,1-3.63.76,0-.6,0-1.21,0-1.81Z" transform="translate(-0.59 -0.52)"/><path class="cls-11" d="M201.45,159.81l-.15,1.7h-4.8l-.15-1.69Z" transform="translate(-0.59 -0.52)"/><path class="cls-11" d="M152.78,159.8a3.41,3.41,0,0,1-4.25,0A3,3,0,0,1,152.78,159.8Z" transform="translate(-0.59 -0.52)"/><path class="cls-2" d="M220.78,149c-.08.2-.17.39-.25.59-.19-.09-.5-.13-.55-.27s.13-.38.22-.57Z" transform="translate(-0.59 -0.52)"/><path class="cls-13" d="M189.37,168.92c7.14-.48,14.28-.93,21.42-1.48,1.09-.08,2.72.8,3.1-1.22,2-.2,3.37,1.35,5.12,1.86-.46,1.92-.63,4.13-3.56,3.63-.14-.88.38-2-.66-2.55s-1.77.35-2.37,1c-1.08,1.22-1.95,1.4-3.57.54-2.53-1.35-7.06.14-9.08,2.34-1.27,1.39-1.71.42-2-.86-.43-2.28-2.25-1.93-3.85-2,0,2-1.46,3.36-2.3,5-.58,1.13,1.07,1.58,1.75,2.32,3.07,3.32,2.63,6-1.38,7.57-1.14.44-1.24,1.29-1.56,2.11a9.63,9.63,0,0,0-.28,5.56c1.25,5.46-1.19,11.16,1.23,16.55.41.91-.1,2.29-.37,3.42a4.79,4.79,0,0,0,.16,3.42c.44.87-.16,2.47,1.31,2.55,1.31.07,1.49-1.3,1.79-2.28,1-3.4,3.49-6.35,3-10.25-.1-.89.54-2.38,1.7-2.38,1.36,0,1,1.46.86,2.24-1,5.83-.08,11.48,1.46,17.08a10.37,10.37,0,0,1-3.76,1.56c-2.07.43-2.78,0-2.61-2.08.07-.74.28-1.78-.79-2s-1.16.79-1.38,1.53c-.6,1.94-2.89.24-3.8,1.79.74,1.36,3.45-.26,3.25,2.47-1.54.06-3.35-.6-5,.32l-.06-.72c0-11.38-.13-22.76.24-34.14.21-6.26-.24-12.5-.43-18.73C187,170.62,187.33,169.62,189.37,168.92Z" transform="translate(-0.59 -0.52)"/><path class="cls-6" d="M189.37,168.92c-2,.7-2.39,1.7-2.32,4.15.19,6.23.64,12.47.43,18.73-.37,11.38-.19,22.76-.24,34.14-1.86,2-2.09.79-2.08-1,0-7.83.29-15.68-.08-23.5-.36-7.55.27-15.08.09-22.62-.14-5.62-2.34-7.83-7.81-7.74-1.86.64-3.71-1.42-5.57,0l-3.51,0-.73-.05c-.09-1-.65-1.53-1.62-1.34-5.82,1.16-11.62-.38-17.43-.1.15-1.24,1-1.36,2-1.36h36.62C188,168.2,188.81,168.13,189.37,168.92Z" transform="translate(-0.59 -0.52)"/><path class="cls-13" d="M171.79,171c1.86-1.39,3.71.67,5.57,0,1.55,2.5,1.86,4.57-1.41,6.14-1.76.85-1.87,3.47-3.84,4.42-.89.44-1.73.94-2.6.31s-.57-1.48-.24-2.25c.45-1.09.6-2.24-.62-2.73-3.63-1.45-2-3.72-1.1-5.93l.73.05a7.38,7.38,0,0,0,.12,2.06c.45,1.25.82,3,2.62,2.6,1.18-.28,3,.14,3.47-1.63s-1.74-1.47-2.34-2.48C172,171.41,171.91,171.22,171.79,171Z" transform="translate(-0.59 -0.52)"/><path class="cls-6" d="M114,168.24c6.49,0,13,0,19.49,0,1.17,0,2.69-.54,3.1,1.34-6.5,0-13,0-19.51,0C116,169.57,114.41,170.15,114,168.24Z" transform="translate(-0.59 -0.52)"/><path class="cls-14" d="M151.3,182.3a7.89,7.89,0,0,0,.43,2.32c.49.94,2.62,1.58.79,2.87-1.54,1.09-3,.5-3.83-1.38a5.17,5.17,0,0,0-.83-1.06C147.42,182.14,149.28,182.12,151.3,182.3Z" transform="translate(-0.59 -0.52)"/><path class="cls-13" d="M140.11,174.47c.07-.9.06-2.32,1.32-1.75.92.41,2.71.7,2.49,2.31-.15,1.1-.77,2.37-2.27,2.15S140.11,175.67,140.11,174.47Z" transform="translate(-0.59 -0.52)"/><path class="cls-7" d="M154.18,222.35c-1.19.09-2.25-.08-2.8-1.34.06-.91,0-1.92,1.26-2.06,1.1-.12,2.11-.08,2.3,1.35l-.09,1.41Z" transform="translate(-0.59 -0.52)"/><path class="cls-13" d="M175.19,185.64c-.2.85-.66,1.53-1.67,1.26-.76-.2-1.68-.53-1.6-1.56a1.52,1.52,0,0,1,1.92-1.5A1.58,1.58,0,0,1,175.19,185.64Z" transform="translate(-0.59 -0.52)"/><path class="cls-13" d="M181.55,221.86c-.09,1.12-.88,1.25-1.75,1.24s-1.72-.24-1.5-1.38,1.1-1.44,2.14-1.33C181.3,220.48,181.6,221.06,181.55,221.86Z" transform="translate(-0.59 -0.52)"/><path class="cls-6" d="M106.28,168.23l5,0A3.22,3.22,0,0,1,106.28,168.23Z" transform="translate(-0.59 -0.52)"/><path class="cls-6" d="M142.16,169.57c.12-.55.22-1.15.93-1.24.92-.11,1.13.54,1.27,1.24Z" transform="translate(-0.59 -0.52)"/><path class="cls-5" d="M45.66,192.58c-.15.93-.77,2-1.83,2-1.28,0-1.45-1.29-1.56-2.28-.13-1.2.66-1.57,1.74-1.57S45.75,191.21,45.66,192.58Z" transform="translate(-0.59 -0.52)"/><path class="cls-7" d="M55.65,202c2,.59,1.64,2,.59,2.88-.88.77-2.36,2.52-3.42-.08A9.33,9.33,0,0,0,55.65,202Z" transform="translate(-0.59 -0.52)"/><path class="cls-13" d="M25.63,176.58c-1.11,0-1.72-.38-1.67-1.44a1.2,1.2,0,0,1,1.36-1.25c.89,0,1.73.27,1.8,1.26S26.36,176.47,25.63,176.58Z" transform="translate(-0.59 -0.52)"/><path class="cls-5" d="M64.66,171.36c-.12.88-.54,1.53-1.48,1.6-1.14.09-1.24-.77-1.23-1.6s.09-1.69,1.23-1.6C64.12,169.83,64.54,170.48,64.66,171.36Z" transform="translate(-0.59 -0.52)"/><path class="cls-12" d="M55.65,202a9.33,9.33,0,0,1-2.83,2.8C52.34,202.31,52.48,202.18,55.65,202Z" transform="translate(-0.59 -0.52)"/><path class="cls-14" d="M201.36,223.11c-1.54-5.6-2.45-11.25-1.46-17.08.13-.78.5-2.23-.86-2.24-1.16,0-1.8,1.49-1.7,2.38.46,3.9-2,6.85-3,10.25-.3,1-.48,2.35-1.79,2.28-1.47-.08-.87-1.68-1.31-2.55a4.79,4.79,0,0,1-.16-3.42c.27-1.13.78-2.51.37-3.42-2.42-5.39,0-11.09-1.23-16.55a9.63,9.63,0,0,1,.28-5.56c.32-.82.42-1.67,1.56-2.11,4-1.53,4.45-4.25,1.38-7.57-.68-.74-2.33-1.19-1.75-2.32.84-1.64,2.31-3,2.3-5,1.6.08,3.42-.27,3.85,2,.25,1.28.69,2.25,2,.86,2-2.2,6.55-3.69,9.08-2.34,1.62.86,2.49.68,3.57-.54.6-.68,1.3-1.58,2.37-1s.52,1.67.66,2.55c-1.69,3.09-3.78,4.24-7.27,2.24-1.43-.82-2.91.82-3.58,2.18a6.62,6.62,0,0,0-.1,5.44c.57,1.34,1.48.29,2.07-.47.47-.61,1.07-1,1.8-.44a1.41,1.41,0,0,1,.41,1.56c-.68,4-.6,8.15-2.11,12-.08.22-.28.54-.2.65,3.81,5.33-1.78,7.87-3.45,11.54-.77,1.68-1.34,3.21-.46,5s1.57,3.88,3.74,3.62c2-.24,2.63-2.15,3-4.2.2-1.25-.21-3.72,1.73-3.64s2.28,2.31,2.32,4.11c0,1.53,0,3.05,0,4.57s-.28,3.14,2.11,3.76c-3.48.57-6.25,3.71-9.71,1-.64-.52-1.41,0-1.49.87C204,223.42,202.61,223.07,201.36,223.11ZM192.87,203c.3,1.27-.47,3.69,1.28,3.39,1.95-.34.34-3.06,1.23-4.56a1.16,1.16,0,0,0-1.1-1.73C192.11,200.14,193.25,202,192.87,203Z" transform="translate(-0.59 -0.52)"/><path class="cls-16" d="M219,168.08c-1.75-.51-3.12-2.06-5.12-1.86-3.21-.67-6.58.41-9.74-.86,6.31-1.83,12.6.39,18.89.1A3.27,3.27,0,0,1,219,168.08Z" transform="translate(-0.59 -0.52)"/><path class="cls-16" d="M220.32,182.24c0,.55,0,2.22-1.22,2.3s-2-1.45-2.06-2.73a1.93,1.93,0,0,1,1.71-2.25C220.29,179.43,220.36,180.51,220.32,182.24Z" transform="translate(-0.59 -0.52)"/><path class="cls-16" d="M59,163.33c.53.88,1.41.68,2.2.68l126.08,0c3.51,1.21,7.14.25,10.71.58,1.21.12,2.61-.52,3.53.84-21.57,0-43.14-.09-64.71-.07q-44,0-87.94.16c-2,0-4-.08-6-.12,3.79-1.6,7.79-.35,11.66-.84,1.12-.15,2.73.71,3.14-1.27Z" transform="translate(-0.59 -0.52)"/><path class="cls-9" d="M57.7,163.26c-.41,2-2,1.12-3.14,1.27-3.87.49-7.87-.76-11.66.84l-2.28-.06c-.34-2.35-3.51-.6-4-2.75,5.82,0,11.64,0,17.46,0C55.31,162.61,56.68,162.06,57.7,163.26Z" transform="translate(-0.59 -0.52)"/><path class="cls-15" d="M155.5,162.38l.09-1.29h3.51c0,.42.07.84.1,1.25Z" transform="translate(-0.59 -0.52)"/><path class="cls-9" d="M108.36,162.2c1.32.24,2.76,1.11,3.63-.76l6.08.12c.73,1.66,2.49.69,4.64,1.65H79.42c-4.91,0-9.82,0-14.73,0-1.12,0-2.36.42-3.33-.55l2-.31,28-.08a40.47,40.47,0,0,0,11.37,0Z" transform="translate(-0.59 -0.52)"/><path class="cls-5" d="M133.74,204.79c1.91-2.48,3.66-5,2.79-8.41,1.67.07,2.15,1.09,2.16,2.58a31.34,31.34,0,0,0,1.46,7.86c.33,1.24,1.58,3-.53,3.41-1.74.33-3.05-1.21-3-3.07C136.7,204.9,136.19,203.77,133.74,204.79Z" transform="translate(-0.59 -0.52)"/><path class="cls-5" d="M165.42,201.86c-.06,1-.3,2-1.48,2s-2-.61-2-1.93.73-2.41,2-2.38S165.21,200.94,165.42,201.86Z" transform="translate(-0.59 -0.52)"/><path class="cls-13" d="M155.57,214.66a5.62,5.62,0,0,1-3.48.7c.13-1.19-.49-2.53.68-3.53h2.11l.69,0v2.8Z" transform="translate(-0.59 -0.52)"/><path class="cls-5" d="M144.62,214.38c-.12-1,.61-1,1.31-1.1,1.57-.13,2,.79,1.87,2.12-.06.46.73,1.44-.65,1.38C145.57,216.72,145.07,215.61,144.62,214.38Z" transform="translate(-0.59 -0.52)"/><path class="cls-5" d="M155.57,214.66v-2.8a1.81,1.81,0,0,1,1.83,2C157.39,215,156.28,214.55,155.57,214.66Z" transform="translate(-0.59 -0.52)"/><path class="cls-5" d="M154.88,211.84h-2.11c.09-.56.17-1.16.89-1.25C154.59,210.46,154.78,211.12,154.88,211.84Z" transform="translate(-0.59 -0.52)"/><path class="cls-10" d="M138.65,161.23h1.47C139.64,161.86,139.15,161.87,138.65,161.23Z" transform="translate(-0.59 -0.52)"/><path class="cls-7" d="M171.79,171c.12.2.25.39.36.59.6,1,2.83.59,2.34,2.48s-2.29,1.35-3.47,1.63c-1.8.43-2.17-1.35-2.62-2.6a7.38,7.38,0,0,1-.12-2.06Z" transform="translate(-0.59 -0.52)"/><path class="cls-7" d="M192.87,203c.38-1-.76-2.84,1.41-2.9a1.16,1.16,0,0,1,1.1,1.73c-.89,1.5.72,4.22-1.23,4.56C192.4,206.67,193.17,204.25,192.87,203Z" transform="translate(-0.59 -0.52)"/><path class="cls-17" d="M213.75,153.73a2.22,2.22,0,0,0-.73-.08l-2.16-.08-8.2-.12-29.58-.16-92.27-.06-25.9,0h-17c-.07,0-.15,0-.12-.07v-8.25c0-16.85-.05-33.06-.08-47.7,0-29.3-.09-52.32-.11-61.62.09-1.47,0-3.6,0-3.6V31c.06-.28-.22-1,.46-.78h1.69l5.37.19a9.75,9.75,0,0,0,2.94-.19H213.82v50.2c0,3.3,0,6.45,0,9.45,0,.43,0,.83,0,1.22,0,.77-.07,1.46-.12,2.09a22.67,22.67,0,0,1-.46,3.14c-.8,3.64-2.3,5.07-4.08,11.91-2.66,10.22-.62,11.85-.62,11.85.38.5,1.48.87,2.06,1.25,1.27.83,2.75,1.9,2.91,3.18a2.48,2.48,0,0,1-1.24,2.22,8.56,8.56,0,0,1-1.44.79c3.34,3.51,6.54,1.48,6.54,1.48,1.06,1.77-.55,5.25-.55,5.25-3.7-2.29-5.08.78-6.73,2.22a4.51,4.51,0,0,1-3.85.84,5.51,5.51,0,0,0,5.91,2.09c-1.4,4.15,3.93,6.93,6.21,9.41s.85,4.53.85,4.53a3.48,3.48,0,0,0,1.65-5c-1.72-3.67-4.46-5.27-1.45-14.23a10,10,0,0,0-2.91-11.33c2.26-.81.74-2.26.16-3.45l0-.08a5.65,5.65,0,0,1-.34-1.08c-2.53-2.18-2.69-5.45-2.62-8.13.06-2.12.24-4.23.45-6.34.4-2.71.7-5.39.91-7.35.21-2.33.34-4.28.42-5.64,0-.35,0-.65.06-.92,0-1.88,0-3.48,0-4.78,0-3,0-4.56,0-4.56V28.54a.72.72,0,0,0-.21,0H35.92s0,0,0,0v2.13h0c0,4.47,0,25.76.09,55.17,0,14.35.07,30.68.11,47.93q0,6.59,0,13.32c0,1.33,0,2.66,0,4v3.74h.25l8,0,27.16-.08,98.12-.43,31.95-.28,8.92-.16,2.34-.08A2.79,2.79,0,0,0,213.75,153.73Z" transform="translate(-0.59 -0.52)"/><text class="cls-18" transform="translate(89.56 77.72)"><tspan class="cls-19">R</tspan><tspan x="13.19" y="0">oad </tspan><tspan class="cls-20" x="34.11" y="0">O</tspan><tspan x="46.69" y="0">pener </tspan></text><image width="124" height="123" transform="translate(114.97 29.28) scale(0.22 0.22)" xlink:href="../../../../Acolyte's%20Concoctions/Images/Logo/1x/logo-black.png"/><text class="cls-21" transform="translate(101.96 94.34)"><tspan class="cls-22">M</tspan><tspan x="14.97" y="0">ade with </tspan><tspan x="14.11" y="16.8" xml:space="preserve">herbs            </tspan><tspan x="23.15" y="33.6" xml:space="preserve">&amp;               </tspan><tspan x="-3.56" y="50.4">essential oils</tspan></text></g></g></svg>