<svg xmlns="http://www.w3.org/2000/svg" xmlns:xlink="http://www.w3.org/1999/xlink" viewBox="0 0 250.84 250.84"><defs><style>.cls-1{fill:#fefefe;}.cls-2{fill:#efeeee;}.cls-3{fill:#25262b;}.cls-4{fill:#f2f1f1;}.cls-5{fill:#696670;}.cls-6{fill:#5e5c66;}.cls-7{fill:#101012;}.cls-8{fill:#c7c5c5;}.cls-9{fill:#2d2e33;}.cls-10{fill:#1c1d21;}.cls-11{fill:#444449;}.cls-12{fill:#86848a;}.cls-13{fill:#75737e;}.cls-14{fill:#f4f4f3;}.cls-15{fill:#38383d;}.cls-16{fill:#313238;}.cls-17{font-size:14.79px;stroke:#231f20;stroke-miterlimit:10;}.cls-17,.cls-20{fill:#231f20;font-family:Astloch-Regular, Astloch;}.cls-18{letter-spacing:0em;}.cls-19{fill:#3f3b3c;}.cls-20{font-size:14px;}.cls-21{letter-spacing:-0.03em;}</style></defs><title>Asset 26</title><g id="Layer_2" data-name="Layer 2"><g id="Layer_1-2" data-name="Layer 1"><path class="cls-1" d="M251.08,126.29q0,61.1.07,122.18c0,2.41-.48,2.89-2.89,2.89q-122.53-.12-245.07,0c-2.41,0-2.89-.48-2.88-2.89Q.43,125.94.31,3.4C.3,1,.78.52,3.19.52q122.54.12,245.07,0c2.41,0,2.89.47,2.89,2.88Q251,64.84,251.08,126.29Zm-30.93,37.27c-1-.28-2.09-.23-2.78-1.19-.43-2.12-4.24-1-3.8-4,.47-.51.87-1.35,1.41-1.46,3.53-.71,3.05-3.32,3-5.84-.06-5.33,0-10.67,0-16q0-51.23.08-102.44c0-3.06-.74-4-3.9-4q-87.66.15-175.31,0c-3.39,0-4.24,1.09-4,4.2.77,10-.2,19.88,1.09,29.94,1.24,9.71-.68,19.79-.91,29.69-.45,19.12-.13,38.25-.14,57.38,1.23,2.57-.42,5.14,0,7.71v2.11c-.32,1-.83.37-1.46.37-2,0-4.69-1.9-5.57,1.71-2.2-2.27-4.67-.68-7-.49-1.17,0-2.34.13-3.5.09-1.9-.07-2.61.63-1.84,2.51,1,2.37.71,4.92.34,7.26-1.16,7.46-.39,14.92-.52,22.38V195c.08,2.12-1.09,4.13-.54,6.3,0,1.63,0,3.27-.05,4.91a16.78,16.78,0,0,1-.15,1.74c-.52,2.75.13,4.15,3.39,4.22,5.42.12,10.84.74,16.26,1.16a44.29,44.29,0,0,0,13.38,1.2l.79.15c2,1.27,4.15.59,6.25.64l2.1.15a41.66,41.66,0,0,0,13.11,1.27l1.68.13c.75,1.15,1.86.51,2.83.56l1.42,0c3.64.47,7.27,1.05,10.92,1.41,15.07,1.46,30.15,2.84,45.22,4.28,11.46,1.1,22.9,2.42,34.38,3.25,3.06.22,6.25,1.8,9.37.06,4.67-.25,8.51-3,12.82-4.29,2.45-1.92,5.85-1.41,8.33-3.25l.81-.18,10-3.66,2-2.38,4.89-.28,4.14-1.58c5.09-2,5.09-2,4.83-7.39q0-12.32.1-24.64a74.13,74.13,0,0,0,.69-11.63c0-1.2.36-2.63-1.33-3.16a2.46,2.46,0,0,0-2.13-.22A.53.53,0,0,0,220.15,163.56Z" transform="translate(-0.31 -0.52)"/><path class="cls-2" d="M34.88,149.88c0-19.13-.31-38.26.14-57.38.23-9.9,2.15-20,.91-29.69-1.29-10.06-.32-20-1.09-29.94-.24-3.11.61-4.2,4-4.2q87.64.16,175.31,0c3.16,0,3.91.91,3.9,4q-.17,51.21-.08,102.44c-6,.86-11.5-1.65-17.28-2.18-1.26-.12-1.75-1.17-2.1-2.14-1-2.78-3-3.55-5.77-3.48a21.2,21.2,0,0,0-7.89,1.34,10,10,0,0,1-6.85.37c-2.54-.73-4.92-.24-6.21,2.52a3.35,3.35,0,0,1-3.35,2.09,1.09,1.09,0,0,1-1.16-1.07,3.7,3.7,0,0,1,1.65-3.28c1.78-1.45,4-2.76,5-4.66a35,35,0,0,0,3.42-9.48c.42-2,.27-4.6-2.12-5.8-3.78-1.9-11.94,2.92-12.26,7.18a31.28,31.28,0,0,0,0,4.22,2.48,2.48,0,0,1-1.91,2.93c-3.19.78-6,2.52-9.3,3.12A45.79,45.79,0,0,0,137,131.94a15.51,15.51,0,0,1-7.73,1.81c-4.66.1-9.49-1.08-13.94.75-5.29,2.17-10.85,1.55-16.22,1.76-5,.2-10.09-1.44-15.14-2.29-6.89-1.15-13.51,0-19.06,4.06a22.68,22.68,0,0,1-12.47,4.79c-2.31.14-4.27,1-5,3.18-1.43,4.22-4,.78-6,1-2.24.21-1.56-1.82-1.67-3.09s.12-3-1.67-2.91-1,1.77-1.15,2.8C36.64,145.92,37.43,148.47,34.88,149.88ZM153.31,41.43c1.84.2,3.4-.27,3.94-2.14s-.87-3-2.43-3.71a31.49,31.49,0,0,0-4.55-1.77c-2.18-.61-3.74.6-4.53,2.4s.66,2.77,2,3.64C149.41,41,151.39,41.15,153.31,41.43Z" transform="translate(-0.31 -0.52)"/><path class="cls-3" d="M75.73,217.42l-1.42,0c-.09-1.1.45-2.53-1.39-2.76-.06-1.35-2.68-2.47-.31-4.07,1.21-.82,2.43-2.17.79-3.31s-3.45-3-5.81-1.6c-.83.5-2.31,1.72-1.83,2.26,1.8,2-.24,3.14-.6,4.63H63.82A1.45,1.45,0,0,0,63,214l-1.23.05c-.15-.88-.57-1.49-1.56-1.49-1.33-3.36.36-4.45,3.58-4.19-.57-1.68-1.53-2.21-2.8-1.77a2,2,0,0,1-2.88-1.09c1.2-1.49,2.42-1.35,3.91-.29.9.64,1.86.07,2.22-.95s-.3-1.42-1.27-1.58a4.28,4.28,0,0,1-3.45-2.08,1.42,1.42,0,0,0-1.42-.72h0v-.58c1.29-2.12-.49-1.45-1.42-1.55l0,0c-.62-1.08-1.86-1.07-2.81-1.57.94-1.62,3.71-.37,4.21-2.68,1.27-.09,2.55-.78,2.42-1.92-.18-1.61-1.83-.66-2.83-.87a8,8,0,0,0-1.7,0c-.46-1.53,1.29-4.16-2.11-4.23V185.1c.61-.08,1.46.2,1.72-.54s-.53-.74-1-.88c-.63-.92-1.19-2.34-2.55-1.73-1.64.75-.65,2.16-.32,3.32.26.88.5,1.76.75,2.64H50.37c-.09-.51-.07-1.11-.84-1.07-.08,0-.22.14-.22.22-.05.78.55.76,1.06.85l0,2.84c-.09.41-.16,1.21-.66.85-1.22-.86-2-.38-2.47.66-.72,1.67,1.47,1,1.74,2l0,2.12-1.34,0c-1-.2-2.25-1.63-2.73.35-.27,1.08,1.05,2.42,1.75,2.12,2.41-1.06,3.44,1.12,5.09,1.74s3.09-2.26,5-.67c-.5,1.39,1.13,3.51-1.43,4.2-3.13.9-7-1-9.8,2.55,1.77.22,3.14,4.39,4.78-.1.11-.28,1.52-.47,1.93-.17,1.45,1.09,3.19,1.34,4.8,1.94.93.35,1.39,1.67.59,1.66-5.09-.06-.27,2.31-.89,3.26v1.44l0,.75-2.1-.15c-.17-.7.82-1.42-.71-2.12-2.54-1.17-3.77.8-5.54,1.48l-.79-.15c-.14-1.52.43-3.69-2.41-2.86a11.85,11.85,0,0,1-5.46,0c-2.13-.31-4.56-2-6.92-.49-1.45,0-2.92.14-4.22-.71-1-2.81-4.65-2.82-7.76,0-2,.31-2.69-1.23-3.21-2.5a2.52,2.52,0,0,0-2.9-1.74l.05-4.91,1.73,0,.33,1.79a7.8,7.8,0,0,0,2-6c3.59-1.38,2.61.77,1.42,3,3.48-1.26,5.54-.69,6.49,2.56.28,1,1.57,2.63,2.45,1.88,2.11-1.79,4.75-.47,7.16-1.66l-2.11-1.56c1.88-2.21,3.76-.31,5.64,0,.35,1.13.2,2.68,1.5,3.1.66.22.94-1.07,1.36-1.71.22,0,.46.06.68.12,1.13.31,1.92,1.92,3.38.91a1.11,1.11,0,0,0,.48-1.49,3.27,3.27,0,0,0-3.51-1.64c-.35,0-.69,0-1,0l-2.84.69c-.71-1.5.19-4.66-3.43-3.3-.22.09-2.13-.55-1.72-2,.16-.56,1.17-1.09,0-1.54-.67-.26-1.08.32-1.2.92-.26,1.22-2.26.89-2.12,2.42l-.16.31.16-.3c2.9-.14,1.9,2,2.11,3.52-1.06,2.14-2.69.33-4,.52-.71.09-.7-.76-.48-1.34.79-2.08-.21-3.45-1.52-5s-2.27-3.33-4.58-1.4c-.15.13-.91-.13-.91-.23-.07-3.12-3.68-1.89-4.68-3.83-.82-.51-.66-1.33-.66-2.09.89-.17,1.75-.35.66-1.43.45-2.86-.87-5.58-.65-8.42,2.56-1.33,2.67-2,.65-3.55-.24-3.18,1.23-6.36,0-9.52-.21-.54-.27-1,.38-1,1.91,0,2.32-1.56,3.13-2.74,2.37-.19,4.84-1.78,7,.49.37.23.8.73,1.11.66,5.61-1.1,11.19-.06,16.77.12,1.19,0,3,.84,3.3-1.43h1.32l.3.57.39-.5c2.16.23,4,2,6.35,1.33,2,1.33,4.87-.45,6.65,1.8l1.24-1.14L68,163c.07.68.26,1.78,1,1.5,2.4-1,4.35.42,6.49,1.2,0-1.6-1.6-1.58-1.83-2.64l2.83.33c-.45,2,1.84,2,2.52,3.34,1.16,2.23,3.79,3.72,5.6,3.58l.34,0c1.68,3.09,4.61,4.21,7.78,4.95l-.05,0,.68.61c2.11.9,1.67,4.56,3.71,4.56,3.53,0,2.92,1.28,2.31,3.65-.25,1-.17,1.49-1.2,2-1.22.57-1.79,1.62.23,1.86,2.18.25,2.42.9,1,2.58-.78.95-.47,2.25-.22,3.4.18.8-.32,1.87-.74,1.52-2.19-1.83-5,1.46-7-.93-.22-.26-1-.35-1,.3,0,.29.56.62.87.94a17.48,17.48,0,0,0-.69,3c-.05.79-1.21,1.74,0,2.41a1.8,1.8,0,0,0,2.16-.69c1-1.41,2.22-.67,3.38-.5,2.36-.78,3.15-3.13,4.65-4.56,2.64-2.51-.09-6.7,3.5-8.43.29-.14-1-2.09.51-2.07s1.22,1.72,1.2,2.83c-.06,3.07-2.67,5-3.54,8,1.72-.29,3.71.83,4.94-.89,1.58-2.2,3.13-2,5-.53,2.22,1.57,3.83-1.74,6.13-.24-1-2.73-2.21-3.35-4.12-1.51-.28.27-.86.23-1.31.34-1-.14-2.25-.3-2.38-1.51-.07-.52.75-1.7,1.61-1.26,3,1.58,2.81-1.74,2.64-2.29-1.22-4.09,1.49-3.41,3.76-3.37a4.26,4.26,0,0,0,3.77,2.07c2.11.11,4.6-1.73,4.08-2.73-1.4-2.69-2.21-6-5-7.83.23-2.27-.92-2.69-2.82-2.09v-1.4h1.41c2-.49,1.66-1.59.73-2.84,0-.22,0-.45,0-.68-.05-1.44-1.08-1.43-2.1-1.42-.68-1.76.75-2.14,1.82-2.76.29.64.65,1.52,1.47,1.07,2.14-1.2,2.84.39,3.74,1.71-.11.33-.12.8-.34.95-3.17,2.08-2.66,6.85,1,8.92-.17,2.62,1.6,4.37,2.85,6.35,0,2.2.53,4.06,2.84,4.89h.69v2.1c-1,.15-2.27.31-2.37,1.48-.08.84,1.06.53,1.68.64-.13,1.37-1.36,1.92-2.12,2.82-.62.21-.74,1.31-1.54,1s-.48-1.13-.57-1.75h0c.92-.7.92-1.41,0-2.11a12.67,12.67,0,0,1-2-1.82c-1.76-2.41-3.87-1.62-5,0s1.16,2.25,2.15,3.17c.24,1.89,1.71,1.31,2.84,1.4h0c1.52,3.5,5.59,3.59,7.86,6.23,1-1.68.49-2.67-.83-3.4.22-1.45-.82-3.64,2.08-3.5.12.74.37,1.41,1.29,1.28,1.13-.16,1.49-1,1.55-2,1.72-.46,2.52,1.86,4.23,1.41h0c.13,1.12-.46,2.61,1.43,2.83-.53,2.24,1.05,3.53,2.5,4.5s2.32-.81,3.29-1.67c1.2.22,1.23.78.57,1.68-1.45,2-2.84,4-4.26,6l-4.23.71c-.44-2.3-.07-4.3,2.11-5.62-.46-1.89-2.88-2.08-3.27-4.77-1,1.84-1.84,2.76-3.2,3.14-.75.2-1.63.68-.56,1.65l-.72,2.09c-1.41.11-2.91-.45-3.85,1.49-.47.94-2,1.73-2.74-.42a8.24,8.24,0,0,0-1.51-2.33c-.66-.82-1.58-1.27-2.29-.2-.48.7-2,1.92.34,2.37a.92.92,0,0,1,.76,1.29c-.86,3.09,1.37,2,2.58,1.75,1.48-.28,2.94-1.53,3.59,1.16.21.88,2,.1,1.88-.23-1.08-2.41,1.77-3.09,1.94-4.86,2.09-1.19,3.55-.75,3.2,1.81-.25,1.84.69,1.61,1.74,1.68,1.1,3.57,3.7,1.18,5.64,1.42,0,2.26-.1,4.49.77,6.73.2.51-.56,1.56.62,2,1.45.56,1.85-.41,2.16-1.49,1-3.39,3.16-4.44,6.28-3,.85.4,1.77.47,2.57.92,1,.58,2.21,2,3.13.11.75-1.56,1.89-3.48-.75-4.62h0c.14-2.29,2-3.12,3.54-4.25l1.4,0c.23.47.47.93.7,1.4-1.19,1.67-3.36,3.17-2.38,5.46,1.39,3.26.19,5.11-2.57,6.54-2.45,1.65-4.85,3.35-8,1.45-.51-.31-1.37,0-2.07,0-3.46,0-7,.31-10.38-.11-2.83-.35-5.93,0-8.42-2,1.14-2.33,2.93-4.44,2.52-7.47-1.3.31-2.21,1.53-3.63.94-.9-.37-1.54.84-1.36,1.09,1.82,2.46-.68,4.1-1.05,6.12-3.11-2.39-8.1.6-10.77-3.74-.23-.36-4-.12-6.17.85-1.87.84-4.6,2.63-5.62-1.32a16.28,16.28,0,0,0,2.35.54c.9.06,1.47-.85.93-1.3-1.78-1.45-2.63-3.83-4.42-4.92-.88-.54-3,1-4.55,1.51a8.66,8.66,0,0,1-4.61-1.19c-.91-.54-2.5-1.8-3.41-.44-1,1.53,1.08,1.94,1.78,2.87-.7,1.13-1.84.69-2.83.78a6.19,6.19,0,0,0-4.22-4.91,17.05,17.05,0,0,1,6.9-2.82c1-.15,2.32.39,2.83-.76.88-2,2.42-2.2,4.24-2.09,1,0,1.45-.55,1.58-1.47,2.49-2.14-.63-1.8-1.19-2.5s.29-2.35-1.45-1.64c-1.29.53-.86,1.75-.86,2.76-3.73,1.8-6.79,5-11.44,4.94a2.77,2.77,0,0,0-2.72,3.58c-.21.62-.92,1.31-.36,1.87,1.86,1.89-.23,2.25-1.1,3.1-3-1.31-5.57.94-8.43.91C75.68,215.62,75.75,216.72,75.73,217.42ZM87,197.8c3-1.35-1.65-1.89-.4-3.53.49-.64-1.09-.05-1.73,0-.34-2.46-2.12-3.24-4.2-3.09A4.58,4.58,0,0,0,76.43,195c-2.08.27-3.11,2.31-5,2.93-.77.25-2.45.55-1.44,2.05.73,1.09,1.65,2.51,3.35,1.79,1.21-.52,2.74-.77,3.17-2.41a2,2,0,0,1,2-1.55,5.74,5.74,0,0,0,3.54.71C84.11,201.16,85.58,199.59,87,197.8ZM39.83,180.14c-.26-1.59-1.18-1.49-2.39-1.09.5,1.34,1.51,1,2.35,1.14,0,1.37.25,2.61,1.94,2.74.76.06,1.76.31,2.09-.71.45-1.41-1-1.93-1.56-2.86-.12-.2-.23-.4-.34-.6-.29-1.49.79-2.43,1.42-3.56l1.4.72.71.72,1.09,3c1.48-.42,1.83-2.21,3.72-1.89,1.19.2,3.22,2.92,4.09-.63.1-.43.29.69.49.73,1.44.32,2.62,3,4.12,1.19a3.78,3.78,0,0,0-.66-5.34,5.22,5.22,0,0,0-1.59-.62L56,171c.13-3.37,1-7.25-4.54-6.86-.1,0-.21-.1-.32-.14-3.28-1.15-4.85,0-5,3.5l-.16.31.18-.29c1.86-.31,3.16,1.29,4.9,1.43v2.76c-1.53-.3-3.18-1.14-4.18.93-1.17-.58-1.83-2.27-3.56-1.61-.82,0-2,.31-2.39-.11-2.3-2.33-4.06,1.81-6.18.39-.15.29-.42.57-.43.86,0,.59.41.71.93.76,3.47.39,4.34,3.13,5.25,5.83A1.54,1.54,0,0,1,39.83,180.14Zm33.77,6.37c.31-2.67-1.18-4.53-2.8-6.35,0-1.2-1.48-2.8.81-3.41,1.86-.48,2.37,1.17,3,2.27a7.22,7.22,0,0,1,.45,2.35,1.66,1.66,0,0,0,1.66,1.5,2.36,2.36,0,0,0,2.1-1.05c.41-.73-.27-1.34-.8-1.74-1.59-1.19-1.9-3.15-2.83-4.71-.75-1.26-1-1.84-2.49-.78a38.44,38.44,0,0,1-5.48,2.75c1.3-2,.6-3.51-1-4.93-.46-.42-.7-1.45-1.54-.59s-2.36,1.67-2.38,3.31c0,1.08.47,1.49,1.55,1.11.75-.25,1.13.14,1.09.87s-.69.83-1.27.93h-.7c-1.29.92-2.17,1.85,0,2.79.92.12,1.44.61.42,1.16-1.36.75-2.69,1.5-3.32,2.93s-2.83,2.5-1.58,3.77,2.48-1,3.79-1.5c.34,2.57,2.4,5.26-.47,7.66a4.57,4.57,0,0,0,.47.79c-.12.68-1.19,1.55.15,2,1.61.49,4.84-2.84,4.77-4.8.65-1.09,1.7-2,1.41-3.49,2.36-1.76,2.75,1.68,4.38,1.75C74.44,189.64,74.05,188.08,73.6,186.51Zm40.86,12.64c-2-.48-2.85-3.15-5.36-3.22.09,1.45,0,2.69,0,3.86,0,1.91-.29,4.72,3.2,4.33,0,1.53,2.39,2.77.18,4.46h4.4l-3.83-4.49v-.72c.6-.26.69-.8.74-1.36l.67,0c.87-.05,1.75-.3,1.84-1.24C116.42,199.54,115.44,199.27,114.46,199.15ZM21.05,170.68c4.46-.26,5.14,2.37,5.66,5.07.15.76-.88,2.15.86,2,1.34-.15,1.8-1.08,1.35-2.6s-1.28-3.06,0-4.88c.7-1-.85-1.85-1.9-2.35C26.25,170.55,23.4,169,21.05,170.68Zm2.4,16.14c.95-.71,2.39.23,2.82-1.21a1.34,1.34,0,0,0-.65-1.49,1.86,1.86,0,0,0-2.27-.06c-2.2,1.54-2.39,5-.63,7.1.94,1.12,1.45.55,2.28,0,1-.65,1.67-1.35.71-2.45A19.68,19.68,0,0,0,23.45,186.82Zm10-22.85c-1.51-.13-2.19.55-2.1,2,.08,1.11-.27,2.68,1.79,1.5,1.15-.66.91.56,1.2,1,.57.9,1,.68,1.48-.08s1.63-1.61.73-2.71S35,163.69,33.47,164Zm39.4,4.52c-.42-1.27-.74-2.6-2.28-2.31-1,.19-2.58.7-2.42,1.84s.85,3.14,2.07,3.23S72.23,169.62,72.87,168.49Zm-14.11,3.1c1.06-.81,1.19-2.08,1.36-3.25s-.23-2.23-1.59-2.12-1.53,1.51-1.71,2.61C56.59,170.23,57.65,170.84,58.76,171.59Zm94.66,49.24c.87-.48,2.21-.62,2.44-2s-.62-1.94-1.84-2c-1.52-.06-1.94,1.12-2.11,2.28C151.78,220,152.27,220.67,153.42,220.83Zm-65.9-43.54c-1.5-.86-3.22-2.76-4-1.67-1,1.35-.24,3.59,1.93,5.72C84.75,178.76,85.6,177.76,87.52,177.29Zm55.16,36c-1,.07-2.68,0-2.41,1.21.39,1.77,2.62.62,3.86,1.45.57.38,1.67-.17,1.53-.88C145.37,213.55,144.07,213.21,142.68,213.26Zm-61.34-23.5c.35-2.39,2.39-3,4.48-4.23-1.49-.42-2-2.35-2.91-1.55C81.37,185.31,81.47,187.59,81.34,189.76ZM80,187.31c0-1.29,0-2.56-1.57-2.77-1-.13-1.22.64-.81,1.37.69,1.19-.58,3.24,1.08,3.67C80,189.91,79.85,188.24,80,187.31ZM96.53,185c.34-1.62-1.7-1.11-1.76-2.33,0-.5.18-1.71-1-1-.84.48-1.4,1.28-.47,2.26a13.56,13.56,0,0,1,1.38,1.46c.32.45.43,1.2,1.18.64A3.4,3.4,0,0,0,96.53,185Zm-4.88,6.89c-.54-1.34-1.9-1.21-2.94-1.57-.66-.23-1.07.45-.86,1.08.3.93.45,2.26,2,1.74C90.51,192.89,91.57,193.05,91.65,191.88Zm30.83,22.46L119,212.61c0,1.47,0,2.73,1.13,3.23S122,215.4,122.48,214.34ZM40,168.75c1.44-1.78,2.74-2.46,2.44-4.1a.72.72,0,0,0-1.1-.47C40.15,165.13,40.31,166.5,40,168.75Zm-8,14.39c-.43,1.86-1.72,2.76-.47,3.86a1.31,1.31,0,0,0,1.29,0C33.74,185.82,32.74,184.94,31.94,183.14Zm-2.43-18.95c-1.15,1.27-1.22,2.12-.17,3.13A2.66,2.66,0,0,0,29.51,164.19Zm-6.65,42.49c-.15-.27-.06-.93-.75-.78-.52.12-.59.65-.54,1.11s.08,1,.74.89S22.87,207.27,22.86,206.68Zm11.2-27.09c-.32-.3-.5-.62-.73-.66s-.75.08-.84.28c-.24.49.1.83.6.82C33.36,180,33.62,179.8,34.06,179.59Zm58.13-1.35c.2.08.44.28.58.22a.59.59,0,0,0,.24-.54.61.61,0,0,0-.55-.24C92.32,177.74,92.28,178,92.19,178.24Zm-30.5-7c-.22.16-.47.26-.5.4s.1.48.23.52a.43.43,0,0,0,.61-.47C62,171.51,61.81,171.37,61.69,171.22Zm-41.86-.72c-.08-.2-.11-.51-.25-.57s-.38.12-.58.2c.08.2.11.51.25.57S19.63,170.58,19.83,170.5ZM36,179.25c-.11.19-.29.36-.3.54s.17.37.26.55c.1-.17.29-.34.3-.52S36.06,179.45,36,179.25ZM33,171.51a1.14,1.14,0,0,0-.09.3s.16.06.25.1a1.14,1.14,0,0,0,.09-.3S33.13,171.55,33,171.51Zm60.12,22.06-.16-.29c-.06.08-.18.16-.18.25s.09.19.14.28Z" transform="translate(-0.31 -0.52)"/><path class="cls-4" d="M34.88,149.88c2.55-1.41,1.76-4,2.12-6.12.18-1-.64-2.75,1.15-2.8s1.56,1.64,1.67,2.91-.57,3.3,1.67,3.09c2-.18,4.53,3.26,6-1,.75-2.2,2.71-3,5-3.18A22.68,22.68,0,0,0,64.94,138C70.49,134,77.11,132.82,84,134c5,.85,10.13,2.49,15.14,2.29,5.37-.21,10.93.41,16.22-1.76,4.45-1.83,9.28-.65,13.94-.75a15.51,15.51,0,0,0,7.73-1.81,45.79,45.79,0,0,1,14.83-5.17c3.27-.6,6.11-2.34,9.3-3.12a2.48,2.48,0,0,0,1.91-2.93,31.28,31.28,0,0,1,0-4.22c.32-4.26,8.48-9.08,12.26-7.18,2.39,1.2,2.54,3.79,2.12,5.8A35,35,0,0,1,174,124.6c-1.05,1.9-3.24,3.21-5,4.66a3.7,3.7,0,0,0-1.65,3.28,1.09,1.09,0,0,0,1.16,1.07,3.35,3.35,0,0,0,3.35-2.09c1.29-2.76,3.67-3.25,6.21-2.52a10,10,0,0,0,6.85-.37,21.2,21.2,0,0,1,7.89-1.34c2.8-.07,4.78.7,5.77,3.48.35,1,.84,2,2.1,2.14,5.78.53,11.32,3,17.28,2.18,0,5.34,0,10.68,0,16,0,2.52.51,5.13-3,5.84-.54.11-.94.95-1.4,1.46-2,2.6-4.46,1.58-6.86.72.45-2.79-2.9-3.45-3.26-5.26-.75-3.8-1.92-2.42-3.75-1-2.52,2-5.11,2.74-7.68-.11-1.69-1.87-3.31-3.88-6-4.5-.85-.2-.82-1.38-1.31-1.93-1.59-1.82-3.34-3.84-6.1-3.15-4.34,1.1-8.27-.86-12.38-1.34-1.32-.15-1.87-1.24-1.79-2.61.12-1.9-.79-3-2.72-2.69s-4.07,1.12-4.07,3.12c0,1.74.11,2.84-1.69,3.54a4,4,0,0,1-4.49-1.13c-1.56-1.53-2.85-1.49-4,.27-1.6,2.48-3.42,4.16-6.64,2.86-.74-.31-1.35.32-1.78.85-1.49,1.82-3.19,1.79-5.36,1.26-4.24-1-8.25,0-12.08,2.09-2.56,1.39-1,4.12-2.25,5.9a8.52,8.52,0,0,0-.7,1.6,1.28,1.28,0,0,0-1.41,1.39h-1.4c0-1-.7-1.89-.3-3.06a3.67,3.67,0,0,0-3.15-4.9c-1.78-.2-2.74,2.69-2.46,4.22.51,2.76-1,2.3-2.54,2.36-.9-5.14-5.76-7.85-7.69-12.38-.24-.56-1.22.2-1.86.4-2.92.92-4.19,3.35-5.61,5.73-1.71,2.88-2.84,2.8-4.73.08-.85-1.22.13-3.14-1.3-3.83-2-.94-1.15,2.35-2.87,2.17-3-.33-6.69,5.35-9.18-.91-.09-.21-.63-.35-1-.34-1.7,0-2.92-1-4.34-1.61-1.82-.77-4.45-2.42-6.42-.19-1.74,2-.85,4.18.46,6.13A26.24,26.24,0,0,0,65,155a3.44,3.44,0,0,1,.86,2.58l-4.23,0c0-.34.09-.77-.07-1-2.25-3.67-6.82-4.54-9.47-7.76-.11-.13-1,.09-1.18.36a6.43,6.43,0,0,0-1.64,4.45c.09,1.38,1.43,1.56,2.68,1.53.17,0,.36.75.54,1.15a16.33,16.33,0,0,0-5.65.63c-.16-.82.46-2.15-.61-2.34s-.62,1.12-.83,1.77l-3.48.5c.21-2.2-1.78-2.9-3-3-1.49-.14-2,1.57-1.93,3.1l-2.14.65C34.46,155,36.11,152.45,34.88,149.88Z" transform="translate(-0.31 -0.52)"/><path class="cls-5" d="M214.47,212.38l-4.89.28c-.45-3.27-2.56-4.4-5.59-4.24-.73,0-1.28.25-1.51-.8-1.12-5.28-2.51-10.5-3.43-15.81-.46-2.7-1.53-4-4.28-3.88,0-3.56-.24-7.12.6-10.68.89-3.76-.71-7.37-1.28-11,2,.14,4.47-1.07,6,.6,1.38,1.52,3.32.82,4.67,2,.33.28,2.08.25,1.35-1-1.11-2,.26-1.55,1.24-1.69s2.48.54,2.84-1.23l2.93-.89a4.12,4.12,0,0,0,2.77.66c-.23,2.3,1.32,2.14,2.87,2.18,2.37.06,2-1.59,2-3a2.46,2.46,0,0,1,2.13.22c.38,2.28-2.39,3.38-2.1,5.62h-2.87c0-.68-.26-1.83-.84-1.5-.94.53-2.56.55-2.61,2.2h-.73c-.8-1-1.76-.85-2.3.08a3.64,3.64,0,0,0,.49,4.6c.67-1.73,1.24-3.2,1.82-4.68.13,2,2,4.08,1.55,5.38-1.06,3.17-.8,6.26-.85,9.41l0,14.76c-2.93-.82-.14-3.93-2.23-5.31-1.37,2.61-.91,5.66-1.89,8.09-1.06,2.65-.45,3.52,1.7,4.51a13.55,13.55,0,0,1,2.45,1.88Zm-6.36-14.62c-2.68,1.52-1.13,3.37-.71,5.13,1.06-1.64.57-3.4.73-5.12l.15-.31Zm-4.86-5.8c1.05-1.36.53-2.66.62-3.88,0-.85-.23-1.9-1.12-1.89-1.42,0-.88,1.35-.94,2.16A3.72,3.72,0,0,0,203.25,192Z" transform="translate(-0.31 -0.52)"/><path class="cls-6" d="M194.77,187.93c2.75-.15,3.82,1.18,4.28,3.88.92,5.31,2.31,10.53,3.43,15.81.23,1,.78.84,1.51.8,3-.16,5.14,1,5.59,4.24l-2,2.38c-.26-1.19-.2-2.83-2.18-1.43-3.19,2.26-6.79,2.72-10.6,2.49-4.22-.25-6,1.51-6.38,6-4.31,1.32-8.15,4-12.82,4.29.26-1.34,1.35-2.5.86-4l0,0a.92.92,0,0,0,.78-.91,4,4,0,0,0,1.31-3.35c0-.76.07-1.53.1-2.29l0-.23c.52-1.28,1.05-2.56,1.62-3.93.7.7,0,1.72,1,2-.1-2.38,0-4.72,1.31-6.79,1.74-.19,1.44,1.56,2.18,2.31,1.08,1.1,3.14,2.79,3.67,1.54,1.69-3.94,5.45-6.32,7-10.26C194.51,196.39,195.43,192.12,194.77,187.93Z" transform="translate(-0.31 -0.52)"/><path class="cls-7" d="M176.48,222.42c.49,1.5-.6,2.66-.86,4-3.12,1.74-6.31.16-9.37-.06-11.48-.83-22.92-2.15-34.38-3.25-15.07-1.44-30.15-2.82-45.22-4.28-3.65-.36-7.28-.94-10.92-1.41,0-.7,0-1.8.67-1.79,2.86,0,5.46-2.22,8.43-.91,1,1.1,2.36.52,3.56.64l1.4,0,1.43,0c2.75.71,5.27,4,8.37.74.37,3,3.13,1.6,4.63,2.53.49.31,1.46.59,1.77-.08.18-.41-.43-1.18-.69-1.79l2.08,0c1,3.95,3.75,2.16,5.62,1.32,2.14-1,5.94-1.21,6.17-.85,2.67,4.34,7.66,1.35,10.77,3.74h0c.47.71.93.76,1.37,0s1.36-.69,2.15-.65c2.49,2,5.59,1.63,8.42,2,3.42.42,6.92.1,10.38.11.7,0,1.56-.26,2.07,0,3.15,1.9,5.55.2,8-1.45.25,1.27-1.6,1.32-1.5,2.72,2.5-.18,4.71,1.09,7.1,1.42C171.15,225.61,174.16,225,176.48,222.42Z" transform="translate(-0.31 -0.52)"/><path class="cls-8" d="M41.93,156.86l3.48-.5a1.54,1.54,0,0,0,1.44.57,16.33,16.33,0,0,1,5.65-.63c2.94,1.17,6.16.42,9.14,1.3l4.23,0c10,0,20,.05,30.07.14,3.82,0,7.68-.39,11.47.56l8.46,0h1.4l1.43-.08,2.74.13.08,2c-.81,0-1.61.12-2.42.12l-24.36-.05-59.3-.8a.55.55,0,0,0-.59,0c0-.71,0-1.41,0-2.11l2.14-.65Z" transform="translate(-0.31 -0.52)"/><path class="cls-8" d="M215.88,164.62a4.12,4.12,0,0,1-2.77-.66c-.23-.21-.43-.58-.7-.63-7-1.29-14.1-1-21.18-.83a4.71,4.71,0,0,0-3.5-.1l-2.16-.58c-.15-1.53-1.3-1.33-2.34-1.41s-2.36.38-3.28-.67l2.81-.05,19,0c1,0,2,.3,2.85-.56l2.09,0c2.4.86,4.82,1.88,6.86-.72-.45,3,3.36,1.85,3.79,4-.8.52-2.37.69-1,2.2A.8.8,0,0,0,215.88,164.62Z" transform="translate(-0.31 -0.52)"/><path class="cls-9" d="M34.17,201.29l2.11,1.56c-2.41,1.19-5.05-.13-7.16,1.66-.88.75-2.17-.93-2.45-1.88-1-3.25-3-3.82-6.49-2.56,1.19-2.25,2.17-4.4-1.42-3L18,197c.06-1,0-2-1.41-2H15.26v-1.44c2.35-.21,1.93-2,2-3.51,1,1.94,4.61.71,4.68,3.83,0,.1.76.36.91.23,2.31-1.93,3.23-.17,4.58,1.4s2.31,2.91,1.52,5c-.22.58-.23,1.43.48,1.34,1.34-.19,3,1.62,4-.52Z" transform="translate(-0.31 -0.52)"/><path class="cls-7" d="M17.27,190c-.08,1.51.34,3.3-2,3.51.13-7.46-.64-14.92.52-22.38.37-2.34.63-4.89-.34-7.26-.77-1.88-.06-2.58,1.84-2.51,1.16,0,2.33-.06,3.5-.09-.81,1.18-1.22,2.77-3.13,2.74-.65,0-.59.44-.38,1,1.23,3.16-.24,6.34,0,9.52-1.16,1-.55,2.34-.65,3.55-.22,2.84,1.1,5.56.65,8.42a1.37,1.37,0,0,0-.66,1.43C16.61,188.69,16.45,189.51,17.27,190Z" transform="translate(-0.31 -0.52)"/><path class="cls-10" d="M65.16,212.55c.36-1.49,2.4-2.64.6-4.63-.48-.54,1-1.76,1.83-2.26,2.36-1.43,4.18.46,5.81,1.6s.42,2.49-.79,3.31c-2.37,1.6.25,2.72.31,4.07l-1.44,2.2-1.68-.13c.49-1.52-.43-2.74-.65-4.58C67.61,216.32,66.39,214.18,65.16,212.55Z" transform="translate(-0.31 -0.52)"/><path class="cls-5" d="M223.54,178.77q0,12.33-.1,24.64h-1.23c-.24-6.14-.53-12.29-.68-18.44a19.14,19.14,0,0,0-.76-5.48l0-9.88h0c1.42,2.11.52,4.48.68,6.72C221.58,177.79,221.78,178.85,223.54,178.77Z" transform="translate(-0.31 -0.52)"/><path class="cls-11" d="M188.44,222.13c.39-4.52,2.16-6.28,6.38-6,3.81.23,7.41-.23,10.6-2.49,2-1.4,1.92.24,2.18,1.43l-10,3.66c-.18-1-.77-1.42-1.75-1-.27.13-.67.63-.61.73.35.6,1,.48,1.55.43C194.29,220.72,190.89,220.21,188.44,222.13Z" transform="translate(-0.31 -0.52)"/><path class="cls-7" d="M28.54,210.45c1.3.85,2.77.72,4.22.71.44.73,1.54,1,1.41,2.14-5.42-.42-10.84-1-16.26-1.16-3.26-.07-3.91-1.47-3.39-4.22a16.78,16.78,0,0,0,.15-1.74,2.52,2.52,0,0,1,2.9,1.74c.52,1.27,1.26,2.81,3.21,2.5C23.37,211,26,211.61,28.54,210.45Z" transform="translate(-0.31 -0.52)"/><path class="cls-10" d="M34.17,213.3c.13-1.11-1-1.41-1.41-2.14,2.36-1.48,4.79.18,6.92.49a11.85,11.85,0,0,0,5.46,0c2.84-.83,2.27,1.34,2.41,2.86A44.29,44.29,0,0,1,34.17,213.3Z" transform="translate(-0.31 -0.52)"/><path class="cls-12" d="M223.54,178.77c-1.76.08-2-1-2.06-2.45-.16-2.24.74-4.61-.68-6.72-.29-2.24,2.48-3.34,2.1-5.62,1.69.53,1.29,2,1.33,3.16A74.13,74.13,0,0,1,223.54,178.77Z" transform="translate(-0.31 -0.52)"/><path class="cls-6" d="M34.85,159.7a.55.55,0,0,1,.59,0c4.27,2.77,9,1.1,13.56,1.48-.31,2.27-2.11,1.46-3.3,1.43-5.58-.18-11.16-1.22-16.77-.12-.31.07-.74-.43-1.11-.66.88-3.61,3.61-1.71,5.57-1.71C34,160.07,34.53,160.66,34.85,159.7Z" transform="translate(-0.31 -0.52)"/><path class="cls-7" d="M65.16,212.55c1.23,1.63,2.45,3.77,4-.42.22,1.84,1.14,3.06.65,4.58a41.66,41.66,0,0,1-13.11-1.27l0-.75c1.69-.23,3.5.55,5.07-.64L63,214c.67-.26.77-.84.81-1.45Z" transform="translate(-0.31 -0.52)"/><path class="cls-6" d="M222.21,203.4h1.23c.26,5.44.26,5.44-4.83,7.39l-4.14,1.58c0-1.12,0-2.24,0-3.36v-5.14c1.05.83.57,1.73.88,2.42l-.09,2c.47,1.39,1,2.65,2.78,1.36C220.56,208.33,222.51,206.62,222.21,203.4Z" transform="translate(-0.31 -0.52)"/><path class="cls-7" d="M48.34,214.65c1.77-.68,3-2.65,5.54-1.48,1.53.7.54,1.42.71,2.12C52.49,215.24,50.31,215.92,48.34,214.65Z" transform="translate(-0.31 -0.52)"/><path class="cls-7" d="M15.26,195h1.29c.06,1.47.11,2.93.16,4.39l-.26,1.9-1.73,0C14.17,199.1,15.34,197.09,15.26,195Z" transform="translate(-0.31 -0.52)"/><path class="cls-13" d="M215.88,164.62a.73.73,0,0,1,.48,0h1.58c2.07,2.59,1.59-.43,2.21-1a.53.53,0,0,1,.62.2c0,1.45.35,3.1-2,3C217.2,166.76,215.65,166.92,215.88,164.62Z" transform="translate(-0.31 -0.52)"/><path class="cls-12" d="M217.43,164.58h-1.07c-1.36-1.52.21-1.69,1-2.21.69,1,1.81.91,2.78,1.19-.62.58-.14,3.6-2.21,1C217.77,164.38,217.59,164.22,217.43,164.58Z" transform="translate(-0.31 -0.52)"/><path class="cls-7" d="M71.48,216.84l1.44-2.2c1.84.23,1.3,1.66,1.39,2.76C73.34,217.35,72.23,218,71.48,216.84Z" transform="translate(-0.31 -0.52)"/><path class="cls-6" d="M196.77,218.88c-.57.05-1.2.17-1.55-.43-.06-.1.34-.6.61-.73,1-.44,1.57-.05,1.75,1Z" transform="translate(-0.31 -0.52)"/><path class="cls-14" d="M153.31,41.43c-1.92-.28-3.9-.44-5.61-1.58-1.3-.87-2.7-1.93-2-3.64s2.35-3,4.53-2.4a31.49,31.49,0,0,1,4.55,1.77c1.56.71,3,1.7,2.43,3.71S155.15,41.63,153.31,41.43Z" transform="translate(-0.31 -0.52)"/><path class="cls-9" d="M112.34,194.24c-1.82-1.42-3.37-1.67-5,.53-1.23,1.72-3.22.6-4.94.89.87-3,3.48-4.94,3.54-8,0-1.11.34-2.81-1.2-2.83s-.22,1.93-.51,2.07c-3.59,1.73-.86,5.92-3.5,8.43-1.5,1.43-2.29,3.78-4.65,4.56-.62-2.59-3.65-2.36-4.9-4.21-.31-.32-.89-.65-.87-.94.06-.65.83-.56,1-.3,2,2.39,4.81-.9,7,.93.42.35.92-.72.74-1.52-.25-1.15-.56-2.45.22-3.4,1.38-1.68,1.14-2.33-1-2.58-2-.24-1.45-1.29-.23-1.86,1-.48,1-1,1.2-2,.61-2.37,1.22-3.66-2.31-3.65-2,0-1.6-3.66-3.71-4.55l-.68-.62.05,0c-.81-1.93-3-2.14-4.31-3.44a10.63,10.63,0,0,0-2.76-5.74c.74-1,1.84-.52,2.8-.66.25.17.5.34.76.5,0,0,.13-.16.2-.25l-.9-.32,0-1.59c1.47.56,2.75-.62,4.19-.46-1,2.17-1.25,4.1,1.06,5.76.58.41.85,1.5,1.75,1.39,1.18-.14.91-1.44,1.22-2.19.41-1-.36-1.41-1.33-1.51-2.23-.23-2-1.86-1.86-3.4,1.87.1,3.6,1.26,5.55.83-.22,1.24-.49,2.47-.65,3.72-.1.76.48,1.75,1,1,2.53-3.53,5.34-1.17,8.07-.66-.15,1-.37,2-.45,3.06-.18,2.38,2,4.16,4,3.27,2.5-.62.76,3,2.81,2.82.59.09,1.46,1,1.67.15.3-1.23-1-.66-1.61-.87l-.76-3.51h0l1.18.1-.48-1.51V171h1.4c.53,1.49.21,3.67,2.8,3.52l.72-.71h0c1.9-.6,3-.18,2.82,2.09,0,2.22-2.24,4.79,1.64,6.27l-4.47,2.22c-2.27,0-5-.72-3.76,3.37.17.55.37,3.87-2.64,2.29-.86-.44-1.68.74-1.61,1.26.13,1.21,1.34,1.37,2.38,1.51A1.44,1.44,0,0,1,112.34,194.24Zm-.51-6.77c.14-1.58,1.29-3.31-.5-5.12C110.87,184.35,110.64,185.94,111.83,187.47Zm5.25-11.94-.25.59c.19.08.43.27.57.22s.18-.36.27-.56Z" transform="translate(-0.31 -0.52)"/><path class="cls-9" d="M132.75,188.62h-.69a25.12,25.12,0,0,1,.46-3c.49-1.79-.59-1.91-1.86-1.92,0-.93,0-1.87,0-2.81l.69-.69.72.66c.24.51.47.51.71,0v-.69l1.39.68c1.7,2.52,5.09,3.52,6.08,6.72,0,.14.67.26.94.15a.94.94,0,0,0,.45-.79,17.86,17.86,0,0,0-3.15-8.74c-.71-.94-1.57-1.78-2.94-1.54-1.63-1.61.41-2.39.8-3.53l2,.72c.26,1.19,1.78,2.75,1.92,2.39,1.16-3.05,1.48-.33,1.85.24.94,1.43,1.75,2.94,2.61,4.42-.07,1.52.31,2.7,2.12,2.81v.67c0,.46-.1,1,.12,1.37,1.43,2.26,5,3.43,3.66,7.13a5.48,5.48,0,0,0,1.43.69c1.54.49,3.1.93,4.65,1.39h0v.71l-2.44,2.1c1.89,1.51,4.79,1.35,4.95,4.58.06,1.27,1.76,1.09,3,.84.86-.18,2.39.44,2.22.66-1.34,1.7,1.12,2.43.78,3.76-1.53,1.13-3.4,2-3.54,4.25-.51.09-1.11.08-1.06.85a.31.31,0,0,0,.21.22c.78.05.76-.56.85-1.06,2.64,1.14,1.5,3.06.75,4.62-.92,1.9-2.1.47-3.13-.11-.8-.45-1.72-.52-2.57-.92-3.12-1.47-5.32-.42-6.28,3-.31,1.08-.71,2.05-2.16,1.49-1.18-.46-.42-1.51-.62-2-.87-2.24-.75-4.47-.77-6.73h1.4c.6.69,1.63,1.06,1.74,0,.17-1.56-1.36-1.38-2.45-1.44l-2.1-.72c1.42-2,2.81-4.05,4.26-6,.66-.9.63-1.46-.57-1.68-2.23-.32-4.34-.91-5.79-2.83-1.89-.22-1.3-1.71-1.43-2.83,1,.25,2.52,1.62,2.6-.46,0-1.46-1-3-1.75-4.42a1.55,1.55,0,0,0-2.44-.36c-.89.82-.18,1.37.65,1.8,1.55.79.72,2.27.94,3.45-1.71.45-2.51-1.87-4.23-1.41-1.1-.66-2-1.71-3.51-1.41h0C133.58,191.48,135.5,189.26,132.75,188.62Zm15.39,4.5c-2.52,4.17,2.92,3.8,3.14,6.32C152.47,196.14,150.66,194.5,148.14,193.12Zm4.79,18.22c-.08-.2-.11-.5-.25-.56s-.38.12-.58.2c.07.2.11.5.24.56S152.73,211.42,152.93,211.34Zm-1.58-9.86c.19.09.43.28.57.23s.18-.36.27-.56c-.19-.08-.43-.28-.57-.22S151.43,201.29,151.35,201.48Z" transform="translate(-0.31 -0.52)"/><path class="cls-9" d="M176.48,222.42c-2.32,2.56-5.33,3.19-8.55,2.75-2.39-.33-4.6-1.6-7.1-1.42-.1-1.4,1.75-1.45,1.5-2.72,2.76-1.43,4-3.28,2.57-6.54-1-2.29,1.19-3.79,2.38-5.46a1.29,1.29,0,0,0,1.4-1.41c1.41.39,2.06-2,3.75-1-1.34,1-1.62,2.56-2.25,3.86-.83,1.7-.54,3.34,1.94,3.47l.81.06c0,3.37,3.81,1.51,4.88,3.45l.72.73a4,4,0,0,1-1.31,3.35l-.78.91Z" transform="translate(-0.31 -0.52)"/><path class="cls-15" d="M94.74,160.45l24.36.05c.81,0,1.61-.08,2.42-.12l11.11.35c.65,1.51,1.4,1.49,2.24.14l6.36.33.06,1.8H133.6a10.18,10.18,0,0,0-6.54-.36,6.3,6.3,0,0,0-4.39.54,1.92,1.92,0,0,0-2.17,1.54c-1.06.62-2.49,1-1.81,2.76-.12,1.69.43,2.39,2.1,1.42,0,.23,0,.46,0,.68a4.73,4.73,0,0,0-.73,2.84h-1.41l-.71-.71a1.28,1.28,0,0,0-1.38-.64l-1.43-.06h0a2.65,2.65,0,0,1,.66-2.11c1-.94.25-1.25-.65-1.42-2.53,0-2.16-1.78-2.14-3.37,2.24-.21,4.71.73,7.38-1.48-9.12-.14-17.47.3-25.74-1Z" transform="translate(-0.31 -0.52)"/><path class="cls-15" d="M43.33,171c1.73-.66,2.39,1,3.56,1.61,1-2.07,2.65-1.23,4.18-.93.81,1.92,3.15,1.48,4.47,3,.93,1.05,1-.76,1.17-1.54a5.22,5.22,0,0,1,1.59.62,3.78,3.78,0,0,1,.66,5.34c-1.5,1.85-2.68-.87-4.12-1.19-.2,0-.39-1.16-.49-.73-.87,3.55-2.9.83-4.09.63-1.89-.32-2.24,1.47-3.72,1.89-.36-1-.72-2-1.09-3,.4-.25.72-.62.32-1s-.77-.09-1,.3l-1.4-.72A6.1,6.1,0,0,1,43.33,171Z" transform="translate(-0.31 -0.52)"/><path class="cls-7" d="M94.74,160.45c0,.41,0,.82-.07,1.22l-30.28,0c-2.49-.85-4.89-1-7,.88-2.34.64-4.18-1.1-6.34-1.33a1.79,1.79,0,0,0-.69-.07H49c-4.53-.38-9.29,1.29-13.56-1.48Z" transform="translate(-0.31 -0.52)"/><path class="cls-16" d="M63.05,178.05h.7c1.89,3.38,2.16-1.42,3.52-.7a38.44,38.44,0,0,0,5.48-2.75c1.51-1.06,1.74-.48,2.49.78.93,1.56,1.24,3.52,2.83,4.71.53.4,1.21,1,.8,1.74a2.36,2.36,0,0,1-2.1,1.05,1.66,1.66,0,0,1-1.66-1.5,7.22,7.22,0,0,0-.45-2.35c-.68-1.1-1.19-2.75-3-2.27-2.29.61-.8,2.21-.81,3.41-2.91,1-.54,2.81-.7,4.23h0c-2.19.49-3.57-.46-4.17-2.91-1.13,2.36-4.49,2.67-3.58,5.72-1.31.53-2.59,2.71-3.79,1.5s1-2.48,1.58-3.77,2-2.18,3.32-2.93c1-.55.5-1-.42-1.16C63,179.91,63.05,179,63.05,178.05Z" transform="translate(-0.31 -0.52)"/><path class="cls-15" d="M126.37,177.38c-3.65-2.08-4.16-6.85-1-8.93.22-.15.23-.62.34-.95.55,0,1.1-.06,1.42-.63.78-2.13,3.58-1.64,4.57-3.5a.66.66,0,0,0,.39.09l.69,1.13c.4,1.71-1.17,2.54-1.94,3.84a6.1,6.1,0,0,1,3.33,1.88c-.11.5-.78,1,.06,1.47-.46,1.84.69,3.9-.77,5.6-.11-.31.13-.85-.46-.8-.1,0-.17.51-.25.79-1.62-.63-1.28-2.44-2.13-3.53a2.8,2.8,0,0,0-2.28-2.71c-.53-.15-1.61.14-1.42.4,1.55,2.12-1.24,3.79-.48,5.76Z" transform="translate(-0.31 -0.52)"/><path class="cls-12" d="M64.39,161.64l30.28,0c8.27,1.26,16.62.82,25.74,1-2.67,2.21-5.14,1.27-7.38,1.48l-6.33,0-7.72.08c-2,.43-3.68-.73-5.55-.83l-.84-.05c-1.44-.16-2.72,1-4.19.46-1.11-.81-2.35-.41-3.54-.4H76.41L73.58,163A11.74,11.74,0,0,0,68,163l-2.71.21Z" transform="translate(-0.31 -0.52)"/><path class="cls-9" d="M62.35,187.2c-.91-3,2.45-3.36,3.58-5.72.6,2.45,2,3.4,4.17,2.91.41,1.9-1.84,3-1.42,4.94.29,1.47-.76,2.4-1.41,3.5-1.78.7-2.66,3-4.92,2.82a4.57,4.57,0,0,1-.47-.79C64.75,192.46,62.69,189.77,62.35,187.2Z" transform="translate(-0.31 -0.52)"/><path class="cls-10" d="M56.71,213.25c.62-.95-4.2-3.32.89-3.26.8,0,.34-1.31-.59-1.66-1.61-.6-3.35-.85-4.8-1.94-.41-.3-1.82-.11-1.93.17-1.64,4.49-3,.32-4.78.1,2.84-3.55,6.67-1.65,9.8-2.55-.5,3.36,2.15.38,2.82,1.4A2,2,0,0,0,61,206.6c1.27-.44,2.23.09,2.8,1.77-3.22-.26-4.91.83-3.58,4.19C59.58,215.46,57.84,212.8,56.71,213.25Z" transform="translate(-0.31 -0.52)"/><path class="cls-10" d="M104,202.61c-.13.92-.59,1.52-1.58,1.47-1.82-.11-3.36.11-4.24,2.09-.51,1.15-1.85.61-2.83.76a17.05,17.05,0,0,0-6.9,2.82H86.29A2.77,2.77,0,0,1,89,206.17c4.65,0,7.71-3.14,11.44-4.94C101.81,201.2,103.17,201.15,104,202.61Z" transform="translate(-0.31 -0.52)"/><path class="cls-9" d="M50.39,190.75l0-2.84h2.11a1.29,1.29,0,0,0,1.42-1.42c3.4.07,1.65,2.7,2.11,4.23-.76.67-.57,1.16.33,1.39a2.39,2.39,0,0,1,1.78,1.43c-.5,2.31-3.27,1.06-4.21,2.68l-2.15.14,0,0c-.26-.66-.83-.73-1.42-.72h-.7l0-1.44h0c.5-.23.49-.45,0-.67,1.16-1.73,2,1.2,3.34,0C52.06,192.69,51.7,191.34,50.39,190.75Zm3.78,1.09-.47-.15.07.27Z" transform="translate(-0.31 -0.52)"/><path class="cls-15" d="M46.14,167.48c.12-3.55,1.69-4.65,5-3.5.11,0,.22.14.32.14C57,163.73,56.1,167.61,56,171c-1.71-.51-2.64-2.88-4.91-2-1.74-.14-3-1.74-4.9-1.43Z" transform="translate(-0.31 -0.52)"/><path class="cls-15" d="M165.18,207.6c.34-1.33-2.12-2.06-.78-3.76.17-.22-1.36-.84-2.22-.66-1.2.25-2.9.43-3-.84-.16-3.23-3.06-3.07-4.95-4.58l2.44-2.1c.07,1.41,1.08,1.42,2.1,1.39l1.41,0c.32,3.44,4.34,2.61,5.65,4.91,1.1,1.78.58,3.76.71,5.66h0Z" transform="translate(-0.31 -0.52)"/><path class="cls-15" d="M76.41,163.36h2.9c1.16,1,2.71,1.76,3,3.62a1,1,0,0,0,1.26.9c.87-.28.57-1.11.62-1.76l1.44-.05a10.63,10.63,0,0,1,2.76,5.74l-3.47-1.51-.34,0c-1.81.14-4.44-1.35-5.6-3.58C78.25,165.41,76,165.41,76.41,163.36Z" transform="translate(-0.31 -0.52)"/><path class="cls-15" d="M118.67,184.4l4.47-2.22c-3.88-1.48-1.63-4.05-1.64-6.27,2.81,1.85,3.62,5.14,5,7.83.52,1-2,2.84-4.08,2.73A4.26,4.26,0,0,1,118.67,184.4Z" transform="translate(-0.31 -0.52)"/><path class="cls-10" d="M78.53,197.76a2,2,0,0,0-2,1.55c-.43,1.64-2,1.89-3.17,2.41-1.7.72-2.62-.7-3.35-1.79-1-1.5.67-1.8,1.44-2.05,1.92-.62,2.95-2.66,5-2.93,1.11.51,2.48-1.38,3.36.25C80.44,196.41,79.11,197,78.53,197.76Z" transform="translate(-0.31 -0.52)"/><path class="cls-16" d="M136.28,206.25c-.17,1.77-3,2.45-1.94,4.86.15.33-1.67,1.11-1.88.23-.65-2.69-2.11-1.44-3.59-1.16-1.21.22-3.44,1.34-2.58-1.75a.92.92,0,0,0-.76-1.29c-2.3-.45-.82-1.67-.34-2.37.71-1.07,1.63-.62,2.29.2A8.24,8.24,0,0,1,129,207.3c.7,2.15,2.27,1.36,2.74.42.94-1.94,2.44-1.38,3.85-1.49Z" transform="translate(-0.31 -0.52)"/><path class="cls-9" d="M43.33,171a6.1,6.1,0,0,0,0,4.19c-.63,1.13-1.71,2.07-1.42,3.56l-1.41,0c-.91-2.7-1.78-5.44-5.25-5.83-.52,0-1-.17-.93-.76,0-.29.28-.57.43-.86,2.12,1.42,3.88-2.72,6.18-.39C41.35,171.32,42.51,171,43.33,171Z" transform="translate(-0.31 -0.52)"/><path class="cls-9" d="M78.53,197.76c.58-.78,1.91-1.35,1.26-2.56-.88-1.63-2.25.26-3.36-.25a4.58,4.58,0,0,1,4.25-3.79c2.08-.15,3.86.63,4.2,3.09l0,1.43c-2-.18-2.92.81-2.79,2.79h0A5.74,5.74,0,0,1,78.53,197.76Z" transform="translate(-0.31 -0.52)"/><path class="cls-16" d="M107.38,216.81l-2.08,0a15.89,15.89,0,0,0-4.26-2.85c.22-.42.43-.85.65-1.28,1.55-.56,3.67-2,4.55-1.51,1.79,1.09,2.64,3.47,4.42,4.92.54.45,0,1.36-.93,1.3A16.28,16.28,0,0,1,107.38,216.81Z" transform="translate(-0.31 -0.52)"/><path class="cls-9" d="M113.05,203.37c0,.24,0,.48,0,.73l-.75,0c-3.49.39-3.25-2.42-3.2-4.33,0-1.17.08-2.41,0-3.86,2.51.07,3.31,2.74,5.36,3.23V202l-.67,0c-.26-.16-.7-.51-.76-.46C112.43,202.14,113.21,202.75,113.05,203.37Z" transform="translate(-0.31 -0.52)"/><path class="cls-9" d="M21.05,170.68c2.35-1.72,5.2-.13,6-2.8,1.05.5,2.6,1.39,1.9,2.35-1.32,1.82-.5,3.34,0,4.88s0,2.45-1.35,2.6c-1.74.19-.71-1.2-.86-2C26.19,173.05,25.51,170.42,21.05,170.68Z" transform="translate(-0.31 -0.52)"/><path class="cls-16" d="M58.12,205.51c-.67-1-3.32,2-2.82-1.4,2.56-.69.93-2.81,1.43-4.2h1.38a1.47,1.47,0,0,0,1.42.72A4.28,4.28,0,0,0,63,202.69c1,.16,1.63.54,1.27,1.58s-1.32,1.59-2.22.95C60.54,204.16,59.32,204,58.12,205.51Z" transform="translate(-0.31 -0.52)"/><path class="cls-16" d="M23.45,186.82a19.68,19.68,0,0,1,2.26,1.92c1,1.1.33,1.8-.71,2.45-.83.52-1.34,1.09-2.28,0-1.76-2.1-1.57-5.56.63-7.1a1.86,1.86,0,0,1,2.27.06,1.34,1.34,0,0,1,.65,1.49C25.84,187.05,24.4,186.11,23.45,186.82Z" transform="translate(-0.31 -0.52)"/><path class="cls-9" d="M86.29,209.75H88.4a6.19,6.19,0,0,1,4.22,4.91,1.46,1.46,0,0,0-1.4.71l-1.43,0c-.08-.53-.06-1.22-.83-1.07-.25,0-.38.68-.57,1-1.2-.12-2.53.46-3.56-.64.87-.85,3-1.21,1.1-3.1C85.37,211.06,86.08,210.37,86.29,209.75Z" transform="translate(-0.31 -0.52)"/><path class="cls-9" d="M133.46,220.34c-.79,0-1.62-.19-2.15.65l-1.37,0h0c.37-2,2.87-3.66,1.05-6.12-.18-.25.46-1.46,1.36-1.09,1.42.59,2.33-.63,3.63-.94C136.39,215.9,134.6,218,133.46,220.34Z" transform="translate(-0.31 -0.52)"/><path class="cls-16" d="M122.9,194.24c-1-.92-3.29-1.56-2.15-3.17s3.29-2.46,5,0a12.67,12.67,0,0,0,2,1.82V195h0l-2.09.7h0C125.5,193.74,124,194.4,122.9,194.24Z" transform="translate(-0.31 -0.52)"/><path class="cls-16" d="M34.17,201.29h-.7c-.21-1.47.79-3.66-2.11-3.52h0c-.14-1.53,1.86-1.2,2.12-2.42.12-.6.53-1.18,1.2-.92,1.16.45.15,1,0,1.54-.41,1.47,1.5,2.11,1.72,2,3.62-1.36,2.72,1.8,3.43,3.3h0C37.93,201,36.05,199.08,34.17,201.29Z" transform="translate(-0.31 -0.52)"/><path class="cls-15" d="M67.27,177.34c-1.36-.72-1.63,4.08-3.52.7.58-.1,1.22-.17,1.27-.93s-.34-1.12-1.09-.87c-1.08.38-1.57,0-1.55-1.11,0-1.64,1.43-2.33,2.38-3.31s1.08.17,1.54.59C67.87,173.83,68.57,175.38,67.27,177.34Z" transform="translate(-0.31 -0.52)"/><path class="cls-9" d="M51.06,168.93c2.27-.83,3.2,1.54,4.91,2,.24.71.49,1.43.74,2.14-.15.78-.24,2.59-1.17,1.54-1.32-1.49-3.66-1-4.47-3C51.07,170.77,51.06,169.85,51.06,168.93Z" transform="translate(-0.31 -0.52)"/><path class="cls-16" d="M33.47,164c1.48-.28,2.33.79,3.1,1.75s-.2,1.87-.73,2.71-.91,1-1.48.08c-.29-.46,0-1.68-1.2-1-2.06,1.18-1.71-.39-1.79-1.5C31.28,164.52,32,163.84,33.47,164Z" transform="translate(-0.31 -0.52)"/><path class="cls-10" d="M58.11,199.9H56.73c-1.9-1.59-3.21,1.3-5,.67.21-2.12-.87-2.92-2.86-2.84-.92,0-2.06.21-1.26-1.37l1.34,0,.71-.68h.7c.26.65.83.7,1.42.72l0,0a6.71,6.71,0,0,0,5,1.43l0,0c.08.87.81,1.16,1.42,1.55Z" transform="translate(-0.31 -0.52)"/><path class="cls-10" d="M125.74,195.64l2.09-.7c.09.62-.23,1.48.57,1.75s.92-.82,1.54-1c.11,1.77,2.28,1.48,2.83,2.81,1.32.73,1.79,1.72.83,3.4C131.33,199.23,127.26,199.14,125.74,195.64Z" transform="translate(-0.31 -0.52)"/><path class="cls-15" d="M68.68,189.33c-.42-1.9,1.83-3,1.42-4.94h0c2-.74,1.34,3.06,3.5,2.12.45,1.57.84,3.13-.54,4.57C71.43,191,71,187.57,68.68,189.33Z" transform="translate(-0.31 -0.52)"/><path class="cls-10" d="M91.22,215.37a1.46,1.46,0,0,1,1.4-.71c1-.09,2.13.35,2.83-.78a6.08,6.08,0,0,0,4.91.13c0,.79.13,1.64-.77,2.1C96.49,219.37,94,216.08,91.22,215.37Z" transform="translate(-0.31 -0.52)"/><path class="cls-10" d="M136.28,206.25l-.7,0,.72-2.09c2.34-1.17,4.69.23,7,0-2.18,1.32-2.55,3.32-2.11,5.62h0c-1.05-.07-2,.16-1.74-1.68C139.83,205.5,138.37,205.06,136.28,206.25Z" transform="translate(-0.31 -0.52)"/><path class="cls-11" d="M100.36,214a6.08,6.08,0,0,1-4.91-.13c-.7-.93-2.8-1.34-1.78-2.87.91-1.36,2.5-.1,3.41.44a8.66,8.66,0,0,0,4.61,1.19l-.64,1.28Z" transform="translate(-0.31 -0.52)"/><path class="cls-16" d="M72.87,168.49c-.64,1.13-1.4,2.85-2.63,2.76s-1.9-2-2.07-3.23,1.4-1.65,2.42-1.84C72.13,165.89,72.45,167.22,72.87,168.49Z" transform="translate(-0.31 -0.52)"/><path class="cls-10" d="M91.23,195.67c1.25,1.85,4.28,1.62,4.9,4.21-1.16-.17-2.34-.91-3.38.5a1.8,1.8,0,0,1-2.16.69c-1.26-.67-.1-1.62,0-2.41A17.48,17.48,0,0,1,91.23,195.67Z" transform="translate(-0.31 -0.52)"/><path class="cls-10" d="M28.54,210.45c-2.59,1.16-5.17.5-7.76,0C23.89,207.63,27.57,207.64,28.54,210.45Z" transform="translate(-0.31 -0.52)"/><path class="cls-9" d="M73.6,186.51c-2.16.94-1.46-2.86-3.5-2.12.16-1.42-2.21-3.26.7-4.23C72.42,182,73.91,183.84,73.6,186.51Z" transform="translate(-0.31 -0.52)"/><path class="cls-15" d="M143.33,204.12c-2.34.25-4.69-1.15-7,0-1.07-1-.19-1.45.56-1.65,1.36-.38,2.23-1.3,3.2-3.14C140.45,202,142.87,202.23,143.33,204.12Z" transform="translate(-0.31 -0.52)"/><path class="cls-15" d="M64.39,161.64l.86,1.54L64,164.32c-1.78-2.25-4.63-.47-6.65-1.8C59.5,160.67,61.9,160.79,64.39,161.64Z" transform="translate(-0.31 -0.52)"/><path class="cls-6" d="M58.76,171.59c-1.11-.75-2.17-1.36-1.94-2.76.18-1.1.24-2.5,1.71-2.61s1.74,1,1.59,2.12S59.82,170.78,58.76,171.59Z" transform="translate(-0.31 -0.52)"/><path class="cls-16" d="M53.9,186.49a1.29,1.29,0,0,1-1.42,1.42c-.25-.88-.49-1.76-.75-2.64-.33-1.16-1.32-2.57.32-3.32,1.36-.61,1.92.81,2.55,1.73a1.45,1.45,0,0,0-.7,1.42Z" transform="translate(-0.31 -0.52)"/><path class="cls-11" d="M130.65,180.87c0,.94,0,1.88,0,2.81l-1.44,0c-1.25-2-3-3.73-2.85-6.35l.08-.08a8.63,8.63,0,0,1,3.5,3.58h.7Z" transform="translate(-0.31 -0.52)"/><path class="cls-9" d="M153.42,220.83c-1.15-.16-1.64-.83-1.51-1.7.17-1.16.59-2.34,2.11-2.28,1.22,0,2,.68,1.84,2S154.29,220.35,153.42,220.83Z" transform="translate(-0.31 -0.52)"/><path class="cls-16" d="M87.52,177.29c-1.92.47-2.77,1.47-2.06,4.05-2.17-2.13-2.88-4.37-1.93-5.72C84.3,174.53,86,176.43,87.52,177.29Z" transform="translate(-0.31 -0.52)"/><path class="cls-16" d="M40.51,178.74l1.41,0c.11.2.22.4.34.6.58.93,2,1.45,1.56,2.86-.33,1-1.33.77-2.09.71-1.69-.13-1.95-1.37-1.94-2.74l.05-.05A1.55,1.55,0,0,0,40.51,178.74Z" transform="translate(-0.31 -0.52)"/><path class="cls-15" d="M47.63,196.37c-.8,1.58.34,1.41,1.26,1.37,2-.08,3.07.72,2.86,2.84-1.66-.62-2.69-2.8-5.1-1.74-.7.3-2-1-1.75-2.12C45.38,194.74,46.66,196.17,47.63,196.37Z" transform="translate(-0.31 -0.52)"/><path class="cls-10" d="M145.45,209l2.1.72c.24.46.48.93.71,1.4h-1.4c-1.94-.24-4.54,2.15-5.64-1.42h0Z" transform="translate(-0.31 -0.52)"/><path class="cls-16" d="M68,163a11.74,11.74,0,0,1,5.62.06c.23,1.06,1.83,1,1.83,2.64-2.14-.78-4.09-2.17-6.49-1.2C68.22,164.75,68,163.65,68,163Z" transform="translate(-0.31 -0.52)"/><path class="cls-6" d="M127.14,166.87c-.32.57-.87.6-1.42.63-.9-1.32-1.6-2.91-3.74-1.71-.82.45-1.18-.43-1.47-1.07a1.91,1.91,0,0,1,2.16-1.54C123.69,165,127.05,164,127.14,166.87Z" transform="translate(-0.31 -0.52)"/><path class="cls-9" d="M132.77,198.47c-.55-1.33-2.72-1-2.83-2.81.76-.9,2-1.45,2.12-2.82h0l.71-.7h0l1.4.71h0l.67,2.13C132,194.83,133,197,132.77,198.47Z" transform="translate(-0.31 -0.52)"/><path class="cls-16" d="M129.22,183.72l1.44,0c1.27,0,2.35.13,1.86,1.92a25.12,25.12,0,0,0-.46,3C129.75,187.78,129.19,185.92,129.22,183.72Z" transform="translate(-0.31 -0.52)"/><path class="cls-9" d="M142.68,213.26c1.39,0,2.69.29,3,1.78.14.71-1,1.26-1.53.88-1.24-.83-3.47.32-3.86-1.45C140,213.26,141.67,213.33,142.68,213.26Z" transform="translate(-0.31 -0.52)"/><path class="cls-10" d="M42.66,200.59c.35,0,.69,0,1,0a3.27,3.27,0,0,1,3.51,1.64,1.11,1.11,0,0,1-.48,1.49c-1.46,1-2.25-.6-3.38-.91-.22-.06-.46-.08-.68-.12C42.66,202,42.66,201.28,42.66,200.59Z" transform="translate(-0.31 -0.52)"/><path class="cls-16" d="M81.34,189.76c.13-2.17,0-4.45,1.57-5.78.92-.8,1.42,1.13,2.91,1.55C83.73,186.73,81.69,187.37,81.34,189.76Z" transform="translate(-0.31 -0.52)"/><path class="cls-6" d="M143.35,198.48c1.45,1.92,3.56,2.51,5.79,2.83-1,.86-1.71,2.72-3.29,1.67S142.82,200.72,143.35,198.48Z" transform="translate(-0.31 -0.52)"/><path class="cls-10" d="M62.35,195.65c2.26.15,3.14-2.12,4.92-2.82.07,1.95-3.16,5.28-4.77,4.79C61.16,197.2,62.23,196.33,62.35,195.65Z" transform="translate(-0.31 -0.52)"/><path class="cls-6" d="M84.87,170.3l3.47,1.51c1.31,1.3,3.5,1.51,4.31,3.44C89.48,174.51,86.55,173.39,84.87,170.3Z" transform="translate(-0.31 -0.52)"/><path class="cls-16" d="M112.34,194.24a1.44,1.44,0,0,0,.7-1.41c.45-.11,1-.07,1.31-.34,1.91-1.84,3.13-1.22,4.12,1.51C116.17,192.5,114.56,195.81,112.34,194.24Z" transform="translate(-0.31 -0.52)"/><path class="cls-11" d="M50.39,190.75c1.31.59,1.67,1.94,2.6,2.84-1.31,1.17-2.18-1.76-3.33,0v.67H49c-.27-.95-2.46-.3-1.74-2,.45-1,1.25-1.52,2.47-.66C50.23,192,50.3,191.16,50.39,190.75Z" transform="translate(-0.31 -0.52)"/><path class="cls-16" d="M80,187.31c-.1.93,0,2.6-1.3,2.27-1.66-.43-.39-2.48-1.08-3.67-.41-.73-.17-1.5.81-1.37C79.91,184.75,80,186,80,187.31Z" transform="translate(-0.31 -0.52)"/><path class="cls-16" d="M58.12,193.54a2.39,2.39,0,0,0-1.78-1.43c-.9-.23-1.09-.72-.33-1.39a8,8,0,0,1,1.7,0c1,.21,2.65-.74,2.83.87C60.67,192.76,59.39,193.45,58.12,193.54Z" transform="translate(-0.31 -0.52)"/><path class="cls-16" d="M112.31,204.12l.75,0,3.83,4.48h-4.4C114.7,206.89,112.32,205.65,112.31,204.12Z" transform="translate(-0.31 -0.52)"/><path class="cls-16" d="M96.53,185a3.4,3.4,0,0,1-.67,1c-.75.56-.86-.19-1.18-.64a13.56,13.56,0,0,0-1.38-1.46c-.93-1-.37-1.78.47-2.26,1.18-.67,1,.54,1,1C94.83,183.88,96.87,183.37,96.53,185Z" transform="translate(-0.31 -0.52)"/><path class="cls-11" d="M104,202.61c-.78-1.46-2.14-1.41-3.5-1.38,0-1-.43-2.23.86-2.76,1.74-.71,1,1.08,1.45,1.64S106.44,200.47,104,202.61Z" transform="translate(-0.31 -0.52)"/><path class="cls-9" d="M91.65,191.88c-.08,1.17-1.14,1-1.82,1.25-1.53.52-1.68-.81-2-1.74-.21-.63.2-1.31.86-1.08C89.75,190.67,91.11,190.54,91.65,191.88Z" transform="translate(-0.31 -0.52)"/><path class="cls-15" d="M84.84,195.68l0-1.43c.64,0,2.22-.62,1.73,0-1.25,1.64,3.42,2.18.4,3.53l-.71,0a1.44,1.44,0,0,0-1.42-.72h0Z" transform="translate(-0.31 -0.52)"/><path class="cls-16" d="M42.66,200.59c0,.69,0,1.39,0,2.09-.42.64-.7,1.93-1.36,1.71-1.3-.42-1.15-2-1.5-3.1h0Z" transform="translate(-0.31 -0.52)"/><path class="cls-15" d="M134.85,195l-.67-2.13c1.48-.3,2.41.75,3.51,1.41-.06,1-.42,1.84-1.55,2C135.22,196.38,135,195.71,134.85,195Z" transform="translate(-0.31 -0.52)"/><path class="cls-9" d="M122.48,214.34c-.49,1.06-1.21,2-2.34,1.5s-1.15-1.76-1.13-3.23Z" transform="translate(-0.31 -0.52)"/><path class="cls-16" d="M118,171.71l.71.71v1.4h0l-.72.71c-2.59.15-2.27-2-2.8-3.52l1.43.06c.08.5-.3,1.2.37,1.41C117.19,172.56,117.63,172,118,171.71Z" transform="translate(-0.31 -0.52)"/><path class="cls-6" d="M16.45,201.25c.08-.64.17-1.27.26-1.9,1.69-.12.5-1.76,1.25-2.37l.8.07a7.8,7.8,0,0,1-2,6Z" transform="translate(-0.31 -0.52)"/><path class="cls-9" d="M86.3,197.77l.71,0c-1.43,1.79-2.9,3.36-4.94.67h0c1.33.3,2-.66,2.83-1.42h0A1.46,1.46,0,0,0,86.3,197.77Z" transform="translate(-0.31 -0.52)"/><path class="cls-9" d="M40,168.75c.35-2.25.19-3.62,1.34-4.57a.72.72,0,0,1,1.1.47C42.7,166.29,41.4,167,40,168.75Z" transform="translate(-0.31 -0.52)"/><path class="cls-9" d="M31.94,183.14c.8,1.8,1.8,2.68.82,3.83a1.31,1.31,0,0,1-1.29,0C30.22,185.9,31.51,185,31.94,183.14Z" transform="translate(-0.31 -0.52)"/><path class="cls-10" d="M16.62,178.08c.1-1.21-.51-2.54.65-3.55C19.29,176.11,19.18,176.75,16.62,178.08Z" transform="translate(-0.31 -0.52)"/><path class="cls-15" d="M56.71,213.25c1.13-.45,2.87,2.21,3.51-.69,1,0,1.41.61,1.56,1.49-1.57,1.19-3.38.41-5.07.64Z" transform="translate(-0.31 -0.52)"/><path class="cls-15" d="M134.18,192.84l-1.4-.71,0-1.41v-2.1C135.5,189.26,133.58,191.48,134.18,192.84Z" transform="translate(-0.31 -0.52)"/><path class="cls-15" d="M114.46,202v-2.83c1,.11,2,.38,1.84,1.59C116.21,201.69,115.33,201.94,114.46,202Z" transform="translate(-0.31 -0.52)"/><path class="cls-9" d="M132.75,190.72l0,1.41h0l-.71.7h0c-.62-.11-1.76.2-1.68-.64C130.48,191,131.73,190.87,132.75,190.72Z" transform="translate(-0.31 -0.52)"/><path class="cls-5" d="M56.72,197.79a6.71,6.71,0,0,1-5-1.43l2.15-.14C54.86,196.72,56.1,196.71,56.72,197.79Z" transform="translate(-0.31 -0.52)"/><path class="cls-9" d="M29.51,164.19a2.66,2.66,0,0,1-.17,3.13C28.29,166.31,28.36,165.46,29.51,164.19Z" transform="translate(-0.31 -0.52)"/><path class="cls-9" d="M22.86,206.68c0,.59,0,1.11-.55,1.22s-.68-.46-.74-.89,0-1,.54-1.11C22.8,205.75,22.71,206.41,22.86,206.68Z" transform="translate(-0.31 -0.52)"/><path class="cls-10" d="M122.9,194.24c1.1.16,2.6-.5,2.84,1.4C124.61,195.55,123.14,196.13,122.9,194.24Z" transform="translate(-0.31 -0.52)"/><path class="cls-16" d="M120.79,168.9c-1.67,1-2.22.27-2.1-1.42C119.71,167.47,120.74,167.46,120.79,168.9Z" transform="translate(-0.31 -0.52)"/><path class="cls-16" d="M120.09,172.42a4.73,4.73,0,0,1,.73-2.84C121.75,170.83,122.1,171.93,120.09,172.42Z" transform="translate(-0.31 -0.52)"/><path class="cls-16" d="M39.79,180.19c-.84-.12-1.85.2-2.35-1.14,1.21-.4,2.13-.5,2.4,1.09Z" transform="translate(-0.31 -0.52)"/><path class="cls-15" d="M63.05,178.05c0,.93,0,1.86,0,2.79C60.88,179.9,61.76,179,63.05,178.05Z" transform="translate(-0.31 -0.52)"/><path class="cls-9" d="M34.06,179.59c-.44.21-.7.44-1,.44-.5,0-.84-.33-.6-.82.09-.2.57-.32.84-.28S33.74,179.29,34.06,179.59Z" transform="translate(-0.31 -0.52)"/><path class="cls-9" d="M53.9,185.1a1.45,1.45,0,0,1,.7-1.42c.49.14,1.29.09,1,.88S54.51,185,53.9,185.1Z" transform="translate(-0.31 -0.52)"/><path class="cls-5" d="M58.11,199.32c-.61-.39-1.34-.68-1.42-1.55C57.62,197.87,59.4,197.2,58.11,199.32Z" transform="translate(-0.31 -0.52)"/><path class="cls-11" d="M168.68,207.62a1.29,1.29,0,0,1-1.4,1.41c-.23-.47-.47-.93-.7-1.4h2.1Z" transform="translate(-0.31 -0.52)"/><path class="cls-10" d="M16.61,187.93a1.37,1.37,0,0,1,.66-1.43C18.36,187.58,17.5,187.76,16.61,187.93Z" transform="translate(-0.31 -0.52)"/><path class="cls-9" d="M50.37,187.91c-.51-.09-1.11-.07-1.06-.85,0-.08.14-.21.22-.22.77,0,.75.56.84,1.07Z" transform="translate(-0.31 -0.52)"/><path class="cls-9" d="M92.19,178.24c.09-.2.13-.5.27-.56a.61.61,0,0,1,.55.24.59.59,0,0,1-.24.54C92.63,178.52,92.39,178.32,92.19,178.24Z" transform="translate(-0.31 -0.52)"/><path class="cls-15" d="M61.69,171.22c.12.15.33.29.34.45a.43.43,0,0,1-.61.47c-.13,0-.26-.36-.23-.52S61.47,171.38,61.69,171.22Z" transform="translate(-0.31 -0.52)"/><path class="cls-9" d="M44.74,175.92c.26-.39.63-.71,1-.3s.08.77-.32,1Z" transform="translate(-0.31 -0.52)"/><path class="cls-9" d="M19.83,170.5c-.2.08-.45.26-.58.2s-.17-.37-.25-.57c.2-.08.45-.26.58-.2S19.75,170.3,19.83,170.5Z" transform="translate(-0.31 -0.52)"/><path class="cls-15" d="M113.05,203.37c.16-.62-.62-1.23,0-1.82.06-.05.5.3.76.46C113.74,202.57,113.65,203.11,113.05,203.37Z" transform="translate(-0.31 -0.52)"/><path class="cls-16" d="M36,179.25c.1.2.27.39.26.57s-.2.35-.3.52c-.09-.18-.26-.37-.26-.55S35.85,179.44,36,179.25Z" transform="translate(-0.31 -0.52)"/><path class="cls-15" d="M49,194.23h.65l0,1.44-.71.68Z" transform="translate(-0.31 -0.52)"/><path class="cls-10" d="M127.83,195v-2.11C128.75,193.54,128.75,194.25,127.83,195Z" transform="translate(-0.31 -0.52)"/><path class="cls-10" d="M59.53,200.61a1.47,1.47,0,0,1-1.42-.72A1.42,1.42,0,0,1,59.53,200.61Z" transform="translate(-0.31 -0.52)"/><path class="cls-15" d="M63.82,212.55c0,.61-.14,1.19-.81,1.45A1.45,1.45,0,0,1,63.82,212.55Z" transform="translate(-0.31 -0.52)"/><path class="cls-9" d="M33,171.51c.09,0,.25.06.25.1a1.14,1.14,0,0,1-.09.3c-.09,0-.25-.06-.25-.1A1.14,1.14,0,0,1,33,171.51Z" transform="translate(-0.31 -0.52)"/><path class="cls-9" d="M93.16,193.57l-.2.24c0-.09-.15-.19-.14-.28s.12-.17.18-.25Z" transform="translate(-0.31 -0.52)"/><path class="cls-6" d="M50.32,161.12a1.79,1.79,0,0,1,.69.07l-.39.5Z" transform="translate(-0.31 -0.52)"/><path class="cls-16" d="M31.36,197.77l-.16.3.16-.31Z" transform="translate(-0.31 -0.52)"/><path class="cls-15" d="M46.16,167.5l-.18.29c.06-.1.11-.21.16-.31Z" transform="translate(-0.31 -0.52)"/><path class="cls-6" d="M92.6,175.21l.68.62Z" transform="translate(-0.31 -0.52)"/><path class="cls-14" d="M201.78,159.73l-19,0c.74-1.9.59-3.06-1.79-3.8s-5-.83-7.46-1.27c-6.74-1.2-6.73-1.29-6.21,5.09-15.24-2.06-30.56-1.25-45.86-1.35l-2.74-.13c0-.44,0-.87,0-1.31a8.52,8.52,0,0,1,.7-1.6c1.24-1.78-.31-4.51,2.25-5.9,3.83-2.08,7.84-3.12,12.08-2.09,2.17.53,3.87.56,5.36-1.26.43-.53,1-1.16,1.78-.85,3.22,1.3,5-.38,6.64-2.86,1.14-1.76,2.43-1.8,4-.27a4,4,0,0,0,4.49,1.13c1.8-.7,1.7-1.8,1.69-3.54,0-2,2.22-2.81,4.07-3.12s2.84.79,2.72,2.69c-.08,1.37.47,2.46,1.79,2.61,4.11.48,8,2.44,12.38,1.34,2.76-.69,4.51,1.33,6.1,3.15.49.55.46,1.73,1.31,1.93,2.69.62,4.31,2.63,6,4.5,2.57,2.85,5.16,2.1,7.68.11,1.83-1.45,3-2.83,3.75,1,.36,1.81,3.71,2.47,3.26,5.26l-2.09,0c-.09-.93-.49-1.54-1.54-1.47C201.71,157.77,201.83,158.8,201.78,159.73Z" transform="translate(-0.31 -0.52)"/><path class="cls-14" d="M107.41,158.26c-3.79-.95-7.65-.52-11.47-.56-10-.09-20-.1-30.07-.14A3.44,3.44,0,0,0,65,155a26.24,26.24,0,0,1-2.09-2.81c-1.31-1.95-2.2-4.15-.46-6.13,2-2.23,4.6-.58,6.42.19,1.42.61,2.64,1.65,4.34,1.61.33,0,.87.13,1,.34,2.49,6.26,6.13.58,9.18.91,1.72.18.92-3.11,2.87-2.17,1.43.69.45,2.61,1.3,3.83,1.89,2.72,3,2.8,4.73-.08,1.42-2.38,2.69-4.81,5.61-5.73.64-.2,1.62-1,1.86-.4,1.93,4.53,6.79,7.24,7.69,12.38Z" transform="translate(-0.31 -0.52)"/><path class="cls-2" d="M61.64,157.6c-3-.88-6.2-.13-9.14-1.3-.18-.4-.37-1.16-.54-1.15-1.25,0-2.59-.15-2.68-1.53a6.43,6.43,0,0,1,1.64-4.45c.23-.27,1.07-.49,1.18-.36,2.65,3.22,7.22,4.09,9.47,7.76C61.73,156.83,61.62,157.26,61.64,157.6Z" transform="translate(-0.31 -0.52)"/><path class="cls-2" d="M107.41,158.26v-1.34c1.49-.06,3,.4,2.54-2.36-.28-1.53.68-4.42,2.46-4.22a3.67,3.67,0,0,1,3.15,4.9c-.4,1.17.32,2,.3,3.06Z" transform="translate(-0.31 -0.52)"/><path class="cls-2" d="M41.93,156.86l-4.93.08c-.09-1.53.44-3.24,1.93-3.1C40.15,154,42.14,154.66,41.93,156.86Z" transform="translate(-0.31 -0.52)"/><path class="cls-2" d="M46.85,156.93a1.54,1.54,0,0,1-1.44-.57c.21-.65-.31-2,.83-1.77S46.69,156.11,46.85,156.93Z" transform="translate(-0.31 -0.52)"/><path class="cls-2" d="M118.68,156.92c0,.44,0,.87,0,1.31l-1.43.08A1.28,1.28,0,0,1,118.68,156.92Z" transform="translate(-0.31 -0.52)"/><path class="cls-13" d="M194.77,187.93c.66,4.19-.26,8.46.66,12.64-2.37-1.35-4.26-1.45-5.11,1.76-.35,1.34-1.53,2-2.72,2.53s-2,.47-2-1.12c-.1-3.62-1.72-2.51-3.42-1.07l-.21-1.44.87-7.72c1.36-4.49.3-9.19,1.24-13.72.13-.63-.58-.92-1.2-1-.06-1-.13-1.92-.2-2.88a3.62,3.62,0,0,0,.09-.66c1-.5.41-2.37,2-2.33.21.4.47.78,1,.55.11-.05.19-.52.15-.54-.37-.18-.77-.31-1.16-.46.23-1,.47-1.94.7-2.91,2.11.23,2.37-.64,1.37-2.28,1.09-1.16,3.4.25,4-1.9l.08,0,.93.69,2.23.17c.57,3.67,2.17,7.28,1.28,11C194.53,180.81,194.82,184.37,194.77,187.93Z" transform="translate(-0.31 -0.52)"/><path class="cls-12" d="M215.24,208.28l.09-2c3.31-.09,2.76-3.17,3.79-5,.1-.17-.37-.8-.71-1s-.86,0-1,.52c-.24.72-.06,1.88-1.23,1.72-1.42-.2-1.47-1.57-1.74-2.67l0-14.76c4.4.14,3.45-3.07,3.52-5.63h0l2.79,0a19.14,19.14,0,0,1,.76,5.48c.15,6.15.44,12.3.68,18.44.3,3.22-1.65,4.93-4.19,6.24C217.72,207.91,216.31,208.45,215.24,208.28Z" transform="translate(-0.31 -0.52)"/><path class="cls-13" d="M218,179.46c-.07,2.56.88,5.77-3.52,5.63,0-3.15-.21-6.24.85-9.41.44-1.3-1.42-3.42-1.55-5.38h.72c1.18.29,1.54,2.06,3,1.8.72-.79-.76-1.85.42-2.5h2.87l0,9.88-2.79,0c-.19-.24.32-1-.53-.75Z" transform="translate(-0.31 -0.52)"/><path class="cls-13" d="M214.42,199.85c.27,1.1.32,2.47,1.74,2.67,1.17.16,1-1,1.23-1.72.16-.5.54-.83,1-.52s.81.85.71,1c-1,1.83-.48,4.91-3.79,5-.31-.69.17-1.59-.88-2.42V209a13.55,13.55,0,0,0-2.45-1.88c-2.15-1-2.76-1.86-1.7-4.51,1-2.43.52-5.48,1.89-8.09C214.28,195.92,211.49,199,214.42,199.85Z" transform="translate(-0.31 -0.52)"/><path class="cls-7" d="M191.23,162.5c7.08-.2,14.16-.46,21.18.83.27,0,.47.42.7.63l-2.93.89c-5.68-.17-11.34-.59-17-.29a5.53,5.53,0,0,1-1.92-.65Z" transform="translate(-0.31 -0.52)"/><path class="cls-12" d="M191.23,163.91a5.53,5.53,0,0,0,1.92.65c5.69-.3,11.35.12,17,.29-.36,1.77-1.79,1.07-2.84,1.23s-2.35-.27-1.24,1.69c.73,1.28-1,1.31-1.35,1-1.35-1.17-3.29-.47-4.67-2-1.52-1.67-4-.46-6-.6l-2.23-.17-.93-.69-.09,0a1.35,1.35,0,0,1-1.19-.89Zm10.38,2.66a6.23,6.23,0,0,0,1.07.19c.2,0,.4-.17.6-.27-.25-.54-.74-.39-1.16-.35C202,166.15,201.84,166.36,201.61,166.57Z" transform="translate(-0.31 -0.52)"/><path class="cls-13" d="M203.25,192a3.72,3.72,0,0,1-1.44-3.61c.06-.81-.48-2.15.94-2.16.89,0,1.17,1,1.12,1.89C203.78,189.3,204.3,190.6,203.25,192Z" transform="translate(-0.31 -0.52)"/><path class="cls-13" d="M213.76,170.3c-.58,1.48-1.15,2.95-1.82,4.68a3.64,3.64,0,0,1-.49-4.6c.54-.93,1.5-1,2.3-.08Z" transform="translate(-0.31 -0.52)"/><path class="cls-12" d="M217.93,169.6c-1.18.65.3,1.71-.42,2.5-1.49.26-1.85-1.51-3-1.8.05-1.65,1.67-1.67,2.61-2.2C217.67,167.77,217.9,168.92,217.93,169.6Z" transform="translate(-0.31 -0.52)"/><path class="cls-13" d="M208.13,197.77c-.16,1.72.33,3.48-.73,5.12-.42-1.76-2-3.61.71-5.13Z" transform="translate(-0.31 -0.52)"/><path class="cls-13" d="M208.11,197.76l.17-.3-.15.31Z" transform="translate(-0.31 -0.52)"/><path class="cls-3" d="M182,201.23l.21,1.44c0,1.45-.71,3,.47,4.31-1.36,2.07-1.41,4.41-1.31,6.79-1-.31-.34-1.33-1-2-.57,1.37-1.1,2.65-1.62,3.92.27-1.33-1.18-1.14-1.61-1.84a20.61,20.61,0,0,0,.74-6.81c.07-1-.42-1.45-1.37-1.5,0-.46,0-.93,0-1.4,3.61-.48,2.42-2,.73-3.53-1.18-1.52-2.35.17-3.52,0-.07-.62.22-1.47-.54-1.72s-.74.53-.87,1c-4-.14-3.38-4.74-6.05-6.15-.15-.08-.19-.71-.06-1a.77.77,0,0,1,1.2-.22,19.71,19.71,0,0,1,1.57,1.33c3.16,2.74,8.53,1.76,9.67-1.76.52-.84,1.34-.69,2.14-.64C181.46,194.69,180.91,198.07,182,201.23Z" transform="translate(-0.31 -0.52)"/><path class="cls-5" d="M182.63,207c-1.18-1.32-.44-2.86-.47-4.31,1.7-1.44,3.32-2.55,3.42,1.07,0,1.59.73,1.74,2,1.12s2.37-1.19,2.72-2.53c.85-3.21,2.74-3.11,5.11-1.76-1.5,3.94-5.26,6.32-7,10.26-.53,1.25-2.59-.44-3.67-1.54C184.07,208.54,184.37,206.79,182.63,207Z" transform="translate(-0.31 -0.52)"/><path class="cls-15" d="M177.05,213.82c.43.7,1.88.51,1.61,1.84l0,.25a1.74,1.74,0,0,0-.82,1.55c-1.07-1.94-4.83-.08-4.88-3.45,1.83-2.33,2.81-4.81,1.39-7.73.47-.87,1.32-.73,2.1-.77,1,.05,1.44.52,1.37,1.5C175.38,209,176.33,211.44,177.05,213.82Z" transform="translate(-0.31 -0.52)"/><path class="cls-3" d="M177.81,217.46a1.74,1.74,0,0,1,.82-1.55c0,.75-.07,1.52-.1,2.28Z" transform="translate(-0.31 -0.52)"/><path class="cls-7" d="M176.44,222.45l.78-.91A.92.92,0,0,1,176.44,222.45Z" transform="translate(-0.31 -0.52)"/><path class="cls-3" d="M100.36,214l.69-.09a16,16,0,0,1,4.25,2.85c.26.61.87,1.38.69,1.79-.31.67-1.28.39-1.77.08-1.5-.93-4.26.43-4.63-2.53C100.49,215.65,100.35,214.8,100.36,214Z" transform="translate(-0.31 -0.52)"/><path class="cls-10" d="M88.39,215.36c.19-.36.32-1,.57-1,.77-.15.75.54.83,1.07Z" transform="translate(-0.31 -0.52)"/><path class="cls-3" d="M129.94,221l1.37,0C130.87,221.78,130.41,221.73,129.94,221Z" transform="translate(-0.31 -0.52)"/><path class="cls-2" d="M121.44,158.36c15.3.1,30.62-.71,45.86,1.36l12.65,0c.92,1,2.16.59,3.28.67s2.19-.12,2.34,1.41l-5.62.37a56.89,56.89,0,0,0-11.3,0c-9.1-1.52-18.26-1.25-27.42-1l-6.36-.33a1.68,1.68,0,0,0-2.24-.14l-11.11-.35Z" transform="translate(-0.31 -0.52)"/><path class="cls-1" d="M180,159.74l-12.65,0c-.52-6.39-.53-6.3,6.21-5.1,2.48.44,5,.51,7.46,1.27s2.53,1.9,1.79,3.8Z" transform="translate(-0.31 -0.52)"/><path class="cls-15" d="M180,162.19l5.62-.37,2.16.58,0,1.52-7.43-.16Z" transform="translate(-0.31 -0.52)"/><path class="cls-3" d="M187.71,163.92l0-1.52a4.71,4.71,0,0,1,3.5.1v1.41l-1.58.57-1.09-.06C188.28,164.25,188,164.08,187.71,163.92Z" transform="translate(-0.31 -0.52)"/><path class="cls-4" d="M201.78,159.73c.05-.93-.07-2,1.31-2,1-.07,1.45.54,1.54,1.47C203.82,160,202.77,159.71,201.78,159.73Z" transform="translate(-0.31 -0.52)"/><path class="cls-3" d="M18,197c-.75.61.44,2.25-1.25,2.37-.05-1.46-.1-2.92-.16-4.39C18,195,18,195.94,18,197Z" transform="translate(-0.31 -0.52)"/><path class="cls-13" d="M215.24,208.28c1.07.17,2.48-.37,2.78,1.36C216.24,210.93,215.71,209.67,215.24,208.28Z" transform="translate(-0.31 -0.52)"/><path class="cls-8" d="M217.43,164.58c.16-.36.34-.2.51,0h-.51Z" transform="translate(-0.31 -0.52)"/><path class="cls-3" d="M99,164.17l7.72-.08c0,1,1,1.27,1.41,2,0,.79.14,1.61-.67,2.14-2.73-.51-5.54-2.87-8.07.66-.56.78-1.14-.21-1-1C98.49,166.64,98.76,165.41,99,164.17Z" transform="translate(-0.31 -0.52)"/><path class="cls-11" d="M107.44,168.2c.81-.53.67-1.35.67-2.14,3.58.43,1.28,3.1,1.11,4.19-.31,2.05-.15,3.34,1.71,4.27h0c-1.94.89-4.13-.89-4-3.27C107.07,170.23,107.29,169.22,107.44,168.2Z" transform="translate(-0.31 -0.52)"/><path class="cls-5" d="M92.59,163.29l.84.05c-.13,1.54-.37,3.17,1.86,3.4,1,.1,1.74.53,1.33,1.51-.31.75,0,2.05-1.22,2.19-.9.11-1.17-1-1.75-1.39C91.34,167.39,91.56,165.46,92.59,163.29Z" transform="translate(-0.31 -0.52)"/><path class="cls-11" d="M85.58,166.07l-1.44,0c-.59-.35-1.41-.8-1.09-1.48.52-1.09,1,.32,1.52.22,1.18-.22.48-.94.29-1.5,1.19,0,2.43-.41,3.54.4,0,.53,0,1.06,0,1.59l-.07.07C87.42,165.55,86.32,165,85.58,166.07Z" transform="translate(-0.31 -0.52)"/><path class="cls-11" d="M111.83,187.47c-1.19-1.53-1-3.12-.5-5.12C113.12,184.16,112,185.89,111.83,187.47Z" transform="translate(-0.31 -0.52)"/><path class="cls-11" d="M113.05,173.12c.25,1.17.51,2.34.76,3.51l-.06.72c-2,.17-.31-3.44-2.81-2.82h0l0-1.36Z" transform="translate(-0.31 -0.52)"/><path class="cls-16" d="M115.17,167.48c.9.17,1.63.48.65,1.42a2.65,2.65,0,0,0-.66,2.11h-1.41A3.5,3.5,0,0,1,115.17,167.48Z" transform="translate(-0.31 -0.52)"/><path class="cls-16" d="M113.05,173.12l-2.09,0c.47-1.31,1.12-2.4,2.79-2.16h0c0,.24,0,.47,0,.71a1.43,1.43,0,0,0-.7,1.41Z" transform="translate(-0.31 -0.52)"/><path class="cls-16" d="M113.75,177.35l.06-.72c.61.21,1.91-.36,1.61.87C115.21,178.33,114.34,177.44,113.75,177.35Z" transform="translate(-0.31 -0.52)"/><path class="cls-16" d="M117.08,175.53l.59.25c-.09.2-.13.5-.27.56s-.38-.14-.57-.22C116.91,175.92,117,175.73,117.08,175.53Z" transform="translate(-0.31 -0.52)"/><path class="cls-11" d="M113.05,173.13a1.43,1.43,0,0,1,.7-1.41l.48,1.51Z" transform="translate(-0.31 -0.52)"/><path class="cls-11" d="M88.44,165.34l.9.32c-.07.09-.18.26-.2.25-.26-.16-.51-.33-.76-.5Z" transform="translate(-0.31 -0.52)"/><path class="cls-3" d="M118,174.53l.72-.71Z" transform="translate(-0.31 -0.52)"/><path class="cls-3" d="M158.81,197.05c-1,0-2,0-2.1-1.39,0-.24,0-.47,0-.71,1.19,0,2.39,0,2.68-1.55.09-.49-.09-1-.62-1.06-1.63-.16-1.68,1.21-2,2.26a2,2,0,0,0,0,.34c-1.55-.46-3.11-.9-4.65-1.39a5.48,5.48,0,0,1-1.43-.69c1.29-3.7-2.23-4.87-3.66-7.13-.22-.34-.09-.91-.12-1.37.6.16,1.18.93,1.81.2.45-.52.1-1-.27-1.49-.54-.7-1-1.46-1.49-2.19-.83-1.56-2.86-2.77-1.45-5,1.28,0,4,1.62,3.49.45-1.14-2.84,1.57-2.58,2-3.9l.83,0,2.1-.68c-.7,1.36-1.54,2.75.72,3.51.09,1.43-1.5,1.23-2,2.05s-1.26,2.26.6,2.05,3.89.74,5.63-.58c0,1.45,0,1.44.91,1.18,3.14-.87,2.35,2.43,3.36,3.61.8.92-1.38.51-2.17.85-.09-.52-.07-1.12-.85-1.07a.31.31,0,0,0-.22.22c-.06.78.55.76,1.07.85.55,3.93-.22,8.1,3.24,11.38,1.88,1.78,3.33,4,5.74,5.21.09,0,.11.2.17.3-1.3.92-3.22-1.94-4.22.7-1.31-2.3-5.33-1.47-5.65-4.91-.17-.37-.29-1-.53-1C158.93,195.84,158.93,196.55,158.81,197.05Z" transform="translate(-0.31 -0.52)"/><path class="cls-11" d="M145.46,175.9c-1.41,2.21.62,3.42,1.45,5l-1.48,0-.69,0c-.86-1.48-1.67-3-2.61-4.42-.37-.57-.69-3.29-1.85-.24-.14.36-1.66-1.2-1.92-2.39l1.38-.13c-.73-1.38-.21-3.42-2.18-4.15,0-2,.73-3.15,2.93-2.79l.06,2.1c-.56.36-.45.58.13.7l3.37,0h0c.17.31.35.5.61.09,2.43.38,1.49,2.12,1.43,3.52-.94.06-1.91-.39-2.82.19l.8.91c-.06,1,.37,1.6,1.43,1.63Z" transform="translate(-0.31 -0.52)"/><path class="cls-15" d="M135.54,176.64c1.37-.24,2.23.6,2.94,1.54a17.86,17.86,0,0,1,3.15,8.74.94.94,0,0,1-.45.79c-.27.11-.9,0-.94-.15-1-3.2-4.38-4.2-6.08-6.72C137.1,180.25,136.69,178.57,135.54,176.64Z" transform="translate(-0.31 -0.52)"/><path class="cls-3" d="M130,180.87a8.63,8.63,0,0,0-3.5-3.58c-.76-2,2-3.64.48-5.76-.19-.26.89-.55,1.42-.4a2.8,2.8,0,0,1,2.28,2.71H130c-.29-.4-.67-.78-1.1-.34s0,.82.35,1.1a21.13,21.13,0,0,1,1.35,2.69c.7,2.07,1.42.52,2.14.07.08-.28.15-.79.25-.79.59-.05.35.49.46.79-.23.93-.47,1.86-.7,2.79v.69h-.71l-.72-.66A1.34,1.34,0,0,0,130,180.87Z" transform="translate(-0.31 -0.52)"/><path class="cls-10" d="M132.77,180.16c.23-.93.47-1.86.7-2.79,1.46-1.69.31-3.75.77-5.59a1.76,1.76,0,0,1,2.09-.11v1.44c-.39,1.14-2.43,1.92-.8,3.53,1.15,1.93,1.56,3.61-1.38,4.2Z" transform="translate(-0.31 -0.52)"/><path class="cls-3" d="M148.14,193.12c2.52,1.38,4.33,3,3.14,6.32C151.06,196.92,145.62,197.29,148.14,193.12Z" transform="translate(-0.31 -0.52)"/><path class="cls-3" d="M141.92,195.66c-.22-1.18.61-2.66-.94-3.45-.83-.43-1.54-1-.65-1.8a1.55,1.55,0,0,1,2.44.36c.79,1.38,1.8,3,1.75,4.42-.08,2.08-1.62.71-2.6.46Z" transform="translate(-0.31 -0.52)"/><path class="cls-15" d="M136.34,173.11c0-.48,0-1,0-1.43.8-.52.64-1.35.7-2.11l.53,0c2,.73,1.45,2.77,2.18,4.15l-1.38.13Z" transform="translate(-0.31 -0.52)"/><path class="cls-16" d="M145.43,180.91l1.48,0c.49.73,1,1.49,1.49,2.19.37.48.72,1,.27,1.49-.63.73-1.21,0-1.81-.2v-.67C147,182.47,145.87,181.85,145.43,180.91Z" transform="translate(-0.31 -0.52)"/><path class="cls-3" d="M148.26,211.15c-.23-.47-.47-.94-.71-1.4,1.09.06,2.62-.12,2.45,1.44C149.89,212.21,148.86,211.84,148.26,211.15Z" transform="translate(-0.31 -0.52)"/><path class="cls-3" d="M145.43,180.91c.44.94,1.52,1.56,1.43,2.78-1.81-.11-2.19-1.29-2.12-2.81Z" transform="translate(-0.31 -0.52)"/><path class="cls-3" d="M152.93,211.34c-.2.08-.45.26-.59.2s-.17-.36-.24-.56c.2-.08.44-.26.58-.2S152.85,211.14,152.93,211.34Z" transform="translate(-0.31 -0.52)"/><path class="cls-3" d="M161.64,211.86c-.09.5-.07,1.11-.85,1.06a.31.31,0,0,1-.21-.22c-.05-.77.55-.76,1.06-.85Z" transform="translate(-0.31 -0.52)"/><path class="cls-3" d="M151.35,201.48c.08-.19.13-.5.27-.55s.38.14.57.22c-.09.2-.13.5-.27.56S151.54,201.57,151.35,201.48Z" transform="translate(-0.31 -0.52)"/><path class="cls-15" d="M130,180.87a1.34,1.34,0,0,1,1.39-.69l-.69.69H130Z" transform="translate(-0.31 -0.52)"/><path class="cls-15" d="M132.06,180.84h.71C132.53,181.35,132.3,181.35,132.06,180.84Z" transform="translate(-0.31 -0.52)"/><path class="cls-11" d="M176.42,205.51c-.78,0-1.63-.1-2.1.77-1.2,2.43-.66,5.35-2.2,7.67-2.48-.13-2.77-1.77-1.94-3.47.63-1.3.91-2.88,2.25-3.86-1.69-1-2.34,1.39-3.75,1h0c-1.81-3.23,2.14-2.64,2.81-4.23h.71a1.32,1.32,0,0,0,1.38.67h2.15l.67.05Z" transform="translate(-0.31 -0.52)"/><path class="cls-10" d="M172.12,214c1.54-2.32,1-5.24,2.2-7.67,1.42,2.92.44,5.4-1.39,7.73Z" transform="translate(-0.31 -0.52)"/><path class="cls-12" d="M132.79,164.59l-.69-1.14,1.51-.45h7.68l20.3.27c1.74,0,3.52-.19,5.08.88l-.2,2-3.42-.12c-1-1.07-1.22-.29-1.43.57l-2.07.05c-.2-.92-.46-1.69-1.45-.57l-2.79,0c-1.73-3.22-4.15-1.06-6.33-.82-2.32.56-4.88-.12-7,1.39-.11-.95-.39-1.13-1.53-1.14C137.88,165.56,135.22,165.79,132.79,164.59Z" transform="translate(-0.31 -0.52)"/><path class="cls-10" d="M166.67,164.15c-1.56-1.07-3.34-.86-5.08-.88l-20.3-.27-.06-1.8c9.16-.25,18.32-.52,27.42,1l0,1.69Z" transform="translate(-0.31 -0.52)"/><path class="cls-9" d="M113.75,171c-1.67-.24-2.32.85-2.79,2.16l0,1.36c-1.86-.93-2-2.22-1.71-4.27.17-1.09,2.47-3.76-1.11-4.19-.4-.7-1.46-.94-1.41-2l6.33,0c0,1.59-.39,3.4,2.14,3.37A3.5,3.5,0,0,0,113.75,171Z" transform="translate(-0.31 -0.52)"/><path class="cls-12" d="M127.14,166.87c-.09-2.92-3.45-1.89-4.47-3.69a6.3,6.3,0,0,1,4.39-.54c.08.43-1.88,1.43.28,1.23,1.45-.14,2.84-.9,4.37-.5C130.72,165.23,127.92,164.74,127.14,166.87Z" transform="translate(-0.31 -0.52)"/><path class="cls-5" d="M131.71,163.37c-1.53-.4-2.92.36-4.37.5-2.16.2-.2-.8-.28-1.23a10.18,10.18,0,0,1,6.54.36l-1.5.45A.59.59,0,0,1,131.71,163.37Z" transform="translate(-0.31 -0.52)"/><path class="cls-12" d="M132.63,160.73a1.68,1.68,0,0,1,2.24.14C134,162.22,133.28,162.24,132.63,160.73Z" transform="translate(-0.31 -0.52)"/><path class="cls-9" d="M118,171.71c-.34.28-.78.85-1,.77-.67-.21-.29-.91-.37-1.41A1.28,1.28,0,0,1,118,171.71Z" transform="translate(-0.31 -0.52)"/><path class="cls-3" d="M132.79,164.59c2.43,1.2,5.09,1,7.65,1,1.14,0,1.42.19,1.53,1.14l0,0h-1.45c-2.2-.36-3,.79-2.93,2.79l-.53,0-.69,0c-.15-.53-.23-1.24-1-1.07-.92.2-1.12,1-1.16,1.84h0a6.1,6.1,0,0,0-3.33-1.88C131.62,167.13,133.19,166.3,132.79,164.59Zm1,2.7-.1.24.37,0c0-.09,0-.19-.06-.25S133.81,167.29,133.74,167.29Z" transform="translate(-0.31 -0.52)"/><path class="cls-10" d="M130,173.85h.61c.85,1.09.51,2.9,2.13,3.53-.72.45-1.44,2-2.14-.07a21.13,21.13,0,0,0-1.35-2.69Z" transform="translate(-0.31 -0.52)"/><path class="cls-11" d="M136.34,169.54l.69,0c-.06.76.1,1.59-.7,2.11a1.74,1.74,0,0,0-2.09.1c-.84-.45-.17-1-.06-1.47h0Z" transform="translate(-0.31 -0.52)"/><path class="cls-3" d="M84.86,163.35c.19.56.89,1.28-.29,1.5-.5.1-1-1.31-1.52-.22-.32.68.5,1.13,1.09,1.48,0,.66.25,1.49-.62,1.77a1,1,0,0,1-1.26-.9c-.24-1.86-1.79-2.57-3-3.62Z" transform="translate(-0.31 -0.52)"/><path class="cls-16" d="M54.17,191.84l-.4.12-.07-.27Z" transform="translate(-0.31 -0.52)"/><path class="cls-5" d="M51.8,196.38c-.59,0-1.16-.07-1.42-.72C51,195.65,51.54,195.72,51.8,196.38Z" transform="translate(-0.31 -0.52)"/><path class="cls-15" d="M49.66,194.23v-.67C50.15,193.78,50.16,194,49.66,194.23Z" transform="translate(-0.31 -0.52)"/><path class="cls-9" d="M171.5,203.4c-.67,1.59-4.62,1-2.81,4.23h-2.11c-.13-1.9.39-3.88-.71-5.66,1-2.64,2.92.22,4.22-.7A2.13,2.13,0,0,0,171.5,203.4Zm-3-.63a2,2,0,0,0-.43-.28c-.05,0-.25.15-.23.2a1.85,1.85,0,0,0,.21.48Z" transform="translate(-0.31 -0.52)"/><path class="cls-16" d="M158.81,197.05c.12-.5.12-1.21.88-1,.24,0,.36.68.53,1Z" transform="translate(-0.31 -0.52)"/><path class="cls-3" d="M84.89,197.05c-.8.76-1.5,1.72-2.83,1.42-.13-2,.74-3,2.79-2.79C84.86,196.14,84.88,196.59,84.89,197.05Z" transform="translate(-0.31 -0.52)"/><path class="cls-3" d="M132.06,192.84l.71-.7Z" transform="translate(-0.31 -0.52)"/><path class="cls-3" d="M86.3,197.77a1.46,1.46,0,0,1-1.42-.72A1.44,1.44,0,0,1,86.3,197.77Z" transform="translate(-0.31 -0.52)"/><path class="cls-8" d="M166.67,164.15l2-.26,11.27.35c2.83,2,5.72,1.7,8.62.18l1.09.06a1.35,1.35,0,0,0,1.19.89c-.61,2.15-2.92.74-4,1.9-1.79,0-1.7,1-1.37,2.28-.23,1-.47,1.94-.7,2.91a1.36,1.36,0,0,0,0,.45c-1.62,0-1,1.83-2,2.33a1,1,0,0,0-.59-.19l.11,0c-.25-1.82-.15-3.72-1.35-5.29,0-.3-.09-.6-.13-.9.36-1.86-1-2.16-2.3-2.59-3,0-6-.38-8.92.89l-.82,0a1.36,1.36,0,0,0-1.53-.16l-.75-.82Z" transform="translate(-0.31 -0.52)"/><path class="cls-10" d="M182,201.23c-1-3.16-.49-6.54-1.27-9.74.45-1.25.44-1.38-.51-1.33-1.49.08-.73-.92-.86-1.51,1.58,0,.67-1.58,1.35-2.15l1.93-1.17.23,8.18Z" transform="translate(-0.31 -0.52)"/><path class="cls-10" d="M182.66,175.9c.07,1,.14,1.92.2,2.87-.06.71-.13,1.42-.19,2.13-.66.44-.67.88,0,1.33l-.12,2.57-2.56-.44c0-.46,0-.92,0-1.38,0-.25,0-.49,0-.74,1.21-1,.53-2.29.68-3.46.25-1.38-.65-3.26,1.64-3.75l-.11,0Z" transform="translate(-0.31 -0.52)"/><path class="cls-12" d="M182.67,180.9c.06-.71.13-1.42.19-2.13.62.1,1.33.39,1.2,1-.94,4.53.12,9.23-1.24,13.72-.08-2.73-.15-5.46-.23-8.18a1.54,1.54,0,0,0-.06-.52l.12-2.58C182.66,181.79,182.66,181.35,182.67,180.9Z" transform="translate(-0.31 -0.52)"/><path class="cls-12" d="M185.46,169.55c-.33-1.24-.42-2.32,1.37-2.28C187.83,168.91,187.57,169.78,185.46,169.55Z" transform="translate(-0.31 -0.52)"/><path class="cls-12" d="M184.78,172.91a1.36,1.36,0,0,1,0-.45c.39.15.79.28,1.16.46,0,0,0,.49-.15.54C185.25,173.69,185,173.31,184.78,172.91Z" transform="translate(-0.31 -0.52)"/><path class="cls-7" d="M182.66,175.9l-.5-.85a1,1,0,0,1,.59.19A3.62,3.62,0,0,1,182.66,175.9Z" transform="translate(-0.31 -0.52)"/><path class="cls-8" d="M190.93,165.35l.93.69Z" transform="translate(-0.31 -0.52)"/><path class="cls-12" d="M218,179.46l-.53-.75c.85-.22.34.51.53.75Z" transform="translate(-0.31 -0.52)"/><path class="cls-5" d="M201.61,166.57c.23-.21.36-.42.51-.43.42,0,.91-.19,1.16.35-.2.1-.4.27-.6.27A6.23,6.23,0,0,1,201.61,166.57Z" transform="translate(-0.31 -0.52)"/><path class="cls-16" d="M180,183c0,.46,0,.92,0,1.38,0,.79-.15,1.62.69,2.14-.68.57.23,2.15-1.35,2.15a1.79,1.79,0,0,0-2.63.62c-.59,1.46.78,2.19,1.86,2.86-1.14,3.52-6.51,4.5-9.67,1.76a19.71,19.71,0,0,0-1.57-1.33.77.77,0,0,0-1.2.22c-.13.25-.09.88.06,1,2.67,1.41,2.1,6,6.05,6.15a1.45,1.45,0,0,0,1.41.69c1.17.17,2.34-1.52,3.52,0,0,1.34-1.88,1.94-1.4,3.48h-2.15a1.44,1.44,0,0,0-1.38-.67h-.71a2.13,2.13,0,0,1-1.41-2.12c-.06-.1-.08-.26-.17-.3-2.41-1.21-3.86-3.43-5.74-5.21-3.46-3.28-2.69-7.45-3.24-11.38h0c.79-.34,3,.07,2.17-.85-1-1.18-.22-4.48-3.36-3.61-.94.26-.94.27-.91-1.18,2.32-.46,2.9-3.7,5.62-3.52,1.47.12,1.1.94.89,1.94-.26,1.32.34,2.7,1.8,1.82,2.69-1.62,2.51.42,2.94,1.89-1.18,3,2.51,1.47,2.78,3.34-.49.65-2-.39-2.41,1.08a3.13,3.13,0,0,0,3.21.23c1-.4,1.54-1.78,2.79-1.55,1.11.9-1.45,1.67,0,2.31,1,.44,1.72-.34,2-1.37.22-.66.5-1.3.76-1.95H180Zm-15.11,2.5c-1.4,3.43-1.16,5.72,3,5.84,1.14,0,1.77.91,2.5,1.68s1.55,0,2.09-.47a.92.92,0,0,0-.3-1.66C169.12,189.92,167,187.66,164.85,185.48Zm9.9,1.53-.58-.25c-.09.19-.28.42-.23.57s.36.18.55.26C174.58,187.4,174.66,187.21,174.75,187Zm-8.61-5.64a.69.69,0,0,0-.09.3s.16.06.24.1a.73.73,0,0,0,.09-.3S166.23,181.4,166.14,181.37Z" transform="translate(-0.31 -0.52)"/><path class="cls-11" d="M178.54,192.13c-1.08-.67-2.45-1.4-1.86-2.86a1.79,1.79,0,0,1,2.63-.62c.13.59-.63,1.59.86,1.51,1,0,1,.08.51,1.33C179.88,191.44,179.06,191.29,178.54,192.13Z" transform="translate(-0.31 -0.52)"/><path class="cls-6" d="M177.05,213.82c-.72-2.38-1.67-4.78.74-6.81A20.61,20.61,0,0,1,177.05,213.82Z" transform="translate(-0.31 -0.52)"/><path class="cls-9" d="M175.74,204.06c-.48-1.54,1.37-2.14,1.4-3.48,1.69,1.58,2.88,3-.73,3.53Z" transform="translate(-0.31 -0.52)"/><path class="cls-9" d="M173.62,200.58a1.45,1.45,0,0,1-1.41-.69c.13-.5.09-1.3.87-1S173.55,200,173.62,200.58Z" transform="translate(-0.31 -0.52)"/><path class="cls-9" d="M179.94,164.24l-11.27-.35,0-1.69a56.89,56.89,0,0,1,11.3,0l.33,1.56A.67.67,0,0,0,179.94,164.24Z" transform="translate(-0.31 -0.52)"/><path class="cls-12" d="M179.94,164.24a.67.67,0,0,1,.34-.49l7.43.17c.29.16.57.33.85.5C185.66,165.94,182.77,166.22,179.94,164.24Z" transform="translate(-0.31 -0.52)"/><path class="cls-9" d="M164.46,175.23c-2.72-.18-3.3,3.06-5.62,3.52-1.74,1.32-3.75.37-5.63.58s-1.12-1.17-.6-2.05,2.08-.62,2-2.05c2-1.85,5.23-1.35,7.1-3.53C163.7,172,163.51,174.08,164.46,175.23Z" transform="translate(-0.31 -0.52)"/><path class="cls-16" d="M142,166.73c2.13-1.51,4.69-.83,7-1.39,0,.53,0,1,.6,1.29.82,1.38,1.66.19,2.49,0l1.81,0c-1.58,1.6-3.29,3.15-2.1,5.76l-.83,0c-1.86-1.28-3.2.86-4.88.75.06-1.4,1-3.14-1.43-3.52a6,6,0,0,0-.61-.09h0l0-1.42.17-.28-.14.31c-.69-.52-3,1.36-2.11-1.45Z" transform="translate(-0.31 -0.52)"/><path class="cls-15" d="M161.7,171.7c-1.87,2.18-5.07,1.68-7.1,3.53-2.26-.76-1.42-2.15-.72-3.51l.72-4.93.71-.63,2.79,0a2.72,2.72,0,0,0,.08.63c-.85.46-1.85,1.17-1.23,2.1,1.42,2.13,2.59-1.51,4.16-.31A4.1,4.1,0,0,0,161.7,171.7Z" transform="translate(-0.31 -0.52)"/><path class="cls-6" d="M146.07,173.2c1.68.11,3-2,4.88-.75-.43,1.32-3.14,1.06-2,3.9.47,1.17-2.21-.42-3.49-.45l0,0c0-1-.63-1.37-1.43-1.63l-.8-.91C144.16,172.81,145.13,173.26,146.07,173.2Z" transform="translate(-0.31 -0.52)"/><path class="cls-9" d="M154.6,166.79l-.72,4.93-2.1.68c-1.19-2.61.52-4.16,2.1-5.76Z" transform="translate(-0.31 -0.52)"/><path class="cls-16" d="M156.72,194.94a2,2,0,0,1,0-.34c.35-1,.4-2.42,2-2.26.53,0,.71.57.62,1.06-.29,1.53-1.49,1.55-2.68,1.55Z" transform="translate(-0.31 -0.52)"/><path class="cls-16" d="M160.94,184.39c-.52-.09-1.13-.07-1.07-.85a.31.31,0,0,1,.22-.22c.78,0,.76.55.85,1.07Z" transform="translate(-0.31 -0.52)"/><path class="cls-6" d="M141.94,166.76c-.9,2.81,1.42.93,2.11,1.45l0,0,0,1.42-3.37,0c0-.23-.09-.46-.13-.7l-.06-2.1Z" transform="translate(-0.31 -0.52)"/><path class="cls-3" d="M144.05,174.3c.8.26,1.46.64,1.43,1.63C144.42,175.9,144,175.31,144.05,174.3Z" transform="translate(-0.31 -0.52)"/><path class="cls-6" d="M144,169.59a6,6,0,0,1,.61.09C144.38,170.09,144.2,169.9,144,169.59Z" transform="translate(-0.31 -0.52)"/><path class="cls-15" d="M140.55,168.86c0,.24.09.47.13.7C140.1,169.44,140,169.22,140.55,168.86Z" transform="translate(-0.31 -0.52)"/><path class="cls-15" d="M130,173.85l-.75.76c-.39-.28-.78-.66-.35-1.1S129.73,173.45,130,173.85Z" transform="translate(-0.31 -0.52)"/><path class="cls-9" d="M172.21,203.4a1.44,1.44,0,0,1,1.38.67A1.32,1.32,0,0,1,172.21,203.4Z" transform="translate(-0.31 -0.52)"/><path class="cls-3" d="M161.7,171.7a4.1,4.1,0,0,1-.59-3.16c-1.57-1.2-2.74,2.44-4.16.31-.62-.93.38-1.64,1.23-2.1l1.37-.06,2.07-.05c.59.11,1.15.12,1.43-.57l3.42.12.75.82c-.13,1.79-1.39,1.92-2.77,1.89l-.28-.16.3.15c.33,2.84,2.54,2,4.21,2.11a4.35,4.35,0,0,1,.31,3.33,2.71,2.71,0,0,0,1.39,2.93c1.33.73,2.53-2.47,3.48-.26.6,1.42-2.56,1-2.33,2.85a9.38,9.38,0,0,1,0,1.06l-.71,0h-.71c-.43-1.47-.25-3.51-2.94-1.89-1.46.88-2.06-.5-1.8-1.82.21-1,.58-1.82-.89-1.94C163.51,174.08,163.7,172,161.7,171.7Z" transform="translate(-0.31 -0.52)"/><path class="cls-13" d="M154.6,166.79l-.72-.15-1.81,0c-.82-.68-1.65-1-2.49,0-.6-.24-.61-.76-.6-1.29,2.18-.24,4.6-2.4,6.33.82Z" transform="translate(-0.31 -0.52)"/><path class="cls-13" d="M159.55,166.69l-1.37.06a2.72,2.72,0,0,1-.08-.63C159.09,165,159.35,165.77,159.55,166.69Z" transform="translate(-0.31 -0.52)"/><path class="cls-13" d="M163.05,166.07c-.28.69-.84.68-1.43.57C161.83,165.78,162.07,165,163.05,166.07Z" transform="translate(-0.31 -0.52)"/><path class="cls-15" d="M136.34,169.54l-2.15.77c0-.83.24-1.64,1.16-1.84C136.11,168.3,136.19,169,136.34,169.54Z" transform="translate(-0.31 -0.52)"/><path class="cls-15" d="M133.74,167.29c.07,0,.18,0,.21,0s0,.16.06.25l-.37,0Z" transform="translate(-0.31 -0.52)"/><path class="cls-11" d="M168.46,202.77l-.45.4a1.85,1.85,0,0,1-.21-.48c0-.05.18-.22.23-.2A2,2,0,0,1,168.46,202.77Z" transform="translate(-0.31 -0.52)"/><path class="cls-16" d="M171.51,180.91a9.38,9.38,0,0,0,0-1.06c-.23-1.84,2.93-1.43,2.33-2.85-1-2.21-2.15,1-3.48.26a2.71,2.71,0,0,1-1.39-2.93,4.35,4.35,0,0,0-.31-3.33v-1.39c2,1,3.8,2.69,6.34,2.1l.73,0q0,.31,0,.63c.77,1.12,1.4,2.59,3,2.44.72-.07.43-1.18.47-1.84l.14-1.28.29,0h.3l.64-.62.34-1.37c1.2,1.58,1.1,3.48,1.35,5.3-2.29.49-1.39,2.37-1.64,3.75-2,1.88-5.77-.83-7.33,2.66C173.13,181.83,172,181.57,171.51,180.91Z" transform="translate(-0.31 -0.52)"/><path class="cls-11" d="M175.73,172.38q0-.31,0-.63c-.07-.54,0-1.35-.79-1.16-.6.15,0,.73.06,1.12-2.54.59-4.32-1.12-6.34-2.1h0v-1.43h0l.89-1.05c2.88-1.27,5.92-.87,8.92-.89,0,1.55.11,3,2.3,2.59,0,.3.08.6.13.9-.12.45-.23.9-.34,1.36-.22.2-.43.41-.64.62h-.3l-.29,0-.89.76Z" transform="translate(-0.31 -0.52)"/><path class="cls-11" d="M168.69,169.61V171c-1.67-.16-3.88.73-4.21-2.11h0c1.38,0,2.64-.1,2.77-1.89a1.36,1.36,0,0,1,1.53.16c0,.34-.05.68-.07,1h0c-.76.47-.8.95,0,1.43Z" transform="translate(-0.31 -0.52)"/><path class="cls-6" d="M180.79,168.84c-2.19.4-2.3-1-2.3-2.59C179.75,166.68,181.15,167,180.79,168.84Z" transform="translate(-0.31 -0.52)"/><path class="cls-16" d="M168.68,168.19c0-.34,0-.68.07-1l.82,0Z" transform="translate(-0.31 -0.52)"/><path class="cls-9" d="M180.66,186.5c-.84-.52-.69-1.35-.69-2.14l2.56.44a1.63,1.63,0,0,1,.06.53Z" transform="translate(-0.31 -0.52)"/><path class="cls-11" d="M171.51,180.91c.48.66,1.62.92,1.79.53,1.56-3.49,5.28-.78,7.33-2.66-.15,1.17.53,2.5-.68,3.46-.66-.31-.66-.31-.68.73-.26.65-.54,1.29-.76,1.95-.32,1-1,1.81-2,1.37-1.46-.64,1.1-1.41,0-2.31-1.25-.23-1.78,1.15-2.79,1.55a3.13,3.13,0,0,1-3.21-.23c.41-1.47,1.92-.43,2.41-1.08-.27-1.87-4-.36-2.78-3.34h0c.24.5.48.49.71,0Z" transform="translate(-0.31 -0.52)"/><path class="cls-7" d="M182.67,180.9l0,1.33C182,181.78,182,181.34,182.67,180.9Z" transform="translate(-0.31 -0.52)"/><path class="cls-9" d="M179.27,183c0-1,0-1,.68-.73,0,.25,0,.49,0,.74h-.69Z" transform="translate(-0.31 -0.52)"/><path class="cls-3" d="M164.85,185.48c2.19,2.18,4.27,4.44,7.29,5.39a.92.92,0,0,1,.3,1.66c-.54.51-1.33,1.28-2.09.47s-1.36-1.65-2.5-1.68C163.69,191.2,163.45,188.91,164.85,185.48Z" transform="translate(-0.31 -0.52)"/><path class="cls-11" d="M174.75,187c-.09.2-.17.39-.26.58-.19-.08-.49-.12-.55-.26s.14-.38.23-.57Z" transform="translate(-0.31 -0.52)"/><path class="cls-3" d="M166.14,181.37c.09,0,.24.06.24.1a.73.73,0,0,1-.09.3c-.08,0-.24-.06-.24-.1A.69.69,0,0,1,166.14,181.37Z" transform="translate(-0.31 -0.52)"/><path class="cls-9" d="M149.58,166.63c.84-1,1.67-.65,2.49,0C151.24,166.82,150.4,168,149.58,166.63Z" transform="translate(-0.31 -0.52)"/><path class="cls-6" d="M144.05,168.21l.14-.31-.17.28Z" transform="translate(-0.31 -0.52)"/><path class="cls-16" d="M170.8,180.87c-.23.49-.47.5-.71,0Z" transform="translate(-0.31 -0.52)"/><path class="cls-11" d="M164.47,168.89l-.3-.15.28.16Z" transform="translate(-0.31 -0.52)"/><path class="cls-3" d="M175.73,172.38l2.73.09.75.51c0,.66.25,1.77-.47,1.84C177.13,175,176.5,173.5,175.73,172.38Z" transform="translate(-0.31 -0.52)"/><path class="cls-3" d="M175,171.71c0-.39-.66-1-.06-1.12.77-.19.72.62.79,1.16Z" transform="translate(-0.31 -0.52)"/><path class="cls-6" d="M179.21,173l-.75-.51.89-.76C179.3,172.13,179.26,172.55,179.21,173Z" transform="translate(-0.31 -0.52)"/><path class="cls-6" d="M179.94,171.72c.21-.21.42-.42.64-.62Z" transform="translate(-0.31 -0.52)"/><path class="cls-3" d="M168.69,169.61c-.8-.48-.76-1,0-1.43Z" transform="translate(-0.31 -0.52)"/><text class="cls-17" transform="translate(80.96 77.48)"><tspan class="cls-18">U</tspan><tspan x="8.26" y="0">ncrossing Soap</tspan></text><path class="cls-19" d="M212.75,153.73a2.22,2.22,0,0,0-.73-.08l-2.16-.08-8.2-.12-29.58-.16-92.27-.06-25.9,0h-17c-.07,0-.15,0-.12-.07v-8.25c0-16.85-.05-33.06-.08-47.7,0-29.3-.09-52.32-.11-61.62.09-1.47,0-3.6,0-3.6V31c.06-.28-.22-1,.46-.78h1.69l5.37.19a9.75,9.75,0,0,0,2.94-.19H212.82v50.2c0,3.3,0,6.45,0,9.45,0,.43,0,.83,0,1.22,0,.77-.07,1.46-.12,2.09a22.67,22.67,0,0,1-.46,3.14c-.8,3.64-2.3,5.07-4.08,11.91-2.66,10.22-.62,11.85-.62,11.85.38.5,1.48.87,2.06,1.25,1.27.83,2.75,1.9,2.91,3.18a2.48,2.48,0,0,1-1.24,2.22,8.56,8.56,0,0,1-1.44.79c3.34,3.51,6.54,1.48,6.54,1.48,1.06,1.77-.55,5.25-.55,5.25-3.7-2.29-5.08.78-6.73,2.22a4.51,4.51,0,0,1-3.85.84,5.51,5.51,0,0,0,5.91,2.09c-1.4,4.15,3.93,6.93,6.21,9.41s.85,4.53.85,4.53a3.48,3.48,0,0,0,1.65-5c-1.72-3.67-4.46-5.27-1.45-14.23a10,10,0,0,0-2.91-11.33c2.26-.81.74-2.26.16-3.45l0-.08a5.65,5.65,0,0,1-.34-1.08c-2.53-2.18-2.69-5.45-2.62-8.13.06-2.12.24-4.23.45-6.34.4-2.71.7-5.39.91-7.35.21-2.33.34-4.28.42-5.64,0-.35,0-.65.06-.92,0-1.88,0-3.48,0-4.78,0-3,0-4.56,0-4.56V28.54a.72.72,0,0,0-.21,0H34.92s0,0,0,0v2.13h0c0,4.47,0,25.76.09,55.17,0,14.35.07,30.68.11,47.93q0,6.59,0,13.32c0,1.33,0,2.66,0,4v3.74h.25l8,0,27.16-.08,98.12-.43,31.95-.28,8.92-.16,2.34-.08A2.79,2.79,0,0,0,212.75,153.73Z" transform="translate(-0.31 -0.52)"/><image width="124" height="123" transform="translate(114.25 29.28) scale(0.22 0.22)" xlink:href="../../../../Acolyte's%20Concoctions/Images/Logo/1x/logo-black.png"/><text class="cls-20" transform="translate(101.24 94.34)"><tspan class="cls-21">M</tspan><tspan x="14.97" y="0">ade with </tspan><tspan x="14.11" y="16.8" xml:space="preserve">herbs            </tspan><tspan x="23.15" y="33.6" xml:space="preserve">&amp;               </tspan><tspan x="-3.56" y="50.4">essential oils</tspan></text></g></g></svg>