<svg xmlns="http://www.w3.org/2000/svg" xmlns:xlink="http://www.w3.org/1999/xlink" viewBox="0 0 250.84 250.84"><defs><style>.cls-1{fill:#fdfefd;}.cls-2{fill:#f9fbf9;}.cls-3{fill:#d2728b;}.cls-4{fill:#eb7f94;}.cls-5{fill:#e47e8a;}.cls-6{fill:#dd7982;}.cls-7{fill:#ee8098;}.cls-8{fill:#f1dcd7;}.cls-9{fill:#62332f;}.cls-10{fill:#ae857a;}.cls-11{fill:#b76471;}.cls-12{fill:#f0879c;}.cls-13{fill:#e9a0a6;}.cls-14{fill:#f7bcc1;}.cls-15{fill:#e07c99;}.cls-16{fill:#1c0b0c;}.cls-17{font-size:14.79px;stroke:#231f20;stroke-miterlimit:10;}.cls-17,.cls-19{fill:#231f20;font-family:Astloch-Regular, Astloch;}.cls-18{fill:#3f3b3c;}.cls-19{font-size:14px;}.cls-20{letter-spacing:-0.03em;}</style></defs><title>love</title><g id="Layer_2" data-name="Layer 2"><g id="Layer_1-2" data-name="Layer 1"><path class="cls-1" d="M.5,251.29Q.5,127.35.43,3.4C.43,1,.91.52,3.32.52q122.54.12,245.07,0c2.41,0,2.88.47,2.88,2.88q-.12,122.54,0,245.07c0,2.41-.47,2.89-2.88,2.89Q124.45,251.24.5,251.29ZM24.78,161.9v2a44.4,44.4,0,0,0-.12,9.22l0,4.92v2.77c0,3.76,0,7.51,0,11.27V202l.06,1.35.09,1.42a8.19,8.19,0,0,0,.07,4.31c-.37,1.7.78,1.82,2,2a45.28,45.28,0,0,0,11,.67c7.23,1.37,14.47,2.65,21.86,2.8,2.78.32,5.51,1.17,8.36.83l.77.52L71,216c1.27,1,2.7.61,4.1.45,5.39,0,10.56,2.9,16.09,1.28.22-.07.58.34.87.52,1.37,1,3,.57,4.52,1,2.24.08,4.3,1.44,6.62.9l1.58,0a29.42,29.42,0,0,0,8.42.65c1.72,1.47,3.78.62,5.68.87a195.65,195.65,0,0,0,22.54,1.95,1.2,1.2,0,0,0,1.45.62l2.71.33c1.66,1.24,3.6.4,5.4.68,8,1.26,16,2.3,24.19,2h1.43l2.21-.07c.71.06,1.5.51,2-.39,1.53-.1,1.87-1.56,2.75-2.4a4.49,4.49,0,0,0,3.51-1.28l.06,0a2.55,2.55,0,0,0,2.55-1.32c5.07-2.86,10.56-5,15.1-8.78,1.83-1.38,4.39-1.71,5.64-3.91l0,0c2.49-.93,4.65-2.26,5.76-4.83h0c2.61-.24,3.63-1.78,3.47-4.27,1.06-6.38.43-12.81.6-19.21.14-5.5-.08-11,.09-16.52.08-2.44-.31-4.36-2.7-5.44l-1-1.11.22-1.08c2-1.68.24-3.69.44-5.54s-.82-2.31-2.32-1.16c-3.55,2.72-7.19,5.25-11.67,6.22l-.85.59h-1.09a3.64,3.64,0,0,0-3.84,0l-4-.22c-1.57-1.69-3.79-1.13-5.7-1.68-.19-3.38-1.72-6.63-.14-10.18.74-1.67-.82-2.82-2.73-2.4-.94.21-2.22.69-2.46-.33-.76-3.19-3.58-4.67-5.29-7a3.64,3.64,0,0,1-.51-3.37c1.22-3.49,2.25-6.76.74-10.65-.79-2-.88-3.23-3.27-2.29a7.84,7.84,0,0,1-2.07.28,48.75,48.75,0,0,0-15.6,4.61c-5.91,2.7-4.78,9.09-7.95,13.13-.44.56-.31,2.42.09,2.62,3,1.55,1.45,3.46.18,4.68-3.76,3.62-4.26,7.11-.43,10.91a22.27,22.27,0,0,1-4.46.62c-9.27-.61-18.56-.7-27.84-.6-1.23,0-2.6-.5-3.63.66l-1.39,0a5.18,5.18,0,0,0-1.53-.65c-5.91-.29-11.83,0-17.76-.25-2.3-.09-5.35-1-7.54,1.17a106.16,106.16,0,0,1-16,0c0-1.4-.91-1.68-2.11-1.68q-7.86,0-15.73,0c-1.23,0-2,.37-2,1.75l-1.27,0a8,8,0,0,0-9.19.36l.09,2c-2.28-.83-3.93.6-5.72,1.57a1.71,1.71,0,0,0-2.26,0l-3.35.83C25.56,160.43,24.88,160.72,24.78,161.9Z" transform="translate(-0.43 -0.52)"/><path class="cls-2" d="M148.39,154.84c-3.83-3.8-3.33-7.29.43-10.91,1.27-1.22,2.86-3.13-.18-4.68-.4-.2-.53-2.06-.09-2.62,3.17-4,2-10.43,7.95-13.13a48.75,48.75,0,0,1,15.6-4.61,7.84,7.84,0,0,0,2.07-.28c2.39-.94,2.48.27,3.27,2.29,1.51,3.89.48,7.16-.74,10.65a3.64,3.64,0,0,0,.51,3.37c1.71,2.36,4.53,3.84,5.29,7,.24,1,1.52.54,2.46.33,1.91-.42,3.47.73,2.73,2.4-1.58,3.55-.05,6.8.14,10.18-.71.88-1.46.11-2.2.09-2.45-.06-5.07-.7-7,1.61h-4.19c-.45-1.43-1.67-.87-2.63-1.05C164.05,154,156.18,156,148.39,154.84Zm2.4-14.62c2.4-.49,3.79-.65,4.37-2.18a1,1,0,0,0-.89-1.3C152.16,136.43,152.1,138.27,150.79,140.22Z" transform="translate(-0.43 -0.52)"/><path class="cls-3" d="M204.77,213c-4.54,3.78-10,5.92-15.1,8.78-1.06,0-2.34-.36-2.55,1.32l-.06,0c-1.46.11-2.76.13-2.8-2a34.71,34.71,0,0,0-.62-4.38c3.16-.62,5-3.18,7.38-4.92,2.95-2.15,5-4.17,3.46-8.05-.34-.83.23-1.39.92-1.61a2,2,0,0,0,1.65-1.94,1.58,1.58,0,0,1,1.53-1.62c1.2-.07,1,.94,1.31,1.68a16.23,16.23,0,0,0,1.11,2.15c.39.75-.07,2.27,1.23,2.15a3,3,0,0,0,2.46-2.57c.15-.64-.14-1.41.67-1.83,2.51-1.33,2.88-2.23,2.21-5.24,0-3.38-1-6.73-.23-10.13l.06-1.11c.9-.2,2.17-.89,2.65-.53,3.35,2.52,3.3-.49,4.24-2.31,1.08-2.07.52-4.29,1-6.41.15-.75.13-1.81-1-1.87s-1.23.92-1.56,1.65c-.58,1.28.29,2.93-1.21,4.08a24.47,24.47,0,0,1-.44-4.39c-.13-1.39.8-3.7-1.18-3.86s.55,2.24-.86,3l-.3.18-3.67,1c-.49-1.73,1.54-2.73,1.17-4.56-.54-2.62,1.23-3.74,3.47-4.29a5.32,5.32,0,0,0,4.19-4.15c2.57,1.25,2.69-1.3,3.74-2.42,2.39,1.08,2.78,3,2.7,5.44-.17,5.5.05,11-.09,16.52-.17,6.4.46,12.83-.6,19.21-1.08,1.49-3.1,2.21-3.47,4.27h0c-1.76-.59-2.27,1.88-3.94,1.65-.78-2,1.51-2.16,2.21-3.44a3.65,3.65,0,0,1-2.7-1.48c-.48,2.91-.91,5.51-1.33,8.11l0,0A5.5,5.5,0,0,0,204.77,213Zm11.95-15.87c-.3-.85.58-2.46-1-2.45-1.25,0-1.15,1.5-1.15,2.52s-.06,2.42,1.36,2.28C217.22,199.33,216.46,197.94,216.72,197.11Zm-.46-16.76.59.26c.08-.2.28-.43.22-.58a.59.59,0,0,0-.54-.23C216.39,179.85,216.35,180.16,216.26,180.35Z" transform="translate(-0.43 -0.52)"/><path class="cls-4" d="M24.63,200.56q0-4.23,0-8.45c2.34.24,4,0,2.74-3.09a11.76,11.76,0,0,1-.52-2.69c-.34-2.19,2.66-6.62,4.65-6.87.76,1.11,1.72,2.25,2.72.43.77-1.39,1.84-1,2.91-1.14.86,1.35,2.05,2.67,0,4a1,1,0,0,0-.23,1.53c1.94,2.5.59,6.17,3,8.47l-1.48,1.43c-2.08.68-1.34,3.43-3.38,4.43-1.06.53-3,1.68-2.6,3.22.51,1.85,2.6,1.48,4.19,1.55a4,4,0,0,1,1.33.29c3.88,1.62,3.88,1.63,4.09-2.43.41.2,1.08.31,1.18.6,1.37,4.3,5.87,5.22,8.6,8.05.51.52,1.69.68,1.77,0,.22-2.09,2.93-1.83,3.2-3.72,1.7-.18,3.47.41,5.11-.57,2.25-1.34,3.22-.36,3.34,2h-.7c-1,0-2.05,0-2.12,1.4-3,.79-2.5,3.37-2.8,5.54-7.39-.15-14.63-1.43-21.86-2.8-.1-.45-.43-1-.29-1.34,1.38-3.13-.67-2.9-2.66-2.82-1.75.07-3.25-.74-3.25-2.48,0-3.77-3.91-3.49-5.47-5.63C25.71,198.9,25.18,200.22,24.63,200.56Z" transform="translate(-0.43 -0.52)"/><path class="cls-5" d="M118.83,221.71c-1.9-.25-4,.6-5.68-.86-2.81.21-4.51-3.86-7.74-2-.17-.55-.17-1.31-.54-1.59-1.76-1.36-3.53-3-6-2.46-1.82.42-1,2-1.06,3.19-.41.43-.83.86-1.25,1.28-1.49-.43-3.17,0-4.54-1,.4-1,2.58-.62,1.94-2.37-.51-1.38-1.82-1.2-3-1.22h-1c.16-2.26,2-2.64,3.63-3.24s2.52-2,1.8-3.59c-.64-1.43-2.42-1.5-3.64-1.14-3.26,1-5.1-.21-6-3.29,1.41.19,2.34-.63,3.32-1.49s2.27-1.63,3.71-.63c.55,1,.86,2.29,2.42,2,1.36-.23,1.15-1.59,1.59-2.46a4.93,4.93,0,0,0,.23-1.7l1.39,0c-.61,2.1,2,2.6,2.16,4.39a2.25,2.25,0,0,0,2.1,2.33c1.37,0,1.31-1.39,1.62-2.31a16.6,16.6,0,0,0,.48-2.33h1.4c-.24.7-.47,1.41-.71,2.11-.22,2.75-.12,5.29,3.51,5.64,0,1.76,0,3.51,0,5.26s.52,3.31,2.79,3.19h0c1.4,1,2.24,4.89,4.65.85.76-1.26,1.52,0,2.31.28,1.32.43,2.92.8,3.94-.31s.2-2.31-.61-3.16c-1.43-1.5-1.89-3.7-.45-4.55s3-3.68,5.51-1.57a3.08,3.08,0,0,0,2,.42c4.81-.26,5,0,3.78,5.22-1.3,0-2.47.16-1.81,2,.42,1.12.6,2.06-1,2.28C126.48,220.41,123,222.43,118.83,221.71ZM103.36,214c.6,1.36,1.78,1.56,3.07,1.55l-.31-2.23c.86-.48,1.82-1.21,1.13-2.14-1-1.39-2.52-.59-3.79-.11-.89.34-2.51-.46-2.58,1C100.82,213.2,102.05,213.89,103.36,214Zm25.3.82c-.06-.91.11-2-1.21-2.11s-1.6.67-1.58,1.72-.19,2.24,1.37,2.3C128.55,216.72,128.64,215.75,128.66,214.77Z" transform="translate(-0.43 -0.52)"/><path class="cls-4" d="M85.72,203.41c.91,3.08,2.75,4.26,6,3.29,1.22-.36,3-.29,3.64,1.14.72,1.62-.08,2.95-1.8,3.59s-3.47,1-3.63,3.24c-3-1.28-7.39-.52-7.53-5.68,0-1.2-1.33-1.46-2.48-1.32-.84.11-1.34.66-1.18,1.41.35,1.57.72,3-1.77,2.43,0,1.91-2.81,2.71-1.93,5-1.4.16-2.83.59-4.1-.45a27.34,27.34,0,0,0,2.78-14.72c1-1.64-.5-3.28,0-4.91,1.88-.44,2.41-2.35,3.73-3.42,4.25-3.46,6.45-3,9,2a4.73,4.73,0,0,0-2.81.71c-1.88-.24-2.78.86-3.26,2.46a1.22,1.22,0,0,0,.69,1.45c1.35.81,1.77-.6,2.57-1.1l1.41.71a15.76,15.76,0,0,1-.8,2.28C83.26,203.28,84.38,203.41,85.72,203.41Z" transform="translate(-0.43 -0.52)"/><path class="cls-3" d="M175.12,227.24c-8.14.35-16.18-.69-24.19-2-1.8-.28-3.74.56-5.4-.68,1.88-.25,1.36-1.71,1.42-2.86l2.13,0c1.72,1.67,4.22,3.77,6,2.23s4.94-3.59,3.19-7.17a4,4,0,0,1,2.85-4,4.16,4.16,0,0,1,4.19,1.11c1.24,1.71-1,2.76-1.61,4.12-1,2.1.26,6.32,2.34,7.42,1.19.63,2.49.91,3.47-.38.81-1.07.9-2-.4-3s-.48-1.69.58-2.23c1.5-.76,2.42.12,3.31,1.11,0,.23,0,.47,0,.7C171.15,224.53,174.25,225.47,175.12,227.24Z" transform="translate(-0.43 -0.52)"/><path class="cls-6" d="M73.73,201.29A27.34,27.34,0,0,1,71,216l-2.15-.09L68,215.4c-2.85.34-5.58-.51-8.36-.83.3-2.17-.22-4.75,2.8-5.54,1,0,2,0,2.12-1.4h.7c1.36-.25,1.15,1.62,2.6,1.77-.33-2.1,1.79-4.51-1.33-5.93-.86-.39-2.21.31-2.58-1.17-.44-1.73,1.46-1.51,2-2.42.77,0,1.6.12,2.11-.7A5.45,5.45,0,0,1,73.73,201.29Z" transform="translate(-0.43 -0.52)"/><path class="cls-7" d="M37.12,178.75c-1.07.11-2.14-.25-2.91,1.14-1,1.82-2,.68-2.72-.43.23-.94.47-1.88.71-2.82,1,0,2,0,2.1-1.41,0-1.27.08-2.54,0-3.8-.23-2.69-3.14-2.19-3.41-1.46-1.18,3.24-4.2,2.1-6.21,3.18a44.4,44.4,0,0,1,.12-9.22l1.82.06v2l.65.74h1.42c2.1-.64,1.4-3.61,3.54-4.23,2.11-.32,4.38.76,6.35-.76,1,.06,2-.21,2.82.69-.07,1.21,0,2.24-1.93,2-2.69-.36-3.55.89-2.33,3.28.57,1.14.25,2.25.46,3.26C38.15,173.69,35.61,176.1,37.12,178.75Z" transform="translate(-0.43 -0.52)"/><path class="cls-8" d="M148.39,154.84c7.79,1.15,15.66-.83,23.44.67,1,.18,2.18-.38,2.63,1.05-1.75.07-3.5.21-5.25.2l-56.62-.21-.13-1c1-1.16,2.4-.65,3.63-.66,9.28-.1,18.57,0,27.84.6A22.27,22.27,0,0,0,148.39,154.84Z" transform="translate(-0.43 -0.52)"/><path class="cls-6" d="M24.65,173.15c2-1.08,5,.06,6.21-3.18.27-.73,3.18-1.23,3.41,1.46.11,1.26,0,2.53,0,3.8-1,0-2,0-2.1,1.41-.24.94-.48,1.88-.71,2.82-2,.25-5,4.68-4.65,6.87a11.76,11.76,0,0,0,.52,2.69c1.3,3.07-.4,3.33-2.74,3.09,0-3.76,0-7.51,0-11.27a1.94,1.94,0,0,0,0-2.77Z" transform="translate(-0.43 -0.52)"/><path class="cls-6" d="M75.05,216.46c-.88-2.24,2-3,1.93-5,2.49.57,2.12-.86,1.77-2.43-.16-.75.34-1.3,1.18-1.41,1.15-.14,2.45.12,2.48,1.32.14,5.16,4.57,4.4,7.53,5.68h1c1.15,0,2.46-.16,3,1.22.64,1.75-1.54,1.37-1.94,2.37-.29-.18-.65-.59-.87-.52C85.61,219.36,80.44,216.43,75.05,216.46Z" transform="translate(-0.43 -0.52)"/><path class="cls-6" d="M24.63,200.56c.55-.34,1.08-1.66,1.51-1.06,1.56,2.14,5.47,1.86,5.47,5.63,0,1.74,1.5,2.55,3.25,2.48,2-.08,4-.31,2.66,2.82-.14.34.19.89.29,1.34a45.28,45.28,0,0,1-11-.67c-1.22-.19-2.37-.31-2-2,1-.28,2.49.51,3-1.08s-1.28-1.64-2-2.44a5.11,5.11,0,0,0-1.12-.79l-.09-1.42c.52-.47.48-.92-.06-1.35Z" transform="translate(-0.43 -0.52)"/><path class="cls-9" d="M68.19,155.81a106.16,106.16,0,0,0,16,0c1.4.6,2.87.21,4.31.27,0,.48.09,1,.13,1.42-9,.07-18,.1-27,.24-1.82,0-3.74-.54-5.48.52l-12.05.28H40l-2-.25-.09-2L47,155.9l1.27,0C54.94,156.12,61.57,156.19,68.19,155.81Z" transform="translate(-0.43 -0.52)"/><path class="cls-9" d="M216.86,156.63c-.07.36-.15.72-.22,1.08-1.15.62-3.61-1.49-3.53,1.69l0,.26-2.8.25c-4.69,0-9.46-.83-14,1.19-.8-2.38-3-.81-4.37-1.52l.06-1.25c3.95.57,7.92,1.49,11.74-.67-4.1.63-8.3-1-12.36.59l-7.23-.05c1.47-1.23,3.7.56,5-1.26l4.29-.4,4,.22a6,6,0,0,0,3.84,0h1.09l1,.06C207.9,156.79,212.37,155.84,216.86,156.63Z" transform="translate(-0.43 -0.52)"/><path class="cls-8" d="M216.86,156.63c-4.49-.79-9,.16-13.44.17a4.64,4.64,0,0,1-.11-.65c4.48-1,8.12-3.5,11.67-6.22,1.5-1.15,2.53-.72,2.32,1.16S218.84,155,216.86,156.63Z" transform="translate(-0.43 -0.52)"/><path class="cls-10" d="M88.68,157.46c0-.47-.09-.94-.13-1.42,1.28-.82,2.71-.43,4.07-.45,6.15-.07,12.3-.06,18.45-.09l1.39,0c0,.34.09.69.13,1l-10.69,1.08Z" transform="translate(-0.43 -0.52)"/><path class="cls-6" d="M118.83,221.71c4.17.72,7.65-1.3,11.26-2.81,0,1.13.13,2.08,1.62,2.09s2.48-.47,2.59-2.1l1.4,0,0,.08c.53,2.25.59,5.05,4.24,3.46a1.28,1.28,0,0,1,1.39,1.25A195.65,195.65,0,0,1,118.83,221.71Z" transform="translate(-0.43 -0.52)"/><path class="cls-8" d="M68.19,155.81c-6.62.38-13.25.31-19.88.07,0-1.38.81-1.75,2-1.75q7.86,0,15.73,0C67.28,154.13,68.15,154.41,68.19,155.81Z" transform="translate(-0.43 -0.52)"/><path class="cls-11" d="M183.64,216.76a34.71,34.71,0,0,1,.62,4.38c0,2.1,1.34,2.08,2.8,2a4.49,4.49,0,0,1-3.51,1.28c-.29-.94-.25-2.35-1.59-2.25-1.06.08-1.14,1.32-1.2,2.25s0,1.6,0,2.4c-.54.9-1.33.45-2.05.39a2.91,2.91,0,0,0-.09-.58c.77-3.22,2-6.37,1.45-9.78.73.34,1,.24,1.55-.6C182.56,214.7,183.28,215.41,183.64,216.76Z" transform="translate(-0.43 -0.52)"/><path class="cls-5" d="M141.37,223.66a1.28,1.28,0,0,0-1.39-1.25c.34-3.3-2.69-2.47-4.24-3.46l0-.08c0-.93,0-1.86,0-2.78,1.65.49,4.3-1.37,4.83,1.67.37,2.12.45,3.21,2.84,1.51.67-.48,3.86-2,2.88,1.75-2.46-.3-3.52.88-3.45,3.26A1.2,1.2,0,0,1,141.37,223.66Z" transform="translate(-0.43 -0.52)"/><path class="cls-12" d="M178.66,226.6a2.91,2.91,0,0,1,.09.58l-2.2.07a5.72,5.72,0,0,0-3.52-5.54c0-.23,0-.47,0-.7,3.14,0,3.08-2.61,3.21-4.46.08-1.15.3-2.25.46-3.36,1.85.47,1.15,2,1.29,3.16C178.37,219.76,177.16,223.27,178.66,226.6Z" transform="translate(-0.43 -0.52)"/><path class="cls-12" d="M97.8,218c.08-1.17-.76-2.77,1.06-3.19,2.48-.56,4.25,1.1,6,2.46.37.28.37,1,.54,1.59a1.33,1.33,0,0,0-.68,1.35l-1.58,0A5.35,5.35,0,0,0,97.8,218Z" transform="translate(-0.43 -0.52)"/><path class="cls-8" d="M111.07,155.5c-6.15,0-12.3,0-18.45.09-1.36,0-2.79-.37-4.07.45-1.44-.06-2.91.33-4.31-.27,2.19-2.22,5.24-1.26,7.54-1.17,5.93.24,11.85,0,17.76.25A5.18,5.18,0,0,1,111.07,155.5Z" transform="translate(-0.43 -0.52)"/><path class="cls-8" d="M193.53,156.54l-4.29.4c-1.83-1.12-3.72-.87-5.61-.22l-5-.16c1.91-2.31,4.53-1.67,7-1.61.74,0,1.49.79,2.2-.09C189.74,155.41,192,154.85,193.53,156.54Z" transform="translate(-0.43 -0.52)"/><path class="cls-11" d="M210.39,209.09c.42-2.6.85-5.2,1.33-8.11a3.65,3.65,0,0,0,2.7,1.48c-.7,1.28-3,1.42-2.21,3.44,1.67.23,2.18-2.24,3.94-1.65C215,206.83,212.88,208.16,210.39,209.09Z" transform="translate(-0.43 -0.52)"/><path class="cls-11" d="M28.67,166.78H27.25L26.6,166c0-.69,0-1.37,0-2,1.2-1,.35-1.89,0-2.83a1.94,1.94,0,0,0,0-.48l3.35-.83.81,1.28A5.66,5.66,0,0,0,28.67,166.78Z" transform="translate(-0.43 -0.52)"/><path class="cls-11" d="M142.82,224.28c-.07-2.38,1-3.56,3.45-3.26.23.24.46.48.68.73-.06,1.15.46,2.61-1.42,2.86Z" transform="translate(-0.43 -0.52)"/><path class="cls-9" d="M97.8,218a5.35,5.35,0,0,1,5.35,2.18c-2.32.54-4.38-.82-6.61-.9C97,218.84,97.39,218.41,97.8,218Z" transform="translate(-0.43 -0.52)"/><path class="cls-11" d="M213.11,159.4c-.08-3.18,2.38-1.07,3.53-1.69l1,1.11c-1.05,1.12-1.17,3.67-3.74,2.42A2.44,2.44,0,0,0,213.11,159.4Z" transform="translate(-0.43 -0.52)"/><path class="cls-4" d="M173,221.71a5.72,5.72,0,0,1,3.52,5.54h-1.43C174.25,225.47,171.15,224.53,173,221.71Z" transform="translate(-0.43 -0.52)"/><path class="cls-11" d="M104.73,220.19a1.33,1.33,0,0,1,.68-1.35c3.23-1.85,4.93,2.22,7.74,2A29.79,29.79,0,0,1,104.73,220.19Z" transform="translate(-0.43 -0.52)"/><path class="cls-4" d="M24.78,204.78a5.11,5.11,0,0,1,1.12.79c.67.8,2.49.75,2,2.44s-2,.8-3,1.08A8.19,8.19,0,0,1,24.78,204.78Z" transform="translate(-0.43 -0.52)"/><path class="cls-8" d="M47,155.9l-9.19.36A8,8,0,0,1,47,155.9Z" transform="translate(-0.43 -0.52)"/><path class="cls-13" d="M37.94,158.25l2,.25c-.63,1.91-2.26,1-3.48,1.22s-2.65-.47-2.93,1.44l-1.41.07v0l0-1.36C34,158.85,35.66,157.42,37.94,158.25Z" transform="translate(-0.43 -0.52)"/><path class="cls-9" d="M180.8,226.79c0-.8-.09-1.6,0-2.4s.14-2.17,1.2-2.25c1.34-.1,1.3,1.31,1.59,2.25C182.67,225.23,182.33,226.69,180.8,226.79Z" transform="translate(-0.43 -0.52)"/><path class="cls-11" d="M204.77,213a5.5,5.5,0,0,1,5.64-3.91C209.16,211.27,206.6,211.6,204.77,213Z" transform="translate(-0.43 -0.52)"/><path class="cls-11" d="M216.13,204.26c.37-2.06,2.39-2.78,3.47-4.27C219.76,202.48,218.74,204,216.13,204.26Z" transform="translate(-0.43 -0.52)"/><path class="cls-6" d="M26.58,161.16c.36.94,1.21,1.88,0,2.83l-1.82-.06c0-.68,0-1.35,0-2Z" transform="translate(-0.43 -0.52)"/><path class="cls-11" d="M187.12,223.08c.21-1.68,1.49-1.28,2.55-1.32A2.55,2.55,0,0,1,187.12,223.08Z" transform="translate(-0.43 -0.52)"/><path class="cls-14" d="M32.22,159.82c0,.45,0,.91,0,1.36l-1.4-.05L30,159.85A1.71,1.71,0,0,1,32.22,159.82Z" transform="translate(-0.43 -0.52)"/><path class="cls-10" d="M201.37,156.74a6,6,0,0,1-3.84,0A3.64,3.64,0,0,1,201.37,156.74Z" transform="translate(-0.43 -0.52)"/><path class="cls-7" d="M26.58,161.16l-1.8.74c.1-1.18.78-1.47,1.83-1.22A1.94,1.94,0,0,1,26.58,161.16Z" transform="translate(-0.43 -0.52)"/><path class="cls-7" d="M24.61,178.07a1.94,1.94,0,0,1,0,2.77C24.6,179.92,24.61,179,24.61,178.07Z" transform="translate(-0.43 -0.52)"/><path class="cls-4" d="M24.63,202c.54.43.58.88.06,1.35Z" transform="translate(-0.43 -0.52)"/><path class="cls-10" d="M203.31,156.15a4.64,4.64,0,0,0,.11.65l-1-.06Z" transform="translate(-0.43 -0.52)"/><path class="cls-4" d="M68,215.4l.77.52Z" transform="translate(-0.43 -0.52)"/><path class="cls-9" d="M178.65,156.56l5,.16.12,1.44c-1.05.06-2.09.17-3.14.17q-33.13,0-66.27,0c-1.34,0-2.83-.6-4,.67-5.72,0-11.44.14-17.16,0-4.18-.14-8.4.47-12.55-.57,6,0,12,0,18-.1,1.1,0,2.35.48,3.21-.69l10.69-1.08,56.62.21c1.75,0,3.5-.13,5.25-.2Z" transform="translate(-0.43 -0.52)"/><path class="cls-1" d="M150.79,140.22c1.31-1.95,1.37-3.79,3.48-3.48a1,1,0,0,1,.89,1.3C154.58,139.57,153.19,139.73,150.79,140.22Z" transform="translate(-0.43 -0.52)"/><path class="cls-15" d="M213.11,159.4a2.44,2.44,0,0,1,.74,1.84,5.32,5.32,0,0,1-4.19,4.15c-2.24.55-4,1.67-3.47,4.29.37,1.83-1.66,2.83-1.17,4.55l.42,3.82c-.69.44-.67,1.08-.52,1.77-1,2.15-2.46,4.3,0,6.45-.28,1.35-.62,2.7-.85,4.06-.44,2.73.92,4.14,3.49,4.63.67,3,.3,3.91-2.21,5.24-.81.42-.52,1.19-.67,1.83a3,3,0,0,1-2.46,2.57c-1.3.12-.84-1.4-1.23-2.15a16.23,16.23,0,0,1-1.11-2.15c-.27-.74-.11-1.75-1.31-1.68a1.58,1.58,0,0,0-1.53,1.62,2,2,0,0,1-1.65,1.94c-.69.22-1.26.78-.92,1.61,1.57,3.88-.51,5.9-3.46,8.05-2.41,1.74-4.22,4.3-7.38,4.92-.36-1.35-1.08-2.06-2-.54-.5.84-.82.94-1.55.6-.37-6.34.29-12.64.54-19,2.11-.88,2.14,2.09,3.92,2.06,1.94,0,2.24.86.92,2.33-.59.66-.79,1.68,0,2.12s1.18-.72,1.74-1.21c1.69-1.48,1.19-4.37,3.55-5.36l-.08,1.17c0,.52-.16,1.16.54,1.31.51.11.69-.35.79-.78a5.18,5.18,0,0,0,2.13-3.84c2.75-1.44,1.3-4,1.2-5.88-.12-2.55-1.47-5,.07-7.62.33-.55.34-2.56-.7-2.19-3.91,1.36-1.22-1.88-2-2.6,0-1.44,0-2.87,0-4.31s0-2.75-.05-4.12l1.41-.05.73.72c.13,1.42-.37,3.69,1.91,3.23,2-.4-.09-2.12.19-3.23,1.5-.83,5.72,2.11,4.15-3,.42-1.93,2.94-1.12,3.59-2.75l1.39-.14.66-.5c2.17-1.13,5.29-.53,6.39-3.57Z" transform="translate(-0.43 -0.52)"/><path class="cls-15" d="M208.69,173.23l.3-.18c1.41-.73-1.17-3.14.86-3s1.05,2.47,1.18,3.86a24.47,24.47,0,0,0,.44,4.39c1.5-1.15.63-2.8,1.21-4.08.33-.73.55-1.71,1.56-1.65s1.17,1.12,1,1.87c-.45,2.12.11,4.34-1,6.41-.94,1.82-.89,4.83-4.24,2.31-.48-.36-1.75.33-2.65.53C208.16,180.26,209.21,176.84,208.69,173.23Z" transform="translate(-0.43 -0.52)"/><path class="cls-9" d="M208.69,173.23c.52,3.61-.53,7-1.29,10.49l-.06,1.11c-1,.09-1.25,1.56-2.41,1.44-2.47-2.15-1-4.3,0-6.46a1.66,1.66,0,0,0,.52-1.76l-.42-3.82Z" transform="translate(-0.43 -0.52)"/><path class="cls-11" d="M204.93,186.27c1.16.12,1.38-1.35,2.41-1.44-.82,3.4.19,6.75.23,10.13-2.57-.49-3.93-1.9-3.49-4.63C204.31,189,204.65,187.62,204.93,186.27Z" transform="translate(-0.43 -0.52)"/><path class="cls-11" d="M216.72,197.11c-.26.83.5,2.22-.76,2.35-1.42.14-1.35-1.25-1.36-2.28s-.1-2.51,1.15-2.52C217.3,194.65,216.42,196.26,216.72,197.11Z" transform="translate(-0.43 -0.52)"/><path class="cls-15" d="M216.26,180.35c.09-.19.13-.5.27-.55a.59.59,0,0,1,.54.23c.06.15-.14.38-.22.58Z" transform="translate(-0.43 -0.52)"/><path class="cls-12" d="M37.12,178.75c-1.51-2.65,1-5.06.46-7.75-.21-1,.11-2.12-.46-3.26-1.22-2.39-.36-3.64,2.33-3.28,1.9.26,1.86-.77,1.93-2l6.17,0c.26,2.09,2.3,1.12,3.3,1.92,2.58,2.07,3.21.75,3.17-1.79a34.65,34.65,0,0,1,4.56.08c14.3,2,28.79,1.66,43.12,3.36,2,.24,4,1,6.22.61,3.41-.57,6.84,0,10.21.78a1.46,1.46,0,0,1-1.41.8c-4.2.48-8.6-1.19-12.64,1.2-.72.43-1.47-.21-2.23-.49-2.87-1.06-5.65-2.62-8.91-2.14-.89.13-2-.15-2.18,1.16-.23,1.57.89,1.64,2,1.66-.32,3.08.76,5.88-1.62,9.23-3.63,5.14-2.13,6.75,4.78,7h.35c0,.23,0,.47,0,.7.71,2-2.17,1.89-2.12,3.52-1-.1-2.29.42-3-.41-.94-1.07-1.67-2.73-3-.63a2.62,2.62,0,0,0,1.45,4c2.72.42,4.24,2.7,6.66,3.37h0v2.1c-1.78.19-1.69,2.72-3.54,2.82-1.44-1-2.65-.3-3.71.63s-1.91,1.68-3.32,1.49c-1.34,0-2.46-.13-1.51-1.95a15.76,15.76,0,0,0,.8-2.28h.7c1.16.3,2.05,1.68,3.44.94a1.3,1.3,0,0,0,.5-1.14c-.37-1.28-1.5-1.19-2.53-1.21L86.41,195c-2.5-5-4.7-5.45-9-2-1.32,1.07-1.85,3-3.73,3.42H69.52c-.9-.23-1.79-.54-2.71-.69s-1.71-.51-1.32-1.54,1-2.18,2.28-1.53c2.68,1.34,3.33-2.81,5.74-2l-.48-1.3c1.15-4.08-2.71-5.68-4.19-8.46a11.29,11.29,0,0,1,.3-2,2.7,2.7,0,0,0-1.07-3.05,2.88,2.88,0,0,0-3.56-.21c-1.87,1.58-4.08,3.11-4.15,6H59c-1.52-1.27-2-.43-2.09,1.07s0,3,0,4.52q-.34,0-.69,0c-1.62-1-3.77-.5-5.19-2.37-.81-1.08-5.4,1.23-5.29,2.7.26,3.35-2,4.66-4.3,6l-1.41-.75c-2.46-2.3-1.11-6-3-8.47a1,1,0,0,1,.23-1.53C39.17,181.42,38,180.1,37.12,178.75Zm47.18-6.34c1.2-.08,2.72.37,2.8-1.64.06-1.57.05-3.11-2.09-3.28l-.7,0c-.06-1.47-1.36-1.66-2.26-1.7a102.79,102.79,0,0,0-12.53-.22c-1.59.11-3.81,1.17-4,3.24-.09,1.28.69,3.36,1.67,3.83,1.73.81,2.31-1.3,3.17-2.47.47-.63,1.24-.51,1.93-.54-1.45,2.68-.85,4.6,2.1,5.63h1.42c1.46,0,3,.17,2.86-2l.72-.73,2-.07C82.41,173.79,83.34,174.78,84.3,172.41Z" transform="translate(-0.43 -0.52)"/><path class="cls-7" d="M56.84,206.22c-.27,1.89-3,1.63-3.2,3.72-.08.67-1.26.51-1.77,0-2.73-2.83-7.23-3.75-8.6-8.05-.1-.29-.77-.4-1.18-.6,0-.47,0-.93,0-1.4,1.66-2,3.75-.5,5.64-.71,1-.08,2.09.32,2.84-.7,2.22.68,3.8,2.78,6.31,2.82.45.82,1.71-.41,2,.79.11.49-.06,1-.58,1.06C55.72,203.25,57.29,205.19,56.84,206.22Z" transform="translate(-0.43 -0.52)"/><path class="cls-5" d="M56.84,206.22c.45-1-1.12-3,1.42-3.08.52,0,.69-.57.58-1.06-.29-1.2-1.55,0-2-.79.11-1.11.06-2.82,1.81-1.63,2.09,1.43,1.45.26,1.25-1-.12-.77.6-.83,1.17-.92,1.25,1.61,3.49.93,4.93,2.11-.56.91-2.46.69-2,2.42.37,1.48,1.72.78,2.58,1.17,3.12,1.42,1,3.83,1.33,5.93-1.45-.15-1.24-2-2.6-1.77-.12-2.34-1.09-3.32-3.34-2C60.31,206.63,58.54,206,56.84,206.22Z" transform="translate(-0.43 -0.52)"/><path class="cls-6" d="M42.05,199.88c0,.47,0,.93,0,1.4-.21,4.06-.21,4.05-4.09,2.43a4,4,0,0,0-1.33-.29c-1.59-.07-3.68.3-4.19-1.55-.42-1.54,1.54-2.69,2.6-3.22,2-1,1.3-3.75,3.39-4.43,0,1.94.75,3,2.85,2.81C41.46,198,41,199.13,42.05,199.88Z" transform="translate(-0.43 -0.52)"/><path class="cls-11" d="M41.32,197c-2.1.23-2.89-.87-2.85-2.81l1.47-1.43,1.41.75Z" transform="translate(-0.43 -0.52)"/><path class="cls-5" d="M64.59,207.63c-.08,1.42-1.1,1.42-2.12,1.4C62.54,207.61,63.56,207.61,64.59,207.63Z" transform="translate(-0.43 -0.52)"/><path class="cls-7" d="M135.72,216.09c0,.92,0,1.85,0,2.78l-1.4,0a5.3,5.3,0,0,1-1.41-4.22c1.26-5.18,1-5.48-3.78-5.22a3.08,3.08,0,0,1-2-.42c-2.56-2.11-4.05.7-5.51,1.57s-1,3.05.45,4.55c.81.85,1.51,2.18.61,3.16s-2.62.74-3.94.31c-.79-.25-1.55-1.54-2.31-.28-2.41,4-3.25.18-4.65-.85a1.42,1.42,0,0,0,1.39-1.65c-.06-2.38-.3-4.7,3.18-5.08,1.1-.12,1.19-1.43-.32-1.7-2.58-.46-2.83-2.25-2.89-4.41,0-1.93.63-4-.7-6-1.52,2-1.32,5.36-4.89,4.76,0-1,0-2-1.4-2.11h0c-.94-3.11-3.85-4.41-6-6.33a3,3,0,0,1-1-2.71c0-.77.32-1.43,1.19-1.43,3.33,0,6.62,0,9.78-1.4a2.35,2.35,0,0,1,2.75,1.11c.67,1.07,1.36,2.33,2.55,1.17.87-.83-.05-2.19-.67-3.12-2.1-3.12.11-7.37,4.07-7.71.1,1-.31,2.08.71,2.82-.3,1.85.78,3.92-.42,5.52-.56.75-2,1-1.4,2.29.47,1,1.65.52,2.53.63.43,2.14,1,2.39,2.9.86,1.54-1.28.4-3.39,2-4.35h1.41l2.81,2.8c0,.23,0,.47,0,.7-1.11.89-1.51,2.63-3.22,2.78-2.11.18-1.7,1.67-1.61,3l0,2.56c0,.53-.07,1.24.74,1.16.23,0,.4-.68.59-1l2.11,0c.3,1.41,1.37,2.14,1.88.57.93-2.88,4-5.5,1.66-9,2,.14,2.94-.82,2.8-2.82,2.15.66,3.49,1.28,1.86,4.09-1,1.8-1.27,4.54,1.66,5.77h0c.06,1.34,0,3,1.68,3.13,1.16.07,1.13-1.42,1.13-2.44,0-2,2.22-3.43,1.43-5.62,4.55-.76,2.58,3.13,3.52,4.95v3.48c-.14,1.77-1.9,3.25-.87,5.25.2.39-.26,1-.75,1C138.87,208.63,137.74,212.87,135.72,216.09Z" transform="translate(-0.43 -0.52)"/><path class="cls-4" d="M118.8,180.87c-4,.34-6.17,4.59-4.07,7.71.62.93,1.54,2.29.67,3.12-1.19,1.16-1.88-.1-2.55-1.17a2.35,2.35,0,0,0-2.75-1.11c-3.16,1.42-6.45,1.4-9.78,1.4-.87,0-1.19.66-1.19,1.43a3,3,0,0,0,1,2.71c2.17,1.92,5.08,3.22,6,6.33h-.72l-.69-.7c-2.16.51-3.41-1.08-4.91-2.12.14-2.92-1.51-2.82-3.53-2.09h0c.92-1.82,2.32-3.74-1.22-4.37-1-.18-.82-1.2-.89-2,0-1.63,2.83-1.5,2.12-3.52,1.73.16,2.61-.24,2.94-2.34.7-4.44,4.74-8.29,7.46-7,2.57,1.18,4.39.34,6.5-.5.82,2.73,3.23,1,4.82,1.65,2.89,1.26,3.21-.45,2.68-2.78-.18-.79-.31-1.59-.46-2.39a16.21,16.21,0,0,0,6.34.69c1.09.12,1.38-1,2.11-1.39.43,1.54,2,2.53,2.11,4.22-5.42-.34-6,.07-6.33,4.23-.74.42-1,1.52-2.11,1.4C121.87,180,120.06,181.14,118.8,180.87Z" transform="translate(-0.43 -0.52)"/><path class="cls-12" d="M107.54,203.4c3.57.6,3.37-2.8,4.89-4.76,1.33,2,.65,4.08.7,6,.06,2.16.31,3.95,2.89,4.41,1.51.27,1.42,1.58.32,1.7-3.48.38-3.24,2.7-3.18,5.08a1.42,1.42,0,0,1-1.39,1.65h0c.39-2.35-.7-4.54-.71-6.84,0-1.47-1-1.63-2.11-1.61-3.63-.35-3.73-2.89-3.51-5.64Z" transform="translate(-0.43 -0.52)"/><path class="cls-6" d="M99.82,198.46c1.5,1,2.75,2.63,4.91,2.12,0,.24,0,.47,0,.7a16.6,16.6,0,0,1-.48,2.33c-.31.92-.25,2.33-1.62,2.31a2.25,2.25,0,0,1-2.1-2.33c-.15-1.79-2.77-2.29-2.16-4.39A1.53,1.53,0,0,1,99.82,198.46Z" transform="translate(-0.43 -0.52)"/><path class="cls-7" d="M108.94,209c1.13,0,2.1.14,2.11,1.61,0,2.3,1.1,4.49.71,6.84-2.27.12-2.7-1.43-2.79-3.19S109,210.8,108.94,209Z" transform="translate(-0.43 -0.52)"/><path class="cls-4" d="M132.89,214.67a5.3,5.3,0,0,0,1.41,4.22c-.11,1.63-1.1,2.12-2.59,2.1s-1.64-1-1.62-2.09c1.59-.22,1.41-1.16,1-2.28C130.42,214.83,131.59,214.67,132.89,214.67Z" transform="translate(-0.43 -0.52)"/><path class="cls-6" d="M103.36,214c-1.31-.06-2.54-.75-2.48-1.94.07-1.45,1.69-.65,2.58-1,1.27-.48,2.75-1.28,3.79.11.69.93-.27,1.66-1.13,2.14-.75-.37-1-1.76-2.2-1.16C103.17,212.48,103.39,213.29,103.36,214Z" transform="translate(-0.43 -0.52)"/><path class="cls-4" d="M92.75,201.29c1.85-.1,1.76-2.63,3.54-2.82l.7.69a4.93,4.93,0,0,1-.23,1.7c-.44.87-.23,2.23-1.59,2.46C93.61,203.58,93.3,202.28,92.75,201.29Z" transform="translate(-0.43 -0.52)"/><path class="cls-3" d="M128.66,214.77c0,1-.11,1.95-1.42,1.91-1.56-.06-1.36-1.28-1.37-2.3s.32-1.86,1.58-1.72S128.6,213.86,128.66,214.77Z" transform="translate(-0.43 -0.52)"/><path class="cls-11" d="M103.36,214c0-.66-.19-1.47.56-1.84,1.19-.6,1.45.79,2.2,1.16.11.74.21,1.49.31,2.23C105.14,215.51,104,215.31,103.36,214Z" transform="translate(-0.43 -0.52)"/><path class="cls-3" d="M97,199.16l-.7-.69v-2.1c2-.73,3.67-.83,3.53,2.09a1.53,1.53,0,0,0-1.44.74Z" transform="translate(-0.43 -0.52)"/><path class="cls-4" d="M107.54,203.4h-2.11c.24-.7.47-1.41.71-2.11C107.56,201.36,107.55,202.37,107.54,203.4Z" transform="translate(-0.43 -0.52)"/><path class="cls-7" d="M104.74,201.28c0-.23,0-.46,0-.7l.69.7h-.68Z" transform="translate(-0.43 -0.52)"/><path class="cls-5" d="M69.52,196.37h4.21c-.5,1.63,1,3.27,0,4.91a5.45,5.45,0,0,0-5.62-2.11Z" transform="translate(-0.43 -0.52)"/><path class="cls-12" d="M83.6,198.47c-.8.5-1.22,1.91-2.57,1.1a1.22,1.22,0,0,1-.69-1.45c.48-1.6,1.38-2.7,3.26-2.46Z" transform="translate(-0.43 -0.52)"/><path class="cls-5" d="M83.6,198.47v-2.81a4.73,4.73,0,0,1,2.81-.71c.24.94.47,1.88.71,2.82a2.45,2.45,0,0,0-1.41,1.41H85Z" transform="translate(-0.43 -0.52)"/><path class="cls-4" d="M145.58,199.2c-.94-1.82,1-5.71-3.52-4.95a1.47,1.47,0,0,1-.72-1.41c-.25-2,.13-3.64,2.34-4.38a1.91,1.91,0,0,0,1.18-2c.18-1.19-.46-2.54.71-3.53,2.56-.7.93-2.81,1.41-4.22,2.35,3.08,5,5.45,9.3,3.84.34-.13,1,.89,1.63,1.21,1.84.94,4.05,1.12,4.92-.83.77-1.72-1.16-2.88-2.71-3.39-1.13-.37-2.07-.6-1.78-2s.91-2.45,2.56-2.33c2.16.16,5-1,5.27,2.83.08,1.07,1.18,1.3,2.17,1.43s1.24.59.47,1.37c-1.44-.1-2.77,0-3.28,1.72-.17.58-.25,1.33.32,1.5,1.51.45,2.59-.42,3.5-1.51a1.3,1.3,0,0,0,.16-.31c1.82,1.82,3.92,3.36,3.63,6.49-.15,1.61,1,2.19,2.56,1.3.78-.44,1.15-1.5,2.24-1.45,1.41,1.72.38,3.78.75,5.64-.12,1,.28,2.07-.71,2.82-1.51.15-1.3,1.29-1.44,2.34-.4,3-.91,5.92-1.38,8.88a4.12,4.12,0,0,0-2.85,1.44c-.58,0-1.17,0-1.74,0-.87.07-2.11-.32-2.27,1s1,1,1.76,1.21a3.37,3.37,0,0,1,2.06,1.75c.42.7-.21,2.19,1.25,2.07s1.91-1.17,1.82-2.52l1.42-.05h.06c-.17,1.11-.39,2.21-.47,3.36-.13,1.85-.07,4.5-3.21,4.46-.89-1-1.81-1.87-3.31-1.11-1.06.54-2,1.18-.58,2.23s1.21,1.9.4,3c-1,1.29-2.28,1-3.47.38-2.08-1.1-3.31-5.32-2.34-7.42.62-1.36,2.85-2.41,1.61-4.12a4.16,4.16,0,0,0-4.19-1.11,4,4,0,0,0-2.85,4,20.55,20.55,0,0,1-2.85-1.18c-2.34-1.42-3.88-1.8-4.45,1.8-.22,1.37.57,3.72-1.88,4.32l-2.13,0c-.22-.25-.45-.49-.68-.73,1-3.76-2.21-2.23-2.88-1.75-2.39,1.7-2.47.61-2.84-1.51-.53-3-3.18-1.18-4.83-1.67,2-3.22,3.15-7.46,8.24-7.19.49,0,.95-.58.75-1-1-2,.73-3.48.87-5.25a1.52,1.52,0,0,1,1.42.71c-.49,2.85.61,3.75,3.51,4.74s2.84.34,2.86-1.81a4.76,4.76,0,0,1,.64-.11h1.42c2.34.47,1.53-2.4,2-2.4,3.15,0,3.11-3,4.53-4.53,1.79-2,1.24-4.52.73-6.48-.38-1.48-2.9-.4-4.44-.67-.21-.39-.36-1.07-.64-1.13-4.09-.9-7.91-2.17-10.07-7.14-1.44,5.69-.22,10.53-.55,15.3Zm28.17,2.11c.21-.62,1.28-.76,1-1.55s-1.11-.51-1.72-.66c-1.5-1.43-6.65-1.13-6.68.43a4,4,0,0,0,3,3.65C170.76,203.54,173.57,204.82,173.75,201.31Z" transform="translate(-0.43 -0.52)"/><path class="cls-5" d="M149.08,221.73c2.45-.6,1.66-2.95,1.88-4.32.57-3.6,2.11-3.22,4.45-1.8a20.55,20.55,0,0,0,2.85,1.18c1.75,3.58-1.43,5.65-3.19,7.17S150.8,223.4,149.08,221.73Z" transform="translate(-0.43 -0.52)"/><path class="cls-4" d="M69.52,196.37l-1.41,2.81c-.51.82-1.34.68-2.11.7-1.44-1.18-3.68-.5-4.93-2.11.91-1.67,2.1-3.41-1.27-3.62-1.22-.07-1.38-1.48-2.26-2-.12-1.66,2.34-3.7-.72-5,0-1.51,0-3,0-4.52s.57-2.34,2.09-1.07c1.06,1.22-2.42,3.94,1.29,4.17,1.93.12,3.6,2.6,5.23,1.39,2.94-2.18,2.6-.32,2.65,1.62,0,.75-.29,1.63.92,2.52.42-2.58,2.36-1.87,4-2l.48,1.3c-2.41-.82-3.06,3.33-5.74,2-1.3-.65-1.93.59-2.28,1.53s.38,1.38,1.32,1.54S68.62,196.14,69.52,196.37Z" transform="translate(-0.43 -0.52)"/><path class="cls-14" d="M47.55,162.45l-6.17,0c-.78-.9-1.84-.63-2.82-.69-1.54-1.19-3.34-.38-5-.63.28-1.91,1.8-1.24,2.93-1.44s2.85.69,3.48-1.22h4.18c2.94,2,6.21.71,9.29.73s6-.21,9,.11,6.06,2.79,9.06-.09c.25-.24.91-.15,1.36-.07a50.52,50.52,0,0,0,13.79.63c5.68-.54,11.32.41,17,1.25,6.74,1,13.57-1.35,20.38,0,1.09.21,1.78-.4,1.74-1.61l1.5,0c1,2.44,2.21,2.29,3.49.19h2.1a10.81,10.81,0,0,0,9.5,2.7c6.15-1.19,12.22-1.87,18.27.34.92.34,1.91,0,2.68.16,2.95.63,5.14-1.68,7.78-1.73,8.42-.13,16.83-.06,25.25-.07,4.52-2,9.29-1.16,14-1.19-1.18,1.31-2.93,1.16-4.41,1.66-1.25.42-2.22.78-1.23,2.3-.65,1.63-3.17.82-3.59,2.75l-6.92.93c-.82,0-1.66-.17-2.17.73l-2.14.59c-2.6.16-5.12,1.06-7.78.77-2-.22-2.13,1.21-2.08,2.68l0,.05-2.08.14a37.81,37.81,0,0,0-15.25-2.64c-12.09.13-24-2.48-36.07-1.73l-1.35-.11c-.32-.37-.61-.33-.89.05l-2,0c-.56-.75-1.36-.63-2.14-.61l-2.08-.1c-3.37-.75-6.8-1.35-10.21-.78-2.2.37-4.18-.37-6.22-.61-14.33-1.7-28.82-1.33-43.12-3.36a34.65,34.65,0,0,0-4.56-.08C51.87,162.23,49.75,160.24,47.55,162.45Zm83.82.81c-.42-.27-.69-.57-.94-.55s-.47.35-.71.55c.24.19.46.52.71.54S130.94,163.52,131.37,163.26Z" transform="translate(-0.43 -0.52)"/><path class="cls-6" d="M30.77,161.13l1.4.05v0c0,.44,0,.88.05,1.32-2.14.62-1.44,3.59-3.54,4.23A5.66,5.66,0,0,1,30.77,161.13Z" transform="translate(-0.43 -0.52)"/><path class="cls-12" d="M32.21,162.55c0-.44,0-.88-.05-1.32l1.41-.07c1.65.25,3.45-.56,5,.63C36.59,163.31,34.32,162.23,32.21,162.55Z" transform="translate(-0.43 -0.52)"/><path class="cls-4" d="M32.2,176.64c0-1.43,1.08-1.41,2.1-1.41C34.24,176.65,33.22,176.65,32.2,176.64Z" transform="translate(-0.43 -0.52)"/><path class="cls-6" d="M26.6,166l.65.74Z" transform="translate(-0.43 -0.52)"/><path class="cls-13" d="M125.8,159.47c0,1.21-.65,1.82-1.74,1.61-6.81-1.37-13.64,1-20.38,0-5.66-.84-11.3-1.79-17-1.25a50.52,50.52,0,0,1-13.79-.63c-.45-.08-1.11-.17-1.36.07-3,2.88-6.07.39-9.06.09s-6-.09-9-.11-6.35,1.3-9.29-.73l12.05-.28,24.45.2c4.15,1,8.37.43,12.55.57,5.72.18,11.44,0,17.16,0Z" transform="translate(-0.43 -0.52)"/><path class="cls-16" d="M80.66,158.42l-24.45-.2c1.74-1.06,3.66-.49,5.48-.52,9-.14,18-.17,27-.24l13.22.17c-.86,1.17-2.11.68-3.21.69C92.68,158.38,86.67,158.39,80.66,158.42Z" transform="translate(-0.43 -0.52)"/><path class="cls-13" d="M196.37,161.1c-8.42,0-16.83-.06-25.25.07-2.64.05-4.83,2.36-7.78,1.73-.77-.17-1.76.18-2.68-.16-6-2.21-12.12-1.53-18.27-.34a10.81,10.81,0,0,1-9.5-2.7l2.8-.36h.74l16.15.14.77,0,27.4.11.76.06,10.49,0C193.39,160.29,195.57,158.72,196.37,161.1Z" transform="translate(-0.43 -0.52)"/><path class="cls-16" d="M152.58,159.48l-16.15-.14c-.24-.3-.49-.29-.74,0l-2.8.36h-2.1a4.14,4.14,0,0,0-3.49-.19l-1.5,0L110.37,159c1.14-1.27,2.63-.67,4-.67q33.14,0,66.27,0c1,0,2.09-.11,3.14-.17a3.42,3.42,0,0,1,.46,0l7.23.05c.21,0,.41,0,.62.08l-.06,1.25-10.49,0c-.23-.3-.48-.38-.76-.06l-27.4-.11C153.08,159.09,152.82,159.11,152.58,159.48Z" transform="translate(-0.43 -0.52)"/><path class="cls-8" d="M204.71,163.87c-1-1.52,0-1.88,1.23-2.3,1.48-.5,3.23-.35,4.41-1.66l2.8-.25c-1.1,3-4.22,2.44-6.39,3.57l-.66.5Z" transform="translate(-0.43 -0.52)"/><path class="cls-11" d="M192.06,158.33c-.21,0-.41-.06-.62-.08,4.06-1.64,8.26,0,12.36-.59C200,159.82,196,158.9,192.06,158.33Z" transform="translate(-0.43 -0.52)"/><path class="cls-10" d="M184.21,158.2a3.42,3.42,0,0,0-.46,0l-.12-1.44c1.89-.65,3.78-.9,5.61.22C187.91,158.76,185.68,157,184.21,158.2Z" transform="translate(-0.43 -0.52)"/><path class="cls-11" d="M135.74,219c1.55,1,4.58.16,4.24,3.46C136.33,224,136.27,221.2,135.74,219Z" transform="translate(-0.43 -0.52)"/><path class="cls-14" d="M178,197.07c1-.75.59-1.85.71-2.82l.83,0c.15,1.28-.75,2.9,1.13,3.64-.25,6.32-.91,12.62-.54,19,.53,3.41-.68,6.56-1.45,9.78-1.5-3.33-.29-6.84-.71-10.25-.14-1.16.56-2.69-1.29-3.16h0c-.15-.45-.3-.9-.46-1.35,0-.92,0-1.83,0-2.75,2,.09,1.79-1.34,1.79-2.62Z" transform="translate(-0.43 -0.52)"/><path class="cls-3" d="M180.65,197.86c-1.88-.74-1-2.36-1.14-3.64,1.14-1.53.33-3.34.73-5l2.68.08c.16.29.52.63.46.85a4.64,4.64,0,0,0,2.24,4.9c2.2.73.77-2,1.54-2.85.45-.52,1.11-1.16,1.7-1.18,3.4-.13,2.43-3,2.75-4.7.27-1.46-1.66-2.12-2.61-3.12-.37-.41-1.17.31-1.08.92.47,3.52-1.75,2.65-3.65,2.31.29-4.33-3.37-7.2-4.13-11.15l-.15-2.93,0-.05.75,0c2.2,3.94,2.8,4.09,5.6,1.46.29.8-.47,2.09,1.4,2.58v-5.33c.88-.56,2.14-.75,2.11-2.18l2.14-.59.7.66c0,1.37,0,2.75.05,4.12-2.81,2-2.81,2.84,0,4.31.78.72-1.91,4,2,2.6,1-.37,1,1.64.7,2.19-1.54,2.61-.19,5.07-.07,7.62.1,1.92,1.55,4.44-1.2,5.88-.42-.52-.78-1.41-1.25-1.47-1-.13-.7.88-.74,1.46a2.57,2.57,0,0,1-1.39,2.15c-2.36,1-1.86,3.88-3.55,5.36-.56.49-.77,1.72-1.74,1.21s-.63-1.46,0-2.12c1.32-1.47,1-2.37-.92-2.33C182.79,200,182.76,197,180.65,197.86Z" transform="translate(-0.43 -0.52)"/><path class="cls-7" d="M194.2,167.55l6.92-.93c1.57,5.1-2.65,2.16-4.15,3h-2.1l-.73-.72Z" transform="translate(-0.43 -0.52)"/><path class="cls-9" d="M190.82,197.8a2.57,2.57,0,0,0,1.39-2.15c0-.58-.25-1.59.74-1.46.47.06.83.95,1.25,1.47a5.18,5.18,0,0,1-2.13,3.84l-1.33-.53Z" transform="translate(-0.43 -0.52)"/><path class="cls-3" d="M194.87,169.61H197c-.28,1.11,1.8,2.83-.19,3.23C194.5,173.3,195,171,194.87,169.61Z" transform="translate(-0.43 -0.52)"/><path class="cls-11" d="M192.77,177.37c-2.8-1.47-2.8-2.34,0-4.31C192.78,174.5,192.77,175.93,192.77,177.37Z" transform="translate(-0.43 -0.52)"/><path class="cls-13" d="M194.2,167.55l-.06,1.34-1.41.05-.7-.66C192.54,167.38,193.38,167.51,194.2,167.55Z" transform="translate(-0.43 -0.52)"/><path class="cls-3" d="M190.74,199l1.33.53c-.1.43-.28.89-.79.78C190.58,200.13,190.73,199.49,190.74,199Z" transform="translate(-0.43 -0.52)"/><path class="cls-3" d="M205.44,178.05a1.66,1.66,0,0,1-.52,1.76A1.45,1.45,0,0,1,205.44,178.05Z" transform="translate(-0.43 -0.52)"/><path class="cls-14" d="M206.1,163.73l.66-.5Z" transform="translate(-0.43 -0.52)"/><path class="cls-7" d="M120.22,173.12c.15.8.28,1.6.46,2.39.53,2.33.21,4-2.68,2.78-1.59-.69-4,1.08-4.82-1.65v-2.11h0c.48-.23.48-.47,0-.71v-2.1c0-1.16-.14-2.16-1.65-2.1a4.08,4.08,0,0,0-4,2.79h0l-4.92.71c-1.6-1.87-2.24,1-3.53.7-1.75-1.94-2.82-4.92-6.33-4.22-1.11,0-2.23-.09-2-1.66.19-1.31,1.29-1,2.18-1.16,3.26-.48,6,1.08,8.91,2.14.76.28,1.51.92,2.23.49,4-2.39,8.44-.72,12.64-1.2.41,2,2.88,2.35,3.5,4.21Z" transform="translate(-0.43 -0.52)"/><path class="cls-4" d="M41.32,197l0-3.49c2.34-1.35,4.56-2.66,4.3-6-.11-1.47,4.48-3.78,5.29-2.7,1.42,1.87,3.57,1.39,5.19,2.37-2.17,2-.47,3.42.72,4.92-.68.06-1.81-.06-1.82.6-.05,3.15-2.33,3.3-4.52,3.64-1.25-1.23-.67-2.55-.21-3.88a2.66,2.66,0,0,0-.7-2.57.76.76,0,0,0-1.22-.07c-1.24,1.69-4.12,2.78-2,5.76.72,1,.86,2.37,1.27,3.57-1.89.21-4-1.26-5.64.71C41,199.13,41.46,198,41.32,197Z" transform="translate(-0.43 -0.52)"/><path class="cls-5" d="M99.09,173.82c1.29.32,1.93-2.57,3.53-.7,1.13,3.8,3.09,1.75,4.91.7,1.58,2.65,3.71.93,5.65.71v2.11c-2.11.84-3.93,1.68-6.5.5-2.72-1.27-6.76,2.58-7.46,7-.33,2.1-1.21,2.5-2.94,2.34,0-.23,0-.47,0-.7.24-1,1.88-1.58.93-2.72-1.23-1.48-1.61.44-2.39.82-1.24.61-1.78-.16-2-1.17-.34-1.84-.06-3.49,1.77-4.55A13.82,13.82,0,0,0,99.09,173.82Z" transform="translate(-0.43 -0.52)"/><path class="cls-4" d="M72.34,169.6c-.69,0-1.46-.09-1.93.54-.86,1.17-1.44,3.28-3.17,2.47-1-.47-1.76-2.55-1.67-3.83.14-2.07,2.36-3.13,4-3.24a102.79,102.79,0,0,1,12.53.22c.9,0,2.2.23,2.26,1.7C80.31,168.09,76.52,169.94,72.34,169.6Z" transform="translate(-0.43 -0.52)"/><path class="cls-4" d="M99.09,173.82a13.82,13.82,0,0,1-4.48,4.36c-1.83,1.06-2.11,2.71-1.77,4.55.19,1,.73,1.78,2,1.17.78-.38,1.16-2.3,2.39-.82,1,1.14-.69,1.77-.93,2.72h-.35c-6.91-.22-8.41-1.83-4.78-7,2.38-3.35,1.3-6.15,1.62-9.23C96.27,168.9,97.34,171.88,99.09,173.82Z" transform="translate(-0.43 -0.52)"/><path class="cls-6" d="M60.36,181.58c.07-2.9,2.28-4.43,4.15-6a2.88,2.88,0,0,1,3.56.21,2.7,2.7,0,0,1,1.07,3.05,11.29,11.29,0,0,0-.3,2c-.86,2.28-2.5,4.09-4.86,4C62.46,184.84,60.31,184,60.36,181.58Z" transform="translate(-0.43 -0.52)"/><path class="cls-5" d="M60.36,181.58c0,2.46,2.1,3.26,3.62,3.3,2.36.07,4-1.74,4.86-4,1.48,2.78,5.34,4.38,4.19,8.46-1.63.09-3.57-.62-4,2-1.21-.89-.9-1.77-.92-2.52-.05-1.94.29-3.8-2.65-1.62-1.63,1.21-3.3-1.27-5.23-1.39-3.71-.23-.23-2.95-1.29-4.17Z" transform="translate(-0.43 -0.52)"/><path class="cls-6" d="M72.34,169.6c4.18.34,8-1.51,12-2.14l.7,0c-.75,1.08,1.89,2.84-.72,3.53-1.09.13-2.56-.5-2.81,1.37l-2,.07c-.17-.82.17-2-1.22-2a1.24,1.24,0,0,0-1.31.9c-.33,1.44.78,1.64,1.81,1.86.13,2.21-1.4,2.07-2.86,2-.18-.37-.31-1-.56-1-.76-.16-.75.54-.86,1C71.49,174.2,70.89,172.28,72.34,169.6Z" transform="translate(-0.43 -0.52)"/><path class="cls-6" d="M120.22,172.42c-.62-1.86-3.09-2.18-3.5-4.21a1.46,1.46,0,0,0,1.41-.8l2.08.1c.35,1.51,1,1.83,2.14.61l2,0,.89-.05,1.35.11c-.27,1.9,2.68,2.22,2.08,4.28-.73.42-1,1.51-2.11,1.39C125.28,169.57,122.37,172.73,120.22,172.42Z" transform="translate(-0.43 -0.52)"/><path class="cls-7" d="M94.16,190c.07.77-.15,1.79.89,2,3.54.63,2.14,2.55,1.22,4.37-2.42-.67-3.94-3-6.66-3.37a2.62,2.62,0,0,1-1.45-4c1.31-2.1,2-.44,3,.63C91.87,190.44,93.14,189.92,94.16,190Z" transform="translate(-0.43 -0.52)"/><path class="cls-6" d="M47.55,162.45c2.2-2.21,4.32-.22,6.47.13,0,2.54-.59,3.86-3.17,1.79C49.85,163.57,47.81,164.54,47.55,162.45Z" transform="translate(-0.43 -0.52)"/><path class="cls-6" d="M56.85,192.12c-1.19-1.5-2.89-2.93-.72-4.92q.34,0,.69,0c3.06,1.25.6,3.29.72,5Z" transform="translate(-0.43 -0.52)"/><path class="cls-5" d="M84.29,171c2.61-.69,0-2.45.72-3.53,2.14.17,2.15,1.71,2.09,3.28-.08,2-1.6,1.56-2.8,1.64Z" transform="translate(-0.43 -0.52)"/><path class="cls-4" d="M85.71,199.18a2.45,2.45,0,0,1,1.41-1.41c1,0,2.16-.07,2.53,1.21a1.3,1.3,0,0,1-.5,1.14C87.76,200.86,86.87,199.48,85.71,199.18Z" transform="translate(-0.43 -0.52)"/><path class="cls-4" d="M84.29,171v1.39c-1,2.37-1.89,1.38-2.82,0C81.73,170.52,83.2,171.15,84.29,171Z" transform="translate(-0.43 -0.52)"/><path class="cls-11" d="M78.72,173.19c-1-.22-2.14-.42-1.81-1.86a1.24,1.24,0,0,1,1.31-.9c1.39.07,1,1.21,1.22,2Z" transform="translate(-0.43 -0.52)"/><path class="cls-4" d="M74.44,175.23c.11-.51.1-1.21.86-1,.25.06.38.68.56,1Z" transform="translate(-0.43 -0.52)"/><path class="cls-12" d="M56.85,192.12h.69c.88.55,1,2,2.26,2,3.37.21,2.18,1.95,1.27,3.62-.57.09-1.29.15-1.17.92.2,1.23.84,2.4-1.25,1-1.75-1.19-1.7.52-1.81,1.63-2.51,0-4.09-2.14-6.31-2.82,0-.7,0-1.41,0-2.11,2.19-.34,4.47-.49,4.52-3.64C55,192.06,56.17,192.18,56.85,192.12Z" transform="translate(-0.43 -0.52)"/><path class="cls-6" d="M50.51,196.36c0,.7,0,1.41,0,2.11-.75,1-1.86.62-2.84.7-.41-1.2-.55-2.59-1.27-3.57-2.16-3,.72-4.07,2-5.76a.76.76,0,0,1,1.22.07,2.66,2.66,0,0,1,.7,2.57C49.84,193.81,49.26,195.13,50.51,196.36Z" transform="translate(-0.43 -0.52)"/><path class="cls-6" d="M145.57,183c-1.17,1-.53,2.34-.71,3.53l-1.44,0a5.73,5.73,0,0,0,0-1.37c-.3-1.31.91-3.68-.92-3.73s-1,2.38-1.24,3.73c-.32-.13-.9-.23-.92-.4-.68-5.6-2.49-3.11-4.36-.65-.17.22-.64.23-1,.33-1.1.3-2.13-.84-3.32-.17.4,1.85,1.68,2.32,3.29,2.31l-.71,2.79c.14,2-.78,3-2.8,2.82h-2.11c0-.23,0-.47,0-.7-.83-1.53,2.94-4.35-1.36-4.92-.07-.65.2-1.42-.58-1.82a.64.64,0,0,0-.59.17c-.51.72-.16,1.28.44,1.75l-.72,2h-1.41c-1.23-2.5,1.95-5.4-.7-7.77.3-4.16.91-4.57,6.33-4.23h0c.24.47.47.94.7,1.41a1.43,1.43,0,0,0-.69,1.39c-1.52,0-2.8.25-2.83,2.15,0,.6.2,1.31.86,1.25,1.85-.17,1.84-1.68,2-3,0-.11,0-.23,0-.35,1.67,1,3.2,1.72,2.8-1.4l.71-.7,4.92,0c.31.66.89,1.5,1.48,1.27C145.27,176.88,144.82,180.57,145.57,183Z" transform="translate(-0.43 -0.52)"/><path class="cls-5" d="M134.3,189.32c.24-.93.48-1.86.71-2.79l0-2.14c.32-.1.79-.11,1-.33,1.87-2.46,3.68-4.95,4.36.65,0,.17.6.27.92.4a2.25,2.25,0,0,0,2.14,1.37l1.44,0a1.91,1.91,0,0,1-1.18,2c-2.21.74-2.59,2.37-2.34,4.38-1.73-1-3-.92-2.79,1.54a15.27,15.27,0,0,1-.73,4.8c-2.93-1.23-2.71-4-1.66-5.77C137.79,190.6,136.45,190,134.3,189.32Z" transform="translate(-0.43 -0.52)"/><path class="cls-5" d="M124.45,180.87c2.65,2.37-.53,5.27.7,7.77-1.63,1-.49,3.07-2,4.35-1.85,1.53-2.47,1.28-2.9-.86,1.21-.83,2.19-1.28,1.24-3.4-.53-1.18-1.47-3.26-.54-5a2.48,2.48,0,0,0,1.42-1.42C123.43,182.39,123.71,181.29,124.45,180.87Z" transform="translate(-0.43 -0.52)"/><path class="cls-5" d="M129.39,192.13h2.11c2.3,3.49-.73,6.11-1.66,9-.51,1.57-1.58.84-1.88-.57.46-1.15,2.23-2.08.81-3.55s-2.4.25-3.56.7c-.21.08-.43.13-.65.2-.09-1.33-.5-2.82,1.61-3C127.88,194.76,128.28,193,129.39,192.13Z" transform="translate(-0.43 -0.52)"/><path class="cls-6" d="M137.82,199.18a15.27,15.27,0,0,0,.73-4.8c-.2-2.46,1.06-2.49,2.79-1.54a1.47,1.47,0,0,0,.72,1.41c.79,2.19-1.45,3.62-1.43,5.62a4.72,4.72,0,0,1-2.81-.69Z" transform="translate(-0.43 -0.52)"/><path class="cls-4" d="M120.92,183.69c-.93,1.78,0,3.86.54,5,1,2.12,0,2.57-1.24,3.4-.88-.11-2.06.38-2.53-.63-.59-1.28.84-1.54,1.4-2.29,1.2-1.6.12-3.67.42-5.52Z" transform="translate(-0.43 -0.52)"/><path class="cls-11" d="M124.56,197.91c.22-.07.44-.12.65-.2,1.16-.45,2.14-2.18,3.56-.7s-.35,2.4-.81,3.55l-2.11,0-1.33-.11Z" transform="translate(-0.43 -0.52)"/><path class="cls-3" d="M147,203.39a1.55,1.55,0,0,0-1.43-.71V199.2l1.41,0c2.77.39,1.95,2.54,2.08,4.23Z" transform="translate(-0.43 -0.52)"/><path class="cls-5" d="M128,186.51c4.3.57.53,3.39,1.36,4.92l-2.81-2.8.72-2Z" transform="translate(-0.43 -0.52)"/><path class="cls-6" d="M120.92,183.69h-1.41c-1-.74-.61-1.85-.71-2.82,1.26.27,3.07-.85,3.54,1.4A2.48,2.48,0,0,1,120.92,183.69Z" transform="translate(-0.43 -0.52)"/><path class="cls-5" d="M137.82,199.18a4.72,4.72,0,0,0,2.81.69c0,1,0,2.51-1.13,2.44C137.86,202.2,137.88,200.52,137.82,199.18Z" transform="translate(-0.43 -0.52)"/><path class="cls-5" d="M124.52,200.47l1.33.11c-.19.37-.36,1-.59,1C124.45,201.71,124.56,201,124.52,200.47Z" transform="translate(-0.43 -0.52)"/><path class="cls-7" d="M139.23,177.33l-4.92,0c-1-1.18-2.34-.54-3.53-.71h0c-.13-1.69-1.68-2.68-2.11-4.22.6-2.06-2.35-2.38-2.08-4.28,12.07-.75,24,1.86,36.07,1.73a37.81,37.81,0,0,1,15.25,2.64v7.67l-1.66-.49c-2.63-.75-5.39-1.94-6.74,1.89l-.7-.71c.77-.78.45-1.24-.47-1.37s-2.09-.36-2.17-1.43c-.31-3.78-3.11-2.67-5.27-2.83-1.65-.12-2.28,1-2.56,2.33s.65,1.64,1.78,2c1.55.51,3.48,1.67,2.71,3.39-.87,1.95-3.08,1.77-4.92.83-.61-.32-1.29-1.34-1.63-1.21-4.34,1.61-6.95-.76-9.3-3.84C144.9,174.68,144.35,174.57,139.23,177.33Z" transform="translate(-0.43 -0.52)"/><path class="cls-5" d="M120.22,172.42c2.15.31,5.06-2.85,6.34,1.39a16.21,16.21,0,0,1-6.34-.69Z" transform="translate(-0.43 -0.52)"/><path class="cls-12" d="M149.07,203.39c-.13-1.69.69-3.84-2.08-4.23.33-4.77-.89-9.61.55-15.3,2.16,5,6,6.24,10.07,7.14.28.06.43.74.64,1.13-4.66,4-4.74,4.23-2.94,9.89a5.76,5.76,0,0,1,.12,1.39c-.78,0-1.62-.12-2.14.7l-2-.09C150.68,203.29,149.85,203.42,149.07,203.39Z" transform="translate(-0.43 -0.52)"/><path class="cls-5" d="M155.43,203.41a5.76,5.76,0,0,0-.12-1.39c-1.8-5.66-1.72-5.93,2.94-9.89,1.54.27,4.06-.81,4.44.67.51,2,1.06,4.52-.73,6.48-1.42,1.55-1.38,4.49-4.53,4.53-.47,0,.34,2.87-2,2.4C155.1,205.28,156.14,204.34,155.43,203.41ZM161,195c-.2-.43-.44-1.18-1.27-1.15-1.19.05-1.46,1-1.43,2,0,.83.48,1.3,1.33,1.14S161,196.13,161,195Z" transform="translate(-0.43 -0.52)"/><path class="cls-5" d="M169.51,181.58c1.35-3.83,4.11-2.64,6.74-1.89l1.66.49,0,8.43c-1.09-.05-1.46,1-2.24,1.45-1.57.89-2.71.31-2.56-1.3.29-3.13-1.81-4.67-3.63-6.49Z" transform="translate(-0.43 -0.52)"/><path class="cls-13" d="M177.94,188.61l0-8.43v-7.67l2.08-.14.15,2.93q.06,7,.1,13.94c-.4,1.64.41,3.45-.73,5l-.82,0C178.32,192.39,179.35,190.33,177.94,188.61Z" transform="translate(-0.43 -0.52)"/><path class="cls-6" d="M173.75,201.31c-.18,3.51-3,2.23-4.4,1.87a4,4,0,0,1-3-3.65c0-1.56,5.18-1.86,6.68-.43-.94.16-2.34,0-2,1.53S172.66,201.83,173.75,201.31Z" transform="translate(-0.43 -0.52)"/><path class="cls-5" d="M139.23,177.33c5.12-2.76,5.67-2.65,7.75,1.42-.48,1.41,1.15,3.52-1.41,4.22-.75-2.4-.3-6.09-4.86-4.37C140.12,178.83,139.54,178,139.23,177.33Z" transform="translate(-0.43 -0.52)"/><path class="cls-12" d="M178,197.07v9.4c0,1.28.21,2.71-1.79,2.62-.35-.26-.69-.53-1-.8.47-3,1-5.92,1.38-8.88C176.68,198.36,176.47,197.22,178,197.07Z" transform="translate(-0.43 -0.52)"/><path class="cls-5" d="M175.19,213.24c.09,1.35-.45,2.4-1.82,2.52s-.83-1.37-1.25-2.07a3.37,3.37,0,0,0-2.06-1.75c-.75-.19-1.9-.06-1.76-1.21s1.4-.91,2.27-1c.57-.05,1.16,0,1.74,0q-.18,3,2.87,2.85A4.85,4.85,0,0,0,175.19,213.24Z" transform="translate(-0.43 -0.52)"/><path class="cls-6" d="M149.07,203.39c.78,0,1.61-.1,2.19.63-1,.2-2.51,0-2.47,1.29.05,1.51,1.61.74,2.51.9a15.77,15.77,0,0,0,2.07.11c0,2.15,0,2.77-2.86,1.81s-4-1.89-3.51-4.74Z" transform="translate(-0.43 -0.52)"/><path class="cls-6" d="M175.18,212.58q-3,.19-2.87-2.85a4.12,4.12,0,0,1,2.85-1.44c.34.27.68.54,1,.8,0,.92,0,1.83,0,2.75Z" transform="translate(-0.43 -0.52)"/><path class="cls-6" d="M169.51,181.58v.69a1.3,1.3,0,0,1-.16.31c-.91,1.09-2,2-3.5,1.51-.57-.17-.49-.92-.32-1.5.51-1.71,1.84-1.82,3.28-1.72Z" transform="translate(-0.43 -0.52)"/><path class="cls-11" d="M153.37,206.32a15.77,15.77,0,0,1-2.07-.11c-.9-.16-2.46.61-2.51-.9,0-1.3,1.5-1.09,2.47-1.29l2,.09.72,2.1A4.76,4.76,0,0,0,153.37,206.32Z" transform="translate(-0.43 -0.52)"/><path class="cls-11" d="M173.75,201.31c-1.09.52-2.29.92-2.66-.68s1-1.37,2-1.53c.61.15,1.47-.15,1.72.66S174,200.69,173.75,201.31Z" transform="translate(-0.43 -0.52)"/><path class="cls-6" d="M154,206.21l-.72-2.1c.52-.82,1.36-.69,2.14-.7.71.93-.33,1.87,0,2.8Z" transform="translate(-0.43 -0.52)"/><path class="cls-12" d="M175.18,212.58l1-.74c.16.45.31.9.46,1.35l-1.42.05A4.85,4.85,0,0,1,175.18,212.58Z" transform="translate(-0.43 -0.52)"/><path class="cls-13" d="M180.78,172.34l-.75,0c-.05-1.47,0-2.9,2.08-2.68,2.66.29,5.18-.61,7.78-.77,0,1.43-1.23,1.62-2.11,2.18-.49-.16-.94-.8-1.5-.11C184.44,171.38,182.15,170.06,180.78,172.34Z" transform="translate(-0.43 -0.52)"/><path class="cls-13" d="M127.3,159.5a4.14,4.14,0,0,1,3.49.19C129.51,161.79,128.34,161.94,127.3,159.5Z" transform="translate(-0.43 -0.52)"/><path class="cls-12" d="M122.35,168.12c-1.12,1.22-1.79.9-2.14-.61C121,167.49,121.79,167.37,122.35,168.12Z" transform="translate(-0.43 -0.52)"/><path class="cls-13" d="M131.37,163.26c-.43.26-.69.56-.94.54s-.47-.35-.71-.54c.24-.2.46-.53.71-.55S131,163,131.37,163.26Z" transform="translate(-0.43 -0.52)"/><path class="cls-12" d="M125.24,168l-.89.05C124.63,167.7,124.92,167.66,125.24,168Z" transform="translate(-0.43 -0.52)"/><path class="cls-9" d="M135.69,159.34c.25-.29.5-.3.74,0Z" transform="translate(-0.43 -0.52)"/><path class="cls-9" d="M152.58,159.48c.24-.37.5-.39.77,0Z" transform="translate(-0.43 -0.52)"/><path class="cls-9" d="M180.75,159.56c.28-.32.53-.24.76.06Z" transform="translate(-0.43 -0.52)"/><path class="cls-15" d="M184.26,186.45c1.91.34,4.13,1.21,3.66-2.31-.09-.61.71-1.33,1.08-.92.95,1,2.88,1.66,2.61,3.12-.32,1.72.65,4.57-2.75,4.7-.59,0-1.25.66-1.7,1.18-.77.89.66,3.58-1.54,2.85a4.64,4.64,0,0,1-2.24-4.9c.06-.22-.3-.56-.46-.85l0-1.39a1.25,1.25,0,0,0,1.31-1.46Z" transform="translate(-0.43 -0.52)"/><path class="cls-11" d="M183,187.93l0,1.39-2.68-.08q0-7-.1-13.94c.76,3.95,4.42,6.82,4.13,11.15v0A1.24,1.24,0,0,0,183,187.93Z" transform="translate(-0.43 -0.52)"/><path class="cls-7" d="M180.78,172.34c1.37-2.28,3.66-1,5.51-1.4l.09,2.86C183.58,176.43,183,176.28,180.78,172.34Z" transform="translate(-0.43 -0.52)"/><path class="cls-11" d="M186.38,173.8l-.09-2.86c.55-.69,1-.05,1.49.11v5.33C185.91,175.89,186.67,174.6,186.38,173.8Z" transform="translate(-0.43 -0.52)"/><path class="cls-6" d="M113.18,174.53c-1.94.22-4.07,1.94-5.65-.71,0-.47,0-.94,0-1.41h0a14.34,14.34,0,0,1,5.63-.69c0,.7,0,1.4,0,2.1v.71Z" transform="translate(-0.43 -0.52)"/><path class="cls-4" d="M113.17,171.72a14.34,14.34,0,0,0-5.63.69,4.08,4.08,0,0,1,4-2.79C113,169.56,113.21,170.56,113.17,171.72Z" transform="translate(-0.43 -0.52)"/><path class="cls-4" d="M107.54,172.41c0,.47,0,.94,0,1.41-1.82,1.05-3.78,3.1-4.91-.7Z" transform="translate(-0.43 -0.52)"/><path class="cls-5" d="M113.18,174.53v-.71C113.66,174.06,113.66,174.3,113.18,174.53Z" transform="translate(-0.43 -0.52)"/><path class="cls-11" d="M143.42,186.48a2.25,2.25,0,0,1-2.14-1.37c.29-1.35-.56-3.79,1.24-3.73s.62,2.42.92,3.73A5.73,5.73,0,0,1,143.42,186.48Z" transform="translate(-0.43 -0.52)"/><path class="cls-11" d="M130.8,179.45c0,.12,0,.24,0,.35-.14,1.36-.13,2.87-2,3-.66.06-.87-.65-.86-1.25,0-1.9,1.31-2.19,2.83-2.15Z" transform="translate(-0.43 -0.52)"/><path class="cls-11" d="M135,184.39l0,2.14c-1.61,0-2.89-.46-3.29-2.31C132.91,183.55,133.94,184.69,135,184.39Z" transform="translate(-0.43 -0.52)"/><path class="cls-5" d="M130.79,179.44a1.43,1.43,0,0,1,.69-1.39h2.12c.4,3.12-1.13,2.4-2.8,1.4Z" transform="translate(-0.43 -0.52)"/><path class="cls-4" d="M133.6,178.05h-2.12c-.23-.47-.46-.94-.7-1.41,1.19.17,2.54-.47,3.53.71Z" transform="translate(-0.43 -0.52)"/><path class="cls-11" d="M128,186.51l-.73.1c-.6-.47-1-1-.44-1.75a.64.64,0,0,1,.59-.17C128.21,185.09,127.94,185.86,128,186.51Z" transform="translate(-0.43 -0.52)"/><path class="cls-11" d="M161,195c0,1.17-.47,1.79-1.37,1.95s-1.31-.31-1.33-1.14c0-1,.24-1.91,1.43-2C160.55,193.78,160.79,194.53,161,195Z" transform="translate(-0.43 -0.52)"/><path class="cls-3" d="M183,187.93a1.24,1.24,0,0,1,1.31-1.46A1.25,1.25,0,0,1,183,187.93Z" transform="translate(-0.43 -0.52)"/><text class="cls-17" transform="translate(94.86 77.95)">Love Soap</text><path class="cls-18" d="M207.75,153.73a2.22,2.22,0,0,0-.73-.08l-2.16-.08-8.2-.12-29.58-.16-92.27-.06-25.9,0h-17c-.07,0-.15,0-.12-.07v-8.25c0-16.85-.05-33.06-.08-47.7-.05-29.3-.09-52.32-.11-61.62.09-1.47,0-3.6,0-3.6V31c.06-.28-.22-1,.46-.78h1.69l5.37.19a9.75,9.75,0,0,0,2.94-.19H207.82v50.2q0,4.95,0,9.45c0,.43,0,.83,0,1.22,0,.77-.07,1.46-.12,2.09a22.67,22.67,0,0,1-.46,3.14c-.8,3.64-2.3,5.07-4.08,11.91-2.66,10.22-.62,11.85-.62,11.85.38.5,1.48.87,2.06,1.25,1.27.83,2.75,1.9,2.91,3.18a2.48,2.48,0,0,1-1.24,2.22,8.56,8.56,0,0,1-1.44.79c3.34,3.51,6.54,1.48,6.54,1.48,1.06,1.77-.55,5.25-.55,5.25-3.7-2.29-5.08.78-6.73,2.22a4.51,4.51,0,0,1-3.85.84,5.51,5.51,0,0,0,5.91,2.09c-1.4,4.15,3.93,6.93,6.21,9.41s.85,4.53.85,4.53a3.48,3.48,0,0,0,1.65-5c-1.72-3.67-4.46-5.27-1.45-14.23a10,10,0,0,0-2.91-11.33c2.26-.81.74-2.26.16-3.45l0-.08a5.65,5.65,0,0,1-.34-1.08c-2.53-2.18-2.69-5.45-2.62-8.13.06-2.12.24-4.23.45-6.34.4-2.71.7-5.39.91-7.35.21-2.33.34-4.28.42-5.64,0-.35,0-.65.06-.92,0-1.88,0-3.48,0-4.78l0-4.56V28.54a.72.72,0,0,0-.21,0H29.92s0,0,0,0v2.13h0c0,4.47,0,25.76.09,55.17,0,14.35.07,30.68.11,47.93q0,6.59,0,13.32c0,1.33,0,2.66,0,4v3.74h.25l8,0,27.16-.08,98.12-.43,31.95-.28,8.92-.16,2.34-.08A2.79,2.79,0,0,0,207.75,153.73Z" transform="translate(-0.43 -0.52)"/><image width="124" height="123" transform="translate(109.12 29.28) scale(0.22 0.22)" xlink:href="../../../../Acolyte's%20Concoctions/Images/Logo/1x/logo-black.png"/><text class="cls-19" transform="translate(96.12 94.34)"><tspan class="cls-20">M</tspan><tspan x="14.97" y="0">ade with </tspan><tspan x="14.11" y="16.8" xml:space="preserve">herbs            </tspan><tspan x="23.15" y="33.6" xml:space="preserve">&amp;               </tspan><tspan x="-3.56" y="50.4">essential oils</tspan></text></g></g></svg>