<svg xmlns="http://www.w3.org/2000/svg" xmlns:xlink="http://www.w3.org/1999/xlink" viewBox="0 0 250.84 250.84"><defs><style>.cls-1{fill:#fefefe;}.cls-2{fill:#9bb682;}.cls-3{fill:#869c6f;}.cls-4{fill:#fbfcf9;}.cls-5{fill:#9ebb84;}.cls-6{fill:#8ba575;}.cls-7{fill:#f5f6f6;}.cls-8{fill:#949a8f;}.cls-9{fill:#aabb97;}.cls-10{fill:#96b180;}.cls-11{fill:#768a60;}.cls-12{fill:#b4c4a3;}.cls-13{fill:#92ab7a;}.cls-14{fill:#88a071;}.cls-15{fill:#ebece5;}.cls-16{fill:#99b383;}.cls-17{font-size:14.79px;stroke:#231f20;stroke-miterlimit:10;letter-spacing:-0.02em;}.cls-17,.cls-21{fill:#231f20;font-family:Astloch-Regular, Astloch;}.cls-18{letter-spacing:0em;}.cls-19{letter-spacing:-0.01em;}.cls-20{fill:#3f3b3c;}.cls-21{font-size:14px;}.cls-22{letter-spacing:-0.03em;}</style></defs><title>money</title><g id="Layer_2" data-name="Layer 2"><g id="Layer_1-2" data-name="Layer 1"><path class="cls-1" d="M.36.58Q124.31.58,248.25.52c2.41,0,2.88.47,2.88,2.88q-.12,122.54,0,245.07c0,2.41-.47,2.89-2.88,2.89q-122.53-.12-245.07,0c-2.41,0-2.89-.48-2.89-2.89Q.41,124.53.36.58ZM13.88,195.65l.06,2.07.06,3.55a66.63,66.63,0,0,0,0,11.3,13.14,13.14,0,0,0,.08,4.92c-.08,2.32-.13,4.63-.23,6.95-.06,1.37.32,2.16,1.91,2.21,3.34.08,6.67.33,10,.51,2.11.22,4.23.69,6.24-.45,1.28,1.22,2.81.45,4.23.53l1.44,0,2.07.16c5.14,1.35,10.35.31,15.53.46,3,1.13,6,1,9.12.63,2.55,1,5.08-1.33,7.54-.17s4.73,1.05,7.18.87c4.5.52,9,.16,13.49.08l4.26.59,4.83,0,12,.09c3.77.49,7.6-.4,11.34.62l2.86.05,3.48,0c3.28,0,6.58-.8,9.85.13,8.19,1.47,16.52.08,24.73,1.24l14.64.07a16.87,16.87,0,0,0,7.2-1.2c1.37-.33,2.93.38,4.13-.8,7.17-.27,14.11-2.16,21.17-3.17.78.28,1.36-.27,2-.49A3.42,3.42,0,0,0,218,226c4.33-.07,8.46-1.3,12.62-2.27,1.26-.3,2.72-.91,2.91-2.64l-.07,0,.56-.76v-1.48l-.57-.76c0-1.11,0-2.22,0-3.32l.55-.8V209l0-5.64c0-2.91.16-5.82,0-8.72-.21-4.6.59-9.25-.62-13.8a24.77,24.77,0,0,1,.05-3.11c.46-3.43-.53-5.26-4.42-4.62a16.91,16.91,0,0,1-4.1-.31.51.51,0,0,0,.05-.4l-.07-.85-.06-2.45c0-1.64.14-3.28.14-4.92q0-45.19,0-90.39c-.49-1.74,1.05-5-.94-5s-.78,3.22-1.17,5c0,.24,0,.47,0,.71-.39.21-1.12.42-1.12.64,0,3.51-2,6.48-2,10.27,0,8.39-.34,16.81-.42,25.23a2.5,2.5,0,0,1-.22,1.36c-3,4.2-2.5,9-2.59,13.76,0,1.38.4,2.9-.76,4-1.48,1.41-1.15,3-1,4.81.3,4.06,1.48,8.16-1.27,12.17a5.34,5.34,0,0,0,.21,6.45c2.12,2.59.69,4.88-2.61,5.11-4.07.29-8.11.75-12.22.72-17.11-.09-34.23,0-51.35-.06-2.19,0-4.2.23-5.77,1.94a7.75,7.75,0,0,1-7.42,2.23c-4-.7-7.64,1.64-11.57.87-.3-.05-.88.39-1,.72a.86.86,0,0,0,.83,1.22c1.73.15,2.55,1,2.43,2.75H113c.26-2.61-.31-4.24-3.54-4.19a36.09,36.09,0,0,1-5.11-.22c-11.73-1.57-23.19,1.31-34.78,2a186.27,186.27,0,0,1-25.88,0c-2.94-.25-5.18-2.5-8-2.23-3.41.32-3.51-1.35-3.79-4.1-.69-6.74.84-13.79-2.58-20.21-.38-.71,0-1.83.07-2.76s1.05-2-.41-2.15c-1.13-.12-1.15,1.22-1.18,2.16s0,1.64,0,2.46c.24,9.88-.66,19.79.76,29.64-1.47,2.19.29,1.82,1.5,1.88l0,.81-.17,1.34-6.31.07-1.34.07c-1.4,0-2.79-.08-4.19-.07-1.21,0-2.72-.39-2.79,1.64-1.09-.42-1.52.09-1.5,1.13,0,1.63.1,3.27.15,4.9,0,3.3,0,6.59,0,9.89l0,4.23A.85.85,0,0,0,13.88,195.65ZM219.38,25.24c-3.5,0-7,0-10.5,0-.65,0-1.56-.24-1.78.66s.62,1.49,1.32,1.82a4.15,4.15,0,0,0,2,.3c4.46-.4,7.3,1.82,9.93,5.22,1.56,2,1.71,5,4.62,6.84V27.34c.08-1.33-.35-2.18-1.9-2.11C221.87,25.28,220.63,25.24,219.38,25.24Z" transform="translate(-0.29 -0.52)"/><path class="cls-2" d="M92.63,229.3c-4.49.08-9,.44-13.49-.08-.59-.41-.94-1.08-.64-1.3,1.28-.93.51-2.27.74-3.4,1.76.28,2.87-.36,3.19-2.18s.12-3.9-1.25-5-2.07,1.31-3.36,1.58c-.22-.4-.64-.79-.63-1.18.08-2.61-.71-4.07-3.7-3.29-.59.15-1.33-.3-2-.46-1.18-.59-.12-2.84-2.11-2.82l.32-4.07c-1.42.49-3.2.18-3.07,2.23.1,1.66,1.41,1.86,2.75,1.84l-.72,2-1.39,0c-1.2-1.93-2.72-2.89-4.84-1.33-.62.46-1,1.5-2,1a2,2,0,0,1-.72-2.74,2.14,2.14,0,0,0-.65-2.8c-1-.62-1.53.79-2.4,1l-1.29-2.09c0-1.07-.07-2.1-1.5-2.2-.77-1.93-3.06-4.67-3.9-3.53-2.37,3.21-4.91,1.4-7.4,1.49,0-1.83.4-3.81-2.19-4.47-.74-.18-.59-1.17-.62-1.86.38-1.62,4.36-.35,2.84-3.52a6.09,6.09,0,0,0-4.18-3.66c-2-.47-1.2-1.93-.72-3.06.65-1.53,1.48-.57,2.06,0,1.21,1.31,2.75,1,4.22,1,.27,2.16-.85,4.62,1.41,6.34l.71,1.41c0,1.59.36,2.89,2.28,2.74,2.22-.18,1.89-1.94,1.93-3.43l.71-2.13.71-2.11c1.17-.65,2.19-2,3.73-1.2,1.76.87,1,2.6,1.2,4v1.4c-1.07.46-1.59-2.1-2.93-.48a5.13,5.13,0,0,0-1.27,4.19c.23,1.69,1.39,2,2.79,1.92H57.4c1.22.65,2.46,1.26,3.64,2,.93.55,1.61,2.12,2.87,1.22s-.33-2.08-.17-3.17a1.48,1.48,0,0,0-.7-1.42v-.69c1.78-2.54,4.08-2.66,6.68-1.44a2.52,2.52,0,0,0,1,0c.41,1.12-.51,3.81,1.13,3.13,2-.81,3.09.31,4.58.33l2.82.09c2.68-.52,2.11-2.08,1.24-3.79-.51-1-2-1.18-2-2.57a7.66,7.66,0,0,0,2.13-6.35v-1.41c1.76-1.19,4.56-.73,5.31-3.63.21-.79,2.24-.72,2,.19-.67,2.54,2.17,5.53-1.09,7.7a1.42,1.42,0,0,0,0,2.39c1.7.85,3.66.54,5.45.22,1.4-.25.87-1.67,1-2.64,1.83.09,2.17,1.3,2.11,2.82a6.23,6.23,0,0,0-2.82,5.62c-3.74,4.54,1.06,5.29,3.17,7.47.61-1.33-.44-2.21-.35-3.24,2.79.11,2-1.91,2.06-3.44,1-4-.31-8.08.76-12.05a2,2,0,0,1,2.11-2.11c0,2.12-.31,4.4,2.11,5.63,1.17,1.83,4.23-.77,4.94,2.11-1.11,1.34-.12,2.45.6,3.33s2.39,1,2.92,2.32c-.23.46-.46.93-.7,1.39-.49,3.46-3.27,5.1-5.65,7.06h-1.4c-.64-1-.79-2.58-2.36-2.7-1.3-.1-1.77.83-1.86,2-1.59-.18-2.29.53-2.13,2.11-2.25.82-2.83,2.77-2.64,4.75.17,1.72,1.65,2.43,3.41,2.25,2.14.49,2.17,3.85,4.87,3.59a1.52,1.52,0,0,0,1.41.67c.14.47.14,1.33.87,1,1-.46.39-1.54.54-2.35l1.41,0h2.81c-.92,2.28-1.77,5.19.14,6.67s2,2.78,2,4.6c-2.24-1.21-4.13-3.93-7.2-1.67,0,0-.68-.85-1.09-1.25-.89-.86-1.56-2.3-3.11-1.8s-1.2,2.05-1.29,3.29l-1.4.05c-.25-1.39-1.41-3.09-2.16-3-1.68.16-2.14,2.08-2.61,3.6A6,6,0,0,0,92.63,229.3Zm-.76-20c-.42-.55-.39-2.09-2-1-.75.51-1.15.67-1.52-.29-.44-1.19-1.22-2.41-2.44-1.16-1.07,1.1.09,2,1.09,2.75A16.92,16.92,0,0,1,88.57,211c.52.49,1.08,1,1.82.49A2.92,2.92,0,0,0,91.87,209.27Zm-2.06,8.86c-.15-.95.47-2.48-1-2.55s-1.9,1.36-1.41,2.52-1.38,3.3,1.15,3.2C90.23,221.23,89.62,219.31,89.81,218.13Zm-9.28-11.54A1.58,1.58,0,0,0,79.11,205c-.9-.12-1.64.27-1.69,1.22s.74,1.33,1.59,1.41S80.38,207.47,80.53,206.59Zm24.63-7.36c-.16-.65-.5-1.27-1.32-1.21a1.09,1.09,0,0,0-1.09,1.38,1.35,1.35,0,0,0,1.52,1.07C104.93,200.42,105.24,200,105.16,199.23Z" transform="translate(-0.29 -0.52)"/><path class="cls-3" d="M213.08,227c-7.06,1-14,2.9-21.17,3.17.09-1.21-.28-3.12,1.66-2.72,3.66.76,5.89.13,5.75-4.14,0-.28.38-.57.6-.85.48-.6.8-1.69,1.82-1.19s.85,1.59.2,2.34-1.06,1.27-.52,2.14c.68,1.11,1.59.54,2.48.31a7.9,7.9,0,0,1,1.39-.12c5.46-.1,8.63-1.91,10.09-6.18.09-.29-.14,0-.17.24-.09.73.4,0,.57.19l.44-.72c-.18-.08-.36-.15-.84.29s-.7.55-.93.55c-3.08,0-6.25.14-5.46-4.56.1-.63-.39-1.44.19-2s1.2.34,1.8.45c1.52.27,3.94,2.94,4-1.33a6.81,6.81,0,0,1,1.59-.33c.16.66-.32,2,.93,1.61.76-.22,2-1,1.68-2.21s-1.26-.24-1.92-.11c-.53-2.79.56-7-4.91-5.43-.36.1-1-.59-1.44-.92L211,202c3.47-.32,4.12-1.39,3.68-4.59-.52-3.77-3.56-5-6.17-6.51-1.22-.7-3.6-1.54-3.35,1.72a1.26,1.26,0,0,1-1,1.29,1.11,1.11,0,0,1-.81-.39c.41-2.26-2.25-3.27-2.24-5.2,0-3-.3-5.43-4.1-5.49-.67,0-.89-.73-.87-1.33.07-2.15-1.4-2.06-2.85-2s-2.17-.39-2.14-1.93a3.64,3.64,0,0,0-1.38-3c0-.43,0-.85,0-1.28h2c.15,1.35,1.16,1.29,2.13,1.3.09,1.73,1.36,2.35,2.72,2.55,1.15.16,1.42-.89,1.52-1.85,3.1.68,6.12-1.47,9.31-.17,1.13.46,1.84-.69,2-1.88,0-.21.05-.42.07-.63l4.09.11c.91,1.85,5,2.26,7.05.72l4.24-.95a.51.51,0,0,1-.05.4c-.7,3.84-1.58,7.71,1.53,11.11,2.72-2,4.6-1.14,5.58,3.2.83-2.18.88-3.38.45-4.58-.36-1-.23-1.57.91-1.69,1.21,4.55.41,9.2.62,13.8.14,2.9,0,5.81,0,8.72-1.94,1.89-2,3.77,0,5.64V214l-.55.8c0,1.1,0,2.21,0,3.32l.57.76v1.48l-.56.76.07,0c-2.7.52-5.29,2.57-8,1.77-3-.89-5,1.29-7.56,1.53-.71.07-.72,1.07,0,1.61a3.42,3.42,0,0,1-2.94.52C214.18,225.69,213.47,225.68,213.08,227Zm5.63-37.3c-1.66,2.41.21,4,1,5.92C220.33,193.46,219.24,191.64,218.71,189.69Zm1.82,14.94c-.2-.08-.44-.27-.58-.22s-.18.36-.26.56c.19.08.43.27.57.22S220.44,204.83,220.53,204.63Z" transform="translate(-0.29 -0.52)"/><path class="cls-4" d="M125,168.74c.12-1.74-.7-2.6-2.43-2.75a.86.86,0,0,1-.83-1.22c.15-.33.73-.77,1-.72,3.93.77,7.59-1.57,11.57-.87a7.75,7.75,0,0,0,7.42-2.23c1.57-1.71,3.58-1.94,5.77-1.94,17.12,0,34.24,0,51.35.06,4.11,0,8.15-.43,12.22-.72,3.3-.23,4.73-2.52,2.61-5.11a5.34,5.34,0,0,1-.21-6.45c2.75-4,1.57-8.11,1.27-12.17-.13-1.84-.46-3.4,1-4.81,1.16-1.12.73-2.64.76-4,.09-4.73-.38-9.56,2.59-13.76a2.5,2.5,0,0,0,.22-1.36c.08-8.42.4-16.84.42-25.23,0-3.79,1.95-6.76,2-10.27,0-.22.73-.43,1.12-.64-1,8.38-.3,16.82-.85,25.19-.27,4.19.57,8.73-.83,12.49-2.48,6.64-2.37,13.6-3.72,20.34-1.76,8.87-1.8,18.06-1.65,27.17.08,5,0,5,3.92,8.24.23.18.22.64.32,1-1.67.13-3.36-.32-5,.27-12.31-.09-24.62-.2-36.93-.26Q151.58,168.81,125,168.74Z" transform="translate(-0.29 -0.52)"/><path class="cls-2" d="M127.89,230.69l-2.87-.05c.13-1.21-.58-3.17.5-3.5,3.6-1.12,2-3.37,1.6-5.42,1,.06,2.63-2.46,3.06.67.09.67.86.74,1.44.66a2.51,2.51,0,0,0,2.39-2.17c.24-2.57-1.73-4.17-3.21-5.85a1.71,1.71,0,0,0-2.72.33c-1,2-2.86,3.77-2.37,6.35-1.79-.28-1.29-1.45-1.16-2.65.31-3-1.9-5-4.26-3.52-3.33,2.07-6.68,1.19-10.07,1.24-.32-2.26-1.27-4.71,2.35-5.35.69-.12.39-1.19-.25-1.69.14-2.9-2.54-1.08-3.52-2.1.17-1.93,3-2.07,2.83-4.23l1.4,0c0,1.12.16,2.11,1.62,2.06a2.76,2.76,0,0,1,2.69,1.21c1.16,2.12,2.89,2.14,4.86,1.62.9,3.32,2.43,2.66,4.17.66,1.42,0,2.79.06,3.79,1.31a3.49,3.49,0,0,0,3.3,1.56c.67,2,1.65,4.3,3.49,4.69,2.32.49,2.68-2.44,3.86-3.91.35-.43.41-1.14,1.21-1.17,1.16,1.26,2.33,4.25,3.66.07.24-.77.92-1.59,1.79-1.45,1.11.18.7,1.29.77,2,.18,2.25-.87,3.31-3.12,3.05-.64-.08-1.18-.15-1.45.54s.19.86.67,1c2.67.73,4.58-1,6.2-2.49,1.26-1.17.85-3.33-.34-4.5-2.94-2.9-6.25-5.44-7.7-9.54-.31-.89-2.24-.86-1.52-2.34a2.8,2.8,0,0,1,3-1.48c2.19.16,3.54-.37,2.52-3a1.06,1.06,0,0,1,.85-1.58c1-.09.91.86.92,1.51,0,1.76,0,3.52,0,5.28,0,1.1.11,2.19,1.41,2.52,1.13.29,1.69-.5,2.17-1.36.83-1.47,2-2.36,3.76-1.89s1.75,2,1.81,3.41l-2.1.72c-1,.16-2.44-.49-2.62.91-.2,1.61,1.07,2.39,2.61,2.6h0c-.13,2-.16,4,2.81,3.53l1.41,2.11a8.13,8.13,0,0,1-2,6.48c-1.56,1.81-.08,3,.78,3.84,1.33,1.24,2.73,2.77,4.83,2.82.23,0,.59-.41.69-.7.64-1.82,1.67-3.59.56-5.62-.5-.91-2.09-1.87-.72-2.92a3.06,3.06,0,0,1,3.88.32,8.51,8.51,0,0,0,5.38,2.12c0,.47,0,.93,0,1.4-1.18,1.43-1.39,4.29-4.48,3-.67-.29-1.41.31-1.59,1s.43,1.27,1.12,1.54c2.27.87,4.51,1.94,7.07,1.5,1,.75.6,1.85.69,2.82-6.53,0-13.07,0-19.61,0-.8,0-1.73.13-2-.9a1.73,1.73,0,0,1,.14-1.31c.67-.9,1.42-.38,2.12.08s1.26.92,1.61-.15a1.25,1.25,0,0,0-.94-1.64,44.93,44.93,0,0,0-4.51-.29c-.23-1.49-.94-2.56-2.54-1.75-1.39.69-1.06,1.88-.2,2.91s.55,2.58,2,3.07c-.94,2.37-2.45,1.44-3.89.63-.75-.42-1.3-1.68-2.33-.71-1.33,1.24-2.89.59-4.34.78-.85-1.63-1.43-3.82-3.93-1.75-2.22,1.84-3.8,1.41-4.45-1.43-.29-1.24-.77-2.1-2.05-1.54s-.81,1.65-.36,2.66,2.34,1.28.93,2.77C130.19,230.31,128.93,229.78,127.89,230.69Zm26.62-13.46a1.81,1.81,0,0,0-2.14-1.79c-1.07,0-1.35.77-1.23,1.67.16,1.11.78,2.11,1.91,2.13S154.23,218,154.51,217.23Zm-7.69,7.57c0-.89-.23-1.71-1.38-1.5a1.65,1.65,0,0,0-1.36,1.79c0,1,.46,1.54,1.5,1.47S146.81,225.68,146.82,224.8Zm16.73,1.43-.26.59c.2.08.44.27.58.22s.18-.36.26-.56Z" transform="translate(-0.29 -0.52)"/><path class="cls-5" d="M71.48,214c.68.16,1.42.61,2,.46,3-.78,3.78.68,3.7,3.29,0,.39.41.78.63,1.18v1.4a1.28,1.28,0,0,0,1.41,1.41v2.81c-.23,1.13.54,2.47-.74,3.4-.3.22,0,.89.64,1.3-2.45.18-4.83.24-7.18-.87s-5,1.21-7.54.17c-.1-3.71-1.28-4.87-4.51-3.86-1.75.55-3.75,1.21-4.61,3.23-5.18-.15-10.39.89-15.53-.46-.05-.72-.17-1.41-1.12-1.37-.74,0-.86.63-.95,1.21l-1.44,0c-.78-2.34-2.77-.87-4.15-1.33-1.39-.8-1.79-2.42-2.88-3.47a6.9,6.9,0,0,1-.75-1.9c-.2-2.93-4.07-5.3-1.36-8.67h.71c1.69.14,2.13-.74,2.13-2.3,0-2.16-1.47-1.92-2.85-1.93h-.69c-.21-2.26-1.53-4.77,1.41-6.33,1,.35,1.25,1.31,1.8,2.05s1.31,1.54,2.64,1.07,2.11-.94,1.89-2.42c1.22-.08,1.84,1,2.82,1.41a1.44,1.44,0,0,0,.72,1.41c0,.7,0,1.41,0,2.11a1.44,1.44,0,0,0-.71,1.41c-1.95-.39-3,.71-3.83,2.25-.51,1,.3,1.14,1,1.27v2.81c-.51.11-1.21.1-1,.86.06.25.69.38,1,.56h1.41c0,1.21.83,2.24.41,3.64-.54,1.78.49,2.78,2.41,2.68a1.44,1.44,0,0,0,1.39.73c.09.56,0,1.28.32,1.64a2.82,2.82,0,0,0,4,.39c.7-.46,1.47-1,.87-1.91-.87-1.32-2-1.07-3.24-.38-.25.14-.82-.29-1.25-.45C40.44,221,39.42,221,38.4,221c-.08-2.32-.72-4.64.5-6.91.49-.9-.27-1.44-1.21-1.54V209c1,0,2,0,2.11-1.41.34-.07.81,0,1-.23,1.14-1.23,2.58-1.55,4.12-2.08,3.07-1.07,2.27,1.81,3.41,2.57a5.41,5.41,0,0,0,1.3.46l1.42.71c.11,1,.63,1.58,1.6,1.19a3.06,3.06,0,0,0,2-3.31l.81-.7,1.29,2.09c.36,3,1,5.9,4.16,7.35,3,1.36,6,2.68,5.93,6.74,0,.12.54.37.83.36,2.48,0,4.2-2.28,3.93-5C71.43,216.54,71.5,215.25,71.48,214Zm-21.11,3.41c-.09-1.19.23-2.55-1.53-2.68s-2.71.62-2.67,2.39c0,1.3.19,2.9,1.72,3S50.2,218.84,50.37,217.38Z" transform="translate(-0.29 -0.52)"/><path class="cls-6" d="M189.8,174.53a3.64,3.64,0,0,1,1.38,3c0,1.54.76,2,2.14,1.93,1.26,2.19,1.47,5.23,4.76,5.81a1.11,1.11,0,0,1,.74,1.65c-2.15,2-.72,4.5-.32,6.27.81,3.61.48,8,4.64,10.22.06.76-.07,1.6.74,2.09.68,1.38,1.41,2.58.23,4.28a2.87,2.87,0,0,0,.64,3.79c1.27.91,1,2.17,1.3,3.34.91,3.16,0,6.07-.76,9a7.9,7.9,0,0,0-1.39.12c-.89.23-1.8.8-2.48-.31-.54-.87-.06-1.46.52-2.14s.93-1.79-.2-2.34-1.34.59-1.82,1.19c-.22.28-.61.57-.6.85.14,4.27-2.09,4.9-5.75,4.14-1.94-.4-1.57,1.51-1.66,2.72-1.2,1.18-2.76.47-4.13.8a2.29,2.29,0,0,1-1.57-2.18c2-2.91,1.94-6,.77-9.17,1.83-1.27,1.38-3.17,1.41-5s-.73-4.81,1.46-5.18c1.75-.29,2.58,2.61,3.45,4.37,0,.1,0,.24,0,.35.22,1.17.9,2.19,2.09,1.61,1-.49,2.69-1.48,1.76-2.87-1.47-2.18-.9-4.46-1.06-6.73.93.41,1.86,1.11,2.85.18a1.55,1.55,0,0,0,.4-1.89,1.74,1.74,0,0,0-1.65-1.05c-2.09,0-1.47,1.61-1.6,2.76-2-.54-5.34-.58-5.75-1.71-1-2.69-3.12-5.17-1.84-8.79,2-5.59,1.29-6.81-2.26-9.21,0-.71,0-1.41,0-2.11,2.87-1.5,1.6-4.29,1.15-6C186.74,175.66,188,175.16,189.8,174.53Zm6.33,47.7c-.12-1.23.37-3.3-1.89-3.13s-2.41,2.12-2.33,4c.05,1.37-.26,2.94,2,2.83C196.27,225.8,196.14,224.08,196.13,222.23Z" transform="translate(-0.29 -0.52)"/><path class="cls-7" d="M220.08,168.94c-.1-.34-.09-.8-.32-1-3.91-3.24-3.84-3.24-3.92-8.24-.15-9.11-.11-18.3,1.65-27.17,1.35-6.74,1.24-13.7,3.72-20.34,1.4-3.76.56-8.3.83-12.49.55-8.37-.13-16.81.85-25.19,0-.24,0-.47,0-.71H225q0,45.19,0,90.39c0,1.64-.09,3.28-.14,4.92Z" transform="translate(-0.29 -0.52)"/><path class="cls-4" d="M28.59,169.08c-1.42-9.85-.52-19.76-.76-29.64,0-.82,0-1.64,0-2.46s.05-2.28,1.18-2.16c1.46.15.51,1.34.41,2.15s-.45,2.05-.07,2.76c3.42,6.42,1.89,13.47,2.58,20.21.28,2.75.38,4.42,3.79,4.1,2.82-.27,5.06,2,8,2.23a186.27,186.27,0,0,0,25.88,0c11.59-.64,23-3.52,34.78-2a36.09,36.09,0,0,0,5.11.22c3.23,0,3.8,1.58,3.54,4.19L85.56,169a92.66,92.66,0,0,0-12.69,0l-3.47,0-2.16,0H62.35l-28.19-.13c-.11-1.18.41-2.7-1.62-2.79-2.25-.1-1.83,1.54-1.9,2.86Z" transform="translate(-0.29 -0.52)"/><path class="cls-2" d="M27.83,201.29c-2.94,1.56-1.62,4.07-1.41,6.33-2.18,1.82-2.3,3.29.7,4.25-2.71,3.37,1.16,5.74,1.36,8.67a6.9,6.9,0,0,0,.75,1.9c-3.81-.37-2.89,2.71-3.44,4.72-3.34-.18-6.67-.43-10-.51-1.59-.05-2-.84-1.91-2.21.1-2.32.15-4.63.23-6.95,1.21,2.9,3.44,2.94,6,2.11l.29.16-.29-.16c-1.89-1.8-4.14-3.19-3.69-6.57.24-1.84-1.54-.31-2.37-.46a66.63,66.63,0,0,1,0-11.3,28.09,28.09,0,0,0,3.38.68c.85.07,2,.42,2.44-.71s-.39-1.7-1.33-2c-1.93-.67-1-2.34-1.25-3.57l0-2.09a6.5,6.5,0,0,1,6.32-2.11c1.34,2,1.36,4.76,3.52,6.33a1.45,1.45,0,0,0,1.41.7Zm-6.34,12.65c.09.87-.14,2.08,1.24,2,1.53-.13,1.58-1.43,1.55-2.6,0-.88.17-2.08-1.21-2C21.54,211.47,21.52,212.76,21.49,213.94Z" transform="translate(-0.29 -0.52)"/><path class="cls-8" d="M85.56,169l27.48-.27h12q26.58.09,53.14.2c12.31.06,24.62.17,36.93.25.45,1.33,1.48,1.15,2.49.94,1.27-.27,2.23,0,2.46,1.45l-11.23,0c-2.56-1.3-5.1-.79-7.65,0-7.85-.07-15.68-1.19-23.54-.5q-43.31-.08-86.6-.17c-2,0-4.23.62-6.11-.81Z" transform="translate(-0.29 -0.52)"/><path class="cls-5" d="M127.12,221.72c.36,2.05,2,4.3-1.6,5.42-1.08.33-.37,2.29-.5,3.5-3.74-1-7.57-.13-11.34-.62a2.13,2.13,0,0,0-2.05-1.27c0-1.82-.13-3.16-2-4.6s-1.06-4.39-.14-6.67l.71-.7c3.39-.05,6.74.83,10.07-1.24,2.36-1.48,4.57.54,4.26,3.52-.13,1.2-.63,2.37,1.16,2.65Z" transform="translate(-0.29 -0.52)"/><path class="cls-9" d="M186.21,228.78a2.29,2.29,0,0,0,1.57,2.18,16.87,16.87,0,0,1-7.2,1.2l-.65-.58c.06-1.94,3.77-2.29,2.14-5-.62-2.81.94-5.62,0-8.43-.49-2.11-.32-4.36-1.37-6.34-.42-2.18.91-4.17.71-6.32.8-1.07,2.11-2,.68-3.54l-.09-8.48v-2c0-1.19,0-2.38,0-3.57v-1.37l.12-5.68c1.71.93,2.74.2,3.42-1.38,1.39,1.47.43,3.29.74,4.93,0,.7,0,1.4,0,2.11-1.4,9-.44,18-.73,27,0,.92-.17,1.9.62,2.64v3.45A14.18,14.18,0,0,0,186.21,228.78Z" transform="translate(-0.29 -0.52)"/><path class="cls-10" d="M182.07,226.62c1.63,2.67-2.08,3-2.14,5-4.66.29-9.36-.65-14,.51-8.21-1.16-16.54.23-24.73-1.24v-1.39c1.45-.19,3,.46,4.34-.78,1-1,1.58.29,2.33.71,1.44.81,3,1.74,3.89-.63,1.3-1.23.46-2.82.71-4.23a44.93,44.93,0,0,1,4.51.29,1.25,1.25,0,0,1,.94,1.64c-.35,1.07-1,.53-1.61.15s-1.45-1-2.12-.08a1.73,1.73,0,0,0-.14,1.31c.31,1,1.24.9,2,.9,6.54,0,13.08,0,19.61,0,.81.77,1.33,1.34,2.81.64S180.41,226.87,182.07,226.62Z" transform="translate(-0.29 -0.52)"/><path class="cls-7" d="M225,27.34V40.09c-2.91-1.88-3.06-4.82-4.62-6.84-2.63-3.4-5.47-5.62-9.93-5.22a4.15,4.15,0,0,1-2-.3c-.7-.33-1.55-.85-1.32-1.82s1.13-.66,1.78-.66c3.5,0,7,0,10.5,0C220,29.34,223.19,26.49,225,27.34Z" transform="translate(-0.29 -0.52)"/><path class="cls-11" d="M233.41,180.88c-1.14.12-1.27.7-.91,1.69.43,1.2.38,2.4-.45,4.58-1-4.34-2.86-5.25-5.58-3.2-3.11-3.4-2.23-7.27-1.53-11.11a16.91,16.91,0,0,0,4.1.31c3.89-.64,4.88,1.19,4.42,4.62A24.77,24.77,0,0,0,233.41,180.88Z" transform="translate(-0.29 -0.52)"/><path class="cls-12" d="M23.57,173.18l6.31-.07,2-.67c3.77,1,7.53,2.19,11.45.71l2.13-.09L62.84,173c2.38.61,5-.72,7.25.84l-.8.14a12.6,12.6,0,0,1-5.48.67c-3.75.69-7.52,1.32-11.34.54l-4.2,0v0l-.78-.73a26.47,26.47,0,0,1-11,1,54.32,54.32,0,0,0-13-.16v-.76Z" transform="translate(-0.29 -0.52)"/><path class="cls-13" d="M23.6,191.44a6.5,6.5,0,0,0-6.32,2.11,9.88,9.88,0,0,1,.31-1.33c.3-.77.68-1.64.09-2.28-.87-1-1.62.19-2.44.39-.44.11-.87.27-1.3.41,0-3.3,0-6.59,0-9.89.56-.08,1.29,0,1.63-.28,2.33-2.13,3.31-.29,4.33,1.39.34.56.26,1.35,1,1.72l.66,2.12c0,1,0,2,1.39,2.12l.72,2.12.72,1.38Z" transform="translate(-0.29 -0.52)"/><path class="cls-3" d="M20.82,183.68c-.7-.37-.62-1.16-1-1.72-1-1.68-2-3.52-4.33-1.39-.34.31-1.07.2-1.63.28-.05-1.63-.12-3.27-.15-4.9,0-1,.41-1.55,1.5-1.14,1.53.75,3.13.36,4.71.3,0,2.06.23,3.81,3,2.28,2.39,1,3.43,4.36,6.69,4,.08,0,.23.59.35.91-.13,1,.27,2.12-.82,2.82-1.72.23-2.71-1.06-3.93-1.87C23.64,182.19,22,181,20.82,183.68Z" transform="translate(-0.29 -0.52)"/><path class="cls-9" d="M28.59,169.08l2.05-.12,3.52-.07,28.19.13c0,1.47-1.59,1.06-2.11,1.9l-9.18.09c-1.85.31-3.87-.7-5.6.69v.06L44,171.67c-2.5-1.41-5.21-.34-7.8-.63h-2L30.09,171C28.88,170.9,27.12,171.27,28.59,169.08Z" transform="translate(-0.29 -0.52)"/><path class="cls-6" d="M111.63,228.75a2.13,2.13,0,0,1,2.05,1.27l-12-.09c.41-2.3-.9-2.76-2.78-2.61.09-1.24-.31-2.77,1.29-3.29s2.22.94,3.11,1.8c.41.4,1,1.27,1.09,1.25C107.5,224.82,109.39,227.54,111.63,228.75Z" transform="translate(-0.29 -0.52)"/><path class="cls-6" d="M141.21,229.46v1.39c-3.27-.93-6.57-.09-9.85-.13,0-.19,0-.37,0-.55,1.41-1.49-.53-1.89-.93-2.77s-.95-2.09.36-2.66,1.76.3,2.05,1.54c.65,2.84,2.23,3.27,4.45,1.43C139.78,225.64,140.36,227.83,141.21,229.46Z" transform="translate(-0.29 -0.52)"/><path class="cls-11" d="M218,226c-.75-.54-.74-1.54,0-1.61,2.56-.24,4.56-2.42,7.56-1.53,2.71.8,5.3-1.25,8-1.77-.19,1.73-1.65,2.34-2.91,2.64C226.49,224.68,222.36,225.91,218,226Z" transform="translate(-0.29 -0.52)"/><path class="cls-10" d="M55.3,227.89c.86-2,2.86-2.68,4.61-3.23,3.23-1,4.41.15,4.51,3.86C61.34,228.88,58.28,229,55.3,227.89Z" transform="translate(-0.29 -0.52)"/><path class="cls-13" d="M17.24,195.64c.28,1.23-.68,2.9,1.25,3.57.94.33,1.77.91,1.33,2s-1.59.78-2.44.71a28.09,28.09,0,0,1-3.38-.68l-.06-3.55c.64-.57.47-1.34.51-2.07Z" transform="translate(-0.29 -0.52)"/><path class="cls-13" d="M14,212.57c.83.15,2.61-1.38,2.37.46-.45,3.38,1.8,4.77,3.69,6.57h0c-2.54.83-4.77.79-6-2.11A13.14,13.14,0,0,1,14,212.57Z" transform="translate(-0.29 -0.52)"/><path class="cls-11" d="M25.79,227.16c.55-2-.37-5.09,3.44-4.72,1.09,1.05,1.49,2.67,2.88,3.47,0,.27,0,.54-.08.8C30,227.85,27.9,227.38,25.79,227.16Z" transform="translate(-0.29 -0.52)"/><path class="cls-14" d="M17.24,195.64H14.45l-.54-.68,0-4.23c.43-.14.86-.3,1.3-.41.82-.2,1.57-1.35,2.44-.39.59.64.21,1.51-.09,2.28a9.88,9.88,0,0,0-.31,1.33C17.26,194.25,17.25,194.94,17.24,195.64Z" transform="translate(-0.29 -0.52)"/><path class="cls-12" d="M220,171.58c-.23-1.49-1.19-1.72-2.46-1.45-1,.21-2,.39-2.49-.94,1.65-.58,3.34-.13,5-.26l4.78.21c0,.82,0,1.63.07,2.45Z" transform="translate(-0.29 -0.52)"/><path class="cls-6" d="M92.63,229.3a6,6,0,0,1,.14-1.35c.47-1.52.93-3.44,2.61-3.6.75-.07,1.91,1.63,2.16,3a4,4,0,0,0-.65,2.52Z" transform="translate(-0.29 -0.52)"/><path class="cls-11" d="M96.89,229.89a4,4,0,0,1,.65-2.52l1.4-.05c1.88-.15,3.19.31,2.78,2.61Z" transform="translate(-0.29 -0.52)"/><path class="cls-15" d="M220,171.58h4.91l.06.85-4.24.95c-2.19-1.79-4.67-.74-7.05-.72l-4.09-.11-1.41-.73a4.1,4.1,0,0,0,.59-.2Z" transform="translate(-0.29 -0.52)"/><path class="cls-9" d="M20,175.11c-1.57.06-3.17.45-4.7-.3.07-2,1.58-1.61,2.79-1.63,1.4,0,2.79,0,4.19.07a1.07,1.07,0,0,1-.15.41Z" transform="translate(-0.29 -0.52)"/><path class="cls-15" d="M225,27.34c-1.82-.85-5,2-5.63-2.1,1.25,0,2.49,0,3.73,0C224.66,25.16,225.09,26,225,27.34Z" transform="translate(-0.29 -0.52)"/><path class="cls-4" d="M225,73.83H222.9c.39-1.77-1-5,1.17-5S224.52,72.09,225,73.83Z" transform="translate(-0.29 -0.52)"/><path class="cls-6" d="M165.94,232.09c4.63-1.16,9.33-.22,14-.51l.65.58Z" transform="translate(-0.29 -0.52)"/><path class="cls-14" d="M234,209c-2-1.87-2-3.75,0-5.64Z" transform="translate(-0.29 -0.52)"/><path class="cls-8" d="M34.23,171h2c.08.36.17.72.25,1.08l-4.54.32-2,.67c.05-.45.11-.9.17-1.34C31.44,171.51,33,172.32,34.23,171Z" transform="translate(-0.29 -0.52)"/><path class="cls-13" d="M32,226.71c0-.26,0-.53.08-.8,1.38.46,3.37-1,4.15,1.33C34.84,227.16,33.31,227.93,32,226.71Z" transform="translate(-0.29 -0.52)"/><path class="cls-12" d="M34.23,171c-1.21,1.29-2.79.48-4.18.74,0-.27,0-.54,0-.81Z" transform="translate(-0.29 -0.52)"/><path class="cls-13" d="M37.7,227.27c.09-.58.21-1.17.95-1.21,1,0,1.07.65,1.12,1.37Z" transform="translate(-0.29 -0.52)"/><path class="cls-5" d="M131.35,230.17c0,.18,0,.36,0,.55l-3.47,0C128.93,229.78,130.19,230.31,131.35,230.17Z" transform="translate(-0.29 -0.52)"/><path class="cls-11" d="M213.08,227c.39-1.31,1.1-1.3,2-.49C214.44,226.72,213.86,227.27,213.08,227Z" transform="translate(-0.29 -0.52)"/><path class="cls-3" d="M22.08,173.66a1.07,1.07,0,0,0,.15-.41l1.34-.07-.06,1.36Z" transform="translate(-0.29 -0.52)"/><path class="cls-2" d="M14.45,195.65c0,.73.13,1.5-.51,2.07l-.06-2.07Z" transform="translate(-0.29 -0.52)"/><path class="cls-11" d="M233.49,221.1l.56-.76Z" transform="translate(-0.29 -0.52)"/><path class="cls-11" d="M234.05,218.86l-.57-.76Z" transform="translate(-0.29 -0.52)"/><path class="cls-14" d="M233.49,214.78l.55-.8Z" transform="translate(-0.29 -0.52)"/><path class="cls-13" d="M14.45,195.65h-.57a.85.85,0,0,1,0-.68Z" transform="translate(-0.29 -0.52)"/><path class="cls-10" d="M157.4,201.28c-.06-1.43-.12-2.95-1.81-3.41s-2.93.42-3.76,1.89c-.48.86-1,1.65-2.17,1.36-1.3-.33-1.41-1.42-1.41-2.52,0-1.76,0-3.52,0-5.28,0-.65.11-1.6-.92-1.51a1.06,1.06,0,0,0-.85,1.58c1,2.6-.33,3.13-2.52,3a2.8,2.8,0,0,0-3,1.48c-.72,1.48,1.21,1.45,1.52,2.34,1.45,4.1,4.76,6.64,7.7,9.54,1.19,1.17,1.6,3.33.34,4.5-1.62,1.51-3.53,3.22-6.2,2.49-.48-.13-.89-.41-.67-1s.81-.62,1.45-.54c2.25.26,3.3-.8,3.12-3.05-.07-.75.34-1.86-.77-2-.87-.14-1.55.68-1.79,1.45-1.33,4.18-2.5,1.19-3.66-.07-.8,0-.86.74-1.21,1.17-1.18,1.47-1.54,4.4-3.86,3.91-1.84-.39-2.82-2.72-3.49-4.69.64-1,.79-2.11-.29-2.78-2.9-1.8-1.65-4.17-1.13-6.53a6.18,6.18,0,0,1,1.4-2.36c1.13-1.53.68-2.51-1.2-2.38-2.86.2-6.12-1.2-8.25,2.25-.68,1.11-1.62.32-1.8-.88,0-.85-.3-1.78-1.19-1.81-1.19,0-.81,1.09-.92,1.81.73,2.58.5,5.42,2.15,7.75l0,1.4c-2,.52-3.71.5-4.87-1.62a2.76,2.76,0,0,0-2.69-1.21c-1.46.05-1.64-.94-1.62-2.06,2,.12,2.5-1.11,2-2.65a3.86,3.86,0,0,0-4.1-3c-.53-1.35-2.15-1.38-2.92-2.32s-1.71-2-.6-3.33l1.29,0,.8,1.44c.41,1.84,1.93,1.69,2.87,1,1.13-.77,1-2.14,0-3.21l0-4.93c4.95-2,5.48-1.6,4.76,3.56,0,.34-.29.66-.31,1-.07,1.82,1.7,3.55,4,3.9h1.42c1.55,1.41,3,.65,3.66-.75s1.66-3.27-.86-4.18l-.69-.72c0-.23,0-.47,0-.7.92-1.54,2.58-3,.71-4.93.57,0,1.14,0,1.71,0a2.79,2.79,0,0,0,2.82-1.57c.7-1.44-1.32-1-1.41-1.82,0-.26.26-.56.4-.83h2.81c.92,1.95,2.71,1.28,4.23,1.41.24.71.49,1.43.73,2.15,0,.92,0,1.85,0,2.78a7.81,7.81,0,0,0,0,6.32c.24,1.93.49,3.86.72,5.78.08.74.32,1.47,1.05,1.63,1,.21.92-.75,1.21-1.33.52-1,.47-2.59,2.27-2.61.86,0,1.64-.53,1.5-1.52s-1-1.18-1.84-1.23c0-1.18,0-2.35,0-3.52,1.94-.32,3.18-1.86,4.79-2.74,1-.53,2.29-1,2.46.51.52,4.65,3.45,3.89,6.75,3.8,2.2-.06,6.63-1.41,5.29,4-.23,1,.87,1.61,1.58,2.16a12.28,12.28,0,0,0,5.9,2.81v3.52c-2.34.5-1.12,1.85-.62,2.9.73,1.52,2.47,1.67,3.69,2.53,1.52,1.07,4,1.66,2.57,4.43-1.28,1.24-.47,2.82-.71,4.23a8.51,8.51,0,0,1-5.38-2.12,3.06,3.06,0,0,0-3.88-.32c-1.37,1,.22,2,.72,2.92,1.11,2,.08,3.8-.56,5.62-.1.29-.46.7-.69.7-2.1,0-3.5-1.58-4.83-2.82-.86-.8-2.34-2-.78-3.84a8.13,8.13,0,0,0,2-6.48c1.05-.14,2.45.43,2.75-1.23.13-.75.27-1.74-.68-2.07-1.4-.49-2.71-.35-3.48,1.19-3,.45-2.94-1.5-2.81-3.53,2.37.78,4.7.52,5.29-2.11C161,201.49,159,201.17,157.4,201.28Zm-19.28,4.25a1.92,1.92,0,0,0-1.45-1.77c-1.48-.33-1,1.17-1.42,1.84a.73.73,0,0,0,.67,1.18A2.26,2.26,0,0,0,138.12,205.53Z" transform="translate(-0.29 -0.52)"/><path class="cls-16" d="M29.15,185.1c1.09-.7.69-1.84.82-2.82a3.55,3.55,0,0,0,3.78-2.43c.87-2.21,3.06-3,4.82-1.66,3.25,2.54,6.82,1.85,10.37,2,.63.73,1.71,1,1.84,0,.25-1.83,2-3.07,1.69-5,3.82.78,7.59.15,11.34-.54,0,.45,0,1.29.16,1.3,3.45.44,3,3.5,3.11,5.48.16,2.86,1.46,3.22,3.69,3,3,.68,3.34-3,5.62-3.5.38,1.73,1.49,1.8,2.31.6s1.37-2.81-.88-3.44c-1.06-1.29-3.85-.89-3.49-3.57l11.19-.58c.16.69.37,1.34,1.28,1.21.7-.1.8-.69.92-1.24,1.47-.26,2.78.45,4.17.7.16,1.82,1.48,1.85,2.9,2.17,1.61.36,3.86.12,4.17,2.67-1.12,2.11.2,3.53,1.4,5a2,2,0,0,0-2.11,2.11c-1.61.15-2.75,0-2.16-2.19.44-1.59-.41-2.91-1.41-4.12a2.43,2.43,0,0,0-2.55-.64c-.91.13-1.72.83-1.5,1.62.66,2.39,1.36,4.7,1,7.25-.09.57,1,.85,1.71.9-.13,1,.4,2.39-1,2.64-1.79.32-3.75.63-5.45-.22a1.42,1.42,0,0,1,0-2.39c3.26-2.17.42-5.16,1.09-7.7.25-.91-1.78-1-2-.19-.75,2.9-3.55,2.44-5.31,3.63-2.91-.51-4.91,1.31-7,2.77l-2.78.07c-2-1-3.6-.12-5,1.38H63.73c-1,0-2,0-2.1,1.42v1.4c-1.65,0-3.3-.85-4.94,0-.16-1.42.56-3.15-1.2-4-1.54-.76-2.56.55-3.73,1.2-.77-.56-.51-1.12-.05-1.73,1.09-1.47.17-1.85-1.09-1.76-2.21.15-4.41.44-6.61.67-1.47-.05-3,.29-4.22-1-.58-.62-1.41-1.58-2.06,0-.48,1.13-1.23,2.59.72,3.06a6.09,6.09,0,0,1,4.18,3.66,1.07,1.07,0,0,1-1.19.46c-1.66-.38-3.61-3-4.73-1.17s1.93,2.81,3.08,4.23c0,.69-.12,1.68.62,1.86,2.59.66,2.18,2.64,2.19,4.47-2.67-.87-3.44,1.58-4.91,2.81A1.44,1.44,0,0,1,37,203.4c1.25-3.66.62-5.35-2.1-5.62l0,0a21.85,21.85,0,0,0-.48-4.1c-.4-2.32-.64-4.46-3.73-4.34l-.69-.7a1.55,1.55,0,0,0-.67-1.42Zm28.25-2.82c-1.11.25-2.44-1.69-3.33.16-.7,1.44.71,2,1.6,2.67s1.28,2.22,2.74,2.44c1.14-2.1-1.06-3.47-1-5.28l.16-.29Z" transform="translate(-0.29 -0.52)"/><path class="cls-13" d="M120.78,195c-2.26-.35-4-2.08-4-3.9,0-.33.26-.65.31-1,.72-5.16.19-5.55-4.76-3.56-2.91.79-3.44,3.12-3.67,5.65l-1.29,0c-.71-2.88-3.77-.28-4.94-2.11,2.14-3.91.3-7.27-1.48-10.63,0-.44,0-.89.05-1.34q1.13-.7,0-1.41c.47-2.27,2.29-1.11,3.54-1.41h0c.24,1,.49,2,.74,3s1.06,1.57,1.72.72c3.07-4,2.88.25,3.73,1.73,1.88-1.78,1.55-5.85,3.71-5.54,2.39.34,4.1-2.76,6.32-.68-.07.69.1,1.61-.64,1.89-1.82.69-1.76,2.13-1.33,3.46.54,1.71,2.19.77,3.35,1V183c-.22.36-.39,1-.66,1-.88.13-1.68-1.95-2.49-.42-.52,1,.62,2.08,1.41,2.93a6.09,6.09,0,0,0,3.85,2.09c0,.23,0,.47,0,.7-4.62,0-4.61,0-3.58,4.6A5.15,5.15,0,0,1,120.78,195Z" transform="translate(-0.29 -0.52)"/><path class="cls-10" d="M65.85,189.31c1.37-1.5,2.92-2.35,5-1.38-.2,1.69.67,2.32,2.2,2s1.54-1.1.58-2.12c2.13-1.46,4.13-3.28,7-2.77v1.41c-2,1.36-4,2.71-3.52,5.63-1.76,1.84-4.14,2.55-6.37,3.53a2.52,2.52,0,0,1-1,0c-2.6-1.22-4.9-1.1-6.68,1.44-1.18-1-.54-2.33-.71-3.52h0C66.07,194.26,66.07,191.87,65.85,189.31Z" transform="translate(-0.29 -0.52)"/><path class="cls-13" d="M71.48,214c0,1.28,0,2.57.07,3.84.27,2.69-1.45,4.94-3.93,5-.29,0-.83-.24-.83-.36.07-4.06-3-5.38-5.93-6.74-3.16-1.45-3.8-4.32-4.16-7.35.87-.22,1.42-1.63,2.4-1a2.14,2.14,0,0,1,.65,2.8,2,2,0,0,0,.72,2.74c1,.52,1.33-.52,2-1,2.12-1.56,3.64-.6,4.84,1.33-1.46,1.45-1.33,3.08-.4,4.69.5.87,1.94,1.46,2.11.45.26-1.63,2.29-3.66-.32-5.18l.72-2h0C71.36,211.13,70.3,213.38,71.48,214Z" transform="translate(-0.29 -0.52)"/><path class="cls-13" d="M93.32,189.32c-.73,0-1.8-.33-1.71-.9.38-2.55-.32-4.86-1-7.25-.22-.79.59-1.49,1.5-1.62a2.43,2.43,0,0,1,2.55.64c1,1.21,1.85,2.53,1.41,4.12-.59,2.17.55,2.34,2.16,2.19-1.07,4,.26,8.08-.76,12a3.94,3.94,0,0,0-2.75.65l0,0c-.38-1.45-.69-2.78.76-4a1.87,1.87,0,0,0,0-3C95.49,190.62,95.15,189.41,93.32,189.32Z" transform="translate(-0.29 -0.52)"/><path class="cls-6" d="M37.7,204.81c1.47-1.23,2.24-3.68,4.91-2.81,2.49-.09,5,1.72,7.4-1.49.84-1.14,3.13,1.6,3.9,3.53-3.07-.2-4.57,1.17-4.28,4.31a5.41,5.41,0,0,1-1.3-.46c-1.14-.76-.34-3.64-3.41-2.57-1.54.53-3,.85-4.12,2.08-.19.21-.66.16-1,.23l-2.11-.71Z" transform="translate(-0.29 -0.52)"/><path class="cls-14" d="M108.8,207.64c1,1,3.66-.8,3.52,2.1-1.54.81-3.78-.13-4.84,1.95-.07.13-.79.13-1-.05-2.55-2.35-2.47.58-3.32,1.63-1.66-2.64-4.46-2.41-7-2.8,0-.79.48-1.11,1.14-1.52,1.33-.82.45-1.15-.47-1.32-.16-1.58.54-2.29,2.13-2.11a3,3,0,0,1,2.84,1.3c.89,1.17,1.2.26,1.38-.6h1.4C105.3,208.77,107.4,207.15,108.8,207.64Z" transform="translate(-0.29 -0.52)"/><path class="cls-13" d="M44,186.5c2.2-.23,4.4-.52,6.61-.67,1.26-.09,2.18.29,1.09,1.76-.46.61-.72,1.17.05,1.73-.24.7-.47,1.41-.71,2.11-1.86.53-3.49,2-5.63,1.41C43.17,191.12,44.29,188.66,44,186.5Z" transform="translate(-0.29 -0.52)"/><path class="cls-14" d="M70.75,195.66c2.23-1,4.61-1.69,6.37-3.53l1.39.72c0,1.39,1.5,1.57,2,2.57.87,1.71,1.44,3.27-1.24,3.79,0-.46,0-.93,0-1.39,0-1.09-.08-2.33-1.56-2.07-2.13.36-1,2.16-1.25,3.37-1.49,0-2.62-1.14-4.58-.33C70.24,199.47,71.16,196.78,70.75,195.66Z" transform="translate(-0.29 -0.52)"/><path class="cls-10" d="M103.18,213.27c.85-1.05.77-4,3.32-1.63.19.18.91.18,1,.05,1.06-2.08,3.3-1.14,4.84-1.95.64.5.94,1.57.25,1.69-3.62.64-2.67,3.09-2.35,5.35l-.71.7H106.7c1.12-3.52,1.12-3.52-3.5-2.83Z" transform="translate(-0.29 -0.52)"/><path class="cls-16" d="M62.33,193.55c.17,1.19-.47,2.54.71,3.52v.69c-1.08,1.13-.2,1.28.7,1.42-.16,1.09,1.41,2.28.17,3.17S62,201.68,61,201.13c-1.18-.7-2.42-1.31-3.64-2,0-1.25,1.51-1.7,1.43-3C58.67,193.59,60.45,193.46,62.33,193.55Z" transform="translate(-0.29 -0.52)"/><path class="cls-11" d="M103.18,213.27c0,.46,0,.92,0,1.38.21.93.43,1.85.64,2.77l0,0a1.42,1.42,0,0,0-1.35.76c-2.7.26-2.73-3.1-4.87-3.59l-.06-1.38a1.3,1.3,0,0,0-1.37-1.43v-1.35C98.72,210.86,101.52,210.63,103.18,213.27Z" transform="translate(-0.29 -0.52)"/><path class="cls-6" d="M101,179.39c1.79,3.36,3.63,6.72,1.49,10.63-2.42-1.23-2.07-3.51-2.11-5.63-1.2-1.46-2.52-2.88-1.4-5Z" transform="translate(-0.29 -0.52)"/><path class="cls-13" d="M108.8,207.64c-1.4-.49-3.5,1.13-4.22-1.41,2.38-2,5.16-3.6,5.65-7.06,1.93.93,1.27,2.72,1.4,4.24C111.81,205.57,109,205.71,108.8,207.64Z" transform="translate(-0.29 -0.52)"/><path class="cls-13" d="M79.24,224.52v-2.81c1-1.9-.69-1.19-1.41-1.41v-1.4c1.29-.27,1.93-2.76,3.36-1.58s1.58,3.15,1.25,5S81,224.8,79.24,224.52Z" transform="translate(-0.29 -0.52)"/><path class="cls-10" d="M62.33,193.55c-1.88-.09-3.66,0-3.5,2.58.08,1.34-1.48,1.79-1.43,3H55.29c0-1.24-.07-2.46,1-3.46.59-.56,1.61-1.18.44-2.17v-1.4c1.64-.86,3.29-.06,4.94,0a1.46,1.46,0,0,1,.69,1.41Z" transform="translate(-0.29 -0.52)"/><path class="cls-16" d="M56.7,193.54c1.17,1,.15,1.61-.44,2.17-1,1-1,2.22-1,3.46-1.4,0-2.56-.23-2.79-1.92a5.13,5.13,0,0,1,1.27-4.19C55.11,191.44,55.63,194,56.7,193.54Z" transform="translate(-0.29 -0.52)"/><path class="cls-11" d="M49.63,208.35c-.29-3.14,1.21-4.51,4.28-4.31,1.43.1,1.49,1.13,1.5,2.2l-.81.7-3.55,2.12Z" transform="translate(-0.29 -0.52)"/><path class="cls-13" d="M95.43,202c-.09,1,1,1.91.35,3.24-2.11-2.18-6.91-2.93-3.17-7.47.73.41,1,1.53,2.09,1.39l0,0A4.53,4.53,0,0,0,95.43,202Z" transform="translate(-0.29 -0.52)"/><path class="cls-6" d="M91.87,209.27a2.92,2.92,0,0,1-1.48,2.17c-.74.48-1.3,0-1.82-.49A16.92,16.92,0,0,0,87,209.54c-1-.71-2.16-1.65-1.09-2.75,1.22-1.25,2,0,2.44,1.16.37,1,.77.8,1.52.29C91.48,207.18,91.45,208.72,91.87,209.27Z" transform="translate(-0.29 -0.52)"/><path class="cls-3" d="M39.8,195.67c-1.15-1.42-4.15-2.52-3.08-4.23s3.07.79,4.73,1.17a1.07,1.07,0,0,0,1.19-.46C44.16,195.32,40.18,194.05,39.8,195.67Z" transform="translate(-0.29 -0.52)"/><path class="cls-14" d="M111.63,203.41c-.13-1.52.53-3.31-1.4-4.24.24-.46.47-.93.7-1.39a3.86,3.86,0,0,1,4.1,3c.5,1.54,0,2.77-2,2.65Z" transform="translate(-0.29 -0.52)"/><path class="cls-11" d="M68.65,213.17c2.61,1.52.58,3.55.32,5.18-.17,1-1.61.42-2.11-.45-.93-1.61-1.06-3.24.4-4.69Z" transform="translate(-0.29 -0.52)"/><path class="cls-13" d="M96.16,210.47c0,.45,0,.9,0,1.35a1.24,1.24,0,0,0,1.37,1.43l.06,1.38c-1.76.18-3.24-.53-3.41-2.25-.19-2,.39-3.93,2.64-4.75.92.17,1.8.5.47,1.32C96.64,209.36,96.17,209.68,96.16,210.47Z" transform="translate(-0.29 -0.52)"/><path class="cls-11" d="M89.81,218.13c-.19,1.18.42,3.1-1.27,3.17-2.53.1-.68-2.11-1.15-3.2s-.06-2.58,1.41-2.52S89.66,217.18,89.81,218.13Z" transform="translate(-0.29 -0.52)"/><path class="cls-16" d="M78.51,192.85l-1.39-.72c-.49-2.92,1.52-4.27,3.52-5.63A7.66,7.66,0,0,1,78.51,192.85Z" transform="translate(-0.29 -0.52)"/><path class="cls-16" d="M94.7,199.15c-1.09.14-1.36-1-2.09-1.39a6.23,6.23,0,0,1,2.82-5.62,1.87,1.87,0,0,1,0,3C94,196.37,94.32,197.7,94.7,199.15Z" transform="translate(-0.29 -0.52)"/><path class="cls-6" d="M50.35,193.56c0,1.49.29,3.25-1.93,3.43-1.92.15-2.33-1.15-2.28-2.74C47.62,194.5,48.94,193.77,50.35,193.56Z" transform="translate(-0.29 -0.52)"/><path class="cls-14" d="M103.84,217.42c-.21-.92-.43-1.84-.64-2.77,4.62-.69,4.62-.69,3.5,2.83l-1.41,0Z" transform="translate(-0.29 -0.52)"/><path class="cls-13" d="M69.37,211.15c-1.34,0-2.65-.18-2.75-1.84-.13-2.05,1.65-1.74,3.07-2.23l-.32,4.07Z" transform="translate(-0.29 -0.52)"/><path class="cls-13" d="M103.18,206.22c-.18.86-.49,1.77-1.38.6a3,3,0,0,0-2.84-1.3c.09-1.17.56-2.1,1.86-2C102.39,203.64,102.54,205.18,103.18,206.22Z" transform="translate(-0.29 -0.52)"/><path class="cls-11" d="M76.46,199.12c.22-1.21-.88-3,1.25-3.37,1.48-.26,1.56,1,1.56,2.07,0,.46,0,.93,0,1.39Z" transform="translate(-0.29 -0.52)"/><path class="cls-11" d="M95.43,202a4.53,4.53,0,0,1-.69-2.8,3.94,3.94,0,0,1,2.75-.65C97.46,200.08,98.22,202.1,95.43,202Z" transform="translate(-0.29 -0.52)"/><path class="cls-14" d="M80.53,206.59c-.15.88-.8,1-1.52,1s-1.65-.41-1.59-1.41.79-1.34,1.69-1.22A1.58,1.58,0,0,1,80.53,206.59Z" transform="translate(-0.29 -0.52)"/><path class="cls-16" d="M50.35,193.56c-1.41.21-2.73.94-4.21.69l-.71-1.41c2.14.56,3.77-.88,5.63-1.41Z" transform="translate(-0.29 -0.52)"/><path class="cls-13" d="M105.16,199.23c.08.73-.23,1.19-.89,1.24a1.35,1.35,0,0,1-1.52-1.07,1.09,1.09,0,0,1,1.09-1.38C104.66,198,105,198.58,105.16,199.23Z" transform="translate(-0.29 -0.52)"/><path class="cls-10" d="M103.84,217.42l1.45.09c-.15.81.41,1.89-.54,2.35-.73.36-.73-.5-.87-1l-.06-1.43Z" transform="translate(-0.29 -0.52)"/><path class="cls-10" d="M63.74,199.18c-.9-.14-1.78-.29-.7-1.42A1.48,1.48,0,0,1,63.74,199.18Z" transform="translate(-0.29 -0.52)"/><path class="cls-14" d="M103.82,217.46l.06,1.43a1.52,1.52,0,0,1-1.41-.67A1.42,1.42,0,0,1,103.82,217.46Z" transform="translate(-0.29 -0.52)"/><path class="cls-14" d="M205.29,225.93c.79-3,1.67-5.86.76-9-.33-1.17,0-2.43-1.3-3.34a2.87,2.87,0,0,1-.64-3.79c1.18-1.7.45-2.9-.23-4.28.77-.07,1.78.2,2-.92a2.13,2.13,0,0,0-1.41-2.18c-1-.52-1.12.34-1.29,1-4.16-2.18-3.83-6.61-4.64-10.22-.4-1.77-1.83-4.26.32-6.27a1.11,1.11,0,0,0-.74-1.65c-3.29-.58-3.5-3.62-4.76-5.81,1.45,0,2.92-.13,2.85,2,0,.6.2,1.32.87,1.33,3.8.06,4.12,2.49,4.1,5.49,0,1.93,2.65,2.94,2.24,5.2a1.11,1.11,0,0,0,.81.39,1.26,1.26,0,0,0,1-1.29c-.25-3.26,2.13-2.42,3.35-1.72,2.61,1.52,5.65,2.74,6.17,6.51.44,3.2-.21,4.27-3.68,4.59-.24-.8-.66-1.8-1.56-1.09-1.35,1.06-.69,2.75-.57,4.13.13,1.62,1.23.74,2,.49.48.33,1.08,1,1.44.92,5.47-1.6,4.38,2.64,4.91,5.43l-.69.71a6.81,6.81,0,0,0-1.59.33c-.07,4.27-2.49,1.6-4,1.33-.6-.11-1.08-1.09-1.8-.45s-.09,1.33-.19,2c-.79,4.7,2.38,4.55,5.46,4.56h.7C213.92,224,210.75,225.83,205.29,225.93Z" transform="translate(-0.29 -0.52)"/><path class="cls-12" d="M208.2,171.83l1.41.73c0,.21,0,.42-.07.63-1.8.17-3.63-.05-5.4,0-2.22.12-4.41-1.95-6.59-.09l-2.11,0-3.56.07h-2c-4.24.06-4.24.06-4.3,6.21-.68,1.58-1.71,2.31-3.42,1.38l0-3.49c.71-2.65-.66-5.21-2.74-4.79-6.14,1.23-12.33.74-18.51.73l-.67-.8a16.2,16.2,0,0,1,5.44-.79c4-.18,8,.53,12-.55,7.86-.69,15.69.43,23.54.5Z" transform="translate(-0.29 -0.52)"/><path class="cls-13" d="M197.55,173.14c2.18-1.86,4.37.21,6.59.09,1.77-.09,3.6.13,5.4,0-.14,1.19-.85,2.34-2,1.88-3.19-1.3-6.21.85-9.31.17Z" transform="translate(-0.29 -0.52)"/><path class="cls-13" d="M185.54,179.46c.06-6.15.06-6.15,4.3-6.21,0,.43,0,.85,0,1.28-1.79.63-3.06,1.13-2.37,3.81.45,1.76,1.72,4.55-1.15,6C186,182.75,186.93,180.93,185.54,179.46Z" transform="translate(-0.29 -0.52)"/><path class="cls-13" d="M213.7,172.67c2.38,0,4.86-1.07,7.05.72C218.68,174.93,214.61,174.52,213.7,172.67Z" transform="translate(-0.29 -0.52)"/><path class="cls-6" d="M197.55,173.14l.7,2.1c-.1,1-.37,2-1.52,1.85-1.36-.2-2.63-.82-2.72-2.55a1.3,1.3,0,0,0,1.43-1.37Z" transform="translate(-0.29 -0.52)"/><path class="cls-11" d="M210.92,205.51c-.79.25-1.89,1.13-2-.49-.12-1.38-.78-3.07.57-4.13.9-.71,1.32.29,1.56,1.09C211,203.16,211,204.34,210.92,205.51Z" transform="translate(-0.29 -0.52)"/><path class="cls-11" d="M218.71,189.69c.53,1.95,1.62,3.77,1,5.92C218.92,193.72,217.05,192.1,218.71,189.69Z" transform="translate(-0.29 -0.52)"/><path class="cls-11" d="M216.58,212.57l.69-.71c.66-.13,1.55-1.18,1.92.11s-.92,2-1.68,2.21C216.26,214.55,216.74,213.23,216.58,212.57Z" transform="translate(-0.29 -0.52)"/><path class="cls-13" d="M195.44,173.17a1.3,1.3,0,0,1-1.43,1.37c-1,0-2,.05-2.13-1.3Z" transform="translate(-0.29 -0.52)"/><path class="cls-14" d="M220.53,204.63c-.09.2-.13.5-.27.56s-.38-.14-.57-.22c.08-.2.12-.5.26-.56S220.33,204.55,220.53,204.63Z" transform="translate(-0.29 -0.52)"/><path class="cls-14" d="M215.61,219.2l.61.26-.44.72c-.17-.14-.66.54-.57-.19A2.46,2.46,0,0,1,215.61,219.2Z" transform="translate(-0.29 -0.52)"/><path class="cls-6" d="M172.89,217.49c.24-1.41-.57-3,.71-4.23,2,.25,2.61,3.07,4.94,2.81,1.75-.25,1.89,2.16,3.51,2.12,1,2.81-.6,5.62,0,8.43-1.66.25-2.06,2.06-3.55,2.77s-2,.13-2.81-.64c-.09-1,.33-2.07-.69-2.82,0-.94,0-1.87,0-2.81.16-1.62,1.88-3.75-1.41-4.23h-.7Z" transform="translate(-0.29 -0.52)"/><path class="cls-6" d="M122.23,206.93c-1.65-2.33-1.42-5.17-2.15-7.75h2.11c.18,1.2,1.12,2,1.8.88,2.13-3.45,5.39-2.05,8.25-2.25,1.88-.13,2.33.85,1.2,2.38a6.18,6.18,0,0,0-1.4,2.36c-.52,2.36-1.77,4.73,1.13,6.53,1.08.67.93,1.77.29,2.78a3.49,3.49,0,0,1-3.3-1.56c-1-1.25-2.37-1.33-3.78-1.3.07-1.44,1.51-1.67,2.25-2.52,1.3-1.47,2.17-3.07,1.66-5-.18-.71-.15-1.74-1.11-2s-1.21.9-1.85,1.23C124.69,202,125,205.72,122.23,206.93Z" transform="translate(-0.29 -0.52)"/><path class="cls-11" d="M122.23,206.93c2.79-1.21,2.46-4.93,5.1-6.31.64-.33.75-1.58,1.85-1.23s.93,1.33,1.11,2c.51,2-.36,3.58-1.66,5-.74.85-2.18,1.08-2.25,2.52-1.75,2-3.28,2.65-4.18-.67Z" transform="translate(-0.29 -0.52)"/><path class="cls-13" d="M127.12,221.72h-1.41c-.49-2.58,1.39-4.33,2.37-6.35a1.71,1.71,0,0,1,2.72-.33c1.48,1.68,3.45,3.28,3.21,5.85a2.51,2.51,0,0,1-2.39,2.17c-.58.08-1.35,0-1.44-.66C129.75,219.26,128.16,221.78,127.12,221.72Z" transform="translate(-0.29 -0.52)"/><path class="cls-10" d="M175,223.12c0,.94,0,1.87,0,2.81-2.56.44-4.8-.63-7.07-1.5-.69-.27-1.31-.73-1.12-1.54s.92-1.34,1.59-1c3.09,1.34,3.3-1.52,4.48-3h.7C174.07,220.3,172.46,222.4,175,223.12Z" transform="translate(-0.29 -0.52)"/><path class="cls-6" d="M157.4,201.28c1.64-.11,3.61.21,3.18,2.12-.59,2.63-2.92,2.89-5.29,2.11h0c0-1.17,0-2.34,0-3.51Z" transform="translate(-0.29 -0.52)"/><path class="cls-3" d="M152.48,224.53c-.25,1.41.59,3-.71,4.23-1.48-.49-1.24-2.12-2-3.07s-1.19-2.22.2-2.91C151.54,222,152.25,223,152.48,224.53Z" transform="translate(-0.29 -0.52)"/><path class="cls-13" d="M158.1,209c.77-1.54,2.08-1.68,3.48-1.19.95.33.81,1.32.68,2.07-.3,1.66-1.7,1.09-2.75,1.23Z" transform="translate(-0.29 -0.52)"/><path class="cls-10" d="M154.51,217.23c-.28.81-.33,2-1.46,2s-1.75-1-1.91-2.13c-.12-.9.16-1.63,1.23-1.67A1.81,1.81,0,0,1,154.51,217.23Z" transform="translate(-0.29 -0.52)"/><path class="cls-13" d="M146.82,224.8c0,.88-.13,1.68-1.24,1.76s-1.52-.47-1.5-1.47a1.65,1.65,0,0,1,1.36-1.79C146.59,223.09,146.79,223.91,146.82,224.8Z" transform="translate(-0.29 -0.52)"/><path class="cls-10" d="M155.3,202c0,1.17,0,2.34,0,3.51-1.54-.21-2.81-1-2.61-2.6C152.86,201.51,154.35,202.16,155.3,202Z" transform="translate(-0.29 -0.52)"/><path class="cls-10" d="M163.55,226.23l.58.25c-.08.2-.12.5-.26.56s-.38-.14-.58-.22Z" transform="translate(-0.29 -0.52)"/><path class="cls-16" d="M27.83,201.29l.7-2.82c2.32,1.64,4.18-.79,6.33-.71l0,0c-.36,1.38-2.27,2.51-.72,4.21.22,1.48-.65,2-1.89,2.42s-2-.23-2.64-1.07S28.8,201.64,27.83,201.29Z" transform="translate(-0.29 -0.52)"/><path class="cls-6" d="M37.69,212.54c.94.1,1.7.64,1.21,1.54-1.22,2.27-.58,4.59-.5,6.91,0,.47,0,.94,0,1.41-1.92.1-3-.9-2.41-2.68.42-1.4-.38-2.43-.41-3.64C36.27,214.9,37,213.72,37.69,212.54Z" transform="translate(-0.29 -0.52)"/><path class="cls-11" d="M50.37,217.38c-.17,1.46-.87,2.85-2.48,2.73s-1.69-1.72-1.72-3c0-1.77,1-2.51,2.67-2.39S50.28,216.19,50.37,217.38Z" transform="translate(-0.29 -0.52)"/><path class="cls-3" d="M34.16,202c-1.55-1.7.36-2.83.72-4.21,2.72.27,3.35,2,2.1,5.62C36,203,35.38,201.91,34.16,202Z" transform="translate(-0.29 -0.52)"/><path class="cls-3" d="M40.5,222.42c.43.16,1,.59,1.25.45,1.23-.69,2.37-.94,3.24.38.6.93-.17,1.45-.87,1.91a2.82,2.82,0,0,1-4-.39c-.32-.36-.23-1.08-.32-1.64Z" transform="translate(-0.29 -0.52)"/><path class="cls-16" d="M37.69,212.54c-.71,1.18-1.42,2.36-2.12,3.54H34.16v-4.23c1-1.17,2.34-.53,3.53-.7Z" transform="translate(-0.29 -0.52)"/><path class="cls-10" d="M37.69,211.15c-1.19.17-2.54-.47-3.53.7-.71-.13-1.52-.27-1-1.27.78-1.54,1.88-2.64,3.83-2.25l.71.71Z" transform="translate(-0.29 -0.52)"/><path class="cls-6" d="M27.12,211.87c-3-1-2.88-2.43-.7-4.25h.69a3.55,3.55,0,0,1,.72,4.23Z" transform="translate(-0.29 -0.52)"/><path class="cls-2" d="M27.83,211.86a3.55,3.55,0,0,0-.72-4.23c1.38,0,2.84-.23,2.85,1.93C30,211.12,29.52,212,27.83,211.86Z" transform="translate(-0.29 -0.52)"/><path class="cls-6" d="M51.05,209.06l3.55-2.12a3.06,3.06,0,0,1-2,3.31C51.68,210.64,51.16,210,51.05,209.06Z" transform="translate(-0.29 -0.52)"/><path class="cls-16" d="M37.69,209l-.71-.71a1.44,1.44,0,0,1,.71-1.41l2.11.71C39.73,209.05,38.71,209,37.69,209Z" transform="translate(-0.29 -0.52)"/><path class="cls-13" d="M40.5,222.42l-.72.71a1.44,1.44,0,0,1-1.39-.73c0-.47,0-.94,0-1.41C39.42,221,40.44,221,40.5,222.42Z" transform="translate(-0.29 -0.52)"/><path class="cls-2" d="M77.83,220.3c.72.22,2.37-.49,1.41,1.41A1.28,1.28,0,0,1,77.83,220.3Z" transform="translate(-0.29 -0.52)"/><path class="cls-10" d="M34.16,214.66v1.42c-.36-.18-1-.31-1-.56C33,214.76,33.65,214.77,34.16,214.66Z" transform="translate(-0.29 -0.52)"/><path class="cls-13" d="M186.18,216.12c-.79-.74-.65-1.72-.62-2.64.29-9-.67-18,.73-27,3.55,2.4,4.24,3.62,2.26,9.21-1.28,3.62.85,6.1,1.84,8.79.41,1.13,3.75,1.17,5.75,1.71h0c.16,2.27-.41,4.55,1.06,6.73.93,1.39-.77,2.38-1.76,2.87-1.19.58-1.87-.44-2.09-1.61,0-.11,0-.25,0-.35-.87-1.76-1.7-4.66-3.45-4.37-2.19.37-1.3,3.29-1.46,5.18C187.26,214.55,187,215.73,186.18,216.12Z" transform="translate(-0.29 -0.52)"/><path class="cls-13" d="M196.13,222.23c0,1.85.14,3.57-2.26,3.68-2.22.11-1.91-1.46-2-2.83-.08-1.86.16-3.81,2.33-4S196,221,196.13,222.23Z" transform="translate(-0.29 -0.52)"/><path class="cls-13" d="M186.21,228.78a14.18,14.18,0,0,1,0-9.21l.8,0C188.15,222.78,188.21,225.87,186.21,228.78Z" transform="translate(-0.29 -0.52)"/><path class="cls-11" d="M196.14,206.21c.13-1.15-.49-2.75,1.6-2.76a1.74,1.74,0,0,1,1.65,1.05,1.55,1.55,0,0,1-.4,1.89c-1,.93-1.92.23-2.85-.18Z" transform="translate(-0.29 -0.52)"/><path class="cls-3" d="M187,219.61l-.8,0v-3.45c.8-.39,1.08-1.57,2.21-1.46C188.36,216.44,188.81,218.34,187,219.61Z" transform="translate(-0.29 -0.52)"/><path class="cls-11" d="M203.14,203.41c.17-.67.3-1.53,1.29-1a2.13,2.13,0,0,1,1.41,2.18c-.18,1.12-1.19.85-2,.92C203.07,205,203.2,204.17,203.14,203.41Z" transform="translate(-0.29 -0.52)"/><path class="cls-9" d="M85.56,169c-.22.39-.44.78-.67,1.17l-2.15.21c-3.29.14-6.54,1.11-9.87.5V169A92.66,92.66,0,0,1,85.56,169Z" transform="translate(-0.29 -0.52)"/><path class="cls-8" d="M60.24,170.92c.52-.84,2.16-.43,2.11-1.9h4.89c.24.63.47,1.26.71,1.9l-2.79.15Z" transform="translate(-0.29 -0.52)"/><path class="cls-1" d="M34.16,168.89l-3.52.07c.07-1.32-.35-3,1.9-2.86C34.57,166.19,34.05,167.71,34.16,168.89Z" transform="translate(-0.29 -0.52)"/><path class="cls-8" d="M72.87,169v1.84l-3.47,0v-1.83Z" transform="translate(-0.29 -0.52)"/><path class="cls-9" d="M69.4,169.07v1.83l-1.45,0c-.24-.64-.47-1.27-.71-1.9Z" transform="translate(-0.29 -0.52)"/><path class="cls-5" d="M34.86,197.76c-2.15-.08-4,2.35-6.33.71a1.45,1.45,0,0,1-1.41-.7c-.08-2.39,2.6-3.41,2.8-5.66,0-.46,0-.91,0-1.36l.74-1.43c3.09-.12,3.33,2,3.73,4.34A21.85,21.85,0,0,1,34.86,197.76Z" transform="translate(-0.29 -0.52)"/><path class="cls-10" d="M29.92,192.11c-.2,2.25-2.88,3.27-2.8,5.66-2.16-1.57-2.18-4.32-3.52-6.33l.71,0C26.25,191.06,28,192.11,29.92,192.11Z" transform="translate(-0.29 -0.52)"/><path class="cls-14" d="M21.49,213.94c0-1.18.05-2.47,1.58-2.6,1.38-.12,1.19,1.08,1.21,2,0,1.17,0,2.47-1.55,2.6C21.35,216,21.58,214.81,21.49,213.94Z" transform="translate(-0.29 -0.52)"/><path class="cls-13" d="M20.08,219.6l.29.16-.29-.16Z" transform="translate(-0.29 -0.52)"/><path class="cls-15" d="M82.74,170.38l2.15-.21C86.77,171.6,89,171,91,171q43.31.14,86.6.17c-4,1.08-8,.37-12,.55a16.2,16.2,0,0,0-5.44.79c-2.16-1.57-4.24-.47-6.33.2-2.17-1.47-4.59-.79-6.93-.75a13.08,13.08,0,0,0-4.95-.05c-6.88-.18-13.71.63-20.63.1-7.67-.58-15.42-.15-23.13-.15l-11.86-.06-3.59.61Z" transform="translate(-0.29 -0.52)"/><path class="cls-3" d="M208.2,171.83l-7.06-.18c2.55-.81,5.09-1.32,7.65,0A4.1,4.1,0,0,1,208.2,171.83Z" transform="translate(-0.29 -0.52)"/><path class="cls-13" d="M178.54,216.07c-2.33.26-2.91-2.56-4.94-2.81,1.39-2.77-1-3.36-2.57-4.43-1.22-.86-3-1-3.69-2.53-.5-1.05-1.72-2.4.62-2.9.7,0,1.4,0,2.09,0a3.49,3.49,0,0,0,3.91-2.74c.25-1.47-.37-3.64-2.15-3.93-2-.32-3.47,1-3.85,3.14a12.28,12.28,0,0,1-5.9-2.81c-.71-.55-1.81-1.21-1.58-2.16,1.34-5.43-3.09-4.08-5.29-4-3.3.09-6.23.85-6.75-3.8-.17-1.55-1.48-1-2.46-.51-1.61.88-2.85,2.42-4.79,2.74l-1.4-1.41,0-1.4c1.53-.16,1.4-1.32,1.39-2.37,0-1.52.57-2.48,2.18-2.61a2.29,2.29,0,0,0,1.35,1.45c.08.57.16,1.18.88,1.27.94.12,1.13-.54,1.23-1.26h0a5.66,5.66,0,0,0,.93-.33c-.57-3.05.31-4.4,3.73-4.8,1-.12,1.88-.4,2.67.21a6.68,6.68,0,0,1,2.56,5.83c0,2.86,2.1,3.78,4.44,3.93,1.31.09,3.72,1,3.77-1.18.08-3.32,1.25-6.65.18-10a18.9,18.9,0,0,1,8.55-.55c.89.1,1.86.87,2.62.11,2.57-2.58,4.25-1.22,5.79,1.13l0,3.49-.12,5.68a34.33,34.33,0,0,0-6.15-.21c-1.14.15-3.21,7-2.9,8.35a4,4,0,0,0,2.59,2.66c1.29.56,1.66-1,2-1.9.87-2.2,2.7-1.86,4.43-1.91l.09,8.48c-2.24.79-1.65,2.13-.68,3.54.2,2.15-1.13,4.14-.71,6.32C179,212.77,178.56,214.31,178.54,216.07Z" transform="translate(-0.29 -0.52)"/><path class="cls-14" d="M182,193.51c-1.73.05-3.56-.29-4.43,1.91-.35.88-.72,2.46-2,1.9a4,4,0,0,1-2.59-2.66c-.31-1.32,1.76-8.2,2.9-8.35a34.33,34.33,0,0,1,6.15.21v1.37a13.62,13.62,0,0,0-2.21.84c-1,.56-2.23,1.3-1.73,2.58.58,1.47,1.87.68,2.92.33a8.37,8.37,0,0,1,1-.18Z" transform="translate(-0.29 -0.52)"/><path class="cls-13" d="M182,191.46a8.37,8.37,0,0,0-1,.18c-1,.35-2.34,1.14-2.92-.33-.5-1.28.76-2,1.73-2.58a13.62,13.62,0,0,1,2.21-.84C182,189.08,182,190.27,182,191.46Z" transform="translate(-0.29 -0.52)"/><path class="cls-2" d="M178.54,216.07c0-1.76.47-3.3,2.14-4.22,1,2,.88,4.23,1.37,6.34C180.43,218.23,180.29,215.82,178.54,216.07Z" transform="translate(-0.29 -0.52)"/><path class="cls-2" d="M181.39,205.53c-1-1.41-1.56-2.75.68-3.54C183.5,203.49,182.19,204.46,181.39,205.53Z" transform="translate(-0.29 -0.52)"/><path class="cls-10" d="M48.94,180.16c-3.55-.12-7.12.57-10.37-2-1.76-1.38-4-.55-4.82,1.66A3.55,3.55,0,0,1,30,182.28c-.12-.32-.27-.92-.35-.91-3.26.38-4.3-2.94-6.69-4,.19-.7.39-1.4.58-2.09a54.32,54.32,0,0,1,13,.16,26.47,26.47,0,0,0,11-1l.78.73v0A13,13,0,0,0,48.94,180.16Z" transform="translate(-0.29 -0.52)"/><path class="cls-3" d="M70.77,184.38c-2.23.26-3.53-.1-3.69-3-.11-2,.34-5-3.11-5.48-.11,0-.11-.85-.16-1.3a12.6,12.6,0,0,0,5.48-.67c.1.72,0,1.52.77,2C71.09,178.7,72.66,181.39,70.77,184.38Z" transform="translate(-0.29 -0.52)"/><path class="cls-11" d="M62.84,173l-17.36.07c0-.43,0-.87,0-1.3v-.06l5.62,0c4,.56,8.14-.89,12.11.65Z" transform="translate(-0.29 -0.52)"/><path class="cls-3" d="M48.94,180.16a13,13,0,0,1-.67-5l4.2,0c.33,1.95-1.44,3.19-1.69,5C50.65,181.13,49.57,180.89,48.94,180.16Z" transform="translate(-0.29 -0.52)"/><path class="cls-11" d="M23.51,175.3c-.19.69-.39,1.39-.58,2.09-2.74,1.53-3-.22-3-2.28l2.12-1.45,1.43.88Z" transform="translate(-0.29 -0.52)"/><path class="cls-11" d="M31.9,172.44l4.54-.32h6.87l0,1C39.43,174.63,35.67,173.45,31.9,172.44Z" transform="translate(-0.29 -0.52)"/><path class="cls-9" d="M62.84,173l.35-.69h2c2.31.89,5-1.32,7.15,1a3.5,3.5,0,0,1-.13.56h-2.1C67.82,172.27,65.22,173.6,62.84,173Z" transform="translate(-0.29 -0.52)"/><path class="cls-16" d="M70.09,173.83h2.1c.16,1.57-.58,2.26-2.13,2.11-.77-.46-.67-1.26-.77-2Z" transform="translate(-0.29 -0.52)"/><path class="cls-8" d="M43.35,173.15c0-.35,0-.7,0-1l.68-.44,1.47.09c0,.43,0,.87,0,1.3Z" transform="translate(-0.29 -0.52)"/><path class="cls-3" d="M48.27,175.22l-.78-.73Z" transform="translate(-0.29 -0.52)"/><path class="cls-11" d="M29.15,185.1c.05.7.09,1.4.14,2.1-2.2.35-3,3.51-5.7,2.84l-.72-2.12c0-1,0-2-1.39-2.12l-.66-2.12c1.2-2.71,2.82-1.49,4.4-.45C26.44,184,27.43,185.33,29.15,185.1Z" transform="translate(-0.29 -0.52)"/><path class="cls-3" d="M23.59,190c2.7.67,3.5-2.49,5.7-2.84a1.55,1.55,0,0,1,.67,1.42c-1.14.69-2.21,1.38-.05,2.13,0,.45,0,.9,0,1.36-1.9,0-3.67-1.05-5.61-.69Z" transform="translate(-0.29 -0.52)"/><path class="cls-3" d="M21.48,185.8c1.43.07,1.42,1.09,1.39,2.12C21.47,187.83,21.49,186.81,21.48,185.8Z" transform="translate(-0.29 -0.52)"/><path class="cls-15" d="M65.17,172.3h-2c-4-1.54-8.09-.09-12.11-.65a2.28,2.28,0,0,1,0-.64l9.18-.09,4.92.15Z" transform="translate(-0.29 -0.52)"/><path class="cls-12" d="M44,171.67l-.68.44H36.44c-.08-.36-.17-.72-.25-1.08C38.78,171.33,41.49,170.26,44,171.67Z" transform="translate(-0.29 -0.52)"/><path class="cls-12" d="M51.06,171a2.28,2.28,0,0,0,0,.64l-5.62,0C47.19,170.31,49.21,171.32,51.06,171Z" transform="translate(-0.29 -0.52)"/><path class="cls-16" d="M122.19,180.87c-1.16-.25-2.81.69-3.35-1-.43-1.33-.49-2.77,1.33-3.46.74-.28.57-1.2.64-1.89,3.52-.4,7-1.6,10.55.06l-.72,4.9h-2.11c0-.58,0-1.16,0-1.74a2.14,2.14,0,0,0-2.58-2.46c-2.26.15-1.35,1.51-1.08,2.73.22,1,.44,2.08-.56,2.88Z" transform="translate(-0.29 -0.52)"/><path class="cls-13" d="M136.3,183c-.24-.72-.49-1.44-.73-2.15v-2.82c3.22,1.32,2.86-.91,2.81-2.83.47-2.24,2.29-1.08,3.53-1.39h1.29l1.47.81a5.23,5.23,0,0,1-5.06,5c-2,.2-1.84,1.33-1.93,2.6A1.52,1.52,0,0,1,136.3,183Z" transform="translate(-0.29 -0.52)"/><path class="cls-13" d="M124.3,180.87c1-.8.78-1.89.56-2.88-.27-1.22-1.18-2.58,1.08-2.73a2.14,2.14,0,0,1,2.58,2.46c0,.58,0,1.16,0,1.74-.14.27-.43.57-.4.83.09.87,2.11.38,1.41,1.82a2.79,2.79,0,0,1-2.82,1.57c-.57,0-1.14,0-1.71,0l-.71-.7Z" transform="translate(-0.29 -0.52)"/><path class="cls-14" d="M168,199.88c.38-2.16,1.89-3.46,3.85-3.14,1.78.29,2.4,2.46,2.15,3.93a3.49,3.49,0,0,1-3.91,2.74c-.69,0-1.39,0-2.09,0Z" transform="translate(-0.29 -0.52)"/><path class="cls-3" d="M139.79,187.91l1.4,1.41c0,1.17,0,2.34,0,3.52-2,2.19-3.41.45-4.91-.72a7.81,7.81,0,0,1,0-6.32,1.74,1.74,0,0,1,.69,1.51c0,.95,0,2.07,1.06,2.36C139.35,190,138.89,188.2,139.79,187.91Z" transform="translate(-0.29 -0.52)"/><path class="cls-16" d="M124.3,183l.71.7c1.87,1.95.21,3.39-.71,4.93a6.09,6.09,0,0,1-3.85-2.09c-.79-.85-1.93-2-1.41-2.93.81-1.53,1.61.55,2.49.42.27,0,.44-.67.66-1Z" transform="translate(-0.29 -0.52)"/><path class="cls-13" d="M136.29,192.12c1.5,1.17,2.92,2.91,4.91.72.86,0,1.71.3,1.84,1.23s-.64,1.5-1.5,1.52c-1.8,0-1.75,1.56-2.27,2.61-.29.58-.24,1.54-1.21,1.33-.73-.16-1-.89-1.05-1.63C136.78,196,136.53,194.05,136.29,192.12Z" transform="translate(-0.29 -0.52)"/><path class="cls-11" d="M120.78,195a5.15,5.15,0,0,0,0-1c-1-4.58-1-4.58,3.58-4.6l.69.72c.45,2.43-1.75,3.35-2.8,4.93Z" transform="translate(-0.29 -0.52)"/><path class="cls-11" d="M139.79,187.91c-.9.29-.44,2.11-1.76,1.76-1.07-.29-1-1.41-1.06-2.36a1.74,1.74,0,0,0-.69-1.51c0-.93,0-1.86,0-2.78a1.52,1.52,0,0,0,1.38-.75c2.84.35,1.92,2.57,2.13,4.24Z" transform="translate(-0.29 -0.52)"/><path class="cls-11" d="M108.7,192.15c.23-2.53.76-4.86,3.67-5.65,0,1.64,0,3.29,0,4.93-.82.88-1,2.56-2.83,2.16Z" transform="translate(-0.29 -0.52)"/><path class="cls-13" d="M122.2,195c1-1.58,3.25-2.5,2.8-4.93,2.52.91,1.55,2.81.86,4.18S123.75,196.37,122.2,195Z" transform="translate(-0.29 -0.52)"/><path class="cls-3" d="M130.64,179.46c.24-1.63.48-3.27.71-4.9a4.23,4.23,0,0,1,2.81.68v2.11l-2.83,2.11Z" transform="translate(-0.29 -0.52)"/><path class="cls-16" d="M131.34,179.46l2.83-2.11a1.44,1.44,0,0,1,1.4.7v2.82C134.05,180.74,132.26,181.41,131.34,179.46Z" transform="translate(-0.29 -0.52)"/><path class="cls-6" d="M138.12,205.53a2.26,2.26,0,0,1-2.2,1.25.73.73,0,0,1-.67-1.18c.4-.67-.06-2.17,1.42-1.84A1.92,1.92,0,0,1,138.12,205.53Z" transform="translate(-0.29 -0.52)"/><path class="cls-13" d="M109.5,193.59c1.8.4,2-1.28,2.83-2.16,1,1.07,1.17,2.44,0,3.21C111.43,195.28,109.91,195.43,109.5,193.59Z" transform="translate(-0.29 -0.52)"/><path class="cls-13" d="M122.19,199.18h-2.11c.11-.72-.27-1.85.92-1.81C121.89,197.4,122.15,198.33,122.19,199.18Z" transform="translate(-0.29 -0.52)"/><path class="cls-9" d="M134.16,175.24a4.23,4.23,0,0,0-2.81-.68c-3.5-1.66-7-.46-10.54-.06-2.22-2.08-3.93,1-6.32.68-2.16-.31-1.83,3.76-3.71,5.54-.85-1.48-.66-5.69-3.73-1.73-.66.85-1.46.31-1.72-.72s-.5-2-.74-3l.53-.75-.27-.17-.27.92c-1.25.3-3.07-.86-3.54,1.41q-1,.71,0,1.41c0,.45,0,.9-.05,1.34H99c-.31-2.55-2.56-2.31-4.17-2.67-1.42-.32-2.74-.35-2.9-2.18,1.3-.85,2.78-.73,4.23-.74,2.71,1.47,1.94-.73,2.08-2,7.71,0,15.46-.43,23.13.15,6.92.53,13.75-.28,20.63-.1,0,.65,0,1.29-.05,1.94-1.24.31-3.06-.85-3.53,1.39A6.24,6.24,0,0,1,134.16,175.24Z" transform="translate(-0.29 -0.52)"/><path class="cls-13" d="M70.06,176c1.55.15,2.29-.54,2.13-2.11a3.5,3.5,0,0,0,.13-.56l1.3-.12.71,1.31c-.36,2.68,2.43,2.28,3.49,3.57l-1.43,2.84c-2.28.51-2.59,4.18-5.62,3.5C72.66,181.39,71.09,178.7,70.06,176Z" transform="translate(-0.29 -0.52)"/><path class="cls-12" d="M74.33,174.47l-.72-1.31c2.93-1.59,6.09-.5,9.14-.77l3.59-.61c2.15,1.32,4.52.3,6.76.63,1.14.17,2.73-.59,3,1.4-1.45,0-2.93-.11-4.23.74-1.39-.24-2.7-1-4.18-.69l-2.19,0Z" transform="translate(-0.29 -0.52)"/><path class="cls-6" d="M57.4,182.27c0,1.81,2.15,3.18,1,5.28-1.46-.22-1.74-1.73-2.74-2.44s-2.3-1.23-1.6-2.67c.89-1.85,2.22.09,3.33-.16Z" transform="translate(-0.29 -0.52)"/><path class="cls-14" d="M62.33,193.54a1.46,1.46,0,0,0-.69-1.41c0-.46,0-.93,0-1.4a2.12,2.12,0,0,0,2.1-1.42h2.12C66.07,191.87,66.07,194.26,62.33,193.54Z" transform="translate(-0.29 -0.52)"/><path class="cls-3" d="M76.39,180.88,77.82,178c2.25.63,1.68,2.27.88,3.44S76.77,182.61,76.39,180.88Z" transform="translate(-0.29 -0.52)"/><path class="cls-11" d="M73.6,187.86c1,1,.92,1.85-.58,2.12s-2.4-.36-2.2-2Z" transform="translate(-0.29 -0.52)"/><path class="cls-10" d="M29.91,190.75c-2.16-.75-1.09-1.44.05-2.13l.69.7Z" transform="translate(-0.29 -0.52)"/><path class="cls-9" d="M85.52,173.89l2.19,0c-.11.55-.21,1.14-.91,1.24C85.89,175.23,85.68,174.58,85.52,173.89Z" transform="translate(-0.29 -0.52)"/><path class="cls-10" d="M63.73,189.31a2.12,2.12,0,0,1-2.1,1.42C61.69,189.3,62.71,189.31,63.73,189.31Z" transform="translate(-0.29 -0.52)"/><path class="cls-6" d="M57.4,182.28l.16-.3-.16.29Z" transform="translate(-0.29 -0.52)"/><path class="cls-10" d="M124.3,183h-2.11v-2.11h2.11Z" transform="translate(-0.29 -0.52)"/><path class="cls-16" d="M101,178.05q-1-.7,0-1.41Q102.17,177.35,101,178.05Z" transform="translate(-0.29 -0.52)"/><path class="cls-14" d="M97.54,213.25a1.24,1.24,0,0,1-1.37-1.43A1.3,1.3,0,0,1,97.54,213.25Z" transform="translate(-0.29 -0.52)"/><path class="cls-3" d="M139.81,186.51c-.21-1.67.71-3.89-2.13-4.24.09-1.27-.06-2.4,1.93-2.6a5.23,5.23,0,0,0,5.06-5,2.4,2.4,0,0,1,1.84.73c2.73,2.33,6.37,1,7.33-2.68,2.09-.67,4.17-1.77,6.33-.2l.67.8c.61,2.16,2.8,2.32,4.29,3.37,1.07,3.33-.1,6.66-.18,10,0,2.14-2.46,1.27-3.77,1.18-2.34-.15-4.48-1.07-4.44-3.93a6.68,6.68,0,0,0-2.56-5.83c-.79-.61-1.65-.33-2.67-.21-3.42.4-4.3,1.75-3.73,4.8a5.66,5.66,0,0,1-.93.33c.13-3.55-1.35-3.26-3.47-1.45-1.61.13-2.2,1.09-2.18,2.61C141.21,185.19,141.34,186.35,139.81,186.51Zm20.29-5.75c-.54-.06-1.46.5-1.28,2.23.12,1.14.5,2.16,1.93,1.76,1.26-.36,2.94-.43,2.92-2.38S162.24,180.93,160.1,180.76Z" transform="translate(-0.29 -0.52)"/><path class="cls-16" d="M165.13,176.66c-1.49-1-3.68-1.21-4.29-3.37,6.18,0,12.37.5,18.51-.73,2.08-.42,3.45,2.14,2.74,4.79-1.54-2.35-3.22-3.71-5.79-1.13-.76.76-1.73,0-2.62-.11A18.9,18.9,0,0,0,165.13,176.66Z" transform="translate(-0.29 -0.52)"/><path class="cls-13" d="M175,223.12c-2.55-.72-.94-2.82-1.41-4.23C176.89,219.37,175.17,221.5,175,223.12Z" transform="translate(-0.29 -0.52)"/><path class="cls-7" d="M82.75,172.39c-3,.27-6.21-.82-9.14.77l-1.29.12c-2.11-2.3-4.84-.09-7.15-1,0-.41,0-.82,0-1.23l2.79-.15,1.45,0,3.47,0c3.33.61,6.58-.36,9.87-.5C82.74,171.05,82.74,171.72,82.75,172.39Z" transform="translate(-0.29 -0.52)"/><path class="cls-11" d="M153.84,172.69c-1,3.66-4.6,5-7.33,2.68a2.4,2.4,0,0,0-1.84-.73l-1.47-.81c.79-1.51,3.2.16,3.71-1.89C149.25,171.9,151.67,171.22,153.84,172.69Zm-6,2.26c1.32.39,2.14.31,2.85-.75C149.49,173.68,148.87,174.21,147.89,175Z" transform="translate(-0.29 -0.52)"/><path class="cls-8" d="M96.12,173.81c-.29-2-1.88-1.23-3-1.4-2.24-.33-4.61.69-6.76-.63l11.86.06C98.06,173.08,98.83,175.28,96.12,173.81Z" transform="translate(-0.29 -0.52)"/><path class="cls-8" d="M146.91,171.94c-.51,2.05-2.92.38-3.71,1.89h-1.29c0-.65,0-1.29.05-1.94A13.08,13.08,0,0,1,146.91,171.94Z" transform="translate(-0.29 -0.52)"/><path class="cls-11" d="M143.38,181.53c2.12-1.81,3.6-2.1,3.47,1.45h-2.12A2.29,2.29,0,0,1,143.38,181.53Z" transform="translate(-0.29 -0.52)"/><path class="cls-3" d="M144.73,183h2.11c-.1.72-.29,1.38-1.23,1.26C144.89,184.16,144.81,183.55,144.73,183Z" transform="translate(-0.29 -0.52)"/><path class="cls-10" d="M134.16,175.24a6.24,6.24,0,0,0,4.22,0c.05,1.92.41,4.15-2.81,2.83a1.44,1.44,0,0,0-1.4-.7C134.17,176.64,134.16,175.94,134.16,175.24Z" transform="translate(-0.29 -0.52)"/><path class="cls-13" d="M104.58,175.23l.27-.92.27.17-.53.75Z" transform="translate(-0.29 -0.52)"/><path class="cls-11" d="M160.1,180.76c2.14.17,3.55-.19,3.57,1.61s-1.66,2-2.92,2.38c-1.43.4-1.81-.62-1.93-1.76C158.64,181.26,159.56,180.7,160.1,180.76Z" transform="translate(-0.29 -0.52)"/><path class="cls-3" d="M147.89,175c1-.74,1.6-1.27,2.85-.75C150,175.26,149.21,175.34,147.89,175Z" transform="translate(-0.29 -0.52)"/><text class="cls-17" transform="translate(68.43 83.15)">M<tspan class="cls-18" x="15.97" y="0">oney D</tspan><tspan class="cls-19" x="53.77" y="0">r</tspan><tspan class="cls-18" x="57.85" y="0">awing Soap</tspan></text><path class="cls-20" d="M212.75,160.73a2.22,2.22,0,0,0-.73-.08l-2.16-.08-8.2-.12-29.58-.16-92.27-.06-25.9,0h-17c-.07,0-.15,0-.12-.07v-8.25c0-16.85-.05-33.06-.07-47.7-.06-29.3-.1-52.32-.12-61.62.09-1.47,0-3.6,0-3.6V38c.06-.28-.22-1,.46-.78h1.69l5.37.19a9.75,9.75,0,0,0,2.94-.19H212.82v50.2q0,4.95,0,9.45c0,.43,0,.83,0,1.22,0,.77-.07,1.46-.12,2.09a22.67,22.67,0,0,1-.46,3.14c-.8,3.64-2.3,5.07-4.08,11.91-2.66,10.22-.62,11.85-.62,11.85.38.5,1.48.87,2.06,1.25,1.27.83,2.75,1.9,2.91,3.18a2.48,2.48,0,0,1-1.24,2.22,8.56,8.56,0,0,1-1.44.79c3.34,3.51,6.54,1.48,6.54,1.48,1.06,1.77-.55,5.25-.55,5.25-3.7-2.29-5.08.78-6.73,2.22a4.51,4.51,0,0,1-3.85.84,5.51,5.51,0,0,0,5.91,2.09c-1.4,4.15,3.93,6.93,6.21,9.41s.85,4.53.85,4.53a3.48,3.48,0,0,0,1.65-5c-1.72-3.67-4.46-5.27-1.45-14.23a10,10,0,0,0-2.91-11.33c2.26-.81.74-2.26.16-3.45l0-.08a5.65,5.65,0,0,1-.34-1.08c-2.53-2.18-2.69-5.45-2.62-8.13.06-2.12.24-4.23.45-6.34.4-2.71.7-5.39.91-7.35.21-2.33.34-4.28.42-5.64,0-.35,0-.65.06-.92,0-1.88,0-3.48,0-4.78l0-4.56V35.54a.72.72,0,0,0-.21,0H34.92s0,0,0,0v2.13h0c0,4.47,0,25.76.09,55.17,0,14.35.07,30.68.11,47.93q0,6.59,0,13.32c0,1.33,0,2.66,0,4v3.74h.25l8,0,27.16-.08,98.12-.43,31.95-.28,8.92-.16,2.34-.08A2.79,2.79,0,0,0,212.75,160.73Z" transform="translate(-0.29 -0.52)"/><image width="124" height="123" transform="translate(114.26 36.28) scale(0.22 0.22)" xlink:href="../../../../Acolyte's%20Concoctions/Images/Logo/1x/logo-black.png"/><text class="cls-21" transform="translate(101.26 101.34)"><tspan class="cls-22">M</tspan><tspan x="14.97" y="0">ade with </tspan><tspan x="14.11" y="16.8" xml:space="preserve">herbs            </tspan><tspan x="23.15" y="33.6" xml:space="preserve">&amp;               </tspan><tspan x="-3.56" y="50.4">essential oils</tspan></text></g></g></svg>