<svg xmlns="http://www.w3.org/2000/svg" viewBox="0 0 100.91 98.94"><defs><style>.cls-1{opacity:0.7;}.cls-2{fill:#fff;}.cls-3{fill:#231f20;}</style></defs><title>Asset 1</title><g id="Layer_2" data-name="Layer 2"><g id="Layer_1-2" data-name="Layer 1"><g class="cls-1"><path class="cls-2" d="M35.47,66.3c3.17-2.26,7.22-5.93,8.94-11.4s0-9-.76-14.75C42.07,27.43,46.64,11,56.41,5.92c5-2.61,14.82-2.24,15.82-2.12.17,0,.67.08.66.09s-1.1-.07-1.17-.08c-1.58-.13-8.44.21-12,1.84C50.27,10,46.61,20.61,45.44,24,42.68,32,43,39.06,44.23,49.28a270.62,270.62,0,0,0,8.38,42.11c-8.2-6.49-8.2-16.22-9-25.95-7.73,4-14.14,7.63-19,10.57C11.6,83.81,6.76,88,3,93.72a42,42,0,0,0-3,5.22A22.14,22.14,0,0,1,5.55,88.79a28.76,28.76,0,0,1,7.29-5C24.9,77.16,35.33,64.87,39.44,51.2A43.85,43.85,0,0,0,41,44.26a31.09,31.09,0,0,0,.12-7.21c-1.57-13.78-8.94-26.76-22-33.19a12.68,12.68,0,0,0-5.52-1.13,9.3,9.3,0,0,0-5.2,1.88c-4.92,4.06,0,17,5.73,23.52,2.46,2.44,5.94,4.06,9.34,5.9,3.77,2.21,8.69,4.65,10.32,10.32C35.4,54.9,31.31,67.06,19.84,67.87c-4.1.81-7.38-4.86-6.56-8.92,1.64-7.3,4.92-17,13.93-17-3.28,6.49-12.29,9.73-13.11,17.84a7,7,0,0,0,2.46,4.87c4.1,3.24,9,0,11.47-3.24,5.73-8.12,3.28-22.71-7-26.14-3.19-1.64-6.47-3.06-8.52-5.49C6.73,22.46,3.45,10.29,8.37,3A7.18,7.18,0,0,1,12.84.14a11.07,11.07,0,0,1,5.59.6C33.76,7.05,43.59,24.89,42.25,42.12a41.46,41.46,0,0,1-1.4,6.46,72.7,72.7,0,0,1-2.39,7c-.91,2.29-1.93,4.53-3,6.7C34.76,65.25,35.21,66,35.47,66.3Z"/><path class="cls-2" d="M61.12,59.91a6.83,6.83,0,0,0,.12,5.68c2.55,4.81,8.29,4.7,12.33,2.18-4.08.9-9,.19-9.93-4.66a18.94,18.94,0,0,1,1.08-6.47c.8-1.67,1.6-3.31,2.4-4.94l-2.64,3.45C63.22,56.81,62,58.41,61.12,59.91Z"/><path class="cls-2" d="M49.78,59.45a30.28,30.28,0,0,0,1.76,12.82c4.31,10.46,19.19,16.65,28.69,9.22a9.51,9.51,0,0,0,.74-.67,4.09,4.09,0,0,1-1.1-1.47c-8.47,4.79-25.63.2-27.53-7.9a41.76,41.76,0,0,1-1-8.16c-.09-2.83.62-5.49,1.09-8.33.49-1.47.89-3.34,1.55-5.49,2.55-8.64.83-18.63,8.15-21.21,3.64-1.11,7.36,1.42,9.6,4.87a15.48,15.48,0,0,0-1.4-5c.83.8,2.47.76,3.19,1.55,2.09,2.19,3.73,4,5.05,5.18.92.39,2.59,2,3.41,2A16.46,16.46,0,0,0,85,27a14.69,14.69,0,0,0-1.74-6.83c-.85-1.54-1.24-1.53-4.5-5C76.28,12.51,71.35,8,72.31,5.11c-.11.27-.22.55-.29.79-.76,2.67,2.43,5.07,3.61,7.89a95.47,95.47,0,0,1,3.59,10.07c-15.73-7.8-24.4,8.6-26,21.42"/><path class="cls-2" d="M68,50c-.27.58-.56,1.16-.84,1.74L68.38,50c2.3-3.29,5.51-6.6,5.43-10.65a12.52,12.52,0,0,0-2.11-6.25C72.29,38.72,70,44.37,68,50Z"/><path class="cls-2" d="M79.26,67.83l1.52,1.26-2.14-.81c-.45-.17-.89-.37-1.06.06a2.93,2.93,0,0,1-1,0,3.82,3.82,0,0,1-1-.67,10.75,10.75,0,0,1-.78-.87l-.24.16.77,2.12c-.76.51-1.09.31-1.22-.85-.49,0-.49,0-.45,1.24a4.64,4.64,0,0,0,3.11.45,6.83,6.83,0,0,1,1.41.15c.08,0,.2.12.23.09a1.33,1.33,0,0,1,1.5,0l.24-.56h1.56l.08.33,2.46-.48-.1.4,1.51.2c.1,0,.25,0,.28-.07.15-.28.38-.29.56-.1a1.24,1.24,0,0,1,.27.62c0,.17,0,.36,0,.59.11-.17.21-.34.32-.5s.14-.26.24-.28c.6-.12,1.22-.22,1.83-.3.16,0,.34.11.49.09.88-.1,1.75-.24,2.62-.34.38,0,.78,0,1.16,0s.64,0,1-.07a4.08,4.08,0,0,0-.22-.85,10.77,10.77,0,0,0-.66-1h.94l-1.9-.9a2.6,2.6,0,0,1,2.31,0,2.67,2.67,0,0,1,.64,2.44l0-.75-.79,1c.73.33.19.8.18,1.12a19.09,19.09,0,0,0,1.57-1.33.93.93,0,0,0,0-.82c-.27-.55-.64-1-1-1.57.4-.38.65-.26.8.1a15.29,15.29,0,0,1,.69,1.81.82.82,0,0,1-.35.66,3.68,3.68,0,0,0-1.65,2.35c.24-.4.47-.8.74-1.19a1.74,1.74,0,0,1,1.78-.52.87.87,0,0,1,.61,1.05,5.12,5.12,0,0,0,.76,3.9A14.09,14.09,0,0,1,100.63,85a8.86,8.86,0,0,1-4.09,6,1.12,1.12,0,0,0-.6,1.29,2.15,2.15,0,0,1-.14,1,1,1,0,0,0,.69,1.53l.3.1c.44.1.59.29.37.75s0,.8.46.82c1.24,0,1.67.73,1.23,2.09-.19-.26-.36-.46-.49-.68a.86.86,0,0,0-1.3-.33c-.59.37-.92.22-1.26-.36-.2-.35-.63-.56-1.06-.92.05-.65.05-.65-.76-1.19-1-.66-1-.87-.54-1.89a1,1,0,0,0,0-.39,3,3,0,0,0-.52.05,32.45,32.45,0,0,1-3.54,1.15,28.73,28.73,0,0,1-15.7-.88,5,5,0,0,0-.55-.16c0,.09-.09.15-.08.2.14,1,.07,1.2-.85,1.7-.54.3-1,.57-.58,1.36a1.39,1.39,0,0,0-1.38.89.77.77,0,0,1-.68.3c-.92-.43-1.68-.47-2.09.72a1.23,1.23,0,0,1,.65-2c1.08-.25,1.08-.25.74-1.33l.9-.34a1,1,0,0,0,.74-1.38c-.1-.4-.1-.83-.22-1.22a1.35,1.35,0,0,0-.46-.66,10.8,10.8,0,0,1-4.68-7.07,10.06,10.06,0,0,1,.52-4.52c.55-1.85,1.19-3.66,1.88-5.46a5.18,5.18,0,0,0,0-4.32,1.69,1.69,0,0,0-.71-.69v.6a1.53,1.53,0,0,1-1.54-.57A.84.84,0,0,1,65.63,68a11.14,11.14,0,0,1,1.78-.65,1.33,1.33,0,0,1,.74.21c.44.21.86.46,1.29.69l.13-.21-1.28-.87.77.11c0-.1.07-.28.12-.29a15.12,15.12,0,0,1,1.64-.14c.09,0,.23.29.26.45a1.67,1.67,0,0,0,2,1.41L71.88,68l.57-.08-.88-1.22c.53,0,.91,0,1.27,0,.64-.07,1.27-.23,1.9-.28a5.54,5.54,0,0,1,1.15.14,1.09,1.09,0,0,1,1.48,0c-.08.14-.25.33-.21.41a8.07,8.07,0,0,0,.6.92l.22-.1a1.75,1.75,0,0,0,0-.46,9.5,9.5,0,0,0-1.39-3.45c-.41-.55-.72-1.18-1.13-1.73-.13-.18-.43-.24-.55-.3a13.49,13.49,0,0,1,.6-1.53,16.74,16.74,0,0,1,1-1.5l.21.1a1.2,1.2,0,0,1,0,.33,3.83,3.83,0,0,0,.75,3.48A5.93,5.93,0,0,1,78.65,66a.68.68,0,0,0,.1.35c.16.25.28.39-.12.59-.18.08-.17.52-.27.87h.87Zm-9.15,1.52c-.61-1.21-.84-1.29-1.63-.6Z"/><path class="cls-2" d="M85.44,46.48a3.45,3.45,0,0,0-.83,3.83,30.83,30.83,0,0,0,1.53,3.3,8.09,8.09,0,0,1,1,4.83,7.52,7.52,0,0,1-2.52,4.67l-.2-.06c.18-.89.35-1.78.53-2.66a8.89,8.89,0,0,0,.28-4.4c-.26-.86-.65-1.68-.93-2.53a29.89,29.89,0,0,1-.89-3.07,3.57,3.57,0,0,1,.61-2.81,9.14,9.14,0,0,1,1.23-1.26Z"/><path class="cls-2" d="M80,63.18c.25-1,.53-2,.74-3A6.05,6.05,0,0,0,80,55.64c-.69-1.11-1.45-2.17-2.13-3.28a8.56,8.56,0,0,1-.53-8.68,10.27,10.27,0,0,1,1.4-2,2.48,2.48,0,0,1,1-.57,7.16,7.16,0,0,0-2.16,4.39,8.68,8.68,0,0,0,1.24,6.33c.61,1,1.24,2,1.83,2.94,1.72,2.9,1.08,5.67-.51,8.37A.12.12,0,0,1,80,63.18Z"/><path class="cls-2" d="M72.24,59.72a2,2,0,0,1,2.05,2,2.07,2.07,0,0,1-2,2,2,2,0,0,1-2-2A2,2,0,0,1,72.24,59.72Z"/><path class="cls-2" d="M89.34,68.31c-.19,0-.43-.08-.56,0-.75.55-1.28.15-1.8-.37.18-.31.18-.31,1.24-.1L88,67.59c-.07-.08-.14-.15-.26-.3l.57.12a1,1,0,0,0,.1-.16,7,7,0,0,0,.08-4.74,28.72,28.72,0,0,1-.86-3.78,3.34,3.34,0,0,1,.83-2.82,5.74,5.74,0,0,0-.1,4.22l.5-.17c-.61.8-.06,1.5.13,2.21a6.63,6.63,0,0,1,.12,4.16l3.52,1-.29.06.48,1.5-.17.08a7.27,7.27,0,0,0-1.45-.78c-.51-.16-1.13,0-1.61-.57l.65.17.08-.12-1.3-1.06-.43.91.69.79Z"/><path class="cls-2" d="M91,49.46a4.61,4.61,0,0,0-1.16-3.39,5.09,5.09,0,0,1-1.14-3.44,3.28,3.28,0,0,1,3.49-3c-.19.14-.3.23-.43.31a3.31,3.31,0,0,0-1.43,4.48,32,32,0,0,1,1.21,3.21A1.78,1.78,0,0,1,91,49.46Z"/><path class="cls-2" d="M94.42,63.65a1.58,1.58,0,0,1-1.57,1.57,1.61,1.61,0,0,1-1.58-1.57,1.57,1.57,0,0,1,1.58-1.54A1.53,1.53,0,0,1,94.42,63.65Z"/><path class="cls-2" d="M97.58,67.44c1.06-.46,1.89.18,2.76.46a.89.89,0,0,1,.12,1.61,14.5,14.5,0,0,1-1.57.7c-.19-.53-.33-1-.54-1.45A15,15,0,0,0,97.58,67.44Z"/><path class="cls-2" d="M85.17,69.35l.06-.39a3.42,3.42,0,0,0-.68.13c-.43.16-.65,0-.87-.36-.12-.19-.41-.27-.6-.44s-.57-.54-.85-.82l.12-.24,1.46.2c.82-.79,1.48-.71,2,.34l1-.48.17.17a2.65,2.65,0,0,0-1.63,2Z"/><path class="cls-2" d="M74.86,52.14a1.32,1.32,0,0,1-1.29,1.28,1.33,1.33,0,0,1-1.31-1.34,1.3,1.3,0,0,1,2.6.06Z"/><path class="cls-2" d="M79.26,67.83l0,0-.48-.56.09-.2,2,.61.07-.13L80,66.72l.64.07L80,66.26H82.7l.06.27-1.28.54.18,1.13C80.74,68.94,80,68.23,79.26,67.83Z"/><path class="cls-2" d="M92.78,55.42a1,1,0,0,1-1.06,1,1,1,0,0,1,0-2.08A1,1,0,0,1,92.78,55.42Z"/><path class="cls-2" d="M83.09,52.91a1,1,0,0,1-1.06,1,1.05,1.05,0,0,1-1-1.06,1.07,1.07,0,0,1,1-1A1.05,1.05,0,0,1,83.09,52.91Z"/><path class="cls-2" d="M76.51,65.15a1,1,0,1,1-1-1.06A1,1,0,0,1,76.51,65.15Z"/><path class="cls-2" d="M90.46,53.18a.77.77,0,0,1-.73-.81.74.74,0,0,1,.8-.79.82.82,0,0,1,.81.8A.87.87,0,0,1,90.46,53.18Z"/><path class="cls-2" d="M82.72,43.18c.17.24.48.51.45.72a.89.89,0,0,1-.63.57c-.15,0-.53-.35-.54-.56s.27-.49.43-.73Z"/><path class="cls-2" d="M75,46.51c-.25.17-.51.49-.72.47a.88.88,0,0,1-.6-.6c0-.16.34-.54.55-.56s.5.26.76.41Z"/><path class="cls-2" d="M81.78,64.83c-.15-.25-.4-.49-.43-.75a.49.49,0,0,1,.64-.55c.23.06.55.38.55.58s-.31.49-.48.73Z"/><path class="cls-2" d="M93.68,59.58c-.16-.24-.48-.51-.45-.72a.9.9,0,0,1,.63-.58c.16,0,.53.35.55.57s-.27.48-.43.73Z"/><path class="cls-2" d="M94.54,45.86c-.25.15-.51.43-.74.41s-.6-.4-.57-.55a.93.93,0,0,1,.6-.62c.21,0,.47.29.72.46Z"/><path class="cls-2" d="M78.9,58.83c-.25.15-.51.44-.75.42s-.59-.4-.56-.56a.88.88,0,0,1,.59-.61c.22,0,.48.29.72.45Z"/><path class="cls-2" d="M88.53,49.72c-.23.14-.5.43-.7.39a.86.86,0,0,1-.5-.62c0-.16.36-.5.55-.49s.44.29.67.46Z"/><path class="cls-2" d="M83.74,66c.65.56,1.64-.12,2.25.73a17.35,17.35,0,0,1-1.91,0c-.18,0-.32-.36-.49-.55Z"/><path class="cls-2" d="M87.75,53.28c-.15-.23-.43-.45-.43-.67s.35-.56.5-.54a.83.83,0,0,1,.59.51c0,.2-.25.46-.39.69Z"/><path class="cls-2" d="M89.32,68.32l1.58.15,0,.09-1.41.36.14-.31-.76.24.49-.55Z"/><path class="cls-2" d="M86.61,66.18a4.42,4.42,0,0,1,1.67.24l-.07.34-1.64-.36Z"/><path class="cls-2" d="M70.11,69.35l-1.63-.6C69.27,68.06,69.5,68.14,70.11,69.35Z"/><path class="cls-3" d="M82.2,30.84C82,31,81,30.3,80.88,29.4c-.08-.6.21-1.26.45-1.27s.41.57.63,1.27S82.38,30.73,82.2,30.84Z"/></g></g></g></svg>