<svg xmlns="http://www.w3.org/2000/svg" viewBox="0 0 100.91 98.94"><defs><style>.cls-1{opacity:0.7;}.cls-2{fill:#fff;}.cls-3{fill:#231f20;}</style></defs><title>Asset 2</title><g id="Layer_2" data-name="Layer 2"><g id="Layer_1-2" data-name="Layer 1"><g class="cls-1"><path class="cls-2" d="M65.47,62.26c-1.09-2.17-2.11-4.41-3-6.7a72.7,72.7,0,0,1-2.39-7,40.34,40.34,0,0,1-1.4-6.46C57.31,24.89,67.14,7.05,82.48.74a11.06,11.06,0,0,1,5.59-.6A7.18,7.18,0,0,1,92.54,3c4.91,7.3,1.64,19.47-4.1,26.77-2,2.43-5.32,3.85-8.51,5.49-10.33,3.43-12.79,18-7.05,26.14,2.46,3.24,7.37,6.48,11.47,3.24a7,7,0,0,0,2.45-4.87C86,51.65,77,48.41,73.7,41.92c9,0,12.29,9.73,13.92,17,.82,4.06-2.45,9.73-6.55,8.92-11.47-.81-15.56-13-13.93-23.52C68.78,38.68,73.7,36.24,77.47,34c3.39-1.84,6.88-3.46,9.33-5.9,5.74-6.48,10.65-19.46,5.74-23.52a9.3,9.3,0,0,0-5.2-1.88,12.68,12.68,0,0,0-5.52,1.13c-13,6.43-20.41,19.41-22,33.19A31.65,31.65,0,0,0,60,44.26a46.2,46.2,0,0,0,1.51,6.94c4.12,13.67,14.55,26,26.61,32.59a28.76,28.76,0,0,1,7.29,5,22.23,22.23,0,0,1,5.55,10.15,42,42,0,0,0-3-5.22C94.15,88,89.3,83.81,76.35,76c-4.89-2.94-11.3-6.62-19-10.57-.82,9.73-.82,19.46-9,26a270.62,270.62,0,0,0,8.38-42.11C57.87,39.06,58.23,32,55.46,24,54.3,20.61,50.64,10,41.19,5.65c-3.57-1.63-10.42-2-12-1.84-.07,0-1.17.1-1.18.08s.5-.07.67-.09c1-.12,10.78-.49,15.82,2.12C54.27,11,58.84,27.43,57.26,40.15c-.71,5.7-2.5,9.24-.77,14.75S62.26,64,65.44,66.3C65.7,66,66.15,65.25,65.47,62.26Z"/><path class="cls-2" d="M39.79,59.91a6.91,6.91,0,0,1-.12,5.68c-2.56,4.81-8.29,4.7-12.33,2.18,4.07.9,9,.19,9.92-4.66a18.94,18.94,0,0,0-1.07-6.47c-.8-1.67-1.61-3.31-2.4-4.94l2.64,3.45C37.69,56.81,38.86,58.41,39.79,59.91Z"/><path class="cls-2" d="M51.13,59.45a30.6,30.6,0,0,1-1.76,12.82c-4.32,10.46-19.19,16.65-28.69,9.22a9.67,9.67,0,0,1-.75-.67A4,4,0,0,0,21,79.35c8.47,4.79,25.63.2,27.52-7.9a41,41,0,0,0,1-8.16c.09-2.83-.62-5.49-1.09-8.33-.49-1.47-.89-3.34-1.55-5.49-2.56-8.64-.84-18.63-8.16-21.21-3.64-1.11-7.35,1.42-9.59,4.87a15.48,15.48,0,0,1,1.4-5c-.83.8-2.47.76-3.2,1.55-2.08,2.19-3.73,4-5,5.18-.92.39-2.59,2-3.41,2A16.46,16.46,0,0,1,15.89,27a14.69,14.69,0,0,1,1.74-6.83c.84-1.54,1.24-1.53,4.5-5,2.5-2.66,7.43-7.13,6.46-10.06a6.59,6.59,0,0,1,.3.79c.76,2.67-2.44,5.07-3.62,7.89a97.31,97.31,0,0,0-3.58,10.07c15.73-7.8,24.4,8.6,26,21.42"/><path class="cls-2" d="M33,50c.27.58.56,1.16.84,1.74-.42-.55-.85-1.11-1.26-1.67-2.3-3.29-5.51-6.6-5.43-10.65a12.33,12.33,0,0,1,2.11-6.25C28.62,38.72,30.92,44.37,33,50Z"/><path class="cls-2" d="M21.68,67.81h.87c-.1-.35-.1-.79-.27-.87-.4-.2-.29-.34-.12-.59a.68.68,0,0,0,.1-.35,5.93,5.93,0,0,1,1.16-3.28,3.8,3.8,0,0,0,.74-3.48,1.82,1.82,0,0,1,0-.33l.2-.1a15,15,0,0,1,1.05,1.5A11.79,11.79,0,0,1,26,61.84c-.12.06-.41.12-.54.3-.41.55-.72,1.18-1.13,1.73a9.5,9.5,0,0,0-1.39,3.45,1.75,1.75,0,0,0,0,.46l.21.1a8.15,8.15,0,0,0,.61-.92c0-.08-.14-.27-.21-.41a1.09,1.09,0,0,1,1.48,0,5.46,5.46,0,0,1,1.14-.14c.64,0,1.27.21,1.91.28.36,0,.74,0,1.26,0l-.87,1.22L29,68l-1.19.66a1.68,1.68,0,0,0,2-1.41c0-.16.17-.45.26-.45a14.94,14.94,0,0,1,1.63.14c.06,0,.09.19.13.29l.77-.11L31.34,68l.13.21c.43-.23.85-.48,1.29-.69a1.32,1.32,0,0,1,.73-.21,11.62,11.62,0,0,1,1.79.65.84.84,0,0,1,.28,1.32,1.54,1.54,0,0,1-1.54.57v-.6a1.69,1.69,0,0,0-.71.69,5.21,5.21,0,0,0,0,4.32c.7,1.8,1.34,3.61,1.89,5.46a10.06,10.06,0,0,1,.51,4.52,10.79,10.79,0,0,1-4.67,7.07,1.35,1.35,0,0,0-.46.66c-.12.39-.12.82-.22,1.22a1,1,0,0,0,.73,1.38l.91.34c-.35,1.08-.35,1.08.74,1.33a1.23,1.23,0,0,1,.65,2c-.41-1.19-1.17-1.15-2.1-.72a.78.78,0,0,1-.68-.3,1.37,1.37,0,0,0-1.37-.89c.43-.79,0-1.06-.59-1.36-.91-.5-1-.68-.84-1.7a.53.53,0,0,0-.09-.2,4.81,4.81,0,0,0-.54.16,28.73,28.73,0,0,1-15.7.88A32.45,32.45,0,0,1,8,92.93a3,3,0,0,0-.53-.05c0,.13,0,.29,0,.39.48,1,.43,1.23-.54,1.89-.81.54-.81.54-.77,1.19-.42.36-.85.57-1,.92-.34.58-.67.73-1.26.36a.86.86,0,0,0-1.3.33c-.14.22-.3.42-.49.68-.44-1.36,0-2,1.23-2.09.5,0,.7-.31.45-.82s-.06-.65.38-.75l.3-.1a1,1,0,0,0,.69-1.53,2,2,0,0,1-.14-1A1.11,1.11,0,0,0,4.36,91,8.93,8.93,0,0,1,.27,85a14.09,14.09,0,0,1,1.66-9.83,5.21,5.21,0,0,0,.76-3.9.87.87,0,0,1,.61-1.05,1.74,1.74,0,0,1,1.78.52c.27.39.49.79.74,1.19a3.72,3.72,0,0,0-1.65-2.35.83.83,0,0,1-.36-.66,13.79,13.79,0,0,1,.7-1.81c.15-.36.39-.48.8-.1-.32.52-.69,1-1,1.57a.93.93,0,0,0,0,.82A19.2,19.2,0,0,0,6,70.72c0-.32-.55-.79.17-1.12l-.78-1,0,.75A2.71,2.71,0,0,1,6,66.86a2.6,2.6,0,0,1,2.31,0l-1.9.9h.94a10.77,10.77,0,0,0-.66,1,4.08,4.08,0,0,0-.22.85c.31,0,.63.06,1,.07s.77,0,1.16,0c.87.1,1.74.24,2.61.34.16,0,.34-.11.5-.09q.91.12,1.83.3c.1,0,.17.18.24.28s.21.33.31.5a3.14,3.14,0,0,0,0-.59,1.35,1.35,0,0,1,.28-.62c.18-.19.4-.18.56.1,0,.06.18.08.27.07l1.52-.2-.1-.4,2.46.48.07-.33h1.57l.23.56a1.34,1.34,0,0,1,1.51,0s.14-.08.22-.09a6.85,6.85,0,0,1,1.42-.15,4.66,4.66,0,0,0,3.11-.45c0-1.2,0-1.2-.45-1.24-.13,1.16-.46,1.36-1.22.85l.77-2.12L26,66.78a9,9,0,0,1-.77.87,3.82,3.82,0,0,1-1,.67,2.93,2.93,0,0,1-1,0c-.17-.43-.61-.23-1.06-.06l-2.15.81,1.53-1.26Zm10.75.94c-.79-.69-1-.61-1.64.6Z"/><path class="cls-2" d="M15.47,46.48a3.47,3.47,0,0,1,.82,3.83,28.93,28.93,0,0,1-1.52,3.3,8.17,8.17,0,0,0-1,4.83,7.59,7.59,0,0,0,2.53,4.67l.19-.06c-.17-.89-.34-1.78-.52-2.66a8.78,8.78,0,0,1-.28-4.4c.26-.86.65-1.68.93-2.53a27.52,27.52,0,0,0,.88-3.07,3.53,3.53,0,0,0-.6-2.81,9.14,9.14,0,0,0-1.23-1.26Z"/><path class="cls-2" d="M20.91,63.18c-.25-1-.53-2-.74-3A6,6,0,0,1,21,55.64c.69-1.11,1.44-2.17,2.13-3.28a8.56,8.56,0,0,0,.53-8.68,9.9,9.9,0,0,0-1.41-2,2.51,2.51,0,0,0-1-.57,7.16,7.16,0,0,1,2.16,4.39,8.68,8.68,0,0,1-1.25,6.33c-.6,1-1.23,2-1.82,2.94-1.72,2.9-1.09,5.67.51,8.37A.12.12,0,0,0,20.91,63.18Z"/><path class="cls-2" d="M28.67,59.72a2,2,0,0,0-2.05,2,2.07,2.07,0,0,0,2,2,2,2,0,0,0,2-2A2,2,0,0,0,28.67,59.72Z"/><path class="cls-2" d="M11.57,68.31c.19,0,.43-.08.55,0,.76.55,1.29.15,1.81-.37-.18-.31-.18-.31-1.24-.1l.18-.26c.06-.08.13-.15.26-.3l-.57.12a1,1,0,0,1-.1-.16,7,7,0,0,1-.09-4.74,27.23,27.23,0,0,0,.87-3.78,3.34,3.34,0,0,0-.83-2.82,5.79,5.79,0,0,1,.1,4.22L12,60c.61.8.06,1.5-.13,2.21a6.56,6.56,0,0,0-.12,4.16l-3.52,1,.29.06L8,68.9l.18.08a7.48,7.48,0,0,1,1.44-.78c.52-.16,1.14,0,1.62-.57l-.66.17-.07-.12,1.3-1.06.42.91-.68.79Z"/><path class="cls-2" d="M9.91,49.46a4.61,4.61,0,0,1,1.16-3.39,5.09,5.09,0,0,0,1.14-3.44,3.28,3.28,0,0,0-3.49-3c.19.14.3.23.43.31a3.32,3.32,0,0,1,1.43,4.48,32,32,0,0,0-1.21,3.21A1.76,1.76,0,0,0,9.91,49.46Z"/><path class="cls-2" d="M6.49,63.65a1.58,1.58,0,0,0,1.57,1.57,1.61,1.61,0,0,0,1.58-1.57,1.57,1.57,0,0,0-1.58-1.54A1.53,1.53,0,0,0,6.49,63.65Z"/><path class="cls-2" d="M3.33,67.44c-1.06-.46-1.9.18-2.76.46a.89.89,0,0,0-.12,1.61,14.5,14.5,0,0,0,1.57.7c.19-.53.33-1,.54-1.45A15,15,0,0,1,3.33,67.44Z"/><path class="cls-2" d="M15.74,69.35,15.68,69a3.56,3.56,0,0,1,.68.13c.43.16.65,0,.87-.36.11-.19.41-.27.6-.44s.57-.54.85-.82l-.12-.24-1.47.2c-.82-.79-1.48-.71-2,.34l-1-.48-.17.17a2.67,2.67,0,0,1,1.63,2Z"/><path class="cls-2" d="M26.05,52.14a1.31,1.31,0,0,0,1.29,1.28,1.33,1.33,0,0,0,1.31-1.34,1.3,1.3,0,0,0-1.3-1.26A1.28,1.28,0,0,0,26.05,52.14Z"/><path class="cls-2" d="M21.65,67.83l0,0,.47-.56-.08-.2L20,67.66,20,67.53l.93-.81-.64.07.64-.53H18.21l-.07.27,1.28.54-.17,1.13C20.17,68.94,20.88,68.23,21.65,67.83Z"/><path class="cls-2" d="M8.13,55.42a1,1,0,1,0,1-1.05A1,1,0,0,0,8.13,55.42Z"/><path class="cls-2" d="M17.81,52.91a1.05,1.05,0,0,0,2.1,0,1.05,1.05,0,0,0-2.1,0Z"/><path class="cls-2" d="M24.4,65.15a1,1,0,1,0,1-1.06A1,1,0,0,0,24.4,65.15Z"/><path class="cls-2" d="M10.45,53.18a.77.77,0,0,0,.73-.81.74.74,0,0,0-.8-.79.82.82,0,0,0-.81.8A.87.87,0,0,0,10.45,53.18Z"/><path class="cls-2" d="M18.19,43.18c-.17.24-.49.51-.45.72a.89.89,0,0,0,.63.57c.15,0,.53-.35.54-.56s-.27-.49-.43-.73Z"/><path class="cls-2" d="M25.9,46.51c.24.17.5.49.72.47a.9.9,0,0,0,.6-.6c0-.16-.34-.54-.56-.56s-.5.26-.75.41Z"/><path class="cls-2" d="M19.12,64.83c.16-.25.41-.49.44-.75a.49.49,0,0,0-.64-.55c-.24.06-.55.38-.55.58s.3.49.48.73Z"/><path class="cls-2" d="M7.23,59.58c.16-.24.48-.51.45-.72a.92.92,0,0,0-.63-.58c-.16,0-.53.35-.55.57s.27.48.43.73Z"/><path class="cls-2" d="M6.37,45.86c.25.15.51.43.74.41s.6-.4.57-.55a.93.93,0,0,0-.6-.62c-.21,0-.48.29-.72.46Z"/><path class="cls-2" d="M22,58.83c.25.15.51.44.75.42s.59-.4.56-.56a.88.88,0,0,0-.6-.61c-.21,0-.47.29-.72.45Z"/><path class="cls-2" d="M12.37,49.72c.24.14.51.43.7.39a.85.85,0,0,0,.51-.62c0-.16-.36-.5-.55-.49s-.45.29-.67.46Z"/><path class="cls-2" d="M17.17,66c-.65.56-1.64-.12-2.25.73a17.35,17.35,0,0,0,1.91,0c.18,0,.32-.36.48-.55Z"/><path class="cls-2" d="M13.16,53.28c.15-.23.43-.45.42-.67s-.34-.56-.49-.54a.81.81,0,0,0-.59.51c0,.2.24.46.39.69Z"/><path class="cls-2" d="M11.59,68.32,10,68.47v.09l1.42.36-.14-.31.76.24-.49-.55Z"/><path class="cls-2" d="M14.29,66.18a4.45,4.45,0,0,0-1.67.24l.08.34,1.64-.36Z"/><path class="cls-2" d="M30.79,69.35l1.64-.6C31.64,68.06,31.4,68.14,30.79,69.35Z"/><path class="cls-3" d="M18.71,30.84C19,31,19.91,30.3,20,29.4c.08-.6-.21-1.26-.45-1.27s-.41.57-.63,1.27S18.53,30.73,18.71,30.84Z"/></g></g></g></svg>