<svg xmlns="http://www.w3.org/2000/svg" viewBox="0 0 91.39 684"><defs><style>.cls-1{fill:#fff;stroke:#fff;stroke-miterlimit:10;opacity:0.45;}</style></defs><title>column-right</title><g id="Layer_2" data-name="Layer 2"><g id="Layer_1-2" data-name="Layer 1"><path class="cls-1" d="M6.35,683.5H31.54c10.13-17.44-6.81-51.32,27.07-51.32,3.39,0,6.78,3.38,10.17,6.77C45.06,615.24-2.37,625.4,34.9,584.74c10.16-10.16,23.71-10.16,33.88,0,0,3.39,6.77,10.17,0,13.56C62,584.74,38.29,578,38.29,591.52c-3.39,16.94,20.32,23.72,33.88,16.94,10.16-3.39,3.38-27.1-10.17-33.88-10.16-3.39-23.71,0-33.22,7a11.52,11.52,0,0,1-1.31-4.82,42.82,42.82,0,0,1,1.84-16.16c.61-2.1,1.35-4.22,2.2-6.34-11.86-8.89-15.93-23-14.5-35.43A40.39,40.39,0,0,1,18,513.6c10.16-30.5,6.77-61,6.77-94.87,0-13.55,3.39-23.72,10.17-37.27-20.33,37.27,6.77,64.37,37.27,84.7,0,3.39-3.39,10.17-6.78,10.17-13.55,3.38-23.72-10.17-27.1-20.33,6.77,0,16.94,0,16.94,10.16H45.06c6.78,6.78,13.55,6.78,20.33,6.78-13.55-30.49-57.6-47.43-30.49-88.09C14.57,425.51,18,500,58.61,523.76,14.57,500,18,422.12,34.9,381.46,21.35,408.57,28.12,445.83,62,456c3.39,3.39,10.17,10.16,6.78,16.94-6.78,6.77-16.94,3.39-23.72-6.78l3.39-3.39c0-3.38-6.78-6.77-10.16-6.77,3.38,10.16,20.32,33.88,33.88,13.55,0-3.39-3.39-10.16-6.78-13.55-37.27-6.78-44-47.43-30.49-74.54-6.78,10.17-13.55,23.72-10.17,37.27,0,33.88,3.39,64.37-3.38,98.25a24.21,24.21,0,0,0-1.13,5.32c-.94,9.18,2.82,19.53,11.29,25.18,13.55,10.16,30.49,6.77,40.76-2a19.92,19.92,0,0,1,3.43,3.81c4,5.82,5.06,13.59,4.07,20.92a11.33,11.33,0,0,0,.12,5.12c12.6,16.15-1,33.09-4.34,50C72.17,622,65.39,618.62,62,615.24c16.94,6.77,20.33-13.56,16.94-23.72-3.39-16.94-20.33-20.33-33.88-23.72A24.38,24.38,0,0,1,48.19,563c3.65-4.29,8.73-6.2,13.81,1.43-1.69-4.24-3.39-6.78-5.08-8.1a43.85,43.85,0,0,0-7-.76c-21.76-1.31-1.43,2.08-1.43,2.08a42.44,42.44,0,0,0-3.39,3.25c-1.13,1.17-2.26,2.4-3.39,3.53A14.79,14.79,0,0,0,38.34,569a5.79,5.79,0,0,0-.37,3.84c17.26-5,44.36,5.16,41,28.87s-23.71,0-37.27,10.17c13.56,3.39,27.11,3.39,33.88,16.94,6.78-13.55,16.94-30.49,8.35-47.8-.9-3.13-.86-4.8-.35-5.93a31,31,0,0,0,2.17-7.26,36,36,0,0,0-5.14-18.15,37.26,37.26,0,0,0-3.65-5.11c-11.54,2.94-18.32,13.1-31.87,9.71S18,537.31,21.35,520.37a23.6,23.6,0,0,1,1-3.24,42.67,42.67,0,0,0-.53-6.09c-3.91-24.55,13-48.27,2.86-72-10.16-20.33,0-40.66,10.17-57.6-20.33,37.27,6.77,64.37,37.27,84.7,0,3.39-3.39,10.17-6.78,10.17-13.55,3.38-20.33-10.17-27.1-20.33,3.38,3.39,13.55,0,13.55,6.77,0,3.39-10.17-3.38-6.78,3.39S55.23,472.94,62,476.33c10.17,0,6.78-10.17,6.78-13.56-30.49-13.55-54.21-47.43-33.88-77.92C14.57,425.51,18,500,59.47,525c2.65.95,2,2.88.92,4.57a13.58,13.58,0,0,1-5.16,4.37c-5.09,2.54-12.07,1.27-15.25-3.81A30.94,30.94,0,0,1,38.19,527c.1-3.27-3.29-6.66-6.68-10,3.39,3.39,6.78,6.78,13.55,6.78C21.35,486.49,11.18,428.89,34.9,384.85c-23.72,33.88,6.77,64.37,33.88,81.31-27.11-20.33-54.21-47.43-33.88-84.7-23.72,44.05-3.39,91.48-6.21,139.2a10.66,10.66,0,0,1,.83,4.32c-1.19,10.58,6.23,22.5,18.93,22.5,11.86,0,26.31-10.38,27.47-24.32a15.92,15.92,0,0,0-.56-6c-13.36,10-30.3-.14-33.69-10.3-13.55-37.27-30.49-81.31-10.16-118.58-10.16,30.49,0,61,33.88,71.15,3.39,3.38-3.39,10.16-3.39,13.55C55.23,442.45,11.18,432.28,31.51,395,14.57,425.51,18,479.71,55.23,496.65c-23.72-16.94-30.5-44-30.5-71.14,0,20.32,10.17,37.26,23.72,50.82,10.16,10.16,30.49,3.38,30.49-13.56-3.39-10.16-13.55-13.55-23.71-13.55-10.17-3.39-13.56-13.55-20.33-20.33C14.57,395,68.78,374.69,38.29,351c3.38,20.33-6.78,37.27-20.27,50.56a19.5,19.5,0,0,1-.86-4.95,34.86,34.86,0,0,1,13-29.07,49.84,49.84,0,0,0,5-4.05C33,348.27,31,333.87,29.66,319.13A26.62,26.62,0,0,0,28,311.7c-10.31-50.58-6.68-102.35-2.91-152.85a20,20,0,0,0-.75-8.28c-1.24-11.08-5.49-22.25-9-33.72-.71-2.29-1.69-4.74-2.58-7.23C-9.15,79.93,18,63,38.29,46.05,38.29,66.38,4.41,63,11.18,79.93,14.57,86.71,21.35,63,34.9,69.77c-13.55,3.38-23.72,23.71-6.78,30.49C18,103.65,18,93.48,11.18,90.09v6.78C-2.37,79.93,14.57,56.21,34.9,56.21c-10.17,0-16.94,0-23.72,6.78C-5.76,83.32,7.79,103.65,21.35,117.2a9.8,9.8,0,0,1,.95,5.08c-.32,5.08-3.49,10.16-.95,15.25,3.38,6.77,6.77,13.55,13.22,17.16a28.6,28.6,0,0,1,3.72,6.55c-1.42-1.69-2.69-3.5-4.64-5.64-9.54-10.73-15.16-23.72-18.81-37.41-.61-2.29-1.23-4.62-2-7.11-18.59-21-5-61.64,25.46-54.87C21.35,59.6,1,69.77,7.79,90.09c3.39-3.38,6.78-10.16,10.17-6.77,0,3.39,0,10.16,3.39,13.55C18,93.48,18,83.32,14.57,79.93c-3.39,3.39-3.39,10.16-3.39,13.55C4.41,90.09,7.79,83.32,7.79,79.93,11.18,63,24.73,56.21,38.29,56.21,24.73,52.83,14.57,59.6,7.79,69.77,1,83.32,1,100.26,13.63,111.71c1.12,2.63,2,5.1,2.85,7.56,4.3,12.33,8.82,24.63,9.13,35.69.25,1.47.49,2.94.71,4.4,3.52,23.42,9.71,48.18,5.19,66.25-6.78-6.77-6.78-16.94-6.78-27.1,0,10.16,0,20.33,10.17,27.1,1.52-18.29-5.87-44.13-9.22-68.26a25.3,25.3,0,0,0-1.09-4.27c-1.16-10.39-5.79-22.26-9.88-34.31-.82-2.41-1.62-4.82-2.62-7.4C-9.15,83.32,14.57,59.6,38.29,49.44c-6.78,16.94-44,20.33-27.11,44,3.39-6.77,3.39-13.55,6.78-20.33,0,10.17-3.39,20.33,6.77,30.5C21.35,96.87,18,86.71,14.57,79.93c-6.78,3.39-3.39,10.16-3.39,16.94C-5.76,73.15,24.73,63,38.29,49.44,28.12,63,7.79,59.6,4.41,76.54,1,90.09,7.79,100.26,13.67,114.48c.84,2.44,1.76,4.86,2.76,7.28,4.95,12.06,11.56,23.71,17.14,33.77,2,2.18,3.3,4,4.72,5.71a30.86,30.86,0,0,0-4-7.21c-5.95-12.22-13.44-26-18.51-39.87a42.57,42.57,0,0,1-1.9-4.11C4.41,100.26,1,83.32,7.79,69.77,14.57,63,21.35,56.21,31.51,56.21,7.79,56.21,1,86.71,14.57,100.26c-3.39-3.39-6.78-10.17,0-13.55a40.86,40.86,0,0,0,16.94,16.94C24.73,100.26,21.35,96.87,18,90.09,14.57,73.15,28.12,73.15,38.29,69.77c-13.56-3.39-23.72,3.38-27.11,16.94-6.77-20.33,13.55-30.5,27.11-30.5C1,52.83-2.37,96.87,15.7,116.68c.77,2.33,1.54,4.66,2.28,7,2.94,9.3,5.29,18.52,4.7,27.16a38,38,0,0,1-.32,8.29,440.37,440.37,0,0,0,8.49,154.63,33.27,33.27,0,0,1,3,7.85c5.12,20.23,14.15,39,31.57,56.47,6.78,6.78,0,50.82-20.33,44.05-13.55-6.78,0-33.88,13.55-44.05,3.39,13.56-23.71,37.27-3.38,30.5,6.77-3.39,13.55-27.11,3.38-37.27-13.55-16.94-30.49-30.49-27.1-54.21C24.73,334,41.67,354.36,34.9,371.3c16.94-10.17-3.39-20.33-3.39-33.88,0,16.94,27.1,27.1,20.33,37.27C41.67,395,31.51,412,38.29,428.89c3.38,3.39,10.16,10.17,16.94,6.78C75.55,422.12,78.94,395,72.17,381.46,59.74,356.62,35.93,346,32.05,318.31a16.65,16.65,0,0,0-1.58-4.79c1-3.21-2.35-3.21-2.35-6.59,3.39,3.38,6.78,6.77,10.79,11.51a30.39,30.39,0,0,1,4.46,5.43C46.76,329,50.14,334,55.23,337.42c3.38,0,13.55-6.78,10.16-10.17a81.25,81.25,0,0,1-8.81-6.07c-1.54-.7-3-1.41-4.93-2.13C12.77,281.12,15.73,214.39,23.8,154.77a18,18,0,0,0-.45-4.84c-6.09-9.59-6.59-18.62-6.84-27.79-.06-2.3-.11-4.6-.22-6.92-22-25.13-8.5-59,22-65.78C34.9,69.77,1,59.6,7.79,83.32l6.78-6.78c6.78,6.78,0,20.33,13.55,23.72C18,103.65,18,93.48,11.18,90.09v6.78C-2.37,79.93,14.57,56.21,34.9,56.21c-37.27,0-30.49,37.27-18.71,59.45q1.33,3.45,2.84,6.87c5,11.38,11.2,22.41,16.13,32.17a20.53,20.53,0,0,1,3.13,6.54A39.28,39.28,0,0,0,34,154.82c-3.31-8.6-9.76-19.74-15.29-31.6-1.11-2.37-2.18-4.77-3.18-7.18C-2.37,93.48,1,52.83,38.29,56.21,18,59.6-2.37,73.15,11.18,96.87,7.79,86.71,14.57,79.93,18,73.15c0,6.78-3.39,16.94,3.39,23.72C18,93.48,18,83.32,14.57,79.93c-6.78,0-3.39,10.16-3.39,13.55-16.94-27.1,16.94-27.1,27.11-44C14.57,59.6-9.15,83.32,12.11,111.61c1,2.6,1.78,5,2.6,7.49,4.09,12.23,8.73,24.38,9.89,35.21.24,1.41.45,2.8.63,4.19,3,22.23,9.67,45.66,9.67,63.73-6.78-3.39-6.78-10.17-6.78-16.94-3.39,6.77,3.39,6.77,3.39,13.55,1.6-17.6-5.87-42-8.48-65A28.26,28.26,0,0,0,21.1,149c-8.26-9.52-2.58-20.52-2.42-29.8a12.13,12.13,0,0,0-1.05-5.45c-9.84-13.44-20-23.61-13.22-40.55C11.18,59.6,24.73,56.21,38.29,49.44,24.73,63,1,63,7.79,90.09c6.78-6.77,6.78-16.94,16.94-20.32C14.57,76.54,18,83.32,18,93.48c0-3.39,3.39-13.55-3.39-13.55-10.16,3.39,3.39,16.94,0,13.55C-5.76,79.93,18,59.6,38.29,56.21c-10.17,0-20.33,0-27.11,6.78-13.55,13.55-6.77,37.27,2.62,50.45,1.14,2.56,2.16,5,3.24,7.45,5.39,12.2,12,24.12,16.33,33.92a63.55,63.55,0,0,1,4.92,6.43A9.15,9.15,0,0,0,37,156c-4.38-9-10.64-20-16-31.48-1.06-2.3-2.09-4.61-3.06-6.94-13.54-17.33-20.32-44.44,3.4-58H34.9c-10.17,0-16.94,0-23.72,6.78-13.55,13.55,3.39,23.71,10.17,37.27,6.77-10.17-13.56-23.72,3.38-33.88A40.8,40.8,0,0,0,7.79,86.71C4.41,69.77,18,63,34.9,59.6c6.77-3.39,3.39-10.16,0-13.55C11.18,63-9.15,86.71,13.51,113.4c.9,2.46,1.61,4.82,2.3,7.18,2.77,9.43,5.14,18.81,5,27.69a47.3,47.3,0,0,1,1.8,5.08c-2.09,41.1-2.36,81.07,5.52,123.08C31.51,290,48.45,300.15,62,290c3.39,0-6.77-13.56,0-20.33C23.6,247.07,16.83,203.4,21.6,160.74c.3-2.67.64-5.33.93-8,.79-10.27-3-22.49-6.87-34.73-.77-2.45-1.72-5-2.73-7.59A41.68,41.68,0,0,1,4.41,73.15C11.18,63,24.73,52.83,38.29,56.21a30.38,30.38,0,0,0-30.5,30.5c6.78-10.17,13.56-20.33,30.5-16.94-23.72,0-27.11,27.1-6.78,37.26C21.35,107,21.35,90.09,7.79,93.48,4.41,73.15,14.57,59.6,31.51,56.21-2.37,59.6,1,100.26,17.33,116.84c1,2.16,2,4.32,3,6.46,5.2,10.7,11,21.12,14.71,30.59,1.19,1.4,2.72,2.78,3.23,4-.85-.84-2.21-1.79-3.45-2.83-3.33-3.94-10.11-7.33-10.11-14.11,3.39,3.39,10.17,6.78,10.17,13.56C29.09,144.3,21.42,131,16.14,117.31c-.88-2.29-2-4.71-2.92-7.18-8.81-6.48-12.2-20-8.81-30.2C7.79,66.38,21.35,56.21,34.9,59.6c-10.17,0-16.94,0-23.72,6.78-13.55,16.94,0,27.1,13.55,37.27C14.57,93.48,18,83.32,18,73.15c-6.78,3.39-3.39,13.56-10.17,16.94C-2.37,63,31.51,69.77,38.29,52.83,21.35,52.83,11.18,63,4.41,76.54,1,90.09,7.79,103.65,14.47,113.77c.66,2.3,1.14,4.56,1.55,6.81,2.07,11.26,2.7,22.38,6.53,32.59.25,2.26.46,4.51.67,6.77,1.31,13.54,3,27.44,1.51,42-3.38,16.94,13.56,57.59,40.66,33.88-6.78-6.78-20.33-10.17-16.94-23.72,7.62-17.78-15.25-33.67-22.87-54.79-.5-1.2-.94-2.41-1.47-3.73C18,144.3,18,134.14,18,124c-3.39,13.56,3.39,20.33,11.14,30.36a25.57,25.57,0,0,1,2.3,4.29c5.3,13,13.24,22.53,23.83,16.17,6.35-3.81,5.08-9,1.37-15.18a16.5,16.5,0,0,0-5.82-6c-14.75-4.56-20.2-17.55-23.46-31-.47-1.92-.89-3.85-1.5-5.78-1.09-3.07-4.47-3.07-4.47-6.46,6.77,0,6.77,6.78,13.67,7.28,1.76,1.19,3.55,2.32,5.38,3.31,5.51,3,11.44,4.66,18.21,3a37.74,37.74,0,0,0,3.91-3,41.21,41.21,0,0,0,3.82-3.78c-1,0,2.44-3.39,2.44-3.39a25.23,25.23,0,0,1-13-3.39c-1.83-1.06-3.51-2.33-6.27-2.94C34.9,103.65,18,96.87,21.35,79.93c0-6.78,6.77-10.16,13.55-10.16-6.78-6.78-13.55,0-20.33-3.39C34.9,59.6,38.29,56.21,45.06,39.27c6.78,3.39,6.78,13.56,13.55,13.56C41.67,35.89,51.84-4.77,78.94,5.39,68.78-1.38,55.23,8.78,51.84,15.56c-10.17,20.33,23.71,50.82-6.78,61C58.61,79.93,58.61,66.38,62,59.6c0-16.94-20.33-30.49-6.77-47.43C65.39,2,75.55,2,89.11,5.39,75.55-4.77,58.61,2,51.84,15.56c-10.17,13.55,6.77,27.1,3.39,40.65-6.78-6.77-3.39-23.71-16.94-16.94-23.72,10.17-44,33.88-36,64,.53,2.88.75,5.45,1,8,1,10.36,2.48,20.88,3,31,0,2.54,0,5.12,0,7.77V683.5Z"/></g></g></svg>