<svg xmlns="http://www.w3.org/2000/svg" viewBox="0 0 59.55 495"><defs><style>.cls-1{opacity:0.8;}.cls-2{fill:#fff;}</style></defs><title>column</title><g id="Layer_2" data-name="Layer 2"><g id="Layer_1-2" data-name="Layer 1"><g class="cls-1"><path class="cls-2" d="M35,495H24.34c-4.29-12.64,2.88-37.2-11.45-37.2-1.43,0-2.86,2.46-4.3,4.91,10-17.18,30.09-9.82,14.33-39.28-4.3-7.37-10-7.37-14.33,0,0,2.45-2.86,7.36,0,9.82,2.87-9.82,12.9-14.73,12.9-4.91,1.43,12.27-8.6,17.19-14.33,12.27-4.3-2.45-1.43-19.64,4.3-24.55,4.3-2.46,10,0,14.05,5.06a13.29,13.29,0,0,0,.55-3.49,52.27,52.27,0,0,0-.78-11.71c-.26-1.52-.57-3.06-.93-4.59,5-6.45,6.74-16.65,6.13-25.68-.09-1.29-.22-2.56-.4-3.79-4.3-22.1-2.86-44.2-2.86-68.75,0-9.82-1.44-17.19-4.3-27,8.59,27-2.87,46.65-15.76,61.39,0,2.45,1.43,7.36,2.87,7.36,5.73,2.46,10-7.36,11.46-14.73-2.87,0-7.17,0-7.17,7.37h4.3c-2.86,4.91-5.73,4.91-8.59,4.91,5.73-22.1,24.35-34.38,12.89-63.84,8.59,29.46,7.16,83.48-10,100.67,18.62-17.19,17.19-73.66,10-103.13,5.73,19.64,2.86,46.65-11.46,54-1.43,2.46-4.3,7.37-2.87,12.28,2.87,4.91,7.17,2.45,10-4.91L17.19,335c0-2.45,2.86-4.91,4.3-4.91-1.44,7.37-8.6,24.55-14.33,9.82A25.53,25.53,0,0,1,10,330.12c15.75-4.91,18.62-34.38,12.89-54,2.86,7.37,5.73,17.19,4.3,27,0,24.55-1.44,46.65,1.43,71.21a29.34,29.34,0,0,1,.48,3.85c.39,6.65-1.2,14.15-4.78,18.25-5.73,7.36-12.89,4.91-17.23-1.42a14.68,14.68,0,0,0-1.45,2.76C4,402,3.53,407.61,4,412.92a14.11,14.11,0,0,1-.05,3.71c-5.33,11.71.4,24,1.83,36.26,1.43-2.45,4.3-4.91,5.73-7.36-7.16,4.91-8.6-9.83-7.16-17.19,1.43-12.28,8.59-14.74,14.32-17.19a21.08,21.08,0,0,0-1.32-3.49c-1.54-3.11-3.69-4.49-5.84,1,.72-3.07,1.43-4.91,2.15-5.87a11.74,11.74,0,0,1,3-.54c9.19-.95.6,1.5.6,1.5.48.69.95,1.5,1.43,2.36s1,1.74,1.43,2.55a12.34,12.34,0,0,1,1.41,3.3,6.88,6.88,0,0,1,.16,2.79c-7.3-3.63-18.76,3.74-17.32,20.92s10,0,15.75,7.37c-5.73,2.46-11.46,2.46-14.32,12.28-2.87-9.82-7.16-22.1-3.53-34.64a10.81,10.81,0,0,0,.15-4.3,34.11,34.11,0,0,1-.92-5.26A41.1,41.1,0,0,1,3.6,398a32.28,32.28,0,0,1,1.55-3.71c4.88,2.13,7.74,9.49,13.47,7s11.46-12.28,10-24.56c-.12-.82-.27-1.6-.45-2.35,0-1.19.08-2.64.23-4.41,1.65-17.79-5.51-35-1.21-52.17,4.29-14.73,0-29.46-4.3-41.74,8.59,27-2.87,46.65-15.76,61.39,0,2.45,1.43,7.36,2.87,7.36,5.73,2.46,8.59-7.36,11.46-14.73-1.44,2.46-5.73,0-5.73,4.91,0,2.46,4.29-2.45,2.86,2.46s-4.3,4.91-7.16,7.36c-4.3,0-2.87-7.36-2.87-9.82,12.9-9.82,22.92-34.38,14.33-56.47C31.51,308,30.08,362,12.53,380.11c-1.12.69-.86,2.09-.39,3.31a8.14,8.14,0,0,0,2.18,3.18c2.15,1.84,5.11.92,6.45-2.77.26-.63.48-1.35.76-2.23,0-2.37,1.39-4.83,2.82-7.28-1.43,2.45-2.86,4.91-5.73,4.91,10-27,14.33-68.75,4.3-100.67,10,24.55-2.87,46.65-14.33,58.93,11.46-14.74,22.92-34.38,14.33-61.39C33,308,24.35,342.4,25.55,377a12.72,12.72,0,0,0-.36,3.13c.5,7.67-2.63,16.31-8,16.31-5,0-11.12-7.52-11.61-17.63a19.4,19.4,0,0,1,.23-4.37c5.65,7.26,12.81-.1,14.24-7.47,5.73-27,12.9-58.93,4.3-85.94,4.3,22.1,0,44.2-14.32,51.57-1.44,2.45,1.43,7.36,1.43,9.82,2.86-22.1,21.49-29.47,12.89-56.48,7.16,22.1,5.73,61.39-10,73.67,10-12.28,12.9-31.93,12.9-51.57a72.23,72.23,0,0,1-10,36.83C12.89,352.22,4.3,347.31,4.3,335c1.43-7.37,5.73-9.82,10-9.82,4.3-2.46,5.73-9.82,8.6-14.73,8.59-24.56-14.33-39.29-1.43-56.48-1.44,14.73,2.86,27,8.56,36.65a23.61,23.61,0,0,0,.37-3.6c.29-7.71-1.75-16.11-5.49-21.06a31.82,31.82,0,0,1-2.12-2.94c.9-11,1.76-21.44,2.32-32.13a32.7,32.7,0,0,1,.71-5.38c4.36-36.66,2.83-74.18,1.24-110.78a24.37,24.37,0,0,1,.31-6c.53-8,2.32-16.12,3.83-24.43.3-1.67.71-3.44,1.09-5.25C41.54,57.57,30.08,45.29,21.49,33c0,14.73,14.32,12.28,11.46,24.56-1.44,4.91-4.3-12.28-10-7.37,5.73,2.46,10,17.19,2.86,22.1,4.3,2.45,4.3-4.91,7.17-7.37v4.91c5.73-12.27-1.44-29.46-10-29.46,4.3,0,7.16,0,10,4.91,7.16,14.73,1.43,29.46-4.3,39.29a11.25,11.25,0,0,0-.4,3.68c.13,3.68,1.47,7.37.4,11-1.43,4.91-2.87,9.82-5.59,12.44a26,26,0,0,0-1.57,4.75c.59-1.23,1.13-2.54,2-4.09,4-7.78,6.4-17.19,8-27.12.26-1.65.52-3.34.85-5.15,7.86-15.21,2.13-44.67-10.76-39.76,7.16,2.45,15.75,9.82,12.89,24.55C33,62.48,31.51,57.57,30.08,60c0,2.46,0,7.37-1.43,9.82,1.43-2.45,1.43-9.82,2.86-12.27C33,60,33,64.93,33,67.39c2.86-2.46,1.43-7.37,1.43-9.82C33,45.29,27.22,40.38,21.49,40.38c5.73-2.46,10,2.45,12.89,9.82,2.86,9.82,2.86,22.1-2.47,30.4-.47,1.9-.84,3.69-1.2,5.48C28.89,95,27,103.93,26.84,112l-.3,3.18c-1.48,17-4.1,34.92-2.19,48,2.87-4.91,2.87-12.28,2.87-19.64,0,7.36,0,14.73-4.3,19.64-.65-13.26,2.48-32,3.9-49.47a27.74,27.74,0,0,1,.46-3.1c.49-7.53,2.45-16.13,4.18-24.86.34-1.75.68-3.5,1.1-5.37,9-20.33-1.05-37.52-11.07-44.88C24.35,47.74,40.11,50.2,33,67.39c-1.44-4.91-1.44-9.82-2.87-14.73,0,7.36,1.43,14.73-2.86,22.09,1.43-4.91,2.86-12.27,4.29-17.18C34.38,60,33,64.93,33,69.84c7.16-17.18-5.73-24.55-11.46-34.37,4.29,9.82,12.89,7.36,14.32,19.64,1.43,9.82-1.43,17.19-3.92,27.5q-.53,2.64-1.16,5.27c-2.1,8.74-4.89,17.18-7.25,24.47-.85,1.59-1.4,2.92-2,4.15a29,29,0,0,1,1.67-5.23c2.52-8.86,5.68-18.82,7.83-28.89.32-1,.56-2,.8-3,4-7.1,5.45-19.38,2.59-29.2-2.87-4.91-5.73-9.82-10-9.82,10,0,12.89,22.1,7.16,31.92,1.44-2.46,2.87-7.37,0-9.82-1.43,4.91-4.29,9.82-7.16,12.27,2.87-2.45,4.3-4.91,5.73-9.82,1.43-12.27-4.3-12.27-8.59-14.73,5.73-2.46,10,2.46,11.46,12.28,2.86-14.74-5.73-22.1-11.46-22.1C37.24,37.92,38.68,69.84,31,84.2c-.33,1.69-.66,3.38-1,5.06-1.24,6.75-2.23,13.43-2,19.69a47,47,0,0,0,.14,6A542.55,542.55,0,0,1,24.63,227a35.77,35.77,0,0,0-1.26,5.69c-2.16,14.65-6,28.3-13.34,40.92-2.87,4.92,0,36.84,8.59,31.93,5.73-4.92,0-24.56-5.73-31.93-1.43,9.83,10,27,1.43,22.1-2.86-2.45-5.73-19.64-1.43-27,5.73-12.27,12.89-22.09,11.46-39.28,2.87,12.27-4.3,27-1.43,39.28-7.16-7.36,1.43-14.73,1.43-24.55,0,12.28-11.46,19.64-8.59,27,4.29,14.73,8.59,27,5.73,39.29-1.44,2.45-4.3,7.36-7.17,4.91-8.59-9.82-10-29.47-7.16-39.29,5.25-18,15.32-25.7,17-45.77a19.23,19.23,0,0,1,.67-3.47c-.44-2.32,1-2.32,1-4.78-1.43,2.46-2.86,4.91-4.56,8.34a24.7,24.7,0,0,0-1.88,3.94c-1.43,3.68-2.87,7.36-5,9.82-1.43,0-5.73-4.91-4.29-7.37a42.21,42.21,0,0,0,3.72-4.4,25.59,25.59,0,0,1,2.08-1.54C32.27,203.38,31,155,27.61,111.81a23.2,23.2,0,0,1,.19-3.51c2.57-7,2.79-13.5,2.89-20.14,0-1.67,0-3.34.1-5,9.32-18.21,3.59-42.76-9.3-47.67C22.92,50.2,37.24,42.83,34.38,60l-2.87-4.91c-2.86,4.91,0,14.73-5.73,17.19,4.3,2.45,4.3-4.91,7.17-7.37v4.91c5.73-12.27-1.44-29.46-10-29.46,15.76,0,12.89,27,7.91,43.08q-.57,2.51-1.2,5c-2.12,8.25-4.74,16.24-6.82,23.32a20.37,20.37,0,0,0-1.32,4.74,33.35,33.35,0,0,1,1.81-4.66c1.4-6.23,4.12-14.31,6.46-22.9.47-1.72.93-3.45,1.35-5.2,7.57-16.35,6.13-45.82-9.62-43.36C30.08,42.83,38.68,52.66,33,69.84c1.43-7.36-1.44-12.27-2.87-17.18,0,4.91,1.43,12.27-1.43,17.18,1.43-2.45,1.43-9.82,2.86-12.27,2.87,0,1.44,7.36,1.44,9.82,7.16-19.65-7.17-19.65-11.46-31.92,10,7.36,20.05,24.55,11.06,45.05-.41,1.89-.75,3.66-1.1,5.44-1.73,8.86-3.69,17.66-4.18,25.52-.1,1-.19,2-.26,3-1.26,16.11-4.09,33.09-4.09,46.18,2.86-2.45,2.86-7.36,2.86-12.27,1.44,4.91-1.43,4.91-1.43,9.82-.68-12.76,2.48-30.44,3.59-47.1a28.94,28.94,0,0,1,.81-3.55c3.5-6.9,1.1-14.87,1-21.6A14.18,14.18,0,0,1,30.22,82c4.16-9.74,8.46-17.11,5.59-29.38C33,42.83,27.22,40.38,21.49,35.47c5.73,9.82,15.75,9.82,12.89,29.46C31.51,60,31.51,52.66,27.22,50.2c4.29,4.91,2.86,9.82,2.86,17.19,0-2.46-1.43-9.82,1.43-9.82,4.3,2.45-1.43,12.27,0,9.82,8.6-9.82-1.43-24.56-10-27,4.29,0,8.59,0,11.46,4.91,5.73,9.82,2.86,27-1.11,36.56-.48,1.85-.92,3.63-1.37,5.4-2.28,8.84-5.09,17.48-6.91,24.58a48.15,48.15,0,0,0-2.07,4.67,10.55,10.55,0,0,1,.55-3.8c1.85-6.53,4.5-14.49,6.75-22.81.45-1.67.89-3.34,1.29-5,5.73-12.56,8.6-32.2-1.43-42H22.92c4.3,0,7.16,0,10,4.91,5.73,9.83-1.44,17.19-4.3,27-2.87-7.36,5.73-17.18-1.43-24.55,2.86,2.46,5.73,7.37,7.16,12.28,1.43-12.28-4.3-17.19-11.46-19.65-2.87-2.45-1.43-7.36,0-9.82,10,12.28,18.62,29.47,9,48.82-.38,1.78-.68,3.49-1,5.2a114,114,0,0,0-2.11,20.07c-.33,1.33-.57,2.57-.76,3.68.88,29.78,1,58.75-2.34,89.2-1.43,9.82-8.59,17.19-14.32,9.82-1.43,0,2.86-9.82,0-14.73,16.23-16.37,19.1-48,17.08-78.94-.12-1.93-.27-3.86-.39-5.8-.34-7.45,1.28-16.3,2.9-25.17.33-1.78.73-3.61,1.16-5.5,3.6-7.36,5-17.18,3.6-27C33,45.29,27.22,37.92,21.49,40.38c7.16,0,12.89,9.82,12.89,22.1-2.87-7.37-5.73-14.74-12.89-12.28,10,0,11.46,19.64,2.86,27,4.3,0,4.3-12.28,10-9.82,1.43-14.73-2.87-24.56-10-27,14.33,2.45,12.89,31.92,6,43.94-.41,1.56-.84,3.12-1.28,4.68-2.2,7.76-4.66,15.3-6.22,22.17A17,17,0,0,0,21.49,114c.35-.61.93-1.3,1.45-2.05,1.41-2.86,4.28-5.31,4.28-10.23-1.44,2.46-4.3,4.92-4.3,9.83a278.8,278.8,0,0,0,7.93-26.94c.37-1.65.83-3.41,1.23-5.2,3.73-4.7,5.16-14.52,3.73-21.88-1.43-9.83-7.16-17.19-12.89-14.74,4.3,0,7.16,0,10,4.91,5.73,12.28,0,19.65-5.73,27,4.29-7.36,2.86-14.73,2.86-22.09,2.87,2.45,1.43,9.82,4.3,12.27,4.3-19.64-10-14.73-12.89-27,7.16,0,11.46,7.37,14.32,17.19,1.43,9.82-1.43,19.64-4.26,27-.28,1.67-.47,3.3-.65,4.94-.87,8.16-1.14,16.21-2.76,23.61-.11,1.65-.19,3.28-.28,4.91-.56,9.82-1.26,19.89-.64,30.41,1.43,12.28-5.73,41.74-17.19,24.56,2.86-4.91,8.59-7.37,7.16-17.19-3.22-12.89,6.45-24.4,9.67-39.71.21-.87.4-1.75.62-2.7,2.6-6.7,2.6-14.07,2.6-21.43,1.43,9.82-1.43,14.73-4.71,22a24.31,24.31,0,0,0-1,3.1c-2.24,9.43-5.6,16.33-10.08,11.73-2.68-2.76-2.14-6.56-.57-11A11.45,11.45,0,0,1,16.2,111c6.24-3.31,8.54-12.72,9.92-22.46.2-1.39.38-2.79.64-4.19.46-2.23,1.89-2.23,1.89-4.68-2.87,0-2.87,4.91-5.78,5.27a30.92,30.92,0,0,1-2.28,2.4c-2.33,2.15-4.83,3.37-7.7,2.15a23.53,23.53,0,0,1-1.65-2.17,31.48,31.48,0,0,1-1.62-2.74c.41,0-1-2.46-1-2.46a7.65,7.65,0,0,0,5.49-2.45,7.82,7.82,0,0,1,2.65-2.14c6.19-2.78,13.35-7.69,11.92-20,0-4.91-2.87-7.37-5.73-7.37,2.86-4.91,5.73,0,8.59-2.46-8.59-4.91-10-7.36-12.89-19.64-2.86,2.46-2.86,9.82-5.73,9.82C20.05,25.65,15.76-3.82,4.3,3.55c4.29-4.91,10,2.45,11.46,7.36,4.29,14.74-10,36.83,2.86,44.2-5.73,2.46-5.73-7.37-7.16-12.28,0-12.27,8.59-22.1,2.86-34.37C10,1.09,5.73,1.09,0,3.55c5.73-7.37,12.89-2.46,15.76,7.36,4.29,9.82-2.87,19.65-1.44,29.47,2.87-4.91,1.44-17.19,7.17-12.28,10,7.37,18.62,24.56,15.21,46.41-.22,2.08-.31,3.95-.42,5.83-.41,7.51-1.05,15.13-1.28,22.43,0,1.84,0,3.71,0,5.63V495Z"/><path class="cls-2" d="M24.57,495H35.21c4.29-12.64-2.87-37.2,11.45-37.2,1.43,0,2.87,2.46,4.3,4.91-10-17.18-30.08-9.82-14.33-39.28,4.3-7.37,10-7.37,14.33,0,0,2.45,2.86,7.36,0,9.82-2.87-9.82-12.89-14.73-12.89-4.91-1.44,12.27,8.59,17.19,14.32,12.27,4.3-2.45,1.43-19.64-4.3-24.55-4.29-2.46-10,0-14,5.06a12.88,12.88,0,0,1-.56-3.49,52.87,52.87,0,0,1,.78-11.71c.26-1.52.57-3.06.93-4.59-5-6.45-6.74-16.65-6.13-25.68.09-1.29.22-2.56.4-3.79,4.3-22.1,2.87-44.2,2.87-68.75,0-9.82,1.43-17.19,4.29-27-8.59,27,2.87,46.65,15.76,61.39,0,2.45-1.43,7.36-2.86,7.36-5.73,2.46-10-7.36-11.46-14.73,2.86,0,7.16,0,7.16,7.37h-4.3c2.87,4.91,5.73,4.91,8.6,4.91C43.8,320.3,25.17,308,36.63,278.56,28,308,29.47,362,46.66,379.23,28,362,29.47,305.57,36.63,276.1c-5.73,19.64-2.86,46.65,11.46,54,1.44,2.46,4.3,7.37,2.87,12.28-2.87,4.91-7.16,2.45-10-4.91L42.36,335c0-2.45-2.86-4.91-4.29-4.91,1.43,7.37,8.59,24.55,14.32,9.82a25.68,25.68,0,0,0-2.86-9.82c-15.76-4.91-18.63-34.38-12.9-54-2.86,7.37-5.73,17.19-4.29,27,0,24.55,1.43,46.65-1.44,71.21a31.17,31.17,0,0,0-.47,3.85c-.4,6.65,1.19,14.15,4.77,18.25,5.73,7.36,12.89,4.91,17.24-1.42a14.68,14.68,0,0,1,1.45,2.76c1.7,4.22,2.14,9.85,1.72,15.16a13.69,13.69,0,0,0,0,3.71c5.33,11.71-.4,24-1.84,36.26-1.43-2.45-4.29-4.91-5.73-7.36,7.17,4.91,8.6-9.83,7.17-17.19-1.44-12.28-8.6-14.74-14.33-17.19a22,22,0,0,1,1.32-3.49c1.55-3.11,3.7-4.49,5.84,1-.71-3.07-1.43-4.91-2.14-5.87a11.74,11.74,0,0,0-3-.54c-9.2-.95-.61,1.5-.61,1.5-.47.69-1,1.5-1.43,2.36s-1,1.74-1.43,2.55a12.68,12.68,0,0,0-1.41,3.3,7.06,7.06,0,0,0-.16,2.79c7.3-3.63,18.76,3.74,17.33,20.92s-10,0-15.76,7.37c5.73,2.46,11.46,2.46,14.32,12.28,2.87-9.82,7.17-22.1,3.53-34.64a10.81,10.81,0,0,1-.15-4.3,34.11,34.11,0,0,0,.92-5.26A40.83,40.83,0,0,0,56,398a30.59,30.59,0,0,0-1.55-3.71c-4.87,2.13-7.74,9.49-13.47,7s-11.46-12.28-10-24.56c.12-.82.27-1.6.45-2.35,0-1.19-.08-2.64-.22-4.41-1.66-17.79,5.5-35,1.21-52.17-4.3-14.73,0-29.46,4.29-41.74-8.59,27,2.87,46.65,15.76,61.39,0,2.45-1.43,7.36-2.86,7.36-5.73,2.46-8.6-7.36-11.46-14.73,1.43,2.46,5.73,0,5.73,4.91,0,2.46-4.3-2.45-2.87,2.46s4.3,4.91,7.16,7.36c4.3,0,2.87-7.36,2.87-9.82C38.07,325.21,28,300.65,36.63,278.56,28,308,29.47,362,47,380.11c1.13.69.86,2.09.39,3.31a8.14,8.14,0,0,1-2.18,3.18c-2.15,1.84-5.1.92-6.45-2.77-.26-.63-.47-1.35-.75-2.23,0-2.37-1.4-4.83-2.83-7.28,1.43,2.45,2.87,4.91,5.73,4.91-10-27-14.32-68.75-4.3-100.67-10,24.55,2.87,46.65,14.33,58.93C39.5,322.75,28,303.11,36.63,276.1,26.61,308,35.2,342.4,34,377a13.13,13.13,0,0,1,.35,3.13c-.5,7.67,2.63,16.31,8,16.31,5,0,11.13-7.52,11.62-17.63a19.41,19.41,0,0,0-.24-4.37c-5.65,7.26-12.81-.1-14.24-7.47-5.73-27-12.89-58.93-4.3-85.94-4.3,22.1,0,44.2,14.33,51.57,1.43,2.45-1.44,7.36-1.44,9.82-2.86-22.1-21.48-29.47-12.89-56.48-7.16,22.1-5.73,61.39,10,73.67-10-12.28-12.89-31.93-12.89-51.57a72.23,72.23,0,0,0,10,36.83c4.3,7.37,12.9,2.46,12.9-9.82-1.44-7.37-5.73-9.82-10-9.82-4.3-2.46-5.73-9.82-8.6-14.73C28,285.92,51,271.19,38.07,254c1.43,14.73-2.87,27-8.57,36.65a23.61,23.61,0,0,1-.37-3.6c-.28-7.71,1.75-16.11,5.49-21.06a28.45,28.45,0,0,0,2.12-2.94c-.9-11-1.76-21.44-2.32-32.13a31.65,31.65,0,0,0-.71-5.38c-4.36-36.66-2.83-74.18-1.23-110.78a24.42,24.42,0,0,0-.32-6c-.52-8-2.32-16.12-3.82-24.43-.31-1.67-.72-3.44-1.09-5.25C18,57.57,29.47,45.29,38.07,33c0,14.73-14.33,12.28-11.46,24.56,1.43,4.91,4.29-12.28,10-7.37-5.73,2.46-10,17.19-2.86,22.1-4.3,2.45-4.3-4.91-7.16-7.37v4.91c-5.73-12.27,1.43-29.46,10-29.46-4.29,0-7.16,0-10,4.91C19.45,60,25.17,74.75,30.9,84.58a11.54,11.54,0,0,1,.41,3.68c-.14,3.68-1.48,7.37-.41,11,1.44,4.91,2.87,9.82,5.59,12.44a26.86,26.86,0,0,1,1.58,4.75c-.6-1.23-1.14-2.54-2-4.09-4-7.78-6.41-17.19-8-27.12-.25-1.65-.52-3.34-.85-5.15-7.85-15.21-2.13-44.67,10.77-39.76-7.17,2.45-15.76,9.82-12.9,24.55,1.44-2.45,2.87-7.36,4.3-4.91,0,2.46,0,7.37,1.43,9.82C29.47,67.39,29.47,60,28,57.57c-1.43,2.45-1.43,7.36-1.43,9.82-2.87-2.46-1.44-7.37-1.44-9.82,1.44-12.28,7.17-17.19,12.9-17.19-5.73-2.46-10,2.45-12.9,9.82C22.31,60,22.31,72.3,27.64,80.6c.48,1.9.84,3.69,1.21,5.48C30.66,95,32.58,103.93,32.71,112c.1,1.06.21,2.12.3,3.18,1.48,17,4.1,34.92,2.19,48-2.86-4.91-2.86-12.28-2.86-19.64,0,7.36,0,14.73,4.29,19.64.65-13.26-2.48-32-3.89-49.47a27.89,27.89,0,0,0-.47-3.1c-.48-7.53-2.44-16.13-4.17-24.86-.35-1.75-.69-3.5-1.11-5.37C18,60,28,42.83,38.07,35.47,35.2,47.74,19.45,50.2,26.61,67.39,28,62.48,28,57.57,29.47,52.66c0,7.36-1.43,14.73,2.87,22.09C30.9,69.84,29.47,62.48,28,57.57c-2.87,2.45-1.43,7.36-1.43,12.27-7.16-17.18,5.73-24.55,11.46-34.37-4.3,9.82-12.9,7.36-14.33,19.64-1.43,9.82,1.43,17.19,3.92,27.5q.53,2.64,1.16,5.27c2.1,8.74,4.89,17.18,7.25,24.47.85,1.59,1.4,2.92,2,4.15a29.93,29.93,0,0,0-1.68-5.23c-2.51-8.86-5.68-18.82-7.82-28.89-.32-1-.57-2-.8-3-4-7.1-5.46-19.38-2.6-29.2,2.87-4.91,5.73-9.82,10-9.82-10,0-12.89,22.1-7.16,31.92-1.43-2.46-2.87-7.37,0-9.82,1.43,4.91,4.3,9.82,7.16,12.27-2.86-2.45-4.3-4.91-5.73-9.82C28,52.66,33.77,52.66,38.07,50.2c-5.73-2.46-10,2.46-11.46,12.28-2.87-14.74,5.73-22.1,11.46-22.1C22.31,37.92,20.88,69.84,28.52,84.2c.32,1.69.65,3.38,1,5.06,1.24,6.75,2.24,13.43,2,19.69a47,47,0,0,1-.14,6A543.25,543.25,0,0,0,34.92,227a35.77,35.77,0,0,1,1.26,5.69c2.16,14.65,6,28.3,13.35,40.92,2.86,4.92,0,36.84-8.6,31.93-5.73-4.92,0-24.56,5.73-31.93,1.43,9.83-10,27-1.43,22.1,2.86-2.45,5.73-19.64,1.43-27-5.73-12.27-12.89-22.09-11.46-39.28-2.86,12.27,4.3,27,1.43,39.28,7.17-7.36-1.43-14.73-1.43-24.55,0,12.28,11.46,19.64,8.6,27-4.3,14.73-8.6,27-5.73,39.29,1.43,2.45,4.29,7.36,7.16,4.91,8.59-9.82,10-29.47,7.16-39.29-5.25-18-15.32-25.7-17-45.77a18.38,18.38,0,0,0-.67-3.47c.44-2.32-1-2.32-1-4.78,1.43,2.46,2.86,4.91,4.56,8.34a24,24,0,0,1,1.89,3.94c1.43,3.68,2.86,7.36,5,9.82,1.43,0,5.73-4.91,4.3-7.37a41.11,41.11,0,0,1-3.73-4.4,24,24,0,0,0-2.08-1.54C27.28,203.38,28.53,155,31.94,111.81a20.86,20.86,0,0,0-.19-3.51c-2.57-7-2.78-13.5-2.89-20.14,0-1.67,0-3.34-.09-5-9.32-18.21-3.6-42.76,9.3-47.67C36.63,50.2,22.31,42.83,25.17,60L28,55.11C30.9,60,28,69.84,33.77,72.3c-4.3,2.45-4.3-4.91-7.16-7.37v4.91c-5.73-12.27,1.43-29.46,10-29.46-15.75,0-12.89,27-7.91,43.08q.57,2.51,1.2,5c2.12,8.25,4.74,16.24,6.83,23.32a20.88,20.88,0,0,1,1.32,4.74,33.5,33.5,0,0,0-1.82-4.66c-1.4-6.23-4.12-14.31-6.46-22.9q-.7-2.58-1.35-5.2c-7.56-16.35-6.13-45.82,9.63-43.36-8.6,2.45-17.19,12.28-11.46,29.46C25.17,62.48,28,57.57,29.47,52.66c0,4.91-1.43,12.27,1.43,17.18C29.47,67.39,29.47,60,28,57.57c-2.87,0-1.43,7.36-1.43,9.82-7.16-19.65,7.16-19.65,11.46-31.92C28,42.83,18,60,27,80.52c.42,1.89.75,3.66,1.1,5.44,1.73,8.86,3.69,17.66,4.18,25.52q.15,1.51.27,3c1.25,16.11,4.08,33.09,4.08,46.18-2.86-2.45-2.86-7.36-2.86-12.27-1.43,4.91,1.43,4.91,1.43,9.82.68-12.76-2.48-30.44-3.59-47.1a28.94,28.94,0,0,0-.81-3.55c-3.49-6.9-1.09-14.87-1-21.6A14.18,14.18,0,0,0,29.33,82c-4.16-9.74-8.45-17.11-5.59-29.38,2.87-9.83,8.6-12.28,14.33-17.19-5.73,9.82-15.76,9.82-12.9,29.46C28,60,28,52.66,32.34,50.2,28,55.11,29.47,60,29.47,67.39c0-2.46,1.43-9.82-1.43-9.82-4.3,2.45,1.43,12.27,0,9.82-8.59-9.82,1.43-24.56,10-27-4.3,0-8.6,0-11.46,4.91-5.73,9.82-2.87,27,1.1,36.56.48,1.85.92,3.63,1.37,5.4,2.28,8.84,5.09,17.48,6.91,24.58a51,51,0,0,1,2.08,4.67,10.57,10.57,0,0,0-.56-3.8c-1.85-6.53-4.5-14.49-6.75-22.81-.45-1.67-.88-3.34-1.29-5-5.73-12.56-8.59-32.2,1.43-42h5.73c-4.29,0-7.16,0-10,4.91-5.73,9.83,1.43,17.19,4.29,27,2.87-7.36-5.73-17.18,1.44-24.55-2.87,2.46-5.73,7.37-7.17,12.28-1.43-12.28,4.3-17.19,11.46-19.65,2.87-2.45,1.44-7.36,0-9.82-10,12.28-18.62,29.47-9,48.82.38,1.78.68,3.49,1,5.2a114,114,0,0,1,2.11,20.07c.33,1.33.57,2.57.77,3.68-.89,29.78-1,58.75,2.33,89.2,1.43,9.82,8.59,17.19,14.32,9.82,1.44,0-2.86-9.82,0-14.73C31.86,178.7,29,147.05,31,116.13c.13-1.93.27-3.86.4-5.8.33-7.45-1.29-16.3-2.91-25.17-.32-1.78-.72-3.61-1.15-5.5-3.61-7.36-5-17.18-3.61-27,2.87-7.37,8.6-14.74,14.33-12.28-7.17,0-12.9,9.82-12.9,22.1C28,55.11,30.9,47.74,38.07,50.2c-10,0-11.46,19.64-2.87,27-4.3,0-4.3-12.28-10-9.82-1.43-14.73,2.87-24.56,10-27-14.32,2.45-12.89,31.92-6,43.94.4,1.56.83,3.12,1.27,4.68,2.2,7.76,4.66,15.3,6.22,22.17A17.08,17.08,0,0,1,38.07,114c-.36-.61-.93-1.3-1.46-2.05-1.41-2.86-4.27-5.31-4.27-10.23,1.43,2.46,4.29,4.92,4.29,9.83A278.8,278.8,0,0,1,28.7,84.65c-.37-1.65-.82-3.41-1.23-5.2-3.73-4.7-5.16-14.52-3.73-21.88,1.43-9.83,7.16-17.19,12.89-14.74-4.29,0-7.16,0-10,4.91-5.73,12.28,0,19.65,5.73,27C28,67.39,29.47,60,29.47,52.66c-2.86,2.45-1.43,9.82-4.3,12.27-4.29-19.64,10-14.73,12.9-27-7.17,0-11.46,7.37-14.33,17.19-1.43,9.82,1.43,19.64,4.26,27,.28,1.67.48,3.3.65,4.94.88,8.16,1.15,16.21,2.76,23.61.11,1.65.2,3.28.29,4.91.55,9.82,1.25,19.89.64,30.41-1.44,12.28,5.73,41.74,17.19,24.56-2.87-4.91-8.6-7.37-7.17-17.19,3.23-12.89-6.44-24.4-9.66-39.71-.22-.87-.4-1.75-.63-2.7-2.6-6.7-2.6-14.07-2.6-21.43-1.43,9.82,1.43,14.73,4.71,22a26.23,26.23,0,0,1,1,3.1c2.24,9.43,5.59,16.33,10.07,11.73,2.68-2.76,2.15-6.56.58-11A11.48,11.48,0,0,0,43.35,111c-6.24-3.31-8.54-12.72-9.92-22.46-.2-1.39-.37-2.79-.63-4.19-.46-2.23-1.9-2.23-1.9-4.68,2.87,0,2.87,4.91,5.79,5.27A30.84,30.84,0,0,0,39,87.34c2.33,2.15,4.84,3.37,7.7,2.15a21.88,21.88,0,0,0,1.65-2.17,29.15,29.15,0,0,0,1.62-2.74c-.4,0,1-2.46,1-2.46a7.61,7.61,0,0,1-5.48-2.45,8,8,0,0,0-2.65-2.14c-6.2-2.78-13.36-7.69-11.93-20,0-4.91,2.87-7.37,5.73-7.37-2.86-4.91-5.73,0-8.59-2.46,8.59-4.91,10-7.36,12.89-19.64,2.87,2.46,2.87,9.82,5.73,9.82C39.5,25.65,43.8-3.82,55.26,3.55,51-1.36,45.23,6,43.8,10.91c-4.3,14.74,10,36.83-2.87,44.2,5.73,2.46,5.73-7.37,7.16-12.28,0-12.27-8.59-22.1-2.86-34.37,4.3-7.37,8.59-7.37,14.32-4.91C53.82-3.82,46.66,1.09,43.8,10.91c-4.3,9.82,2.86,19.65,1.43,29.47-2.87-4.91-1.43-17.19-7.16-12.28C28,35.47,19.45,52.66,22.85,74.51c.22,2.08.31,3.95.42,5.83.42,7.51,1.05,15.13,1.28,22.43,0,1.84,0,3.71,0,5.63V495Z"/></g></g></g></svg>