<svg xmlns="http://www.w3.org/2000/svg" viewBox="0 0 91.39 684"><defs><style>.cls-1{fill:#fff;stroke:#fff;stroke-miterlimit:10;opacity:0.45;}</style></defs><title>column-left</title><g id="Layer_2" data-name="Layer 2"><g id="Layer_1-2" data-name="Layer 1"><path class="cls-1" d="M85,683.5H59.85c-10.14-17.44,6.8-51.32-27.08-51.32-3.39,0-6.77,3.38-10.16,6.77,23.71-23.71,71.15-13.55,33.88-54.21-10.17-10.16-23.72-10.16-33.88,0,0,3.39-6.78,10.17,0,13.56C29.38,584.74,53.1,578,53.1,591.52c3.39,16.94-20.33,23.72-33.88,16.94-10.16-3.39-3.39-27.1,10.16-33.88,10.17-3.39,23.72,0,33.23,7a11.67,11.67,0,0,0,1.31-4.82,43,43,0,0,0-1.84-16.16c-.61-2.1-1.36-4.22-2.2-6.34,11.85-8.89,15.93-23,14.5-35.43a42.17,42.17,0,0,0-.95-5.22c-10.17-30.5-6.78-61-6.78-94.87,0-13.55-3.39-23.72-10.16-37.27,20.33,37.27-6.78,64.37-37.27,84.7,0,3.39,3.39,10.17,6.78,10.17,13.55,3.38,23.71-10.17,27.1-20.33-6.78,0-16.94,0-16.94,10.16H46.32c-6.77,6.78-13.55,6.78-20.32,6.78,13.55-30.49,57.59-47.43,30.49-88.09C76.82,425.51,73.43,500,32.77,523.76c44-23.72,40.66-101.64,23.72-142.3C70,408.57,63.26,445.83,29.38,456c-3.38,3.39-10.16,10.16-6.77,16.94,6.77,6.77,16.94,3.39,23.71-6.78l-3.38-3.39c0-3.38,6.77-6.77,10.16-6.77-3.39,10.16-20.33,33.88-33.88,13.55,0-3.39,3.39-10.16,6.78-13.55,37.26-6.78,44-47.43,30.49-74.54,6.77,10.17,13.55,23.72,10.16,37.27,0,33.88-3.39,64.37,3.39,98.25a24.8,24.8,0,0,1,1.13,5.32c.94,9.18-2.82,19.53-11.29,25.18-13.56,10.16-30.5,6.77-40.77-2a19.87,19.87,0,0,0-3.42,3.81c-4,5.82-5.07,13.59-4.08,20.92a11.31,11.31,0,0,1-.11,5.12c-12.61,16.15.94,33.09,4.33,50C19.22,622,26,618.62,29.38,615.24,12.44,622,9.06,601.68,12.44,591.52c3.39-16.94,20.33-20.33,33.88-23.72A23.89,23.89,0,0,0,43.2,563c-3.65-4.29-8.73-6.2-13.82,1.43,1.7-4.24,3.39-6.78,5.09-8.1a43.71,43.71,0,0,1,7-.76c21.75-1.31,1.43,2.08,1.43,2.08a40.74,40.74,0,0,1,3.38,3.25c1.13,1.17,2.26,2.4,3.39,3.53A14.68,14.68,0,0,1,53.05,569a5.79,5.79,0,0,1,.37,3.84c-17.26-5-44.36,5.16-41,28.87s23.72,0,37.27,10.17c-13.55,3.39-27.1,3.39-33.88,16.94C9.06,615.24-1.11,598.3,7.48,581c.91-3.13.86-4.8.36-5.93a30,30,0,0,1-2.17-7.26,35.9,35.9,0,0,1,5.14-18.15,36.43,36.43,0,0,1,3.65-5.11c11.54,2.94,18.31,13.1,31.86,9.71S73.43,537.31,70,520.37A23.6,23.6,0,0,0,69,517.13a42.46,42.46,0,0,1,.52-6.09c3.92-24.55-13-48.27-2.86-72,10.17-20.33,0-40.66-10.16-57.6,20.33,37.27-6.78,64.37-37.27,84.7,0,3.39,3.39,10.17,6.78,10.17,13.55,3.38,20.32-10.17,27.1-20.33-3.39,3.39-13.55,0-13.55,6.77,0,3.39,10.16-3.38,6.77,3.39s-10.16,6.78-16.94,10.17c-10.16,0-6.77-10.17-6.77-13.56,30.49-13.55,54.21-47.43,33.88-77.92C76.82,425.51,73.43,500,31.91,525c-2.65.95-2,2.88-.91,4.57a13.51,13.51,0,0,0,5.16,4.37c5.08,2.54,12.07,1.27,15.25-3.81A35.41,35.41,0,0,0,53.2,527c-.1-3.27,3.29-6.66,6.68-10-3.39,3.39-6.78,6.78-13.56,6.78C70,486.49,80.2,428.89,56.49,384.85c23.71,33.88-6.78,64.37-33.88,81.31,27.1-20.33,54.21-47.43,33.88-84.7,23.71,44.05,3.39,91.48,6.21,139.2a10.7,10.7,0,0,0-.84,4.32c1.19,10.58-6.22,22.5-18.92,22.5-11.86,0-26.31-10.38-27.47-24.32a15.72,15.72,0,0,1,.56-6c13.35,10,30.29-.14,33.68-10.3,13.55-37.27,30.49-81.31,10.17-118.58,10.16,30.49,0,61-33.88,71.15-3.39,3.38,3.38,10.16,3.38,13.55,6.78-30.49,50.82-40.66,30.5-77.93,16.94,30.5,13.55,84.7-23.72,101.64,23.72-16.94,30.49-44,30.49-71.14,0,20.32-10.16,37.26-23.71,50.82-10.17,10.16-30.5,3.38-30.5-13.56,3.39-10.16,13.56-13.55,23.72-13.55,10.16-3.39,13.55-13.55,20.33-20.33C76.82,395,22.61,374.69,53.1,351c-3.39,20.33,6.78,37.27,20.27,50.56a20,20,0,0,0,.86-4.95,34.89,34.89,0,0,0-13-29.07,49.84,49.84,0,0,1-5-4.05c2.12-15.19,4.16-29.59,5.49-44.33a26.56,26.56,0,0,1,1.67-7.43c10.32-50.58,6.69-102.35,2.92-152.85a20,20,0,0,1,.75-8.28c1.24-11.08,5.49-22.25,9.05-33.72.71-2.29,1.68-4.74,2.57-7.23C100.53,79.93,73.43,63,53.1,46.05,53.1,66.38,87,63,80.2,79.93,76.82,86.71,70,63,56.49,69.77,70,73.15,80.2,93.48,63.26,100.26c10.17,3.39,10.17-6.78,16.94-10.17v6.78c13.56-16.94-3.38-40.66-23.71-40.66,10.16,0,16.94,0,23.71,6.78,17,20.33,3.39,40.66-10.16,54.21a9.61,9.61,0,0,0-1,5.08c.32,5.08,3.49,10.16,1,15.25-3.39,6.77-6.78,13.55-13.22,17.16a28.23,28.23,0,0,0-3.72,6.55c1.41-1.69,2.68-3.5,4.63-5.64,9.55-10.73,15.16-23.72,18.82-37.41.61-2.29,1.22-4.62,2-7.11,18.59-21,5-61.64-25.46-54.87C70,59.6,90.37,69.77,83.59,90.09c-3.39-3.38-6.77-10.16-10.16-6.77,0,3.39,0,10.16-3.39,13.55,3.39-3.39,3.39-13.55,6.78-16.94,3.38,3.39,3.38,10.16,3.38,13.55,6.78-3.39,3.39-10.16,3.39-13.55C80.2,63,66.65,56.21,53.1,56.21c13.55-3.38,23.72,3.39,30.49,13.56,6.78,13.55,6.78,30.49-5.83,41.94-1.12,2.63-2,5.1-2.85,7.56-4.3,12.33-8.82,24.63-9.14,35.69-.25,1.47-.49,2.94-.71,4.4-3.51,23.42-9.7,48.18-5.18,66.25,6.77-6.77,6.77-16.94,6.77-27.1,0,10.16,0,20.33-10.16,27.1-1.53-18.29,5.87-44.13,9.22-68.26a23.53,23.53,0,0,1,1.09-4.27c1.16-10.39,5.79-22.26,9.88-34.31.82-2.41,1.62-4.82,2.61-7.4C100.53,83.32,76.82,59.6,53.1,49.44c6.78,16.94,44.05,20.33,27.1,44-3.38-6.77-3.38-13.55-6.77-20.33,0,10.17,3.39,20.33-6.78,30.5C70,96.87,73.43,86.71,76.82,79.93c6.77,3.39,3.38,10.16,3.38,16.94C97.15,73.15,66.65,63,53.1,49.44,63.26,63,83.59,59.6,87,76.54c3.39,13.55-3.39,23.72-9.26,37.94-.84,2.44-1.77,4.86-2.76,7.28-5,12.06-11.57,23.71-17.14,33.77-2,2.18-3.31,4-4.72,5.71a30.86,30.86,0,0,1,4-7.21c5.95-12.22,13.44-26,18.51-39.87a45.12,45.12,0,0,0,1.9-4.11c9.51-9.79,12.9-26.73,6.12-40.28C76.82,63,70,56.21,59.88,56.21c23.71,0,30.49,30.5,16.94,44.05,3.38-3.39,6.77-10.17,0-13.55a40.92,40.92,0,0,1-16.94,16.94c6.77-3.39,10.16-6.78,13.55-13.56C76.82,73.15,63.26,73.15,53.1,69.77c13.55-3.39,23.72,3.38,27.1,16.94C87,66.38,66.65,56.21,53.1,56.21c37.27-3.38,40.66,40.66,22.59,60.47-.78,2.33-1.55,4.66-2.28,7-2.94,9.3-5.29,18.52-4.7,27.16a37.43,37.43,0,0,0,.32,8.29,440.37,440.37,0,0,1-8.49,154.63,32.4,32.4,0,0,0-3,7.85c-5.13,20.23-14.15,39-31.57,56.47-6.78,6.78,0,50.82,20.32,44.05,13.56-6.78,0-33.88-13.55-44.05-3.39,13.56,23.72,37.27,3.39,30.5-6.78-3.39-13.55-27.11-3.39-37.27,13.55-16.94,30.49-30.49,27.11-54.21,6.77,16.94-10.17,37.27-3.39,54.21-16.94-10.17,3.39-20.33,3.39-33.88,0,16.94-27.11,27.1-20.33,37.27C49.71,395,59.88,412,53.1,428.89c-3.39,3.39-10.16,10.17-16.94,6.78C15.83,422.12,12.44,395,19.22,381.46,31.64,356.62,55.45,346,59.34,318.31a16.65,16.65,0,0,1,1.58-4.79c-1-3.21,2.34-3.21,2.34-6.59-3.38,3.38-6.77,6.77-10.78,11.51A30.39,30.39,0,0,0,48,323.87C44.63,329,41.24,334,36.16,337.42c-3.39,0-13.55-6.78-10.16-10.17a82.24,82.24,0,0,0,8.81-6.07c1.54-.7,3-1.41,4.92-2.13,38.88-37.93,35.92-104.66,27.85-164.28a18.07,18.07,0,0,1,.46-4.84c6.08-9.59,6.58-18.62,6.83-27.79.07-2.3.11-4.6.23-6.92,22.05-25.13,8.49-59-22-65.78C56.49,69.77,90.37,59.6,83.59,83.32l-6.77-6.78c-6.78,6.78,0,20.33-13.56,23.72,10.17,3.39,10.17-6.78,16.94-10.17v6.78c13.56-16.94-3.38-40.66-23.71-40.66,37.27,0,30.49,37.27,18.71,59.45q-1.33,3.45-2.84,6.87c-5,11.38-11.2,22.41-16.14,32.17a20.48,20.48,0,0,0-3.12,6.54,38.64,38.64,0,0,1,4.29-6.42c3.31-8.6,9.76-19.74,15.29-31.6,1.11-2.37,2.18-4.77,3.18-7.18C93.76,93.48,90.37,52.83,53.1,56.21,73.43,59.6,93.76,73.15,80.2,96.87c3.39-10.16-3.38-16.94-6.77-23.72,0,6.78,3.39,16.94-3.39,23.72,3.39-3.39,3.39-13.55,6.78-16.94,6.77,0,3.38,10.16,3.38,13.55,17-27.1-16.94-27.1-27.1-44,23.72,10.16,47.43,33.88,26.18,62.17-1,2.6-1.78,5-2.6,7.49-4.1,12.23-8.73,24.38-9.89,35.21-.25,1.41-.45,2.8-.63,4.19-3,22.23-9.67,45.66-9.67,63.73,6.77-3.39,6.77-10.17,6.77-16.94,3.39,6.77-3.38,6.77-3.38,13.55-1.6-17.6,5.86-42,8.48-65a28.14,28.14,0,0,1,1.92-4.9c8.27-9.52,2.59-20.52,2.43-29.8a12,12,0,0,1,1.05-5.45c9.83-13.44,20-23.61,13.22-40.55C80.2,59.6,66.65,56.21,53.1,49.44,66.65,63,90.37,63,83.59,90.09c-6.77-6.77-6.77-16.94-16.94-20.32,10.17,6.77,6.78,13.55,6.78,23.71,0-3.39-3.39-13.55,3.39-13.55,10.16,3.39-3.39,16.94,0,13.55C97.15,79.93,73.43,59.6,53.1,56.21c10.16,0,20.33,0,27.1,6.78,13.56,13.55,6.78,37.27-2.61,50.45-1.14,2.56-2.17,5-3.24,7.45C69,133.09,62.31,145,58,154.81a63.31,63.31,0,0,0-4.91,6.43A9.15,9.15,0,0,1,54.41,156c4.37-9,10.64-20,16-31.48,1.06-2.3,2.09-4.61,3.06-6.94C87,100.26,93.76,73.15,70,59.6H56.49c10.16,0,16.94,0,23.71,6.78C93.76,79.93,76.82,90.09,70,103.65c-6.78-10.17,13.55-23.72-3.39-33.88A40.75,40.75,0,0,1,83.59,86.71C87,69.77,73.43,63,56.49,59.6c-6.78-3.39-3.39-10.16,0-13.55C80.2,63,100.53,86.71,77.88,113.4c-.9,2.46-1.61,4.82-2.3,7.18-2.77,9.43-5.15,18.81-5,27.69a47.3,47.3,0,0,0-1.8,5.08c2.09,41.1,2.35,81.07-5.53,123.08C59.88,290,42.94,300.15,29.38,290c-3.38,0,6.78-13.56,0-20.33,38.4-22.59,45.18-66.26,40.41-108.92-.3-2.67-.64-5.33-.93-8-.79-10.27,3-22.49,6.87-34.73.77-2.45,1.71-5,2.72-7.59A41.65,41.65,0,0,0,87,73.15C80.2,63,66.65,52.83,53.1,56.21a30.37,30.37,0,0,1,30.49,30.5C76.82,76.54,70,66.38,53.1,69.77c23.72,0,27.1,27.1,6.78,37.26C70,107,70,90.09,83.59,93.48,87,73.15,76.82,59.6,59.88,56.21c33.88,3.39,30.49,44.05,14.18,60.63-1,2.16-2,4.32-3,6.46-5.2,10.7-11,21.12-14.71,30.59-1.2,1.4-2.72,2.78-3.23,4,.85-.84,2.2-1.79,3.44-2.83,3.34-3.94,10.11-7.33,10.11-14.11-3.39,3.39-10.16,6.78-10.16,13.56C62.3,144.3,70,131,75.25,117.31c.88-2.29,2-4.71,2.91-7.18,8.82-6.48,12.21-20,8.82-30.2C83.59,66.38,70,56.21,56.49,59.6c10.16,0,16.94,0,23.71,6.78,13.56,16.94,0,27.1-13.55,37.27,10.17-10.17,6.78-20.33,6.78-30.5,6.77,3.39,3.39,13.56,10.16,16.94C93.76,63,59.88,69.77,53.1,52.83,70,52.83,80.2,63,87,76.54c3.39,13.55-3.39,27.11-10.07,37.23-.66,2.3-1.13,4.56-1.54,6.81-2.07,11.26-2.71,22.38-6.53,32.59-.25,2.26-.46,4.51-.68,6.77-1.3,13.54-3,27.44-1.51,42C70,218.84,53.1,259.49,26,235.78c6.77-6.78,20.32-10.17,16.94-23.72-7.63-17.78,15.24-33.67,22.87-54.79.5-1.2.94-2.41,1.47-3.73,6.15-9.24,6.15-19.4,6.15-29.57,3.39,13.56-3.39,20.33-11.14,30.36A25,25,0,0,0,60,158.62c-5.29,13-13.23,22.53-23.82,16.17-6.35-3.81-5.08-9-1.37-15.18a16.55,16.55,0,0,1,5.81-6c14.76-4.56,20.2-17.55,23.47-31,.46-1.92.88-3.85,1.5-5.78,1.08-3.07,4.47-3.07,4.47-6.46-6.78,0-6.78,6.78-13.68,7.28A61.19,61.19,0,0,1,51,121c-5.5,3-11.43,4.66-18.21,3a37.66,37.66,0,0,1-3.9-3A42.57,42.57,0,0,1,25,117.2c1,0-2.43-3.39-2.43-3.39a25.23,25.23,0,0,0,13-3.39c1.82-1.06,3.51-2.33,6.27-2.94C56.49,103.65,73.43,96.87,70,79.93c0-6.78-6.78-10.16-13.55-10.16,6.77-6.78,13.55,0,20.33-3.39C56.49,59.6,53.1,56.21,46.32,39.27c-6.77,3.39-6.77,13.56-13.55,13.56C49.71,35.89,39.55-4.77,12.44,5.39,22.61-1.38,36.16,8.78,39.55,15.56c10.16,20.33-23.72,50.82,6.77,61C32.77,79.93,32.77,66.38,29.38,59.6c0-16.94,20.33-30.49,6.78-47.43C26,2,15.83,2,2.28,5.39,15.83-4.77,32.77,2,39.55,15.56c10.16,13.55-6.78,27.1-3.39,40.65,6.78-6.77,3.39-23.71,16.94-16.94,23.72,10.17,44.05,33.88,36,64-.54,2.88-.75,5.45-1,8-1,10.36-2.49,20.88-3,31,0,2.54,0,5.12,0,7.77V683.5Z"/></g></g></svg>