<svg xmlns="http://www.w3.org/2000/svg" viewBox="0 0 1366 768"><defs><style>.cls-1{fill:#2b4738;}.cls-2{opacity:0.12;}.cls-3{fill:#fff;}.cls-4{fill:#231f20;}</style></defs><title>logo-background</title><g id="Layer_2" data-name="Layer 2"><g id="Layer_1-2" data-name="Layer 1"><rect class="cls-1" x="0.5" y="0.5" width="1365" height="767"/><path d="M1365,1V767H1V1H1365m1-1H0V768H1366V0Z"/><g class="cls-2"><path class="cls-3" d="M517.74,514c24.53-17.5,55.72-46,69.06-88.4,13.4-42.66-.45-70.12-5.92-114.33-12.2-98.6,23.11-225.94,98.51-265.3,38.85-20.27,114.35-17.35,122.12-16.45,1.3.15,5.12.59,5.11.68s-8.55-.58-9.07-.62c-12.19-1-65.11,1.65-92.64,14.27C632,77.22,603.72,159.78,594.74,186c-21.33,62.27-18.6,116.81-9.39,196,9.31,80.14,27.18,192.45,64.68,326.44-63.23-50.3-63.23-125.74-69.56-201.18-59.69,30.62-109.17,59.12-146.9,81.94-100,60.48-137.42,93.18-166.68,137.24A325.48,325.48,0,0,0,244,767c10.7-40.12,28.5-64.15,42.81-78.69,17.41-17.7,35.6-27.37,56.26-38.81,93.13-51.38,173.62-146.62,205.37-252.62a347.68,347.68,0,0,0,11.65-53.77,246.81,246.81,0,0,0,.9-55.91C548.86,180.37,492,79.78,391.33,29.9c-14.25-6.12-28.64-9.38-42.6-8.74a71.39,71.39,0,0,0-40.14,14.61c-37.93,31.44,0,132,44.26,182.32,19,18.86,45.86,31.45,72.07,45.72,29.1,17.15,67,36,79.68,80,12.65,81.73-19,176-107.49,182.32-31.61,6.29-56.9-37.72-50.58-69.15C359.18,400.41,384.47,325,454,325c-25.29,50.3-94.84,75.45-101.17,138.31q0,18.87,19,37.72c31.62,25.15,69.55,0,88.52-25.14,44.26-62.87,25.29-176-54.41-202.63-24.61-12.68-49.92-23.7-65.72-42.56C296,174.08,270.66,79.78,308.59,23.2c9.49-12.57,21.25-19.56,34.49-22.09S371,.5,386.24,5.7C504.6,54.63,580.47,192.94,570.12,326.47a321.29,321.29,0,0,1-10.87,50.1,542.24,542.24,0,0,1-18.41,54.13c-7.05,17.73-14.91,35.09-23.29,51.93C512.28,505.84,515.76,511.67,517.74,514Z"/><path class="cls-3" d="M715.73,464.44c-6.06,12.7-5.67,31.55.91,44,19.74,37.32,64,36.43,95.21,16.93-31.48,6.92-69.54,1.41-76.64-36.17-.35-17.29,2.87-33.9,8.3-50.14,6.17-12.94,12.4-25.64,18.51-38.29-6.85,9-13.74,18-20.34,26.72C731.93,440.36,722.87,452.77,715.73,464.44Z"/><path class="cls-3" d="M628.18,460.87c-2.33,34.08,1.92,68.19,13.63,99.39,33.29,81.07,148.11,129,221.45,71.41,2-1.61,3.87-3.37,5.71-5.13a32,32,0,0,1-8.54-11.44c-65.35,37.13-197.77,1.57-212.43-61.25a323.06,323.06,0,0,1-8-63.22c-.66-22,4.79-42.59,8.44-64.55,3.75-11.44,6.88-25.9,12-42.58,19.71-67,6.42-144.44,62.93-164.45,28.09-8.6,56.73,11,74,37.73a120,120,0,0,0-10.81-39c6.45,6.15,19.09,5.9,24.69,12,16.08,16.95,28.78,30.59,38.92,40.12,7.08,3,20,15.35,26.31,15.22,7.11-10,24.67-37.74,23.73-75.94-.19-7.93-.89-29.89-13.46-53-6.5-11.93-9.55-11.84-34.71-38.62-19.31-20.56-57.34-55.21-49.91-78a53,53,0,0,0-2.27,6.12c-5.86,20.73,18.8,39.33,27.9,61.16a764.85,764.85,0,0,1,27.69,78C734.05,124.51,667.09,251.63,654.89,351"/><path class="cls-3" d="M768.54,387.26c-2.13,4.49-4.34,9-6.52,13.51,3.26-4.3,6.55-8.58,9.74-12.93,17.77-25.51,42.53-51.16,41.89-82.59-.33-15.91-6.49-33.33-16.28-48.47C802,300.17,784.18,343.93,768.54,387.26Z"/><path class="cls-3" d="M855.74,525.8l11.77,9.76c-5.71-2.16-11.14-4.17-16.53-6.26-3.48-1.35-6.91-2.84-8.18.43-3.2,0-5.63.63-7.45-.15a28.67,28.67,0,0,1-7.5-5.16,73.84,73.84,0,0,1-6-6.74L820,518.91c2,5.42,3.93,10.83,6,16.43-5.87,4-8.42,2.44-9.39-6.57-3.77.29-3.77.29-3.48,9.59,7.43,4.81,15.62,4.29,24,3.53,3.57-.33,7.27.69,10.9,1.16.62.08,1.48.88,1.76.69,3.92-2.74,7.75-2,11.59.1l1.8-4.31h12.11l.57,2.56,19-3.71L894,541.5c4,.53,7.84,1.08,11.7,1.52.7.08,1.88-.1,2.12-.55,1.19-2.18,2.95-2.23,4.31-.77a10.09,10.09,0,0,1,2.14,4.81c.26,1.33-.29,2.82.22,4.54.81-1.28,1.58-2.58,2.43-3.82.55-.8,1.11-2,1.84-2.18,4.69-.93,9.42-1.71,14.16-2.32,1.22-.16,2.58.83,3.8.68,6.75-.8,13.46-1.9,20.21-2.66,2.95-.33,6,0,9-.09,2.44-.08,4.89-.32,7.33-.49-.54-2.21-.75-4.58-1.71-6.59-1.24-2.64-3.08-5-5.1-8.18h7.22l-14.63-7c4.35-3.05,15.12-2.69,17.83-.17,4.22,3.93,7.34,14.71,5,18.93-.09-1.89-.16-3.27-.28-5.82l-6,8.13c5.58,2.57,1.44,6.2,1.33,8.68,3.92-3.23,8.39-6.43,12.17-10.31,1.13-1.16,1.08-4.56.24-6.3-2.06-4.27-4.9-8.17-7.41-12.19,3.15-2.93,5-2,6.2.74a110.29,110.29,0,0,1,5.37,14.09c.38,1.39-1.28,4.14-2.76,5.09a28.61,28.61,0,0,0-12.71,18.17c1.88-3.06,3.65-6.2,5.67-9.16,2.46-3.59,9.68-5.79,13.79-4.05,3.43,1.45,5.64,4.09,4.68,8.09-2.66,11,.52,20.81,5.87,30.29,13.47,23.86,17.82,49.33,12.78,76.21-3.75,20-14.42,35.69-31.56,46.78-4,2.58-5.54,5.31-4.69,10a16.25,16.25,0,0,1-1.08,8c-2.15,5.92-.6,9.75,5.33,11.85a21.77,21.77,0,0,0,2.33.75c3.37.8,4.58,2.25,2.88,5.86-1.88,4-.38,6.21,3.52,6.37,9.56.38,12.86,5.62,9.46,16.2-1.44-2-2.71-3.56-3.77-5.25-2.55-4-6-5.09-10-2.6-4.57,2.87-7.12,1.73-9.73-2.81-1.54-2.67-4.84-4.34-8.14-7.13.36-5,.36-5-5.89-9.23-7.48-5.09-7.91-6.7-4.17-14.59.4-.85.09-2,.1-3a18,18,0,0,0-4,.38c-9.12,3-18,7.07-27.35,8.93-40.9,8.14-81.47,7.62-121.15-6.87-1.35-.49-2.76-.82-4.21-1.24-.31.74-.69,1.19-.64,1.57,1.06,7.88.54,9.33-6.53,13.18-4.21,2.29-7.88,4.4-4.49,10.55-5.83-.29-8.39,2.84-10.64,6.92-.77,1.39-4.07,2.87-5.26,2.31-7.16-3.37-13-3.66-16.13,5.55-4-6.84-1.43-13.69,5-15.18,8.4-2,8.4-2,5.71-10.32,2.3-.87,4.65-1.78,7-2.65,5.35-2,7-5.26,5.65-10.66-.77-3.1-.74-6.42-1.68-9.45a10.51,10.51,0,0,0-3.57-5.15c-19-13.76-32.13-31.36-36.06-54.77-2-11.94.63-23.73,4-35.07,4.22-14.29,9.17-28.4,14.53-42.31,4.36-11.3,5.65-22.3.34-33.47a12.7,12.7,0,0,0-5.49-5.39v4.69c-5.15,1.12-8.89-1.16-11.88-4.4a6.58,6.58,0,0,1,2.18-10.31,86.71,86.71,0,0,1,13.77-5c1.65-.43,3.91.76,5.69,1.61,3.39,1.63,6.65,3.54,10,5.34l1-1.66-9.9-6.74,6,.91c.33-.81.55-2.2,1-2.26A109.28,109.28,0,0,1,790.61,518c.67,0,1.81,2.23,2,3.53.88,6.93,8.7,13.1,15.35,10.91l-9.15-5.11,4.37-.64-6.72-9.47c4.08,0,7,.27,9.77-.06,4.92-.57,9.77-1.75,14.7-2.2,2.49-.23,5.08.6,8.83,1.11,3.48-2.91,7.21-3.25,11.45-.14-.61,1.11-2,2.57-1.65,3.2a66.3,66.3,0,0,0,4.66,7.11l1.65-.81a14.49,14.49,0,0,0,0-3.55c-2.47-9.34-4.73-18.71-10.74-26.71-3.2-4.27-5.56-9.15-8.71-13.47-1-1.37-3.3-1.8-4.22-2.26,1.49-4,2.58-8.19,4.61-11.92,2.23-4.11,5.33-7.75,8-11.59l1.56.78a10.33,10.33,0,0,1,0,2.55c-2.62,10-.51,18.67,5.77,27A46.16,46.16,0,0,1,851,511.63a5.6,5.6,0,0,0,.74,2.73c1.29,1.91,2.16,3-.91,4.53-1.34.65-1.32,4.05-2.07,6.75h6.69Zm-70.58,11.78c-4.71-9.34-6.51-10-12.63-4.64Z"/><path class="cls-3" d="M903.42,360.31c-8.36,8.58-10.28,18.83-6.35,29.69,3.18,8.8,7.53,17.2,11.74,25.6,6,11.84,9.86,24,8,37.45-2,14.56-8.85,26.39-19.46,36.19l-1.53-.47c1.35-6.88,2.64-13.78,4.07-20.64,2.35-11.28,5.49-22.57,2.11-34.1-1.95-6.66-5-13-7.16-19.63-2.55-7.83-5.18-15.7-6.82-23.75a28,28,0,0,1,4.65-21.85c2.54-3.68,6.29-6.54,9.5-9.76Z"/><path class="cls-3" d="M861.46,489.78c1.9-7.72,4.07-15.49,5.68-23.37a47,47,0,0,0-6.09-35.13c-5.31-8.57-11.14-16.82-16.42-25.4-13.37-21.67-15.11-44.26-4.08-67.31,2.68-5.62,6.83-10.63,10.83-15.5,1.78-2.16,4.86-3.26,7.61-4.38-10.51,9.07-14.3,21.3-16.65,34-3.24,17.5.23,33.89,9.58,49,4.7,7.61,9.54,15.13,14.08,22.83,13.27,22.47,8.39,43.92-4,64.89C861.93,489.67,861.56,489.73,861.46,489.78Z"/><path class="cls-3" d="M801.53,462.91a15.56,15.56,0,0,1,15.83,15.24,15.88,15.88,0,0,1-15.47,15.76,15.59,15.59,0,0,1-15.68-15.4A15.24,15.24,0,0,1,801.53,462.91Z"/><path class="cls-3" d="M933.54,529.49c-1.45,0-3.35-.59-4.28.1-5.81,4.28-9.93,1.17-13.94-2.83,1.38-2.46,1.38-2.46,9.58-.79-.62-.89-1-1.48-1.42-2s-1-1.18-2-2.31l4.44.88a8.28,8.28,0,0,0,.79-1.21c4.94-12.16,4.25-24.29.63-36.71a222.53,222.53,0,0,1-6.67-29.33A25.88,25.88,0,0,1,927,433.44c-5,10.69-3.89,21.44-.72,32.67l3.82-1.33c-4.7,6.25-.47,11.67,1,17.12,2.89,10.46,4.89,20.9.89,32.31L959.22,522l-2.22.49,3.75,11.66-1.32.62c-3.71-2.09-7.21-4.88-11.19-6.08s-8.74.25-12.47-4.41l5.07,1.29.56-.89-10-8.21c-1.06,2.27-2.2,4.71-3.28,7l5.28,6.12Z"/><path class="cls-3" d="M946.36,383.37c1.62-10.67-3.7-18.46-8.94-26.27-5.42-8.07-9.9-16.36-8.84-26.62,1.4-13.48,13.23-24,26.93-22.85-1.43,1-2.31,1.76-3.29,2.36-13.19,8.09-17,20.57-11,34.76a242.85,242.85,0,0,1,9.32,24.89C952.06,374.87,950.09,379.41,946.36,383.37Z"/><path class="cls-3" d="M972.73,493.42a12.18,12.18,0,0,1-12.09,12.13,12.43,12.43,0,0,1-12.21-12.11,12.15,12.15,0,0,1,12.2-12A11.9,11.9,0,0,1,972.73,493.42Z"/><path class="cls-3" d="M997.16,522.79c8.18-3.55,14.6,1.36,21.31,3.56,5.43,1.79,5.86,9.56.9,12.48-3.84,2.26-8.16,3.71-12.12,5.45-1.49-4.13-2.54-7.85-4.16-11.29S999.23,526.29,997.16,522.79Z"/><path class="cls-3" d="M901.35,537.56l.46-3a27.09,27.09,0,0,0-5.26,1c-3.28,1.28-5,.05-6.67-2.76-.91-1.5-3.2-2.12-4.64-3.39-2.29-2-4.4-4.23-6.59-6.36l.94-1.89,11.31,1.56c6.33-6.13,11.41-5.53,15.37,2.66l7.92-3.73,1.3,1.33c-7.54,2.56-10.49,8.74-12.62,15.56Z"/><path class="cls-3" d="M821.79,404.17a10,10,0,1,1-10-10.24A9.94,9.94,0,0,1,821.79,404.17Z"/><path class="cls-3" d="M855.74,525.8l-.25-.16-3.64-4.32.67-1.52,15.81,4.68.54-1-7.22-6.25,4.93.54-4.88-4.13h20.61l.48,2.08-9.87,4.23c.33,2.16.85,5.58,1.33,8.7C867.15,534.4,861.64,528.91,855.74,525.8Z"/><path class="cls-3" d="M960.08,429.61a8,8,0,1,1-8-8.18A8,8,0,0,1,960.08,429.61Z"/><path class="cls-3" d="M885.34,410.14a8.1,8.1,0,0,1-16.19-.21,8.3,8.3,0,0,1,8-7.79A8.18,8.18,0,0,1,885.34,410.14Z"/><path class="cls-3" d="M834.53,505a8,8,0,1,1-7.87-8.19A7.9,7.9,0,0,1,834.53,505Z"/><path class="cls-3" d="M942.17,412.22c-3.19-.51-5.68-2.37-5.64-6.25s2.36-6,6.17-6.14A6.39,6.39,0,0,1,949,406C949,409.22,945.89,412.23,942.17,412.22Z"/><path class="cls-3" d="M882.47,334.7c1.27,1.89,3.72,4,3.48,5.64s-2.94,4.07-4.87,4.4c-1.21.2-4.1-2.72-4.19-4.35-.1-1.83,2.11-3.79,3.31-5.69Z"/><path class="cls-3" d="M822.92,360.57c-1.87,1.3-3.87,3.79-5.56,3.59s-4.26-2.77-4.62-4.66c-.24-1.22,2.63-4.19,4.29-4.34,1.83-.16,3.87,2,5.81,3.18C822.87,359.08,822.89,359.82,822.92,360.57Z"/><path class="cls-3" d="M875.23,502.55c-1.18-1.94-3.14-3.8-3.37-5.85a3.79,3.79,0,0,1,4.95-4.26c1.81.51,4.26,3,4.25,4.56,0,1.88-2.35,3.75-3.69,5.63Z"/><path class="cls-3" d="M967.06,461.84c-1.27-1.88-3.76-3.95-3.5-5.6.28-1.8,2.94-4.1,4.87-4.45,1.21-.22,4.11,2.71,4.22,4.37s-2.09,3.78-3.29,5.68Z"/><path class="cls-3" d="M973.7,355.48c-1.92,1.16-3.94,3.35-5.74,3.18s-4.65-3.1-4.4-4.25c.42-1.94,2.77-4.51,4.62-4.79,1.63-.25,3.69,2.27,5.56,3.56Z"/><path class="cls-3" d="M853,456.05c-1.93,1.17-4,3.39-5.75,3.22s-4.59-3.09-4.36-4.34c.34-1.89,2.77-4.46,4.61-4.74,1.64-.24,3.68,2.25,5.55,3.54Z"/><path class="cls-3" d="M927.33,385.41c-1.82,1.11-3.88,3.34-5.41,3s-3.76-3-3.89-4.76c-.09-1.27,2.76-3.87,4.26-3.85,1.73,0,3.42,2.29,5.14,3.59Z"/><path class="cls-3" d="M890.29,511.56c5.06,4.35,12.68-.93,17.37,5.64-4.9,0-9.85.32-14.69-.21-1.4-.15-2.53-2.78-3.77-4.28Z"/><path class="cls-3" d="M921.27,413c-1.18-1.73-3.32-3.49-3.28-5.2,0-1.52,2.64-4.31,3.81-4.17,1.76.22,4.29,2.33,4.58,4s-1.9,3.55-3,5.35Z"/><path class="cls-3" d="M933.39,529.61l12.21,1.18-.13.71-10.92,2.72c.26-.57.54-1.21,1.06-2.39l-5.88,1.85,3.81-4.19Z"/><path class="cls-3" d="M912.52,513.05c4.38.23,8.88,0,12.88,1.84-.19.88-.39,1.76-.59,2.64l-12.62-2.79Z"/><path class="cls-3" d="M785.16,537.58l-12.63-4.64C778.65,527.6,780.45,528.24,785.16,537.58Z"/><path class="cls-4" d="M878.43,239c-1.84,1.13-9.26-4.17-10.2-11.15-.62-4.63,1.63-9.75,3.52-9.78s3.15,4.4,4.83,9.79C878.39,233.7,879.79,238.2,878.43,239Z"/></g></g></g></svg>